M48
;Layer_Color=9474304
;FILE_FORMAT=2:5
INCH,LZ
;TYPE=PLATED
T1F00S00C0.01575
T2F00S00C0.01968
T3F00S00C0.02362
T4F00S00C0.02756
T5F00S00C0.02800
T6F00S00C0.03150
T7F00S00C0.03543
T9F00S00C0.03937
T10F00S00C0.04724
T11F00S00C0.12323
%
T01
X00565Y00355
X0062799
X0065949Y0040224
X005965
X005335
T02
X00218Y0018215
Y00379
X0079158Y0073
X0098843
X0174Y0184658
Y0204343
T03
X01565Y0086783
X0134Y0087283
X0106717Y0057
X0071284
X0051949Y0063
X0033051
X0021Y0088784
Y0124216
Y0185784
Y0221217
X0134Y0122716
X01565Y0122216
T04
X0048047Y0233319
X0058953
X0069858
X0080764
X0091669
X0102575
X011348
X0124386
X0135291
X0146197
X0140744Y02445
X0129839
X0118933
X0108028
X0097122
X0086216
X0075311
X0064406
X00535
X015165
X0162555
X0173461
X0168008Y0233319
X0157102
X0178913
T05
X01675Y01275
T06
X0175063Y006
X0182937
X0201563
X0209437
X021Y008
X02
X019
X018
X01455Y0068
X0137626
X00985Y0091
X00885
X00785
X00685
X00585
X00485
X00385
Y0121
X00485
X00585
X00685
X00785
X00885
X00985
X01Y0142
X009
X008
X007
X006
X005
X004
Y0202
X005
X006
X007
X008
X009
X01
X011
X012
X013
X014
Y0142
X013
X012
X011
X015
X01805Y0157
X01905
X02005
X02105
Y0127
X02005
X01905
X01805
X018Y011
X019
X02
X021
X015Y0202
T07
X0021Y0141
Y0151
Y01645
Y01745
X00505Y0218
X00605
T09
X0189114Y0184142
Y0201858
X0215886
Y0184142
T10
X01625Y00145
X0182185
X020187
X0135528Y0020315
X0115842
X0106Y004
X0096157
X0125685
X0135528
T11
X0020882Y023891
X0206079
M30
