G04 Layer_Color=255*
%FSLAX25Y25*%
%MOIN*%
G70*
G01*
G75*
%ADD11C,0.04724*%
%ADD12R,0.08661X0.07087*%
%ADD13R,0.07087X0.07087*%
%ADD14C,0.06693*%
%ADD15R,0.06693X0.06693*%
%ADD16C,0.06299*%
%ADD17C,0.02165*%
%ADD18R,0.05906X0.09449*%
%ADD19C,0.06000*%
%ADD20C,0.05118*%
%ADD21R,0.06693X0.06693*%
%ADD22R,0.05906X0.05906*%
%ADD23C,0.05906*%
%ADD24C,0.07874*%
%ADD25C,0.04331*%
%ADD26R,0.12992X0.12992*%
%ADD27R,0.07480X0.07480*%
%ADD28C,0.07480*%
D11*
X115842Y40000D02*
D03*
X135528Y10472D02*
D03*
X96157D02*
D03*
Y20315D02*
D03*
X135528D02*
D03*
D12*
X115842D02*
D03*
D13*
X96157Y40000D02*
D03*
X135528D02*
D03*
X106000D02*
D03*
X125685D02*
D03*
D14*
X21000Y141000D02*
D03*
X88500Y121000D02*
D03*
X78500D02*
D03*
X68500D02*
D03*
X58500D02*
D03*
X48500D02*
D03*
X38500D02*
D03*
X98500Y91000D02*
D03*
X88500D02*
D03*
X78500D02*
D03*
X68500D02*
D03*
X58500D02*
D03*
X48500D02*
D03*
X38500D02*
D03*
X50000Y142000D02*
D03*
X60000D02*
D03*
X70000D02*
D03*
X80000D02*
D03*
X90000D02*
D03*
X100000D02*
D03*
X110000D02*
D03*
X120000D02*
D03*
X130000D02*
D03*
X80000Y202000D02*
D03*
X90000D02*
D03*
X100000D02*
D03*
X110000D02*
D03*
X120000D02*
D03*
X130000D02*
D03*
X140000D02*
D03*
X150000D02*
D03*
Y142000D02*
D03*
X140000D02*
D03*
X60000Y202000D02*
D03*
X50000D02*
D03*
X40000D02*
D03*
X70000D02*
D03*
X50500Y218000D02*
D03*
X200500Y157000D02*
D03*
X190500D02*
D03*
X180500D02*
D03*
Y127000D02*
D03*
X190500D02*
D03*
X200500D02*
D03*
X210500D02*
D03*
X200000Y110000D02*
D03*
X190000D02*
D03*
X180000D02*
D03*
Y80000D02*
D03*
X190000D02*
D03*
X200000D02*
D03*
X210000D02*
D03*
X21000Y164500D02*
D03*
D15*
Y151000D02*
D03*
X98500Y121000D02*
D03*
X40000Y142000D02*
D03*
X210500Y157000D02*
D03*
X210000Y110000D02*
D03*
X21000Y174500D02*
D03*
D16*
Y221217D02*
D03*
Y185784D02*
D03*
Y124216D02*
D03*
Y88784D02*
D03*
X71284Y57000D02*
D03*
X106717D02*
D03*
X134000Y122716D02*
D03*
Y87283D02*
D03*
X156500Y86783D02*
D03*
Y122216D02*
D03*
D17*
X65949Y40224D02*
D03*
X62799Y35500D02*
D03*
X59650Y40224D02*
D03*
X56500Y35500D02*
D03*
X53350Y40224D02*
D03*
D18*
X74217Y17980D02*
D03*
X45083D02*
D03*
D19*
X79158Y73000D02*
D03*
X98843D02*
D03*
X174000Y204343D02*
D03*
Y184658D02*
D03*
X21800Y18215D02*
D03*
Y37900D02*
D03*
D20*
X33051Y63000D02*
D03*
X51949D02*
D03*
D21*
X60500Y218000D02*
D03*
D22*
X209437Y60000D02*
D03*
X175063D02*
D03*
X145500Y68000D02*
D03*
D23*
X201563Y60000D02*
D03*
X182937D02*
D03*
X137626Y68000D02*
D03*
D24*
X162500Y14500D02*
D03*
X201870D02*
D03*
X182185D02*
D03*
D25*
X53500Y244500D02*
D03*
X64406D02*
D03*
X75311D02*
D03*
X86216D02*
D03*
X97122D02*
D03*
X108028D02*
D03*
X118933D02*
D03*
X129839D02*
D03*
X140744D02*
D03*
X151650D02*
D03*
X162555D02*
D03*
X173461D02*
D03*
X48047Y233319D02*
D03*
X58953D02*
D03*
X69858D02*
D03*
X80764D02*
D03*
X91669D02*
D03*
X102575D02*
D03*
X113480D02*
D03*
X124386D02*
D03*
X135291D02*
D03*
X146197D02*
D03*
X157102D02*
D03*
X168008D02*
D03*
X178913D02*
D03*
D26*
X20882Y238910D02*
D03*
X206079D02*
D03*
D27*
X189114Y201858D02*
D03*
D28*
Y184142D02*
D03*
X215886D02*
D03*
Y201858D02*
D03*
M02*
