G04 Layer_Color=32896*
%FSLAX25Y25*%
%MOIN*%
G70*
G01*
G75*
%ADD10C,0.01000*%
%ADD57C,0.00100*%
%ADD58C,0.00900*%
G36*
X122400Y254586D02*
X122481Y254575D01*
X122563Y254555D01*
X122639Y254535D01*
X122771Y254474D01*
X122832Y254443D01*
X122888Y254408D01*
X122939Y254372D01*
X122980Y254341D01*
X123021Y254311D01*
X123051Y254280D01*
X123077Y254260D01*
X123092Y254240D01*
X123102Y254229D01*
X123107Y254224D01*
X123163Y254153D01*
X123209Y254082D01*
X123255Y254006D01*
X123291Y253929D01*
X123321Y253853D01*
X123346Y253782D01*
X123382Y253634D01*
X123397Y253568D01*
X123408Y253512D01*
X123413Y253456D01*
X123418Y253410D01*
X123423Y253369D01*
Y253344D01*
Y253323D01*
Y253318D01*
X123418Y253206D01*
X123408Y253099D01*
X123392Y253003D01*
X123372Y252911D01*
X123346Y252825D01*
X123321Y252748D01*
X123291Y252677D01*
X123260Y252616D01*
X123234Y252560D01*
X123204Y252509D01*
X123179Y252468D01*
X123153Y252433D01*
X123133Y252407D01*
X123117Y252387D01*
X123107Y252377D01*
X123102Y252372D01*
X123041Y252316D01*
X122975Y252265D01*
X122909Y252219D01*
X122837Y252178D01*
X122766Y252148D01*
X122700Y252122D01*
X122568Y252081D01*
X122507Y252066D01*
X122451Y252056D01*
X122400Y252051D01*
X122359Y252046D01*
X122323Y252041D01*
X122273D01*
X122196Y252046D01*
X122130Y252051D01*
X122003Y252076D01*
X121891Y252112D01*
X121799Y252158D01*
X121728Y252199D01*
X121697Y252219D01*
X121672Y252234D01*
X121657Y252249D01*
X121641Y252260D01*
X121636Y252270D01*
X121631D01*
X121550Y252361D01*
X121484Y252453D01*
X121433Y252539D01*
X121392Y252621D01*
X121361Y252692D01*
X121341Y252748D01*
X121336Y252769D01*
X121331Y252784D01*
X121326Y252794D01*
Y252799D01*
X121524Y252865D01*
X121565Y252774D01*
X121611Y252692D01*
X121657Y252621D01*
X121702Y252565D01*
X121743Y252519D01*
X121774Y252484D01*
X121794Y252463D01*
X121804Y252458D01*
X121870Y252412D01*
X121942Y252377D01*
X122013Y252351D01*
X122084Y252336D01*
X122140Y252326D01*
X122191Y252316D01*
X122232D01*
X122293Y252321D01*
X122349Y252326D01*
X122456Y252351D01*
X122547Y252387D01*
X122624Y252428D01*
X122690Y252468D01*
X122736Y252504D01*
X122761Y252529D01*
X122766Y252539D01*
X122771D01*
X122807Y252585D01*
X122837Y252636D01*
X122888Y252748D01*
X122924Y252865D01*
X122950Y252988D01*
X122965Y253094D01*
X122970Y253140D01*
Y253181D01*
X122975Y253217D01*
Y253242D01*
Y253257D01*
Y253262D01*
X121265D01*
X121270Y253400D01*
X121280Y253522D01*
X121295Y253634D01*
X121316Y253741D01*
X121336Y253832D01*
X121367Y253919D01*
X121392Y253995D01*
X121423Y254062D01*
X121453Y254122D01*
X121478Y254168D01*
X121509Y254209D01*
X121529Y254245D01*
X121550Y254270D01*
X121565Y254285D01*
X121575Y254296D01*
X121580Y254301D01*
X121641Y254352D01*
X121702Y254397D01*
X121764Y254433D01*
X121825Y254469D01*
X121886Y254499D01*
X121947Y254520D01*
X122064Y254555D01*
X122115Y254565D01*
X122160Y254575D01*
X122206Y254581D01*
X122242Y254586D01*
X122273Y254591D01*
X122313D01*
X122400Y254586D01*
D02*
G37*
G36*
X132412Y255812D02*
X132442Y255787D01*
X132468Y255772D01*
X132488Y255762D01*
X132503Y255751D01*
X132514Y255746D01*
X132524Y255741D01*
X132554Y255731D01*
X132590Y255726D01*
X132631D01*
X132666Y255731D01*
X132707Y255736D01*
X132783Y255756D01*
X132814Y255767D01*
X132839Y255772D01*
X132860Y255782D01*
X132865D01*
X132982Y255812D01*
X133038Y255823D01*
X133084Y255828D01*
X133124Y255833D01*
X133180D01*
X133302Y255828D01*
X133414Y255807D01*
X133521Y255782D01*
X133623Y255746D01*
X133715Y255705D01*
X133801Y255660D01*
X133878Y255614D01*
X133949Y255563D01*
X134015Y255512D01*
X134066Y255461D01*
X134117Y255415D01*
X134153Y255375D01*
X134183Y255339D01*
X134204Y255314D01*
X134219Y255293D01*
X134224Y255288D01*
X134290Y255181D01*
X134351Y255074D01*
X134402Y254962D01*
X134443Y254845D01*
X134483Y254728D01*
X134514Y254616D01*
X134539Y254509D01*
X134560Y254402D01*
X134575Y254301D01*
X134585Y254214D01*
X134595Y254133D01*
X134600Y254062D01*
Y254006D01*
X134606Y253960D01*
Y253934D01*
Y253924D01*
X134600Y253751D01*
X134590Y253583D01*
X134570Y253435D01*
X134550Y253293D01*
X134524Y253166D01*
X134494Y253048D01*
X134458Y252942D01*
X134422Y252850D01*
X134392Y252769D01*
X134356Y252697D01*
X134326Y252636D01*
X134300Y252585D01*
X134280Y252550D01*
X134259Y252519D01*
X134249Y252504D01*
X134244Y252499D01*
X134173Y252417D01*
X134097Y252346D01*
X134020Y252285D01*
X133939Y252234D01*
X133857Y252188D01*
X133776Y252153D01*
X133695Y252122D01*
X133618Y252097D01*
X133547Y252081D01*
X133481Y252066D01*
X133420Y252056D01*
X133369Y252046D01*
X133328D01*
X133292Y252041D01*
X133267D01*
X133191Y252046D01*
X133119Y252056D01*
X133053Y252066D01*
X132987Y252086D01*
X132865Y252132D01*
X132763Y252188D01*
X132717Y252214D01*
X132682Y252244D01*
X132646Y252270D01*
X132615Y252290D01*
X132595Y252310D01*
X132580Y252326D01*
X132570Y252331D01*
X132564Y252336D01*
X132463Y252453D01*
X132371Y252585D01*
X132300Y252718D01*
X132244Y252845D01*
X132223Y252901D01*
X132203Y252957D01*
X132188Y253008D01*
X132173Y253048D01*
X132162Y253084D01*
X132157Y253110D01*
X132152Y253125D01*
Y253130D01*
X132376Y253222D01*
X132417Y253069D01*
X132468Y252937D01*
X132524Y252825D01*
X132575Y252728D01*
X132600Y252687D01*
X132626Y252657D01*
X132646Y252626D01*
X132666Y252601D01*
X132682Y252585D01*
X132692Y252570D01*
X132697Y252565D01*
X132702Y252560D01*
X132748Y252519D01*
X132789Y252489D01*
X132885Y252433D01*
X132972Y252392D01*
X133058Y252366D01*
X133130Y252346D01*
X133191Y252341D01*
X133211Y252336D01*
X133241D01*
X133323Y252341D01*
X133399Y252356D01*
X133470Y252377D01*
X133537Y252402D01*
X133593Y252433D01*
X133649Y252468D01*
X133695Y252504D01*
X133735Y252545D01*
X133776Y252585D01*
X133807Y252621D01*
X133832Y252657D01*
X133852Y252687D01*
X133873Y252713D01*
X133883Y252738D01*
X133893Y252748D01*
Y252753D01*
X133929Y252835D01*
X133959Y252926D01*
X134010Y253120D01*
X134041Y253318D01*
X134066Y253507D01*
X134076Y253598D01*
X134081Y253680D01*
X134086Y253751D01*
Y253817D01*
X134091Y253873D01*
Y253909D01*
Y253934D01*
Y253944D01*
X134086Y254077D01*
X134081Y254199D01*
X134071Y254316D01*
X134056Y254428D01*
X134041Y254530D01*
X134020Y254626D01*
X134000Y254713D01*
X133974Y254794D01*
X133954Y254866D01*
X133934Y254932D01*
X133913Y254988D01*
X133898Y255034D01*
X133883Y255069D01*
X133873Y255095D01*
X133862Y255110D01*
Y255115D01*
X133817Y255196D01*
X133766Y255268D01*
X133715Y255329D01*
X133664Y255385D01*
X133608Y255426D01*
X133557Y255466D01*
X133506Y255497D01*
X133455Y255522D01*
X133404Y255538D01*
X133364Y255553D01*
X133323Y255563D01*
X133287Y255573D01*
X133262D01*
X133236Y255578D01*
X133221D01*
X133109Y255568D01*
X133012Y255548D01*
X132926Y255517D01*
X132850Y255482D01*
X132794Y255441D01*
X132748Y255410D01*
X132722Y255390D01*
X132712Y255380D01*
X132676Y255339D01*
X132641Y255298D01*
X132575Y255202D01*
X132519Y255095D01*
X132468Y254993D01*
X132432Y254901D01*
X132412Y254861D01*
X132402Y254830D01*
X132391Y254800D01*
X132381Y254779D01*
X132376Y254764D01*
Y254759D01*
X132152Y254815D01*
X132371Y255838D01*
X132412Y255812D01*
D02*
G37*
G36*
X59014Y254586D02*
X59106Y254575D01*
X59192Y254555D01*
X59274Y254535D01*
X59350Y254504D01*
X59421Y254474D01*
X59487Y254443D01*
X59543Y254408D01*
X59599Y254372D01*
X59645Y254341D01*
X59686Y254311D01*
X59716Y254280D01*
X59742Y254260D01*
X59762Y254240D01*
X59772Y254229D01*
X59777Y254224D01*
X59834Y254153D01*
X59884Y254082D01*
X59930Y254006D01*
X59971Y253929D01*
X60001Y253853D01*
X60027Y253782D01*
X60068Y253634D01*
X60083Y253568D01*
X60093Y253512D01*
X60098Y253456D01*
X60103Y253410D01*
X60108Y253369D01*
Y253344D01*
Y253323D01*
Y253318D01*
X60103Y253206D01*
X60093Y253099D01*
X60078Y253003D01*
X60057Y252911D01*
X60037Y252825D01*
X60012Y252748D01*
X59981Y252677D01*
X59951Y252616D01*
X59925Y252560D01*
X59895Y252509D01*
X59869Y252468D01*
X59844Y252433D01*
X59828Y252407D01*
X59813Y252387D01*
X59803Y252377D01*
X59798Y252372D01*
X59737Y252316D01*
X59671Y252265D01*
X59604Y252219D01*
X59533Y252178D01*
X59467Y252148D01*
X59396Y252122D01*
X59263Y252081D01*
X59197Y252066D01*
X59141Y252056D01*
X59090Y252051D01*
X59044Y252046D01*
X59009Y252041D01*
X58958D01*
X58882Y252046D01*
X58810Y252051D01*
X58673Y252076D01*
X58561Y252112D01*
X58464Y252158D01*
X58424Y252178D01*
X58393Y252199D01*
X58363Y252219D01*
X58337Y252234D01*
X58317Y252249D01*
X58301Y252260D01*
X58296Y252270D01*
X58291D01*
X58205Y252361D01*
X58133Y252463D01*
X58072Y252565D01*
X58026Y252662D01*
X57991Y252748D01*
X57981Y252784D01*
X57971Y252819D01*
X57960Y252845D01*
X57955Y252865D01*
X57950Y252875D01*
Y252881D01*
X58149Y252952D01*
X58189Y252850D01*
X58235Y252758D01*
X58286Y252682D01*
X58332Y252616D01*
X58373Y252560D01*
X58408Y252519D01*
X58429Y252499D01*
X58439Y252489D01*
X58510Y252433D01*
X58586Y252387D01*
X58663Y252356D01*
X58734Y252336D01*
X58800Y252326D01*
X58851Y252321D01*
X58872Y252316D01*
X58897D01*
X58973Y252321D01*
X59039Y252326D01*
X59106Y252341D01*
X59162Y252356D01*
X59218Y252377D01*
X59263Y252397D01*
X59345Y252448D01*
X59411Y252499D01*
X59452Y252539D01*
X59477Y252570D01*
X59487Y252575D01*
Y252580D01*
X59543Y252687D01*
X59589Y252804D01*
X59620Y252921D01*
X59640Y253038D01*
X59650Y253135D01*
X59655Y253181D01*
Y253217D01*
X59660Y253252D01*
Y253273D01*
Y253288D01*
Y253293D01*
X59650Y253466D01*
X59640Y253547D01*
X59630Y253619D01*
X59615Y253690D01*
X59594Y253751D01*
X59579Y253812D01*
X59559Y253863D01*
X59538Y253909D01*
X59523Y253949D01*
X59503Y253985D01*
X59487Y254016D01*
X59477Y254036D01*
X59467Y254051D01*
X59457Y254062D01*
Y254066D01*
X59416Y254117D01*
X59375Y254163D01*
X59335Y254199D01*
X59289Y254235D01*
X59248Y254265D01*
X59207Y254285D01*
X59131Y254321D01*
X59060Y254341D01*
X59009Y254352D01*
X58983Y254357D01*
X58958D01*
X58882Y254352D01*
X58815Y254341D01*
X58759Y254326D01*
X58714Y254311D01*
X58683Y254291D01*
X58658Y254275D01*
X58648Y254265D01*
X58642Y254260D01*
X58612Y254224D01*
X58592Y254194D01*
X58581Y254168D01*
X58571Y254143D01*
Y254128D01*
Y254112D01*
Y254107D01*
Y254102D01*
X58581Y254066D01*
X58586Y254046D01*
X58592Y254036D01*
Y254031D01*
X58597Y254021D01*
X58602Y254006D01*
X58607Y253975D01*
X58612Y253944D01*
Y253934D01*
Y253929D01*
X58607Y253888D01*
X58602Y253853D01*
X58592Y253822D01*
X58576Y253797D01*
X58566Y253776D01*
X58556Y253761D01*
X58551Y253756D01*
X58546Y253751D01*
X58515Y253731D01*
X58490Y253715D01*
X58429Y253695D01*
X58403Y253690D01*
X58383Y253685D01*
X58368D01*
X58322Y253690D01*
X58281Y253695D01*
X58250Y253705D01*
X58220Y253720D01*
X58200Y253731D01*
X58184Y253741D01*
X58174Y253746D01*
X58169Y253751D01*
X58144Y253782D01*
X58128Y253817D01*
X58108Y253888D01*
X58103Y253919D01*
X58098Y253944D01*
Y253965D01*
Y253970D01*
Y254011D01*
X58108Y254046D01*
X58133Y254122D01*
X58169Y254194D01*
X58205Y254255D01*
X58245Y254306D01*
X58281Y254346D01*
X58306Y254372D01*
X58312Y254382D01*
X58317D01*
X58403Y254453D01*
X58505Y254504D01*
X58602Y254540D01*
X58698Y254565D01*
X58785Y254581D01*
X58821Y254586D01*
X58856D01*
X58882Y254591D01*
X58917D01*
X59014Y254586D01*
D02*
G37*
G36*
X81008Y255828D02*
X81105Y255812D01*
X81201Y255787D01*
X81288Y255751D01*
X81369Y255711D01*
X81451Y255665D01*
X81522Y255619D01*
X81588Y255573D01*
X81649Y255522D01*
X81700Y255476D01*
X81746Y255431D01*
X81782Y255390D01*
X81812Y255359D01*
X81832Y255329D01*
X81848Y255314D01*
X81853Y255309D01*
X81924Y255207D01*
X81980Y255100D01*
X82036Y254983D01*
X82077Y254866D01*
X82117Y254749D01*
X82148Y254631D01*
X82174Y254520D01*
X82194Y254408D01*
X82214Y254306D01*
X82224Y254209D01*
X82235Y254122D01*
X82240Y254051D01*
Y253990D01*
X82245Y253944D01*
Y253914D01*
Y253909D01*
Y253904D01*
X82240Y253756D01*
X82230Y253619D01*
X82214Y253486D01*
X82189Y253359D01*
X82163Y253242D01*
X82133Y253135D01*
X82102Y253033D01*
X82072Y252942D01*
X82041Y252860D01*
X82006Y252784D01*
X81980Y252723D01*
X81955Y252672D01*
X81929Y252631D01*
X81914Y252601D01*
X81904Y252580D01*
X81899Y252575D01*
X81832Y252484D01*
X81756Y252397D01*
X81680Y252326D01*
X81603Y252265D01*
X81527Y252214D01*
X81451Y252173D01*
X81374Y252137D01*
X81303Y252107D01*
X81232Y252086D01*
X81171Y252071D01*
X81115Y252056D01*
X81064Y252051D01*
X81023Y252046D01*
X80993Y252041D01*
X80967D01*
X80830Y252051D01*
X80703Y252071D01*
X80590Y252102D01*
X80494Y252143D01*
X80417Y252178D01*
X80382Y252193D01*
X80356Y252209D01*
X80336Y252219D01*
X80321Y252229D01*
X80311Y252239D01*
X80305D01*
X80250Y252280D01*
X80199Y252326D01*
X80102Y252433D01*
X80015Y252545D01*
X79939Y252657D01*
X79878Y252764D01*
X79852Y252809D01*
X79832Y252845D01*
X79812Y252881D01*
X79802Y252906D01*
X79791Y252921D01*
Y252926D01*
X80031Y252998D01*
X80102Y252870D01*
X80173Y252764D01*
X80239Y252672D01*
X80305Y252601D01*
X80361Y252545D01*
X80402Y252504D01*
X80433Y252484D01*
X80438Y252473D01*
X80443D01*
X80529Y252422D01*
X80621Y252382D01*
X80708Y252356D01*
X80789Y252336D01*
X80860Y252326D01*
X80916Y252321D01*
X80937Y252316D01*
X80967D01*
X81038Y252321D01*
X81105Y252331D01*
X81171Y252351D01*
X81232Y252377D01*
X81339Y252438D01*
X81430Y252509D01*
X81502Y252580D01*
X81532Y252611D01*
X81552Y252641D01*
X81573Y252667D01*
X81588Y252687D01*
X81593Y252697D01*
X81598Y252702D01*
X81639Y252779D01*
X81675Y252865D01*
X81710Y252957D01*
X81736Y253054D01*
X81776Y253257D01*
X81807Y253451D01*
X81817Y253542D01*
X81822Y253629D01*
X81832Y253705D01*
Y253771D01*
X81838Y253827D01*
Y253868D01*
Y253893D01*
Y253904D01*
X81832Y254072D01*
X81827Y254229D01*
X81812Y254372D01*
X81792Y254499D01*
X81771Y254616D01*
X81746Y254723D01*
X81721Y254820D01*
X81690Y254906D01*
X81665Y254978D01*
X81639Y255039D01*
X81614Y255095D01*
X81593Y255135D01*
X81573Y255166D01*
X81558Y255191D01*
X81552Y255202D01*
X81547Y255207D01*
X81491Y255273D01*
X81436Y255329D01*
X81379Y255380D01*
X81323Y255420D01*
X81267Y255456D01*
X81217Y255487D01*
X81166Y255512D01*
X81120Y255533D01*
X81033Y255558D01*
X80998Y255568D01*
X80967Y255573D01*
X80942Y255578D01*
X80906D01*
X80850Y255573D01*
X80799Y255568D01*
X80692Y255538D01*
X80596Y255497D01*
X80514Y255451D01*
X80443Y255400D01*
X80387Y255359D01*
X80366Y255344D01*
X80351Y255329D01*
X80346Y255324D01*
X80341Y255319D01*
X80295Y255263D01*
X80250Y255196D01*
X80242Y255181D01*
X80570Y255062D01*
X80575Y255069D01*
X80596Y255095D01*
X80601Y255105D01*
X80606D01*
X80631Y255125D01*
X80662Y255135D01*
X80718Y255156D01*
X80743D01*
X80759Y255161D01*
X80779D01*
X80845Y255156D01*
X80906Y255135D01*
X80967Y255110D01*
X81023Y255074D01*
X81079Y255034D01*
X81130Y254988D01*
X81217Y254891D01*
X81293Y254794D01*
X81323Y254749D01*
X81349Y254708D01*
X81369Y254672D01*
X81385Y254647D01*
X81390Y254626D01*
X81395Y254621D01*
X81441Y254525D01*
X81481Y254423D01*
X81517Y254331D01*
X81542Y254240D01*
X81593Y254066D01*
X81608Y253990D01*
X81624Y253919D01*
X81634Y253853D01*
X81639Y253792D01*
X81644Y253741D01*
X81649Y253695D01*
X81654Y253659D01*
Y253634D01*
Y253619D01*
Y253613D01*
X81649Y253486D01*
X81634Y253379D01*
X81614Y253283D01*
X81588Y253206D01*
X81568Y253145D01*
X81547Y253104D01*
X81532Y253079D01*
X81527Y253069D01*
X81476Y253008D01*
X81430Y252962D01*
X81379Y252931D01*
X81339Y252911D01*
X81298Y252896D01*
X81267Y252891D01*
X81247Y252886D01*
X81242D01*
X81181Y252891D01*
X81125Y252901D01*
X81074Y252916D01*
X81033Y252931D01*
X80998Y252947D01*
X80967Y252962D01*
X80952Y252972D01*
X80947Y252977D01*
X80901Y253013D01*
X80870Y253059D01*
X80845Y253099D01*
X80830Y253145D01*
X80820Y253181D01*
X80814Y253211D01*
X80809Y253237D01*
Y253242D01*
X80804Y253186D01*
X80794Y253135D01*
X80784Y253089D01*
X80764Y253054D01*
X80748Y253023D01*
X80738Y253003D01*
X80728Y252988D01*
X80723Y252982D01*
X80687Y252952D01*
X80652Y252926D01*
X80616Y252911D01*
X80580Y252896D01*
X80550Y252891D01*
X80524Y252886D01*
X80504D01*
X80453Y252891D01*
X80402Y252901D01*
X80351Y252921D01*
X80305Y252942D01*
X80219Y253003D01*
X80143Y253069D01*
X80081Y253135D01*
X80036Y253196D01*
X80015Y253217D01*
X80005Y253237D01*
X79995Y253247D01*
Y253252D01*
X79954Y253323D01*
X79919Y253400D01*
X79868Y253568D01*
X79827Y253736D01*
X79796Y253899D01*
X79791Y253970D01*
X79781Y254041D01*
X79776Y254102D01*
Y254158D01*
X79771Y254204D01*
Y254235D01*
Y254260D01*
Y254265D01*
X79776Y254413D01*
X79786Y254550D01*
X79802Y254677D01*
X79822Y254794D01*
X79847Y254901D01*
X79878Y254998D01*
X79909Y255090D01*
X79939Y255166D01*
X79970Y255237D01*
X80000Y255293D01*
X80031Y255344D01*
X80056Y255385D01*
X80076Y255415D01*
X80092Y255441D01*
X80102Y255451D01*
X80107Y255456D01*
X80168Y255522D01*
X80234Y255578D01*
X80305Y255629D01*
X80372Y255675D01*
X80438Y255711D01*
X80504Y255741D01*
X80570Y255767D01*
X80631Y255787D01*
X80687Y255802D01*
X80738Y255812D01*
X80789Y255823D01*
X80830Y255828D01*
X80860Y255833D01*
X80906D01*
X81008Y255828D01*
D02*
G37*
G36*
X73078Y255156D02*
X73098Y255044D01*
X73124Y254947D01*
X73154Y254871D01*
X73185Y254805D01*
X73215Y254754D01*
X73241Y254718D01*
X73261Y254698D01*
X73266Y254693D01*
X73322Y254647D01*
X73383Y254611D01*
X73444Y254586D01*
X73505Y254570D01*
X73556Y254560D01*
X73597Y254550D01*
X73861D01*
Y254316D01*
X73225D01*
Y252896D01*
X73220Y252748D01*
X73200Y252621D01*
X73174Y252509D01*
X73139Y252422D01*
X73108Y252351D01*
X73083Y252305D01*
X73062Y252275D01*
X73057Y252265D01*
X72986Y252199D01*
X72905Y252148D01*
X72818Y252112D01*
X72732Y252086D01*
X72655Y252071D01*
X72594Y252066D01*
X72569Y252061D01*
X72538D01*
X72426Y252071D01*
X72324Y252092D01*
X72238Y252127D01*
X72167Y252163D01*
X72105Y252199D01*
X72065Y252234D01*
X72039Y252255D01*
X72029Y252265D01*
X71963Y252346D01*
X71907Y252438D01*
X71866Y252529D01*
X71831Y252621D01*
X71810Y252697D01*
X71800Y252733D01*
X71795Y252764D01*
X71790Y252784D01*
X71785Y252804D01*
Y252814D01*
Y252819D01*
X71993Y252886D01*
X72014Y252789D01*
X72039Y252702D01*
X72065Y252631D01*
X72095Y252575D01*
X72116Y252535D01*
X72136Y252504D01*
X72151Y252484D01*
X72156Y252479D01*
X72202Y252438D01*
X72248Y252407D01*
X72299Y252387D01*
X72350Y252372D01*
X72391Y252361D01*
X72426Y252356D01*
X72457D01*
X72523Y252361D01*
X72579Y252372D01*
X72625Y252382D01*
X72660Y252402D01*
X72691Y252417D01*
X72716Y252428D01*
X72727Y252438D01*
X72732Y252443D01*
X72762Y252484D01*
X72782Y252539D01*
X72798Y252601D01*
X72808Y252662D01*
X72813Y252718D01*
X72818Y252764D01*
Y252784D01*
Y252799D01*
Y252804D01*
Y252809D01*
Y254316D01*
X71973D01*
Y254550D01*
X72818D01*
Y255370D01*
X73052D01*
X73078Y255156D01*
D02*
G37*
G36*
X90480Y254316D02*
X90343D01*
X90297Y254311D01*
X90256Y254296D01*
X90231Y254275D01*
X90221Y254270D01*
X90185Y254240D01*
X90160Y254204D01*
X90149Y254179D01*
X90144Y254173D01*
Y254168D01*
X89432Y252326D01*
X89462Y252214D01*
X89483Y252163D01*
X89498Y252117D01*
X89513Y252076D01*
X89524Y252046D01*
X89529Y252026D01*
X89534Y252020D01*
X89554Y251964D01*
X89579Y251919D01*
X89600Y251873D01*
X89615Y251837D01*
X89635Y251807D01*
X89646Y251786D01*
X89651Y251771D01*
X89656Y251766D01*
X89671Y251735D01*
X89686Y251720D01*
X89697Y251710D01*
X89702Y251705D01*
X89722Y251695D01*
X89747Y251690D01*
X89773D01*
X89798Y251700D01*
X89824Y251715D01*
X89849Y251730D01*
X89854Y251740D01*
X89859D01*
X89895Y251771D01*
X89936Y251796D01*
X89971Y251812D01*
X90002Y251827D01*
X90027Y251832D01*
X90048Y251837D01*
X90068D01*
X90114Y251832D01*
X90155Y251827D01*
X90190Y251812D01*
X90216Y251801D01*
X90236Y251786D01*
X90256Y251771D01*
X90262Y251766D01*
X90267Y251761D01*
X90287Y251730D01*
X90302Y251700D01*
X90323Y251649D01*
X90328Y251628D01*
X90333Y251613D01*
Y251603D01*
Y251598D01*
X90328Y251552D01*
X90317Y251506D01*
X90302Y251476D01*
X90282Y251445D01*
X90262Y251425D01*
X90246Y251405D01*
X90236Y251399D01*
X90231Y251394D01*
X90190Y251374D01*
X90144Y251359D01*
X90058Y251338D01*
X90017Y251333D01*
X89987Y251328D01*
X89961D01*
X89864Y251338D01*
X89778Y251359D01*
X89702Y251389D01*
X89635Y251425D01*
X89584Y251461D01*
X89549Y251491D01*
X89524Y251511D01*
X89518Y251521D01*
X89457Y251598D01*
X89401Y251684D01*
X89355Y251771D01*
X89315Y251852D01*
X89279Y251924D01*
X89259Y251985D01*
X89249Y252005D01*
X89244Y252020D01*
X89238Y252030D01*
Y252036D01*
X88521Y254117D01*
X88490Y254179D01*
X88455Y254224D01*
X88424Y254250D01*
X88419Y254260D01*
X88414D01*
X88388Y254280D01*
X88363Y254291D01*
X88317Y254311D01*
X88287Y254316D01*
X88093D01*
Y254550D01*
X89091D01*
Y254316D01*
X88908D01*
X88872Y254311D01*
X88841Y254296D01*
X88821Y254275D01*
X88816Y254270D01*
X88806Y254255D01*
X88801Y254235D01*
Y254199D01*
X88811Y254168D01*
X88816Y254163D01*
Y254158D01*
X89249Y252838D01*
X89722Y254173D01*
X89727Y254224D01*
X89722Y254255D01*
X89717Y254275D01*
X89712Y254280D01*
X89686Y254301D01*
X89661Y254311D01*
X89635Y254316D01*
X89488D01*
Y254550D01*
X90480D01*
Y254316D01*
D02*
G37*
G36*
X104249D02*
X104111D01*
X104066Y254311D01*
X104025Y254296D01*
X103999Y254275D01*
X103989Y254270D01*
X103954Y254240D01*
X103928Y254204D01*
X103918Y254179D01*
X103913Y254173D01*
Y254168D01*
X103200Y252326D01*
X103231Y252214D01*
X103251Y252163D01*
X103267Y252117D01*
X103282Y252076D01*
X103292Y252046D01*
X103297Y252026D01*
X103302Y252020D01*
X103323Y251964D01*
X103348Y251919D01*
X103368Y251873D01*
X103384Y251837D01*
X103404Y251807D01*
X103414Y251786D01*
X103419Y251771D01*
X103424Y251766D01*
X103439Y251735D01*
X103455Y251720D01*
X103465Y251710D01*
X103470Y251705D01*
X103490Y251695D01*
X103516Y251690D01*
X103541D01*
X103567Y251700D01*
X103592Y251715D01*
X103618Y251730D01*
X103623Y251740D01*
X103628D01*
X103664Y251771D01*
X103704Y251796D01*
X103740Y251812D01*
X103770Y251827D01*
X103796Y251832D01*
X103816Y251837D01*
X103837D01*
X103882Y251832D01*
X103923Y251827D01*
X103959Y251812D01*
X103984Y251801D01*
X104005Y251786D01*
X104025Y251771D01*
X104030Y251766D01*
X104035Y251761D01*
X104055Y251730D01*
X104071Y251700D01*
X104091Y251649D01*
X104096Y251628D01*
X104101Y251613D01*
Y251603D01*
Y251598D01*
X104096Y251552D01*
X104086Y251506D01*
X104071Y251476D01*
X104050Y251445D01*
X104030Y251425D01*
X104015Y251405D01*
X104005Y251399D01*
X103999Y251394D01*
X103959Y251374D01*
X103913Y251359D01*
X103826Y251338D01*
X103786Y251333D01*
X103755Y251328D01*
X103730D01*
X103633Y251338D01*
X103546Y251359D01*
X103470Y251389D01*
X103404Y251425D01*
X103353Y251461D01*
X103317Y251491D01*
X103292Y251511D01*
X103287Y251521D01*
X103226Y251598D01*
X103170Y251684D01*
X103124Y251771D01*
X103083Y251852D01*
X103048Y251924D01*
X103027Y251985D01*
X103017Y252005D01*
X103012Y252020D01*
X103007Y252030D01*
Y252036D01*
X102289Y254117D01*
X102259Y254179D01*
X102223Y254224D01*
X102192Y254250D01*
X102187Y254260D01*
X102182D01*
X102157Y254280D01*
X102131Y254291D01*
X102086Y254311D01*
X102055Y254316D01*
X101862D01*
Y254550D01*
X102859D01*
Y254316D01*
X102676D01*
X102640Y254311D01*
X102610Y254296D01*
X102589Y254275D01*
X102584Y254270D01*
X102574Y254255D01*
X102569Y254235D01*
Y254199D01*
X102579Y254168D01*
X102584Y254163D01*
Y254158D01*
X103018Y252838D01*
X103490Y254173D01*
X103496Y254224D01*
X103490Y254255D01*
X103485Y254275D01*
X103480Y254280D01*
X103455Y254301D01*
X103429Y254311D01*
X103404Y254316D01*
X103256D01*
Y254550D01*
X104249D01*
Y254316D01*
D02*
G37*
G36*
X67998Y254647D02*
X68039Y254621D01*
X68074Y254601D01*
X68105Y254586D01*
X68130Y254575D01*
X68151Y254570D01*
X68161Y254565D01*
X68166D01*
X68237Y254555D01*
X68308Y254550D01*
X68563D01*
Y254316D01*
X68349D01*
X68329Y254311D01*
X68293Y254301D01*
X68278Y254285D01*
X68273Y254280D01*
X68252Y254250D01*
X68247Y254214D01*
X68242Y254189D01*
Y254184D01*
Y254179D01*
Y252916D01*
Y252835D01*
X68232Y252764D01*
X68227Y252692D01*
X68212Y252626D01*
X68201Y252570D01*
X68186Y252514D01*
X68166Y252468D01*
X68151Y252422D01*
X68135Y252387D01*
X68115Y252356D01*
X68100Y252326D01*
X68089Y252305D01*
X68069Y252275D01*
X68059Y252265D01*
X67983Y252199D01*
X67896Y252148D01*
X67804Y252112D01*
X67718Y252086D01*
X67637Y252071D01*
X67606Y252066D01*
X67575D01*
X67550Y252061D01*
X67514D01*
X67407Y252066D01*
X67311Y252081D01*
X67224Y252102D01*
X67148Y252122D01*
X67087Y252143D01*
X67041Y252163D01*
X67010Y252178D01*
X67000Y252183D01*
X66924Y252234D01*
X66868Y252285D01*
X66827Y252341D01*
X66797Y252397D01*
X66781Y252443D01*
X66771Y252484D01*
X66766Y252509D01*
Y252081D01*
X66654D01*
X66562Y252122D01*
X66522Y252143D01*
X66491Y252153D01*
X66461Y252163D01*
X66440Y252173D01*
X66430Y252178D01*
X66425D01*
X66349Y252199D01*
X66288Y252204D01*
X66262Y252209D01*
X66043D01*
Y252443D01*
X66227D01*
X66272Y252448D01*
X66303Y252458D01*
X66323Y252463D01*
X66328Y252468D01*
X66344Y252494D01*
X66354Y252524D01*
X66359Y252550D01*
Y252555D01*
Y252560D01*
Y254677D01*
X66481D01*
X66522Y254647D01*
X66562Y254621D01*
X66598Y254601D01*
X66629Y254586D01*
X66654Y254575D01*
X66675Y254570D01*
X66685Y254565D01*
X66690D01*
X66761Y254555D01*
X66832Y254550D01*
X67087D01*
Y254316D01*
X66904D01*
X66853Y254311D01*
X66822Y254301D01*
X66802Y254285D01*
X66797Y254280D01*
X66776Y254250D01*
X66771Y254214D01*
X66766Y254189D01*
Y254184D01*
Y254179D01*
Y252860D01*
X66802Y252774D01*
X66837Y252697D01*
X66878Y252631D01*
X66919Y252580D01*
X66954Y252539D01*
X66985Y252509D01*
X67005Y252494D01*
X67010Y252489D01*
X67077Y252453D01*
X67143Y252422D01*
X67209Y252402D01*
X67270Y252392D01*
X67326Y252382D01*
X67367Y252377D01*
X67407D01*
X67479Y252382D01*
X67545Y252392D01*
X67601Y252412D01*
X67647Y252433D01*
X67682Y252448D01*
X67708Y252468D01*
X67723Y252479D01*
X67728Y252484D01*
X67764Y252535D01*
X67789Y252590D01*
X67809Y252657D01*
X67820Y252718D01*
X67830Y252779D01*
X67835Y252825D01*
Y252845D01*
Y252860D01*
Y252865D01*
Y252870D01*
Y254677D01*
X67957D01*
X67998Y254647D01*
D02*
G37*
G36*
X92781D02*
X92822Y254621D01*
X92857Y254601D01*
X92888Y254586D01*
X92913Y254575D01*
X92934Y254570D01*
X92944Y254565D01*
X92949D01*
X93020Y254555D01*
X93091Y254550D01*
X93346D01*
Y254316D01*
X93132D01*
X93112Y254311D01*
X93076Y254301D01*
X93061Y254285D01*
X93056Y254280D01*
X93036Y254250D01*
X93031Y254214D01*
X93025Y254189D01*
Y254184D01*
Y254179D01*
Y252916D01*
Y252835D01*
X93015Y252764D01*
X93010Y252692D01*
X92995Y252626D01*
X92985Y252570D01*
X92969Y252514D01*
X92949Y252468D01*
X92934Y252422D01*
X92918Y252387D01*
X92898Y252356D01*
X92883Y252326D01*
X92873Y252305D01*
X92852Y252275D01*
X92842Y252265D01*
X92766Y252199D01*
X92679Y252148D01*
X92588Y252112D01*
X92501Y252086D01*
X92420Y252071D01*
X92389Y252066D01*
X92359D01*
X92333Y252061D01*
X92298D01*
X92191Y252066D01*
X92094Y252081D01*
X92007Y252102D01*
X91931Y252122D01*
X91870Y252143D01*
X91824Y252163D01*
X91794Y252178D01*
X91783Y252183D01*
X91707Y252234D01*
X91651Y252285D01*
X91610Y252341D01*
X91580Y252397D01*
X91565Y252443D01*
X91554Y252484D01*
X91549Y252509D01*
Y252081D01*
X91437D01*
X91346Y252122D01*
X91305Y252143D01*
X91274Y252153D01*
X91244Y252163D01*
X91224Y252173D01*
X91213Y252178D01*
X91208D01*
X91132Y252199D01*
X91071Y252204D01*
X91045Y252209D01*
X90826D01*
Y252443D01*
X91010D01*
X91056Y252448D01*
X91086Y252458D01*
X91106Y252463D01*
X91111Y252468D01*
X91127Y252494D01*
X91137Y252524D01*
X91142Y252550D01*
Y252555D01*
Y252560D01*
Y254677D01*
X91264D01*
X91305Y254647D01*
X91346Y254621D01*
X91381Y254601D01*
X91412Y254586D01*
X91437Y254575D01*
X91458Y254570D01*
X91468Y254565D01*
X91473D01*
X91544Y254555D01*
X91615Y254550D01*
X91870D01*
Y254316D01*
X91687D01*
X91636Y254311D01*
X91605Y254301D01*
X91585Y254285D01*
X91580Y254280D01*
X91559Y254250D01*
X91554Y254214D01*
X91549Y254189D01*
Y254184D01*
Y254179D01*
Y252860D01*
X91585Y252774D01*
X91620Y252697D01*
X91661Y252631D01*
X91702Y252580D01*
X91738Y252539D01*
X91768Y252509D01*
X91789Y252494D01*
X91794Y252489D01*
X91860Y252453D01*
X91926Y252422D01*
X91992Y252402D01*
X92053Y252392D01*
X92109Y252382D01*
X92150Y252377D01*
X92191D01*
X92262Y252382D01*
X92328Y252392D01*
X92384Y252412D01*
X92430Y252433D01*
X92466Y252448D01*
X92491Y252468D01*
X92506Y252479D01*
X92511Y252484D01*
X92547Y252535D01*
X92572Y252590D01*
X92593Y252657D01*
X92603Y252718D01*
X92613Y252779D01*
X92618Y252825D01*
Y252845D01*
Y252860D01*
Y252865D01*
Y252870D01*
Y254677D01*
X92740D01*
X92781Y254647D01*
D02*
G37*
G36*
X137385Y255558D02*
X137171D01*
X137151Y255553D01*
X137115Y255543D01*
X137100Y255533D01*
X137095Y255527D01*
X137074Y255502D01*
X137069Y255476D01*
X137064Y255451D01*
Y255446D01*
Y255441D01*
Y252438D01*
X137069Y252397D01*
X137079Y252366D01*
X137090Y252351D01*
X137095Y252346D01*
X137105Y252336D01*
X137120Y252331D01*
X137156Y252326D01*
X137186Y252321D01*
X137405D01*
Y252086D01*
X136280D01*
Y252321D01*
X136484D01*
X136530Y252326D01*
X136560Y252336D01*
X136581Y252341D01*
X136586Y252346D01*
X136601Y252372D01*
X136611Y252402D01*
X136616Y252428D01*
Y252433D01*
Y252438D01*
Y253771D01*
X136021D01*
X135939Y253776D01*
X135863Y253782D01*
X135715Y253812D01*
X135583Y253853D01*
X135522Y253878D01*
X135471Y253904D01*
X135420Y253929D01*
X135379Y253955D01*
X135339Y253975D01*
X135308Y253995D01*
X135283Y254011D01*
X135267Y254026D01*
X135257Y254031D01*
X135252Y254036D01*
X135196Y254087D01*
X135145Y254148D01*
X135099Y254204D01*
X135064Y254270D01*
X135033Y254336D01*
X135008Y254397D01*
X134967Y254525D01*
X134952Y254586D01*
X134941Y254637D01*
X134936Y254688D01*
X134931Y254728D01*
X134926Y254764D01*
Y254794D01*
Y254810D01*
Y254815D01*
X134931Y254891D01*
X134941Y254962D01*
X134957Y255034D01*
X134972Y255100D01*
X135023Y255217D01*
X135079Y255319D01*
X135109Y255364D01*
X135135Y255400D01*
X135160Y255436D01*
X135186Y255461D01*
X135201Y255482D01*
X135216Y255502D01*
X135227Y255507D01*
X135232Y255512D01*
X135293Y255563D01*
X135354Y255604D01*
X135420Y255644D01*
X135491Y255675D01*
X135634Y255726D01*
X135771Y255756D01*
X135832Y255767D01*
X135893Y255777D01*
X135944Y255782D01*
X135990Y255787D01*
X136031Y255792D01*
X137385D01*
Y255558D01*
D02*
G37*
G36*
X62506Y252753D02*
X62557Y252743D01*
X62602Y252728D01*
X62638Y252708D01*
X62669Y252687D01*
X62694Y252672D01*
X62709Y252662D01*
X62714Y252657D01*
X62750Y252616D01*
X62775Y252575D01*
X62796Y252529D01*
X62806Y252489D01*
X62816Y252448D01*
X62821Y252417D01*
Y252397D01*
Y252392D01*
X62816Y252331D01*
X62806Y252275D01*
X62786Y252229D01*
X62765Y252188D01*
X62750Y252158D01*
X62730Y252137D01*
X62720Y252122D01*
X62714Y252117D01*
X62669Y252086D01*
X62628Y252061D01*
X62582Y252046D01*
X62541Y252030D01*
X62506Y252026D01*
X62475Y252020D01*
X62450D01*
X62399Y252026D01*
X62348Y252036D01*
X62307Y252051D01*
X62266Y252071D01*
X62236Y252086D01*
X62216Y252102D01*
X62200Y252112D01*
X62195Y252117D01*
X62155Y252158D01*
X62129Y252204D01*
X62109Y252249D01*
X62093Y252295D01*
X62083Y252331D01*
X62078Y252361D01*
Y252387D01*
Y252392D01*
X62083Y252443D01*
X62093Y252494D01*
X62114Y252535D01*
X62134Y252575D01*
X62155Y252606D01*
X62175Y252626D01*
X62185Y252641D01*
X62190Y252646D01*
X62231Y252682D01*
X62277Y252713D01*
X62322Y252733D01*
X62363Y252743D01*
X62399Y252753D01*
X62424Y252758D01*
X62450D01*
X62506Y252753D01*
D02*
G37*
G36*
X56357Y254586D02*
X56449Y254575D01*
X56535Y254555D01*
X56612Y254530D01*
X56688Y254499D01*
X56754Y254464D01*
X56820Y254428D01*
X56876Y254392D01*
X56927Y254357D01*
X56973Y254321D01*
X57008Y254285D01*
X57044Y254255D01*
X57064Y254229D01*
X57085Y254209D01*
X57095Y254199D01*
X57100Y254194D01*
X57156Y254117D01*
X57202Y254041D01*
X57248Y253965D01*
X57283Y253888D01*
X57314Y253817D01*
X57339Y253741D01*
X57375Y253608D01*
X57390Y253547D01*
X57401Y253491D01*
X57406Y253440D01*
X57411Y253400D01*
X57416Y253364D01*
Y253339D01*
Y253323D01*
Y253318D01*
X57411Y253222D01*
X57401Y253130D01*
X57385Y253038D01*
X57365Y252952D01*
X57345Y252875D01*
X57314Y252799D01*
X57288Y252728D01*
X57258Y252667D01*
X57227Y252611D01*
X57202Y252560D01*
X57171Y252514D01*
X57151Y252479D01*
X57131Y252453D01*
X57115Y252428D01*
X57105Y252417D01*
X57100Y252412D01*
X57039Y252346D01*
X56973Y252290D01*
X56902Y252239D01*
X56836Y252199D01*
X56764Y252163D01*
X56693Y252132D01*
X56627Y252107D01*
X56561Y252086D01*
X56499Y252071D01*
X56444Y252061D01*
X56393Y252051D01*
X56352Y252046D01*
X56316D01*
X56286Y252041D01*
X56265D01*
X56179Y252046D01*
X56092Y252056D01*
X56011Y252076D01*
X55935Y252097D01*
X55863Y252122D01*
X55797Y252153D01*
X55731Y252188D01*
X55675Y252224D01*
X55624Y252255D01*
X55583Y252290D01*
X55543Y252321D01*
X55512Y252346D01*
X55487Y252366D01*
X55466Y252387D01*
X55456Y252397D01*
X55451Y252402D01*
X55390Y252473D01*
X55339Y252545D01*
X55293Y252621D01*
X55258Y252702D01*
X55222Y252779D01*
X55196Y252855D01*
X55156Y252998D01*
X55141Y253064D01*
X55130Y253125D01*
X55125Y253181D01*
X55120Y253227D01*
X55115Y253267D01*
Y253293D01*
Y253313D01*
Y253318D01*
X55120Y253405D01*
X55130Y253491D01*
X55146Y253578D01*
X55161Y253659D01*
X55212Y253807D01*
X55242Y253873D01*
X55268Y253934D01*
X55298Y253990D01*
X55329Y254041D01*
X55354Y254087D01*
X55375Y254122D01*
X55395Y254153D01*
X55410Y254173D01*
X55421Y254189D01*
X55426Y254194D01*
X55487Y254265D01*
X55553Y254326D01*
X55619Y254377D01*
X55685Y254423D01*
X55756Y254464D01*
X55828Y254494D01*
X55894Y254520D01*
X55960Y254540D01*
X56026Y254555D01*
X56082Y254570D01*
X56133Y254581D01*
X56179Y254586D01*
X56214Y254591D01*
X56265D01*
X56357Y254586D01*
D02*
G37*
G36*
X77384Y254581D02*
X77455Y254560D01*
X77486Y254550D01*
X77511Y254540D01*
X77526Y254535D01*
X77531Y254530D01*
X77618Y254484D01*
X77659Y254458D01*
X77694Y254433D01*
X77725Y254413D01*
X77745Y254397D01*
X77760Y254387D01*
X77766Y254382D01*
X77801Y254418D01*
X77842Y254443D01*
X77923Y254489D01*
X77959Y254504D01*
X77990Y254515D01*
X78010Y254525D01*
X78020D01*
X78142Y254550D01*
X78203Y254560D01*
X78254Y254565D01*
X78295Y254570D01*
X78361D01*
X78437Y254565D01*
X78514Y254560D01*
X78646Y254530D01*
X78758Y254489D01*
X78850Y254443D01*
X78890Y254418D01*
X78926Y254392D01*
X78957Y254372D01*
X78977Y254352D01*
X78997Y254336D01*
X79013Y254321D01*
X79018Y254316D01*
X79023Y254311D01*
X79063Y254260D01*
X79099Y254209D01*
X79160Y254107D01*
X79201Y254011D01*
X79226Y253914D01*
X79247Y253837D01*
X79252Y253802D01*
Y253771D01*
X79257Y253746D01*
Y253731D01*
Y253720D01*
Y253715D01*
X79252Y253649D01*
X79242Y253583D01*
X79226Y253527D01*
X79206Y253476D01*
X79191Y253435D01*
X79176Y253400D01*
X79165Y253379D01*
X79160Y253374D01*
X79119Y253318D01*
X79084Y253273D01*
X79048Y253237D01*
X79013Y253206D01*
X78982Y253181D01*
X78962Y253166D01*
X78946Y253161D01*
X78941Y253155D01*
X78982Y253140D01*
X79018Y253120D01*
X79084Y253074D01*
X79109Y253054D01*
X79130Y253033D01*
X79140Y253023D01*
X79145Y253018D01*
X79176Y252977D01*
X79196Y252937D01*
X79216Y252891D01*
X79226Y252855D01*
X79232Y252819D01*
X79237Y252794D01*
Y252774D01*
Y252769D01*
X79232Y252723D01*
X79221Y252682D01*
X79211Y252646D01*
X79196Y252616D01*
X79181Y252590D01*
X79165Y252570D01*
X79160Y252560D01*
X79155Y252555D01*
X79119Y252524D01*
X79089Y252504D01*
X79058Y252489D01*
X79028Y252473D01*
X79002Y252468D01*
X78982Y252463D01*
X78972Y252458D01*
X78967D01*
X79043Y252433D01*
X79109Y252402D01*
X79165Y252372D01*
X79211Y252336D01*
X79247Y252300D01*
X79272Y252275D01*
X79287Y252255D01*
X79293Y252249D01*
X79328Y252188D01*
X79359Y252132D01*
X79379Y252076D01*
X79389Y252030D01*
X79400Y251990D01*
X79404Y251959D01*
Y251934D01*
Y251929D01*
X79400Y251883D01*
X79394Y251837D01*
X79379Y251791D01*
X79359Y251751D01*
X79313Y251669D01*
X79257Y251603D01*
X79206Y251552D01*
X79160Y251511D01*
X79140Y251496D01*
X79125Y251486D01*
X79119Y251476D01*
X79114D01*
X78997Y251410D01*
X78870Y251364D01*
X78748Y251328D01*
X78626Y251308D01*
X78570Y251298D01*
X78524Y251292D01*
X78478Y251287D01*
X78437D01*
X78407Y251282D01*
X78254D01*
X78158Y251292D01*
X78061Y251303D01*
X77979Y251313D01*
X77898Y251328D01*
X77827Y251348D01*
X77766Y251364D01*
X77705Y251384D01*
X77654Y251405D01*
X77613Y251420D01*
X77572Y251440D01*
X77547Y251455D01*
X77521Y251466D01*
X77506Y251476D01*
X77496Y251486D01*
X77491D01*
X77440Y251527D01*
X77394Y251567D01*
X77358Y251613D01*
X77328Y251659D01*
X77277Y251746D01*
X77241Y251837D01*
X77221Y251913D01*
X77216Y251944D01*
X77211Y251975D01*
X77206Y252000D01*
Y252015D01*
Y252026D01*
Y252030D01*
X77211Y252117D01*
X77231Y252199D01*
X77257Y252270D01*
X77287Y252326D01*
X77318Y252372D01*
X77343Y252407D01*
X77364Y252428D01*
X77368Y252433D01*
X77435Y252484D01*
X77511Y252529D01*
X77592Y252560D01*
X77674Y252585D01*
X77745Y252606D01*
X77801Y252616D01*
X77827Y252621D01*
X77842Y252626D01*
X77857D01*
X77923Y252636D01*
X77990Y252641D01*
X78056Y252652D01*
X78117Y252662D01*
X78173Y252667D01*
X78214Y252672D01*
X78244Y252677D01*
X78254D01*
X78341Y252692D01*
X78427Y252702D01*
X78514Y252718D01*
X78590Y252733D01*
X78656Y252743D01*
X78712Y252753D01*
X78733D01*
X78748Y252758D01*
X78758D01*
X78799Y252764D01*
X78824Y252774D01*
X78839Y252779D01*
X78845Y252784D01*
X78860Y252809D01*
X78865Y252840D01*
X78870Y252865D01*
Y252870D01*
Y252875D01*
X78865Y252896D01*
X78855Y252921D01*
X78845Y252942D01*
X78839Y252947D01*
X78814Y252982D01*
X78789Y253008D01*
X78768Y253023D01*
X78763Y253028D01*
X78743Y253013D01*
X78723Y253003D01*
X78672Y252977D01*
X78646Y252972D01*
X78631Y252962D01*
X78616Y252957D01*
X78610D01*
X78524Y252942D01*
X78483Y252931D01*
X78443D01*
X78412Y252926D01*
X78361D01*
X78275Y252931D01*
X78198Y252937D01*
X78122Y252952D01*
X78056Y252967D01*
X77995Y252988D01*
X77939Y253008D01*
X77888Y253033D01*
X77842Y253059D01*
X77806Y253079D01*
X77771Y253104D01*
X77745Y253125D01*
X77720Y253145D01*
X77699Y253161D01*
X77689Y253176D01*
X77679Y253181D01*
Y253186D01*
X77638Y253237D01*
X77608Y253283D01*
X77552Y253379D01*
X77511Y253466D01*
X77486Y253547D01*
X77470Y253619D01*
X77465Y253670D01*
X77460Y253690D01*
Y253705D01*
Y253710D01*
Y253715D01*
X77465Y253827D01*
X77475Y253883D01*
X77481Y253929D01*
X77491Y253970D01*
X77501Y254000D01*
X77506Y254021D01*
Y254026D01*
X77526Y254082D01*
X77547Y254128D01*
X77567Y254163D01*
X77587Y254189D01*
X77603Y254209D01*
X77618Y254224D01*
X77628Y254235D01*
X77633D01*
X77598Y254245D01*
X77567Y254255D01*
X77547Y254260D01*
X77511D01*
X77496Y254255D01*
X77486Y254250D01*
Y254245D01*
X77460Y254194D01*
X77435Y254158D01*
X77414Y254138D01*
X77404Y254128D01*
X77358Y254102D01*
X77312Y254092D01*
X77297Y254087D01*
X77267D01*
X77226Y254092D01*
X77190Y254097D01*
X77165Y254107D01*
X77140Y254122D01*
X77124Y254138D01*
X77114Y254148D01*
X77104Y254153D01*
Y254158D01*
X77078Y254214D01*
X77063Y254270D01*
X77058Y254291D01*
Y254311D01*
Y254321D01*
Y254326D01*
Y254357D01*
X77068Y254387D01*
X77083Y254438D01*
X77094Y254464D01*
X77104Y254479D01*
X77109Y254489D01*
X77114Y254494D01*
X77140Y254525D01*
X77170Y254550D01*
X77201Y254565D01*
X77231Y254581D01*
X77262Y254586D01*
X77287Y254591D01*
X77343D01*
X77384Y254581D01*
D02*
G37*
G36*
X113182D02*
X113253Y254560D01*
X113284Y254550D01*
X113309Y254540D01*
X113324Y254535D01*
X113329Y254530D01*
X113416Y254484D01*
X113457Y254458D01*
X113492Y254433D01*
X113523Y254413D01*
X113543Y254397D01*
X113558Y254387D01*
X113564Y254382D01*
X113599Y254418D01*
X113640Y254443D01*
X113721Y254489D01*
X113757Y254504D01*
X113787Y254515D01*
X113808Y254525D01*
X113818D01*
X113940Y254550D01*
X114001Y254560D01*
X114052Y254565D01*
X114093Y254570D01*
X114159D01*
X114235Y254565D01*
X114312Y254560D01*
X114444Y254530D01*
X114556Y254489D01*
X114648Y254443D01*
X114688Y254418D01*
X114724Y254392D01*
X114755Y254372D01*
X114775Y254352D01*
X114795Y254336D01*
X114811Y254321D01*
X114816Y254316D01*
X114821Y254311D01*
X114862Y254260D01*
X114897Y254209D01*
X114958Y254107D01*
X114999Y254011D01*
X115024Y253914D01*
X115045Y253837D01*
X115050Y253802D01*
Y253771D01*
X115055Y253746D01*
Y253731D01*
Y253720D01*
Y253715D01*
X115050Y253649D01*
X115040Y253583D01*
X115024Y253527D01*
X115004Y253476D01*
X114989Y253435D01*
X114973Y253400D01*
X114963Y253379D01*
X114958Y253374D01*
X114918Y253318D01*
X114882Y253273D01*
X114846Y253237D01*
X114811Y253206D01*
X114780Y253181D01*
X114760Y253166D01*
X114744Y253161D01*
X114739Y253155D01*
X114780Y253140D01*
X114816Y253120D01*
X114882Y253074D01*
X114907Y253054D01*
X114928Y253033D01*
X114938Y253023D01*
X114943Y253018D01*
X114973Y252977D01*
X114994Y252937D01*
X115014Y252891D01*
X115024Y252855D01*
X115029Y252819D01*
X115034Y252794D01*
Y252774D01*
Y252769D01*
X115029Y252723D01*
X115019Y252682D01*
X115009Y252646D01*
X114994Y252616D01*
X114979Y252590D01*
X114963Y252570D01*
X114958Y252560D01*
X114953Y252555D01*
X114918Y252524D01*
X114887Y252504D01*
X114856Y252489D01*
X114826Y252473D01*
X114800Y252468D01*
X114780Y252463D01*
X114770Y252458D01*
X114765D01*
X114841Y252433D01*
X114907Y252402D01*
X114963Y252372D01*
X115009Y252336D01*
X115045Y252300D01*
X115070Y252275D01*
X115085Y252255D01*
X115091Y252249D01*
X115126Y252188D01*
X115157Y252132D01*
X115177Y252076D01*
X115187Y252030D01*
X115197Y251990D01*
X115202Y251959D01*
Y251934D01*
Y251929D01*
X115197Y251883D01*
X115192Y251837D01*
X115177Y251791D01*
X115157Y251751D01*
X115111Y251669D01*
X115055Y251603D01*
X115004Y251552D01*
X114958Y251511D01*
X114938Y251496D01*
X114923Y251486D01*
X114918Y251476D01*
X114912D01*
X114795Y251410D01*
X114668Y251364D01*
X114546Y251328D01*
X114424Y251308D01*
X114368Y251298D01*
X114322Y251292D01*
X114276Y251287D01*
X114235D01*
X114205Y251282D01*
X114052D01*
X113955Y251292D01*
X113859Y251303D01*
X113777Y251313D01*
X113696Y251328D01*
X113625Y251348D01*
X113564Y251364D01*
X113502Y251384D01*
X113452Y251405D01*
X113411Y251420D01*
X113370Y251440D01*
X113345Y251455D01*
X113319Y251466D01*
X113304Y251476D01*
X113294Y251486D01*
X113289D01*
X113238Y251527D01*
X113192Y251567D01*
X113156Y251613D01*
X113126Y251659D01*
X113075Y251746D01*
X113039Y251837D01*
X113019Y251913D01*
X113014Y251944D01*
X113009Y251975D01*
X113004Y252000D01*
Y252015D01*
Y252026D01*
Y252030D01*
X113009Y252117D01*
X113029Y252199D01*
X113055Y252270D01*
X113085Y252326D01*
X113116Y252372D01*
X113141Y252407D01*
X113161Y252428D01*
X113166Y252433D01*
X113233Y252484D01*
X113309Y252529D01*
X113391Y252560D01*
X113472Y252585D01*
X113543Y252606D01*
X113599Y252616D01*
X113625Y252621D01*
X113640Y252626D01*
X113655D01*
X113721Y252636D01*
X113787Y252641D01*
X113854Y252652D01*
X113915Y252662D01*
X113971Y252667D01*
X114011Y252672D01*
X114042Y252677D01*
X114052D01*
X114139Y252692D01*
X114225Y252702D01*
X114312Y252718D01*
X114388Y252733D01*
X114454Y252743D01*
X114510Y252753D01*
X114531D01*
X114546Y252758D01*
X114556D01*
X114597Y252764D01*
X114622Y252774D01*
X114637Y252779D01*
X114643Y252784D01*
X114658Y252809D01*
X114663Y252840D01*
X114668Y252865D01*
Y252870D01*
Y252875D01*
X114663Y252896D01*
X114653Y252921D01*
X114643Y252942D01*
X114637Y252947D01*
X114612Y252982D01*
X114587Y253008D01*
X114566Y253023D01*
X114561Y253028D01*
X114541Y253013D01*
X114521Y253003D01*
X114470Y252977D01*
X114444Y252972D01*
X114429Y252962D01*
X114414Y252957D01*
X114409D01*
X114322Y252942D01*
X114281Y252931D01*
X114241D01*
X114210Y252926D01*
X114159D01*
X114073Y252931D01*
X113996Y252937D01*
X113920Y252952D01*
X113854Y252967D01*
X113793Y252988D01*
X113737Y253008D01*
X113686Y253033D01*
X113640Y253059D01*
X113604Y253079D01*
X113569Y253104D01*
X113543Y253125D01*
X113518Y253145D01*
X113497Y253161D01*
X113487Y253176D01*
X113477Y253181D01*
Y253186D01*
X113436Y253237D01*
X113406Y253283D01*
X113350Y253379D01*
X113309Y253466D01*
X113284Y253547D01*
X113268Y253619D01*
X113263Y253670D01*
X113258Y253690D01*
Y253705D01*
Y253710D01*
Y253715D01*
X113263Y253827D01*
X113273Y253883D01*
X113278Y253929D01*
X113289Y253970D01*
X113299Y254000D01*
X113304Y254021D01*
Y254026D01*
X113324Y254082D01*
X113345Y254128D01*
X113365Y254163D01*
X113385Y254189D01*
X113401Y254209D01*
X113416Y254224D01*
X113426Y254235D01*
X113431D01*
X113396Y254245D01*
X113365Y254255D01*
X113345Y254260D01*
X113309D01*
X113294Y254255D01*
X113284Y254250D01*
Y254245D01*
X113258Y254194D01*
X113233Y254158D01*
X113212Y254138D01*
X113202Y254128D01*
X113156Y254102D01*
X113110Y254092D01*
X113095Y254087D01*
X113065D01*
X113024Y254092D01*
X112988Y254097D01*
X112963Y254107D01*
X112937Y254122D01*
X112922Y254138D01*
X112912Y254148D01*
X112902Y254153D01*
Y254158D01*
X112876Y254214D01*
X112861Y254270D01*
X112856Y254291D01*
Y254311D01*
Y254321D01*
Y254326D01*
Y254357D01*
X112866Y254387D01*
X112882Y254438D01*
X112892Y254464D01*
X112902Y254479D01*
X112907Y254489D01*
X112912Y254494D01*
X112937Y254525D01*
X112968Y254550D01*
X112998Y254565D01*
X113029Y254581D01*
X113060Y254586D01*
X113085Y254591D01*
X113141D01*
X113182Y254581D01*
D02*
G37*
G36*
X118806Y254570D02*
X118847Y254545D01*
X118877Y254530D01*
X118898Y254520D01*
X118913Y254509D01*
X118923Y254504D01*
X118933Y254499D01*
X118959Y254489D01*
X118984Y254484D01*
X119010D01*
X119035Y254489D01*
X119066Y254494D01*
X119142Y254515D01*
X119173Y254525D01*
X119203Y254535D01*
X119224Y254545D01*
X119229D01*
X119361Y254570D01*
X119422Y254581D01*
X119483Y254586D01*
X119529Y254591D01*
X119600D01*
X119728Y254581D01*
X119845Y254560D01*
X119951Y254535D01*
X120043Y254499D01*
X120114Y254464D01*
X120145Y254448D01*
X120170Y254438D01*
X120191Y254423D01*
X120206Y254418D01*
X120211Y254408D01*
X120216D01*
X120262Y254372D01*
X120303Y254331D01*
X120338Y254291D01*
X120364Y254250D01*
X120415Y254163D01*
X120445Y254077D01*
X120460Y254000D01*
X120471Y253939D01*
X120476Y253914D01*
Y253899D01*
Y253888D01*
Y253883D01*
X120471Y253822D01*
X120460Y253766D01*
X120445Y253715D01*
X120430Y253670D01*
X120415Y253634D01*
X120399Y253603D01*
X120389Y253583D01*
X120384Y253578D01*
X120343Y253527D01*
X120298Y253486D01*
X120252Y253446D01*
X120201Y253410D01*
X120160Y253384D01*
X120120Y253364D01*
X120099Y253354D01*
X120089Y253349D01*
X120018Y253318D01*
X119941Y253288D01*
X119865Y253257D01*
X119799Y253232D01*
X119738Y253211D01*
X119692Y253196D01*
X119661Y253186D01*
X119656Y253181D01*
X119651D01*
X119565Y253145D01*
X119478Y253110D01*
X119402Y253079D01*
X119331Y253048D01*
X119269Y253023D01*
X119229Y253008D01*
X119198Y252998D01*
X119188Y252993D01*
X119132Y252957D01*
X119086Y252916D01*
X119066Y252901D01*
X119051Y252886D01*
X119045Y252875D01*
X119040Y252870D01*
X119015Y252840D01*
X118995Y252804D01*
X118984Y252769D01*
X118974Y252738D01*
X118969Y252708D01*
X118964Y252682D01*
Y252667D01*
Y252662D01*
X118969Y252595D01*
X118984Y252539D01*
X119010Y252494D01*
X119035Y252458D01*
X119061Y252428D01*
X119086Y252402D01*
X119101Y252392D01*
X119106Y252387D01*
X119162Y252356D01*
X119229Y252336D01*
X119295Y252316D01*
X119366Y252305D01*
X119422Y252300D01*
X119473Y252295D01*
X119519D01*
X119646Y252300D01*
X119758Y252321D01*
X119855Y252346D01*
X119931Y252372D01*
X119992Y252402D01*
X120038Y252422D01*
X120063Y252443D01*
X120074Y252448D01*
X120140Y252514D01*
X120196Y252595D01*
X120242Y252682D01*
X120277Y252769D01*
X120308Y252850D01*
X120318Y252881D01*
X120323Y252911D01*
X120328Y252937D01*
X120333Y252957D01*
X120338Y252967D01*
Y252972D01*
X120562Y252937D01*
X120496Y252061D01*
X120440Y252076D01*
X120389Y252092D01*
X120354Y252107D01*
X120318Y252117D01*
X120298Y252127D01*
X120277Y252132D01*
X120272Y252137D01*
X120267D01*
X120221Y252158D01*
X120186Y252163D01*
X120160Y252168D01*
X120120D01*
X120089Y252163D01*
X120018Y252148D01*
X119987Y252143D01*
X119962Y252132D01*
X119946Y252127D01*
X119941D01*
X119885Y252107D01*
X119819Y252092D01*
X119748Y252076D01*
X119682Y252071D01*
X119615Y252066D01*
X119565Y252061D01*
X119519D01*
X119361Y252071D01*
X119224Y252092D01*
X119106Y252122D01*
X119056Y252137D01*
X119010Y252158D01*
X118969Y252178D01*
X118933Y252193D01*
X118908Y252209D01*
X118883Y252224D01*
X118862Y252239D01*
X118847Y252244D01*
X118842Y252255D01*
X118837D01*
X118796Y252290D01*
X118755Y252331D01*
X118699Y252417D01*
X118654Y252509D01*
X118628Y252595D01*
X118608Y252672D01*
X118603Y252702D01*
Y252733D01*
X118597Y252758D01*
Y252774D01*
Y252784D01*
Y252789D01*
X118603Y252855D01*
X118618Y252916D01*
X118638Y252972D01*
X118659Y253023D01*
X118684Y253064D01*
X118704Y253094D01*
X118720Y253115D01*
X118725Y253120D01*
X118776Y253176D01*
X118827Y253222D01*
X118877Y253262D01*
X118923Y253298D01*
X118969Y253323D01*
X119000Y253344D01*
X119020Y253354D01*
X119030Y253359D01*
X119168Y253425D01*
X119239Y253451D01*
X119300Y253476D01*
X119351Y253502D01*
X119397Y253517D01*
X119422Y253527D01*
X119427Y253532D01*
X119432D01*
X119514Y253557D01*
X119590Y253578D01*
X119656Y253598D01*
X119712Y253619D01*
X119753Y253634D01*
X119789Y253649D01*
X119809Y253654D01*
X119814Y253659D01*
X119875Y253675D01*
X119921Y253695D01*
X119962Y253710D01*
X119997Y253731D01*
X120018Y253751D01*
X120038Y253761D01*
X120043Y253771D01*
X120048Y253776D01*
X120069Y253812D01*
X120084Y253848D01*
X120099Y253924D01*
X120104Y253960D01*
X120109Y253985D01*
Y254006D01*
Y254011D01*
X120104Y254066D01*
X120089Y254117D01*
X120063Y254158D01*
X120038Y254194D01*
X120018Y254224D01*
X119992Y254245D01*
X119977Y254255D01*
X119972Y254260D01*
X119916Y254291D01*
X119855Y254316D01*
X119789Y254331D01*
X119722Y254346D01*
X119666Y254352D01*
X119621Y254357D01*
X119580D01*
X119493Y254352D01*
X119417Y254336D01*
X119346Y254311D01*
X119285Y254285D01*
X119234Y254255D01*
X119193Y254235D01*
X119173Y254214D01*
X119162Y254209D01*
X119096Y254148D01*
X119040Y254077D01*
X118990Y254006D01*
X118954Y253934D01*
X118923Y253868D01*
X118898Y253817D01*
X118893Y253797D01*
X118888Y253782D01*
X118883Y253771D01*
Y253766D01*
X118659Y253792D01*
X118760Y254596D01*
X118806Y254570D01*
D02*
G37*
G36*
X126385Y255558D02*
X126177D01*
X126156Y255553D01*
X126121Y255543D01*
X126105Y255533D01*
X126100Y255527D01*
X126080Y255502D01*
X126075Y255476D01*
X126070Y255451D01*
Y255446D01*
Y255441D01*
Y252438D01*
X126075Y252397D01*
X126085Y252366D01*
X126095Y252351D01*
X126100Y252346D01*
X126110Y252336D01*
X126126Y252331D01*
X126161Y252326D01*
X126192Y252321D01*
X126406D01*
Y252086D01*
X125444D01*
X125306Y252092D01*
X125174Y252107D01*
X125052Y252132D01*
X124940Y252158D01*
X124838Y252193D01*
X124741Y252234D01*
X124655Y252275D01*
X124578Y252321D01*
X124512Y252366D01*
X124451Y252407D01*
X124400Y252448D01*
X124359Y252484D01*
X124329Y252514D01*
X124309Y252535D01*
X124293Y252550D01*
X124288Y252555D01*
X124217Y252646D01*
X124156Y252753D01*
X124105Y252865D01*
X124059Y252982D01*
X124018Y253099D01*
X123988Y253222D01*
X123962Y253344D01*
X123942Y253461D01*
X123927Y253568D01*
X123911Y253675D01*
X123901Y253766D01*
X123896Y253848D01*
X123891Y253919D01*
Y253970D01*
Y253985D01*
Y254000D01*
Y254006D01*
Y254011D01*
X123896Y254173D01*
X123906Y254326D01*
X123927Y254469D01*
X123952Y254601D01*
X123988Y254723D01*
X124018Y254835D01*
X124059Y254932D01*
X124095Y255024D01*
X124130Y255100D01*
X124171Y255166D01*
X124202Y255227D01*
X124232Y255273D01*
X124263Y255309D01*
X124283Y255334D01*
X124293Y255349D01*
X124298Y255354D01*
X124380Y255431D01*
X124461Y255497D01*
X124548Y255558D01*
X124639Y255609D01*
X124731Y255649D01*
X124823Y255685D01*
X124909Y255716D01*
X124991Y255736D01*
X125072Y255756D01*
X125148Y255767D01*
X125215Y255777D01*
X125270Y255787D01*
X125316D01*
X125352Y255792D01*
X126385D01*
Y255558D01*
D02*
G37*
G36*
X131893D02*
X131684D01*
X131664Y255553D01*
X131628Y255543D01*
X131613Y255533D01*
X131608Y255527D01*
X131587Y255502D01*
X131582Y255476D01*
X131577Y255451D01*
Y255446D01*
Y255441D01*
Y252438D01*
X131582Y252397D01*
X131592Y252366D01*
X131603Y252351D01*
X131608Y252346D01*
X131618Y252336D01*
X131633Y252331D01*
X131669Y252326D01*
X131699Y252321D01*
X131933D01*
Y252086D01*
X130554D01*
X130457Y252092D01*
X130366Y252097D01*
X130279Y252112D01*
X130198Y252127D01*
X130126Y252148D01*
X130055Y252168D01*
X129994Y252193D01*
X129933Y252219D01*
X129882Y252244D01*
X129841Y252270D01*
X129801Y252290D01*
X129770Y252310D01*
X129745Y252326D01*
X129729Y252341D01*
X129719Y252346D01*
X129714Y252351D01*
X129658Y252402D01*
X129612Y252458D01*
X129567Y252519D01*
X129531Y252575D01*
X129500Y252636D01*
X129475Y252697D01*
X129439Y252809D01*
X129414Y252911D01*
X129409Y252957D01*
X129404Y252993D01*
X129399Y253028D01*
Y253048D01*
Y253064D01*
Y253069D01*
X129404Y253196D01*
X129424Y253313D01*
X129455Y253420D01*
X129485Y253517D01*
X129521Y253593D01*
X129536Y253624D01*
X129546Y253649D01*
X129561Y253670D01*
X129567Y253685D01*
X129577Y253695D01*
Y253700D01*
X129612Y253751D01*
X129653Y253802D01*
X129755Y253883D01*
X129862Y253955D01*
X129969Y254011D01*
X130065Y254051D01*
X130111Y254066D01*
X130147Y254082D01*
X130177Y254092D01*
X130203Y254097D01*
X130218Y254102D01*
X130223D01*
X130152Y254122D01*
X130091Y254143D01*
X130035Y254168D01*
X129979Y254189D01*
X129933Y254214D01*
X129892Y254240D01*
X129821Y254291D01*
X129765Y254331D01*
X129729Y254367D01*
X129709Y254392D01*
X129704Y254402D01*
X129658Y254484D01*
X129622Y254570D01*
X129602Y254657D01*
X129582Y254738D01*
X129572Y254810D01*
X129567Y254866D01*
Y254886D01*
Y254901D01*
Y254911D01*
Y254917D01*
X129572Y254998D01*
X129577Y255074D01*
X129592Y255140D01*
X129607Y255207D01*
X129628Y255268D01*
X129648Y255319D01*
X129673Y255370D01*
X129699Y255410D01*
X129724Y255451D01*
X129750Y255482D01*
X129770Y255512D01*
X129790Y255533D01*
X129806Y255553D01*
X129821Y255563D01*
X129826Y255573D01*
X129831D01*
X129882Y255614D01*
X129938Y255644D01*
X130065Y255700D01*
X130193Y255741D01*
X130320Y255767D01*
X130381Y255772D01*
X130437Y255782D01*
X130488Y255787D01*
X130528D01*
X130564Y255792D01*
X131893D01*
Y255558D01*
D02*
G37*
G36*
X75511Y254667D02*
X75567Y254642D01*
X75623Y254621D01*
X75669Y254601D01*
X75709Y254591D01*
X75740Y254581D01*
X75765Y254575D01*
X75770D01*
X75892Y254560D01*
X75948Y254555D01*
X75999Y254550D01*
X76111D01*
X76381Y254545D01*
Y254316D01*
X75882Y254306D01*
X75852D01*
X75831Y254301D01*
X75796Y254291D01*
X75780Y254275D01*
X75775Y254270D01*
X75755Y254240D01*
X75750Y254209D01*
X75745Y254184D01*
Y254179D01*
Y254173D01*
Y252433D01*
X75750Y252392D01*
X75760Y252366D01*
X75770Y252351D01*
X75775Y252346D01*
X75786Y252336D01*
X75801Y252331D01*
X75836Y252326D01*
X75867Y252321D01*
X76381D01*
Y252086D01*
X74707D01*
Y252321D01*
X75205D01*
X75251Y252326D01*
X75282Y252336D01*
X75302Y252341D01*
X75307Y252346D01*
X75322Y252372D01*
X75332Y252402D01*
X75338Y252428D01*
Y252433D01*
Y252438D01*
Y254698D01*
X75455D01*
X75511Y254667D01*
D02*
G37*
G36*
X116816D02*
X116872Y254642D01*
X116928Y254621D01*
X116974Y254601D01*
X117015Y254591D01*
X117045Y254581D01*
X117070Y254575D01*
X117076D01*
X117198Y254560D01*
X117254Y254555D01*
X117305Y254550D01*
X117417D01*
X117686Y254545D01*
Y254316D01*
X117188Y254306D01*
X117157D01*
X117137Y254301D01*
X117101Y254291D01*
X117086Y254275D01*
X117081Y254270D01*
X117060Y254240D01*
X117055Y254209D01*
X117050Y254184D01*
Y254179D01*
Y254173D01*
Y252433D01*
X117055Y252392D01*
X117066Y252366D01*
X117076Y252351D01*
X117081Y252346D01*
X117091Y252336D01*
X117106Y252331D01*
X117142Y252326D01*
X117172Y252321D01*
X117686D01*
Y252086D01*
X116012D01*
Y252321D01*
X116511D01*
X116556Y252326D01*
X116587Y252336D01*
X116607Y252341D01*
X116612Y252346D01*
X116628Y252372D01*
X116638Y252402D01*
X116643Y252428D01*
Y252433D01*
Y252438D01*
Y254698D01*
X116760D01*
X116816Y254667D01*
D02*
G37*
G36*
X54408Y254606D02*
X54463Y254581D01*
X54484Y254575D01*
X54504Y254570D01*
X54514Y254565D01*
X54519D01*
X54586Y254555D01*
X54652Y254550D01*
X54835D01*
Y254316D01*
X54672D01*
X54662Y254311D01*
X54652Y254306D01*
Y254301D01*
X54647Y254285D01*
X54642Y254270D01*
Y254250D01*
Y254245D01*
Y252412D01*
X54647Y252377D01*
X54652Y252351D01*
X54662Y252341D01*
X54667Y252336D01*
X54693Y252326D01*
X54723Y252321D01*
X54856D01*
Y252086D01*
X54026D01*
Y252321D01*
X54123D01*
X54163Y252326D01*
X54194Y252331D01*
X54209Y252336D01*
X54214D01*
X54224Y252356D01*
X54229Y252382D01*
X54234Y252402D01*
Y252412D01*
Y253939D01*
X54214Y254006D01*
X54189Y254062D01*
X54163Y254112D01*
X54138Y254148D01*
X54117Y254179D01*
X54097Y254204D01*
X54087Y254214D01*
X54082Y254219D01*
X54041Y254250D01*
X54000Y254275D01*
X53965Y254291D01*
X53929Y254306D01*
X53899Y254311D01*
X53873Y254316D01*
X53853D01*
X53822Y254311D01*
X53797Y254306D01*
X53756Y254280D01*
X53736Y254250D01*
X53731Y254245D01*
Y254240D01*
X53720Y254209D01*
X53710Y254168D01*
X53700Y254087D01*
X53695Y254051D01*
Y254021D01*
Y254000D01*
Y253990D01*
Y252412D01*
X53700Y252377D01*
X53705Y252351D01*
X53715Y252341D01*
X53720Y252336D01*
X53746Y252326D01*
X53776Y252321D01*
X53909D01*
Y252086D01*
X53079D01*
Y252321D01*
X53176D01*
X53216Y252326D01*
X53247Y252331D01*
X53262Y252336D01*
X53267D01*
X53278Y252356D01*
X53283Y252382D01*
X53288Y252402D01*
Y252412D01*
Y253960D01*
X53267Y254021D01*
X53242Y254072D01*
X53216Y254117D01*
X53191Y254153D01*
X53171Y254184D01*
X53150Y254204D01*
X53140Y254214D01*
X53135Y254219D01*
X53094Y254250D01*
X53054Y254275D01*
X53018Y254291D01*
X52982Y254306D01*
X52952Y254311D01*
X52926Y254316D01*
X52881D01*
X52855Y254306D01*
X52820Y254291D01*
X52794Y254270D01*
X52789Y254265D01*
Y254260D01*
X52774Y254235D01*
X52763Y254194D01*
X52758Y254148D01*
X52753Y254102D01*
X52748Y254062D01*
Y254026D01*
Y254000D01*
Y253990D01*
Y252412D01*
X52753Y252377D01*
X52758Y252351D01*
X52769Y252341D01*
X52774Y252336D01*
X52799Y252326D01*
X52830Y252321D01*
X52962D01*
Y252086D01*
X52132D01*
Y252321D01*
X52229D01*
X52270Y252326D01*
X52300Y252331D01*
X52316Y252336D01*
X52321D01*
X52331Y252356D01*
X52336Y252382D01*
X52341Y252402D01*
Y252412D01*
Y254011D01*
X52346Y254097D01*
X52356Y254179D01*
X52377Y254250D01*
X52397Y254311D01*
X52417Y254357D01*
X52438Y254392D01*
X52448Y254418D01*
X52453Y254423D01*
X52499Y254479D01*
X52560Y254520D01*
X52621Y254550D01*
X52687Y254570D01*
X52743Y254581D01*
X52794Y254591D01*
X52840D01*
X52901Y254586D01*
X52957Y254581D01*
X53013Y254565D01*
X53059Y254550D01*
X53099Y254535D01*
X53130Y254525D01*
X53150Y254515D01*
X53155Y254509D01*
X53206Y254479D01*
X53247Y254438D01*
X53278Y254402D01*
X53298Y254367D01*
X53318Y254331D01*
X53329Y254306D01*
X53334Y254285D01*
Y254280D01*
X53339Y254331D01*
X53354Y254372D01*
X53374Y254413D01*
X53395Y254443D01*
X53420Y254469D01*
X53440Y254489D01*
X53456Y254499D01*
X53461Y254504D01*
X53512Y254535D01*
X53563Y254555D01*
X53619Y254570D01*
X53670Y254581D01*
X53715Y254586D01*
X53751Y254591D01*
X53787D01*
X53848Y254586D01*
X53904Y254581D01*
X53954Y254565D01*
X54000Y254550D01*
X54036Y254535D01*
X54066Y254525D01*
X54087Y254515D01*
X54092Y254509D01*
X54138Y254479D01*
X54173Y254438D01*
X54199Y254402D01*
X54214Y254367D01*
X54224Y254331D01*
X54229Y254306D01*
X54234Y254285D01*
Y254637D01*
X54352D01*
X54408Y254606D01*
D02*
G37*
G36*
X83181Y254667D02*
X83237Y254642D01*
X83293Y254621D01*
X83339Y254601D01*
X83380Y254591D01*
X83410Y254581D01*
X83436Y254575D01*
X83441D01*
X83563Y254560D01*
X83619Y254555D01*
X83670Y254550D01*
X83782D01*
X84026Y254545D01*
Y254311D01*
X83553Y254326D01*
X83502Y254321D01*
X83472Y254311D01*
X83451Y254296D01*
X83446Y254291D01*
X83426Y254260D01*
X83421Y254224D01*
X83416Y254199D01*
Y254194D01*
Y254189D01*
Y252265D01*
X83421Y252143D01*
X83436Y252036D01*
X83461Y251944D01*
X83487Y251873D01*
X83517Y251817D01*
X83538Y251776D01*
X83558Y251756D01*
X83563Y251746D01*
X83624Y251690D01*
X83695Y251649D01*
X83767Y251618D01*
X83843Y251598D01*
X83909Y251588D01*
X83965Y251583D01*
X83986Y251577D01*
X84062D01*
X84097Y251583D01*
X84128Y251588D01*
X84153Y251593D01*
X84174D01*
X84184Y251598D01*
X84194Y251603D01*
X84210Y251618D01*
X84225Y251634D01*
X84250Y251679D01*
X84260Y251700D01*
X84271Y251720D01*
X84276Y251730D01*
Y251735D01*
X84296Y251786D01*
X84316Y251832D01*
X84327Y251852D01*
X84337Y251868D01*
X84342Y251878D01*
Y251883D01*
X84357Y251908D01*
X84383Y251929D01*
X84413Y251939D01*
X84444Y251949D01*
X84474Y251954D01*
X84495Y251959D01*
X84520D01*
X84566Y251954D01*
X84606Y251949D01*
X84642Y251939D01*
X84668Y251929D01*
X84688Y251913D01*
X84708Y251903D01*
X84713Y251898D01*
X84719Y251893D01*
X84739Y251868D01*
X84754Y251837D01*
X84775Y251781D01*
X84780Y251756D01*
X84785Y251740D01*
Y251725D01*
Y251720D01*
X84780Y251654D01*
X84759Y251598D01*
X84729Y251547D01*
X84698Y251506D01*
X84668Y251471D01*
X84637Y251445D01*
X84617Y251430D01*
X84612Y251425D01*
X84535Y251384D01*
X84454Y251354D01*
X84362Y251333D01*
X84276Y251318D01*
X84199Y251308D01*
X84164D01*
X84133Y251303D01*
X84077D01*
X83996Y251308D01*
X83919Y251313D01*
X83772Y251343D01*
X83644Y251389D01*
X83588Y251415D01*
X83533Y251440D01*
X83487Y251461D01*
X83446Y251486D01*
X83410Y251511D01*
X83380Y251532D01*
X83354Y251547D01*
X83339Y251562D01*
X83329Y251567D01*
X83324Y251572D01*
X83268Y251623D01*
X83222Y251684D01*
X83176Y251746D01*
X83141Y251807D01*
X83110Y251873D01*
X83085Y251934D01*
X83049Y252061D01*
X83034Y252117D01*
X83024Y252173D01*
X83018Y252219D01*
X83013Y252265D01*
X83008Y252300D01*
Y252326D01*
Y252341D01*
Y252346D01*
Y254698D01*
X83125D01*
X83181Y254667D01*
D02*
G37*
G36*
X112057Y254606D02*
X112113Y254581D01*
X112138Y254570D01*
X112154Y254565D01*
X112164Y254560D01*
X112169D01*
X112235Y254550D01*
X112291Y254545D01*
X112556D01*
Y254311D01*
X112311D01*
X112301Y254306D01*
X112291Y254301D01*
Y254296D01*
X112286Y254280D01*
X112281Y254265D01*
Y254245D01*
Y254240D01*
Y252433D01*
X112286Y252392D01*
X112296Y252366D01*
X112306Y252351D01*
X112311Y252346D01*
X112322Y252336D01*
X112337Y252331D01*
X112373Y252326D01*
X112403Y252321D01*
X112576D01*
Y252086D01*
X111583D01*
Y252321D01*
X111741D01*
X111787Y252326D01*
X111818Y252336D01*
X111838Y252341D01*
X111843Y252346D01*
X111858Y252372D01*
X111869Y252402D01*
X111874Y252428D01*
Y252433D01*
Y252438D01*
Y253868D01*
X111818Y253939D01*
X111757Y254006D01*
X111701Y254062D01*
X111650Y254107D01*
X111604Y254143D01*
X111568Y254173D01*
X111548Y254189D01*
X111538Y254194D01*
X111467Y254235D01*
X111400Y254265D01*
X111334Y254285D01*
X111283Y254301D01*
X111237Y254311D01*
X111202Y254316D01*
X111171D01*
X111105Y254311D01*
X111049Y254296D01*
X111003Y254275D01*
X110962Y254255D01*
X110937Y254235D01*
X110912Y254214D01*
X110901Y254199D01*
X110896Y254194D01*
X110866Y254143D01*
X110845Y254092D01*
X110825Y254031D01*
X110815Y253975D01*
X110810Y253924D01*
X110805Y253883D01*
Y253853D01*
Y253848D01*
Y253843D01*
Y252438D01*
X110810Y252397D01*
X110820Y252366D01*
X110830Y252351D01*
X110835Y252346D01*
X110845Y252336D01*
X110861Y252331D01*
X110896Y252326D01*
X110927Y252321D01*
X111100D01*
Y252086D01*
X110102D01*
Y252321D01*
X110265D01*
X110311Y252326D01*
X110342Y252336D01*
X110362Y252341D01*
X110367Y252346D01*
X110382Y252372D01*
X110392Y252402D01*
X110398Y252428D01*
Y252433D01*
Y252438D01*
Y253782D01*
X110408Y253919D01*
X110428Y254041D01*
X110459Y254143D01*
X110489Y254229D01*
X110525Y254296D01*
X110555Y254341D01*
X110576Y254372D01*
X110586Y254382D01*
X110662Y254453D01*
X110749Y254504D01*
X110845Y254540D01*
X110937Y254565D01*
X111019Y254581D01*
X111054Y254586D01*
X111090D01*
X111115Y254591D01*
X111151D01*
X111232Y254586D01*
X111314Y254575D01*
X111385Y254555D01*
X111446Y254535D01*
X111502Y254515D01*
X111543Y254494D01*
X111568Y254484D01*
X111578Y254479D01*
X111650Y254433D01*
X111711Y254382D01*
X111762Y254331D01*
X111802Y254285D01*
X111833Y254240D01*
X111858Y254204D01*
X111869Y254184D01*
X111874Y254173D01*
Y254652D01*
X111996D01*
X112057Y254606D01*
D02*
G37*
G36*
X106453Y255929D02*
X106514Y255899D01*
X106565Y255879D01*
X106606Y255858D01*
X106636Y255843D01*
X106656Y255833D01*
X106672Y255828D01*
X106677D01*
X106748Y255807D01*
X106809Y255797D01*
X106830Y255792D01*
X107109D01*
Y255558D01*
X106901D01*
X106880Y255553D01*
X106845Y255543D01*
X106830Y255533D01*
X106824Y255527D01*
X106804Y255502D01*
X106799Y255476D01*
X106794Y255451D01*
Y255446D01*
Y255441D01*
Y252081D01*
X106626D01*
X106463Y252331D01*
X106422Y252290D01*
X106381Y252249D01*
X106336Y252219D01*
X106290Y252188D01*
X106249Y252168D01*
X106214Y252153D01*
X106193Y252143D01*
X106183Y252137D01*
X106112Y252112D01*
X106041Y252092D01*
X105969Y252081D01*
X105908Y252071D01*
X105852Y252066D01*
X105806Y252061D01*
X105771D01*
X105689Y252066D01*
X105613Y252076D01*
X105537Y252092D01*
X105465Y252112D01*
X105343Y252163D01*
X105282Y252193D01*
X105231Y252224D01*
X105185Y252249D01*
X105145Y252280D01*
X105109Y252305D01*
X105084Y252331D01*
X105058Y252351D01*
X105043Y252366D01*
X105033Y252377D01*
X105028Y252382D01*
X104972Y252443D01*
X104926Y252514D01*
X104885Y252585D01*
X104850Y252662D01*
X104819Y252743D01*
X104799Y252819D01*
X104758Y252972D01*
X104748Y253043D01*
X104737Y253104D01*
X104732Y253166D01*
X104727Y253217D01*
X104722Y253257D01*
Y253293D01*
Y253313D01*
Y253318D01*
Y253430D01*
X104732Y253532D01*
X104743Y253629D01*
X104758Y253715D01*
X104778Y253802D01*
X104799Y253873D01*
X104819Y253944D01*
X104839Y254006D01*
X104865Y254062D01*
X104885Y254112D01*
X104905Y254153D01*
X104926Y254184D01*
X104941Y254209D01*
X104951Y254229D01*
X104956Y254240D01*
X104961Y254245D01*
X105007Y254301D01*
X105058Y254352D01*
X105114Y254397D01*
X105170Y254433D01*
X105226Y254464D01*
X105287Y254489D01*
X105399Y254530D01*
X105501Y254555D01*
X105547Y254560D01*
X105587Y254565D01*
X105618Y254570D01*
X105664D01*
X105750Y254565D01*
X105837Y254550D01*
X105913Y254525D01*
X105990Y254499D01*
X106051Y254469D01*
X106102Y254448D01*
X106132Y254428D01*
X106137Y254423D01*
X106142D01*
X106183Y254392D01*
X106224Y254367D01*
X106285Y254306D01*
X106325Y254245D01*
X106356Y254189D01*
X106371Y254143D01*
X106381Y254102D01*
X106387Y254077D01*
Y255965D01*
X106453Y255929D01*
D02*
G37*
G36*
X70731Y255924D02*
X70762Y255899D01*
X70787Y255873D01*
X70813Y255858D01*
X70833Y255843D01*
X70848Y255833D01*
X70858Y255828D01*
X70863D01*
X70914Y255807D01*
X70960Y255797D01*
X70996Y255792D01*
X71291D01*
Y255558D01*
X71082D01*
X71062Y255553D01*
X71026Y255543D01*
X71011Y255533D01*
X71006Y255527D01*
X70986Y255502D01*
X70981Y255476D01*
X70976Y255451D01*
Y255446D01*
Y255441D01*
Y252438D01*
X70981Y252397D01*
X70991Y252366D01*
X71001Y252351D01*
X71006Y252346D01*
X71016Y252336D01*
X71031Y252331D01*
X71067Y252326D01*
X71098Y252321D01*
X71271D01*
Y252086D01*
X70278D01*
Y252321D01*
X70436D01*
X70482Y252326D01*
X70512Y252336D01*
X70533Y252341D01*
X70538Y252346D01*
X70553Y252372D01*
X70563Y252402D01*
X70568Y252428D01*
Y252433D01*
Y252438D01*
Y253868D01*
X70502Y253949D01*
X70441Y254016D01*
X70380Y254072D01*
X70329Y254117D01*
X70278Y254153D01*
X70243Y254173D01*
X70222Y254189D01*
X70212Y254194D01*
X70141Y254229D01*
X70080Y254255D01*
X70019Y254270D01*
X69968Y254285D01*
X69927Y254291D01*
X69891Y254296D01*
X69866D01*
X69810Y254291D01*
X69754Y254280D01*
X69708Y254265D01*
X69673Y254245D01*
X69642Y254224D01*
X69622Y254209D01*
X69606Y254199D01*
X69601Y254194D01*
X69581Y254173D01*
X69566Y254148D01*
X69540Y254082D01*
X69525Y254011D01*
X69510Y253939D01*
X69504Y253873D01*
X69499Y253817D01*
Y253792D01*
Y253776D01*
Y253766D01*
Y253761D01*
Y252438D01*
X69504Y252397D01*
X69515Y252366D01*
X69525Y252351D01*
X69530Y252346D01*
X69540Y252336D01*
X69555Y252331D01*
X69591Y252326D01*
X69622Y252321D01*
X69795D01*
Y252086D01*
X68797D01*
Y252321D01*
X68960D01*
X69006Y252326D01*
X69036Y252336D01*
X69057Y252341D01*
X69062Y252346D01*
X69077Y252372D01*
X69087Y252402D01*
X69092Y252428D01*
Y252433D01*
Y252438D01*
Y253802D01*
X69102Y253939D01*
X69123Y254062D01*
X69153Y254163D01*
X69184Y254245D01*
X69219Y254311D01*
X69250Y254357D01*
X69270Y254382D01*
X69280Y254392D01*
X69357Y254458D01*
X69438Y254509D01*
X69525Y254545D01*
X69611Y254565D01*
X69688Y254581D01*
X69749Y254586D01*
X69774Y254591D01*
X69805D01*
X69896Y254586D01*
X69978Y254575D01*
X70059Y254560D01*
X70126Y254540D01*
X70182Y254520D01*
X70227Y254504D01*
X70253Y254494D01*
X70263Y254489D01*
X70339Y254448D01*
X70400Y254397D01*
X70451Y254346D01*
X70497Y254296D01*
X70528Y254245D01*
X70548Y254209D01*
X70563Y254184D01*
X70568Y254173D01*
Y255960D01*
X70696D01*
X70731Y255924D01*
D02*
G37*
G36*
X94293Y255828D02*
X94339Y255818D01*
X94379Y255802D01*
X94415Y255787D01*
X94440Y255772D01*
X94461Y255756D01*
X94476Y255746D01*
X94481Y255741D01*
X94512Y255705D01*
X94537Y255670D01*
X94552Y255634D01*
X94568Y255604D01*
X94573Y255573D01*
X94578Y255548D01*
Y255533D01*
Y255527D01*
X94573Y255482D01*
X94563Y255436D01*
X94547Y255400D01*
X94527Y255364D01*
X94512Y255339D01*
X94496Y255319D01*
X94486Y255303D01*
X94481Y255298D01*
X94440Y255268D01*
X94400Y255242D01*
X94364Y255227D01*
X94323Y255212D01*
X94293Y255207D01*
X94267Y255202D01*
X94247D01*
X94196Y255207D01*
X94145Y255217D01*
X94104Y255232D01*
X94074Y255253D01*
X94043Y255268D01*
X94023Y255283D01*
X94013Y255293D01*
X94008Y255298D01*
X93977Y255339D01*
X93957Y255380D01*
X93937Y255415D01*
X93926Y255451D01*
X93921Y255482D01*
X93916Y255507D01*
Y255522D01*
Y255527D01*
X93921Y255573D01*
X93931Y255614D01*
X93947Y255649D01*
X93962Y255680D01*
X93977Y255705D01*
X93993Y255726D01*
X94003Y255736D01*
X94008Y255741D01*
X94043Y255772D01*
X94084Y255792D01*
X94125Y255812D01*
X94160Y255823D01*
X94196Y255828D01*
X94222Y255833D01*
X94247D01*
X94293Y255828D01*
D02*
G37*
G36*
X116872D02*
X116918Y255818D01*
X116959Y255802D01*
X116994Y255787D01*
X117020Y255772D01*
X117040Y255756D01*
X117055Y255746D01*
X117060Y255741D01*
X117091Y255705D01*
X117116Y255670D01*
X117132Y255634D01*
X117147Y255604D01*
X117152Y255573D01*
X117157Y255548D01*
Y255533D01*
Y255527D01*
X117152Y255482D01*
X117142Y255436D01*
X117127Y255400D01*
X117106Y255364D01*
X117091Y255339D01*
X117076Y255319D01*
X117066Y255303D01*
X117060Y255298D01*
X117020Y255268D01*
X116979Y255242D01*
X116943Y255227D01*
X116903Y255212D01*
X116872Y255207D01*
X116847Y255202D01*
X116826D01*
X116780Y255207D01*
X116735Y255217D01*
X116699Y255232D01*
X116663Y255253D01*
X116638Y255268D01*
X116612Y255283D01*
X116602Y255293D01*
X116597Y255298D01*
X116561Y255339D01*
X116536Y255380D01*
X116521Y255415D01*
X116506Y255451D01*
X116500Y255482D01*
X116495Y255507D01*
Y255522D01*
Y255527D01*
X116500Y255573D01*
X116511Y255614D01*
X116531Y255649D01*
X116546Y255680D01*
X116567Y255705D01*
X116587Y255726D01*
X116597Y255736D01*
X116602Y255741D01*
X116643Y255772D01*
X116679Y255792D01*
X116719Y255812D01*
X116750Y255823D01*
X116780Y255828D01*
X116806Y255833D01*
X116826D01*
X116872Y255828D01*
D02*
G37*
G36*
X83278D02*
X83324Y255818D01*
X83365Y255802D01*
X83400Y255787D01*
X83426Y255772D01*
X83446Y255756D01*
X83461Y255746D01*
X83466Y255741D01*
X83497Y255705D01*
X83522Y255670D01*
X83538Y255634D01*
X83553Y255604D01*
X83558Y255573D01*
X83563Y255548D01*
Y255533D01*
Y255527D01*
X83558Y255482D01*
X83548Y255436D01*
X83533Y255400D01*
X83512Y255364D01*
X83497Y255339D01*
X83482Y255319D01*
X83472Y255303D01*
X83466Y255298D01*
X83426Y255268D01*
X83385Y255242D01*
X83349Y255227D01*
X83309Y255212D01*
X83278Y255207D01*
X83253Y255202D01*
X83232D01*
X83181Y255207D01*
X83130Y255217D01*
X83090Y255232D01*
X83059Y255253D01*
X83029Y255268D01*
X83008Y255283D01*
X82998Y255293D01*
X82993Y255298D01*
X82963Y255339D01*
X82942Y255380D01*
X82922Y255415D01*
X82911Y255451D01*
X82907Y255482D01*
X82901Y255507D01*
Y255522D01*
Y255527D01*
X82907Y255573D01*
X82917Y255614D01*
X82932Y255649D01*
X82947Y255680D01*
X82963Y255705D01*
X82978Y255726D01*
X82988Y255736D01*
X82993Y255741D01*
X83029Y255772D01*
X83069Y255792D01*
X83110Y255812D01*
X83146Y255823D01*
X83181Y255828D01*
X83207Y255833D01*
X83232D01*
X83278Y255828D01*
D02*
G37*
G36*
X94196Y254667D02*
X94252Y254642D01*
X94308Y254621D01*
X94354Y254601D01*
X94395Y254591D01*
X94425Y254581D01*
X94451Y254575D01*
X94456D01*
X94578Y254560D01*
X94634Y254555D01*
X94685Y254550D01*
X94797D01*
X95041Y254545D01*
Y254311D01*
X94568Y254326D01*
X94517Y254321D01*
X94486Y254311D01*
X94466Y254296D01*
X94461Y254291D01*
X94440Y254260D01*
X94435Y254224D01*
X94430Y254199D01*
Y254194D01*
Y254189D01*
Y252265D01*
X94435Y252143D01*
X94451Y252036D01*
X94476Y251944D01*
X94502Y251873D01*
X94532Y251817D01*
X94552Y251776D01*
X94573Y251756D01*
X94578Y251746D01*
X94639Y251690D01*
X94710Y251649D01*
X94781Y251618D01*
X94858Y251598D01*
X94924Y251588D01*
X94980Y251583D01*
X95000Y251577D01*
X95077D01*
X95112Y251583D01*
X95143Y251588D01*
X95168Y251593D01*
X95189D01*
X95199Y251598D01*
X95209Y251603D01*
X95224Y251618D01*
X95240Y251634D01*
X95265Y251679D01*
X95275Y251700D01*
X95285Y251720D01*
X95290Y251730D01*
Y251735D01*
X95311Y251786D01*
X95331Y251832D01*
X95341Y251852D01*
X95351Y251868D01*
X95357Y251878D01*
Y251883D01*
X95372Y251908D01*
X95397Y251929D01*
X95428Y251939D01*
X95458Y251949D01*
X95489Y251954D01*
X95509Y251959D01*
X95535D01*
X95581Y251954D01*
X95621Y251949D01*
X95657Y251939D01*
X95682Y251929D01*
X95703Y251913D01*
X95723Y251903D01*
X95728Y251898D01*
X95733Y251893D01*
X95754Y251868D01*
X95769Y251837D01*
X95789Y251781D01*
X95794Y251756D01*
X95799Y251740D01*
Y251725D01*
Y251720D01*
X95794Y251654D01*
X95774Y251598D01*
X95743Y251547D01*
X95713Y251506D01*
X95682Y251471D01*
X95652Y251445D01*
X95631Y251430D01*
X95626Y251425D01*
X95550Y251384D01*
X95469Y251354D01*
X95377Y251333D01*
X95290Y251318D01*
X95214Y251308D01*
X95178D01*
X95148Y251303D01*
X95092D01*
X95011Y251308D01*
X94934Y251313D01*
X94787Y251343D01*
X94659Y251389D01*
X94603Y251415D01*
X94547Y251440D01*
X94502Y251461D01*
X94461Y251486D01*
X94425Y251511D01*
X94395Y251532D01*
X94369Y251547D01*
X94354Y251562D01*
X94344Y251567D01*
X94339Y251572D01*
X94283Y251623D01*
X94237Y251684D01*
X94191Y251746D01*
X94155Y251807D01*
X94125Y251873D01*
X94099Y251934D01*
X94064Y252061D01*
X94049Y252117D01*
X94038Y252173D01*
X94033Y252219D01*
X94028Y252265D01*
X94023Y252300D01*
Y252326D01*
Y252341D01*
Y252346D01*
Y254698D01*
X94140D01*
X94196Y254667D01*
D02*
G37*
G36*
X75567Y255828D02*
X75612Y255818D01*
X75653Y255802D01*
X75689Y255787D01*
X75714Y255772D01*
X75735Y255756D01*
X75750Y255746D01*
X75755Y255741D01*
X75786Y255705D01*
X75811Y255670D01*
X75826Y255634D01*
X75841Y255604D01*
X75847Y255573D01*
X75852Y255548D01*
Y255533D01*
Y255527D01*
X75847Y255482D01*
X75836Y255436D01*
X75821Y255400D01*
X75801Y255364D01*
X75786Y255339D01*
X75770Y255319D01*
X75760Y255303D01*
X75755Y255298D01*
X75714Y255268D01*
X75674Y255242D01*
X75638Y255227D01*
X75597Y255212D01*
X75567Y255207D01*
X75541Y255202D01*
X75521D01*
X75475Y255207D01*
X75429Y255217D01*
X75394Y255232D01*
X75358Y255253D01*
X75332Y255268D01*
X75307Y255283D01*
X75297Y255293D01*
X75292Y255298D01*
X75256Y255339D01*
X75231Y255380D01*
X75216Y255415D01*
X75200Y255451D01*
X75195Y255482D01*
X75190Y255507D01*
Y255522D01*
Y255527D01*
X75195Y255573D01*
X75205Y255614D01*
X75226Y255649D01*
X75241Y255680D01*
X75261Y255705D01*
X75282Y255726D01*
X75292Y255736D01*
X75297Y255741D01*
X75338Y255772D01*
X75373Y255792D01*
X75414Y255812D01*
X75445Y255823D01*
X75475Y255828D01*
X75501Y255833D01*
X75521D01*
X75567Y255828D01*
D02*
G37*
G36*
X65148Y255929D02*
X65209Y255899D01*
X65259Y255879D01*
X65300Y255858D01*
X65331Y255843D01*
X65351Y255833D01*
X65366Y255828D01*
X65371D01*
X65443Y255807D01*
X65504Y255797D01*
X65524Y255792D01*
X65804D01*
Y255558D01*
X65595D01*
X65575Y255553D01*
X65539Y255543D01*
X65524Y255533D01*
X65519Y255527D01*
X65499Y255502D01*
X65494Y255476D01*
X65488Y255451D01*
Y255446D01*
Y255441D01*
Y252081D01*
X65320D01*
X65158Y252331D01*
X65117Y252290D01*
X65076Y252249D01*
X65030Y252219D01*
X64985Y252188D01*
X64944Y252168D01*
X64908Y252153D01*
X64888Y252143D01*
X64878Y252137D01*
X64806Y252112D01*
X64735Y252092D01*
X64664Y252081D01*
X64603Y252071D01*
X64547Y252066D01*
X64501Y252061D01*
X64465D01*
X64384Y252066D01*
X64308Y252076D01*
X64231Y252092D01*
X64160Y252112D01*
X64038Y252163D01*
X63977Y252193D01*
X63926Y252224D01*
X63880Y252249D01*
X63839Y252280D01*
X63804Y252305D01*
X63778Y252331D01*
X63753Y252351D01*
X63737Y252366D01*
X63727Y252377D01*
X63722Y252382D01*
X63666Y252443D01*
X63621Y252514D01*
X63580Y252585D01*
X63544Y252662D01*
X63514Y252743D01*
X63493Y252819D01*
X63453Y252972D01*
X63442Y253043D01*
X63432Y253104D01*
X63427Y253166D01*
X63422Y253217D01*
X63417Y253257D01*
Y253293D01*
Y253313D01*
Y253318D01*
Y253430D01*
X63427Y253532D01*
X63437Y253629D01*
X63453Y253715D01*
X63473Y253802D01*
X63493Y253873D01*
X63514Y253944D01*
X63534Y254006D01*
X63559Y254062D01*
X63580Y254112D01*
X63600Y254153D01*
X63621Y254184D01*
X63636Y254209D01*
X63646Y254229D01*
X63651Y254240D01*
X63656Y254245D01*
X63702Y254301D01*
X63753Y254352D01*
X63809Y254397D01*
X63865Y254433D01*
X63921Y254464D01*
X63982Y254489D01*
X64094Y254530D01*
X64196Y254555D01*
X64241Y254560D01*
X64282Y254565D01*
X64313Y254570D01*
X64359D01*
X64445Y254565D01*
X64532Y254550D01*
X64608Y254525D01*
X64684Y254499D01*
X64745Y254469D01*
X64796Y254448D01*
X64827Y254428D01*
X64832Y254423D01*
X64837D01*
X64878Y254392D01*
X64918Y254367D01*
X64979Y254306D01*
X65020Y254245D01*
X65051Y254189D01*
X65066Y254143D01*
X65076Y254102D01*
X65081Y254077D01*
Y255965D01*
X65148Y255929D01*
D02*
G37*
G36*
X98599Y253731D02*
X98375Y253705D01*
X98360Y253771D01*
X98339Y253827D01*
X98324Y253883D01*
X98304Y253934D01*
X98268Y254016D01*
X98238Y254082D01*
X98212Y254133D01*
X98192Y254163D01*
X98176Y254184D01*
X98171Y254189D01*
X98126Y254229D01*
X98080Y254260D01*
X98029Y254285D01*
X97988Y254301D01*
X97947Y254311D01*
X97917Y254316D01*
X97163D01*
X98619Y252260D01*
Y252086D01*
X96700D01*
X96543Y253008D01*
X96772Y253043D01*
X96787Y252967D01*
X96807Y252901D01*
X96828Y252835D01*
X96848Y252779D01*
X96868Y252728D01*
X96889Y252682D01*
X96909Y252636D01*
X96924Y252601D01*
X96960Y252545D01*
X96985Y252504D01*
X97006Y252479D01*
X97011Y252473D01*
X97067Y252422D01*
X97133Y252387D01*
X97199Y252356D01*
X97260Y252341D01*
X97316Y252331D01*
X97362Y252326D01*
X97393Y252321D01*
X98151D01*
X96670Y254418D01*
Y254550D01*
X98512D01*
X98599Y253731D01*
D02*
G37*
G36*
X87584D02*
X87360Y253705D01*
X87345Y253771D01*
X87325Y253827D01*
X87309Y253883D01*
X87289Y253934D01*
X87253Y254016D01*
X87223Y254082D01*
X87197Y254133D01*
X87177Y254163D01*
X87162Y254184D01*
X87157Y254189D01*
X87111Y254229D01*
X87065Y254260D01*
X87014Y254285D01*
X86973Y254301D01*
X86933Y254311D01*
X86902Y254316D01*
X86149D01*
X87604Y252260D01*
Y252086D01*
X85686D01*
X85528Y253008D01*
X85757Y253043D01*
X85772Y252967D01*
X85792Y252901D01*
X85813Y252835D01*
X85833Y252779D01*
X85854Y252728D01*
X85874Y252682D01*
X85894Y252636D01*
X85910Y252601D01*
X85945Y252545D01*
X85971Y252504D01*
X85991Y252479D01*
X85996Y252473D01*
X86052Y252422D01*
X86118Y252387D01*
X86184Y252356D01*
X86246Y252341D01*
X86301Y252331D01*
X86347Y252326D01*
X86378Y252321D01*
X87136D01*
X85655Y254418D01*
Y254550D01*
X87498D01*
X87584Y253731D01*
D02*
G37*
%LPC*%
G36*
X122339Y254336D02*
X122262D01*
X122216Y254326D01*
X122135Y254301D01*
X122059Y254265D01*
X121998Y254224D01*
X121947Y254184D01*
X121911Y254148D01*
X121886Y254122D01*
X121881Y254117D01*
Y254112D01*
X121825Y254021D01*
X121789Y253924D01*
X121758Y253817D01*
X121743Y253720D01*
X121733Y253634D01*
Y253593D01*
Y253563D01*
Y253532D01*
Y253512D01*
Y253502D01*
Y253497D01*
X122975D01*
X122965Y253629D01*
X122944Y253746D01*
X122919Y253848D01*
X122883Y253934D01*
X122848Y254006D01*
X122822Y254056D01*
X122807Y254072D01*
X122802Y254087D01*
X122792Y254092D01*
Y254097D01*
X122756Y254138D01*
X122715Y254179D01*
X122639Y254235D01*
X122558Y254280D01*
X122481Y254306D01*
X122415Y254326D01*
X122359Y254331D01*
X122339Y254336D01*
D02*
G37*
G36*
X80784Y254927D02*
X80779D01*
X80738Y254922D01*
X80708Y254906D01*
X80687Y254886D01*
X80682Y254881D01*
X80667Y254861D01*
X80662Y254840D01*
X80657Y254794D01*
Y254774D01*
Y254754D01*
X80662Y254744D01*
Y254738D01*
X80814Y253700D01*
X80835Y253603D01*
X80860Y253517D01*
X80886Y253446D01*
X80911Y253390D01*
X80932Y253344D01*
X80952Y253313D01*
X80962Y253293D01*
X80967Y253288D01*
X81003Y253247D01*
X81038Y253217D01*
X81069Y253191D01*
X81099Y253176D01*
X81120Y253166D01*
X81140Y253161D01*
X81156D01*
X81176Y253166D01*
X81191Y253171D01*
X81217Y253191D01*
X81232Y253211D01*
X81237Y253222D01*
X81247Y253252D01*
X81252Y253288D01*
X81262Y253369D01*
X81267Y253405D01*
Y253435D01*
Y253461D01*
Y253466D01*
Y253583D01*
X81257Y253695D01*
X81252Y253802D01*
X81237Y253899D01*
X81222Y253995D01*
X81206Y254082D01*
X81191Y254158D01*
X81171Y254229D01*
X81156Y254296D01*
X81140Y254352D01*
X81125Y254402D01*
X81110Y254443D01*
X81094Y254474D01*
X81089Y254494D01*
X81079Y254509D01*
Y254515D01*
X81043Y254586D01*
X81013Y254652D01*
X80982Y254708D01*
X80952Y254754D01*
X80926Y254794D01*
X80901Y254825D01*
X80881Y254855D01*
X80860Y254876D01*
X80825Y254906D01*
X80799Y254922D01*
X80784Y254927D01*
D02*
G37*
G36*
X136494Y255558D02*
X136112D01*
X136041Y255548D01*
X135975Y255543D01*
X135914Y255527D01*
X135863Y255512D01*
X135812Y255497D01*
X135766Y255482D01*
X135725Y255466D01*
X135664Y255431D01*
X135618Y255400D01*
X135593Y255380D01*
X135583Y255370D01*
X135522Y255293D01*
X135476Y255202D01*
X135440Y255105D01*
X135420Y255013D01*
X135405Y254927D01*
X135400Y254891D01*
Y254861D01*
X135395Y254830D01*
Y254810D01*
Y254800D01*
Y254794D01*
Y254713D01*
X135405Y254642D01*
X135415Y254575D01*
X135430Y254509D01*
X135445Y254453D01*
X135466Y254408D01*
X135486Y254362D01*
X135506Y254321D01*
X135532Y254285D01*
X135552Y254255D01*
X135588Y254214D01*
X135613Y254189D01*
X135618Y254179D01*
X135624D01*
X135710Y254122D01*
X135802Y254077D01*
X135888Y254046D01*
X135970Y254026D01*
X136041Y254016D01*
X136097Y254011D01*
X136117Y254006D01*
X136616D01*
Y255441D01*
X136611Y255482D01*
X136601Y255507D01*
X136591Y255522D01*
X136586Y255527D01*
X136555Y255548D01*
X136519Y255553D01*
X136494Y255558D01*
D02*
G37*
G36*
X56291Y254357D02*
X56265D01*
X56214Y254352D01*
X56164Y254346D01*
X56067Y254316D01*
X55985Y254270D01*
X55909Y254224D01*
X55853Y254173D01*
X55807Y254128D01*
X55782Y254097D01*
X55772Y254092D01*
Y254087D01*
X55736Y254036D01*
X55700Y253975D01*
X55650Y253853D01*
X55614Y253720D01*
X55588Y253593D01*
X55578Y253532D01*
X55573Y253476D01*
X55568Y253425D01*
Y253379D01*
X55563Y253344D01*
Y253318D01*
Y253298D01*
Y253293D01*
Y253206D01*
X55573Y253120D01*
X55578Y253043D01*
X55594Y252967D01*
X55609Y252901D01*
X55624Y252840D01*
X55639Y252784D01*
X55655Y252733D01*
X55675Y252687D01*
X55690Y252652D01*
X55705Y252616D01*
X55721Y252590D01*
X55736Y252565D01*
X55741Y252550D01*
X55751Y252545D01*
Y252539D01*
X55787Y252494D01*
X55828Y252453D01*
X55868Y252417D01*
X55909Y252387D01*
X55996Y252341D01*
X56077Y252310D01*
X56153Y252290D01*
X56209Y252280D01*
X56235Y252275D01*
X56265D01*
X56316Y252280D01*
X56372Y252285D01*
X56464Y252316D01*
X56550Y252351D01*
X56622Y252397D01*
X56683Y252443D01*
X56729Y252484D01*
X56754Y252509D01*
X56759Y252514D01*
X56764Y252519D01*
X56800Y252570D01*
X56830Y252621D01*
X56881Y252743D01*
X56917Y252870D01*
X56942Y252998D01*
X56953Y253059D01*
X56958Y253115D01*
X56963Y253161D01*
Y253206D01*
X56968Y253242D01*
Y253267D01*
Y253288D01*
Y253293D01*
X56963Y253390D01*
X56958Y253481D01*
X56947Y253563D01*
X56932Y253639D01*
X56917Y253710D01*
X56902Y253776D01*
X56881Y253837D01*
X56861Y253888D01*
X56841Y253934D01*
X56820Y253975D01*
X56805Y254011D01*
X56790Y254036D01*
X56774Y254062D01*
X56764Y254077D01*
X56754Y254082D01*
Y254087D01*
X56713Y254133D01*
X56668Y254179D01*
X56627Y254214D01*
X56586Y254245D01*
X56505Y254291D01*
X56428Y254321D01*
X56362Y254341D01*
X56311Y254352D01*
X56291Y254357D01*
D02*
G37*
G36*
X78397Y254336D02*
X78361D01*
X78285Y254331D01*
X78219Y254316D01*
X78158Y254291D01*
X78107Y254265D01*
X78066Y254240D01*
X78035Y254214D01*
X78015Y254199D01*
X78010Y254194D01*
X77964Y254133D01*
X77928Y254062D01*
X77903Y253980D01*
X77883Y253904D01*
X77873Y253827D01*
X77867Y253771D01*
Y253746D01*
Y253731D01*
Y253720D01*
Y253715D01*
X77873Y253619D01*
X77888Y253532D01*
X77908Y253461D01*
X77928Y253405D01*
X77954Y253359D01*
X77974Y253323D01*
X77990Y253303D01*
X77995Y253298D01*
X78045Y253252D01*
X78101Y253217D01*
X78163Y253196D01*
X78224Y253176D01*
X78280Y253166D01*
X78320Y253161D01*
X78361D01*
X78443Y253166D01*
X78509Y253186D01*
X78570Y253211D01*
X78621Y253242D01*
X78661Y253267D01*
X78692Y253293D01*
X78712Y253313D01*
X78717Y253318D01*
X78763Y253384D01*
X78794Y253451D01*
X78819Y253517D01*
X78834Y253578D01*
X78845Y253634D01*
X78850Y253675D01*
Y253705D01*
Y253715D01*
X78845Y253832D01*
X78829Y253934D01*
X78804Y254016D01*
X78778Y254082D01*
X78758Y254133D01*
X78733Y254168D01*
X78717Y254189D01*
X78712Y254194D01*
X78656Y254240D01*
X78595Y254275D01*
X78539Y254301D01*
X78483Y254321D01*
X78432Y254331D01*
X78397Y254336D01*
D02*
G37*
G36*
X78733Y252356D02*
X78636Y252341D01*
X78544Y252326D01*
X78463Y252316D01*
X78386Y252305D01*
X78320Y252300D01*
X78269Y252295D01*
X78254Y252290D01*
X78229D01*
X78132Y252275D01*
X78040Y252260D01*
X77959Y252244D01*
X77893Y252234D01*
X77837Y252224D01*
X77796Y252214D01*
X77771Y252209D01*
X77760D01*
X77730Y252199D01*
X77705Y252188D01*
X77669Y252158D01*
X77643Y252132D01*
X77638Y252127D01*
Y252122D01*
X77623Y252097D01*
X77613Y252066D01*
X77598Y252000D01*
X77592Y251975D01*
Y251949D01*
Y251934D01*
Y251929D01*
X77603Y251857D01*
X77623Y251796D01*
X77654Y251746D01*
X77689Y251700D01*
X77725Y251669D01*
X77755Y251644D01*
X77776Y251628D01*
X77786Y251623D01*
X77862Y251588D01*
X77949Y251562D01*
X78035Y251542D01*
X78122Y251532D01*
X78203Y251521D01*
X78234D01*
X78264Y251516D01*
X78320D01*
X78448Y251521D01*
X78554Y251537D01*
X78646Y251562D01*
X78717Y251588D01*
X78778Y251608D01*
X78819Y251634D01*
X78839Y251649D01*
X78850Y251654D01*
X78906Y251705D01*
X78946Y251751D01*
X78977Y251801D01*
X78997Y251842D01*
X79008Y251878D01*
X79013Y251903D01*
X79018Y251924D01*
Y251929D01*
X79013Y251985D01*
X79008Y252030D01*
X78997Y252076D01*
X78987Y252112D01*
X78977Y252137D01*
X78967Y252163D01*
X78957Y252173D01*
Y252178D01*
X78926Y252214D01*
X78895Y252249D01*
X78819Y252305D01*
X78784Y252326D01*
X78758Y252341D01*
X78738Y252351D01*
X78733Y252356D01*
D02*
G37*
G36*
X114531D02*
X114434Y252341D01*
X114342Y252326D01*
X114261Y252316D01*
X114184Y252305D01*
X114118Y252300D01*
X114067Y252295D01*
X114052Y252290D01*
X114027D01*
X113930Y252275D01*
X113838Y252260D01*
X113757Y252244D01*
X113691Y252234D01*
X113635Y252224D01*
X113594Y252214D01*
X113569Y252209D01*
X113558D01*
X113528Y252199D01*
X113502Y252188D01*
X113467Y252158D01*
X113441Y252132D01*
X113436Y252127D01*
Y252122D01*
X113421Y252097D01*
X113411Y252066D01*
X113396Y252000D01*
X113391Y251975D01*
Y251949D01*
Y251934D01*
Y251929D01*
X113401Y251857D01*
X113421Y251796D01*
X113452Y251746D01*
X113487Y251700D01*
X113523Y251669D01*
X113553Y251644D01*
X113574Y251628D01*
X113584Y251623D01*
X113660Y251588D01*
X113747Y251562D01*
X113833Y251542D01*
X113920Y251532D01*
X114001Y251521D01*
X114032D01*
X114062Y251516D01*
X114118D01*
X114246Y251521D01*
X114353Y251537D01*
X114444Y251562D01*
X114515Y251588D01*
X114576Y251608D01*
X114617Y251634D01*
X114637Y251649D01*
X114648Y251654D01*
X114704Y251705D01*
X114744Y251751D01*
X114775Y251801D01*
X114795Y251842D01*
X114805Y251878D01*
X114811Y251903D01*
X114816Y251924D01*
Y251929D01*
X114811Y251985D01*
X114805Y252030D01*
X114795Y252076D01*
X114785Y252112D01*
X114775Y252137D01*
X114765Y252163D01*
X114755Y252173D01*
Y252178D01*
X114724Y252214D01*
X114693Y252249D01*
X114617Y252305D01*
X114582Y252326D01*
X114556Y252341D01*
X114536Y252351D01*
X114531Y252356D01*
D02*
G37*
G36*
X114195Y254336D02*
X114159D01*
X114083Y254331D01*
X114016Y254316D01*
X113955Y254291D01*
X113905Y254265D01*
X113864Y254240D01*
X113833Y254214D01*
X113813Y254199D01*
X113808Y254194D01*
X113762Y254133D01*
X113726Y254062D01*
X113701Y253980D01*
X113681Y253904D01*
X113670Y253827D01*
X113665Y253771D01*
Y253746D01*
Y253731D01*
Y253720D01*
Y253715D01*
X113670Y253619D01*
X113686Y253532D01*
X113706Y253461D01*
X113726Y253405D01*
X113752Y253359D01*
X113772Y253323D01*
X113787Y253303D01*
X113793Y253298D01*
X113844Y253252D01*
X113900Y253217D01*
X113961Y253196D01*
X114022Y253176D01*
X114078Y253166D01*
X114118Y253161D01*
X114159D01*
X114241Y253166D01*
X114307Y253186D01*
X114368Y253211D01*
X114419Y253242D01*
X114459Y253267D01*
X114490Y253293D01*
X114510Y253313D01*
X114515Y253318D01*
X114561Y253384D01*
X114592Y253451D01*
X114617Y253517D01*
X114632Y253578D01*
X114643Y253634D01*
X114648Y253675D01*
Y253705D01*
Y253715D01*
X114643Y253832D01*
X114627Y253934D01*
X114602Y254016D01*
X114576Y254082D01*
X114556Y254133D01*
X114531Y254168D01*
X114515Y254189D01*
X114510Y254194D01*
X114454Y254240D01*
X114393Y254275D01*
X114337Y254301D01*
X114281Y254321D01*
X114230Y254331D01*
X114195Y254336D01*
D02*
G37*
G36*
X125428Y255558D02*
X125382D01*
X125301Y255553D01*
X125220Y255543D01*
X125148Y255527D01*
X125082Y255502D01*
X125016Y255476D01*
X124960Y255446D01*
X124904Y255415D01*
X124858Y255385D01*
X124812Y255349D01*
X124777Y255319D01*
X124746Y255288D01*
X124716Y255263D01*
X124695Y255237D01*
X124680Y255222D01*
X124675Y255212D01*
X124670Y255207D01*
X124624Y255135D01*
X124583Y255054D01*
X124548Y254962D01*
X124517Y254866D01*
X124471Y254662D01*
X124436Y254458D01*
X124426Y254362D01*
X124420Y254270D01*
X124415Y254184D01*
X124410Y254112D01*
X124405Y254056D01*
Y254011D01*
Y253980D01*
Y253975D01*
Y253970D01*
X124410Y253792D01*
X124420Y253629D01*
X124436Y253481D01*
X124451Y253349D01*
X124477Y253227D01*
X124502Y253120D01*
X124527Y253023D01*
X124558Y252942D01*
X124589Y252870D01*
X124614Y252809D01*
X124639Y252758D01*
X124665Y252718D01*
X124680Y252687D01*
X124695Y252667D01*
X124706Y252657D01*
X124711Y252652D01*
X124767Y252595D01*
X124828Y252545D01*
X124889Y252499D01*
X124955Y252458D01*
X125016Y252428D01*
X125077Y252402D01*
X125194Y252361D01*
X125245Y252346D01*
X125296Y252336D01*
X125337Y252331D01*
X125377Y252326D01*
X125408Y252321D01*
X125449D01*
X125505Y252326D01*
X125545Y252336D01*
X125571Y252341D01*
X125581Y252346D01*
X125607Y252372D01*
X125617Y252402D01*
X125622Y252428D01*
Y252438D01*
Y255441D01*
X125612Y255476D01*
X125596Y255507D01*
X125581Y255522D01*
X125571Y255527D01*
X125550Y255538D01*
X125520Y255548D01*
X125459Y255553D01*
X125428Y255558D01*
D02*
G37*
G36*
X131129Y253960D02*
X130702D01*
X130564Y253949D01*
X130442Y253929D01*
X130340Y253893D01*
X130259Y253858D01*
X130193Y253817D01*
X130147Y253782D01*
X130121Y253761D01*
X130111Y253751D01*
X130076Y253710D01*
X130045Y253664D01*
X129994Y253563D01*
X129958Y253461D01*
X129938Y253354D01*
X129923Y253257D01*
X129918Y253217D01*
Y253181D01*
X129913Y253150D01*
Y253130D01*
Y253115D01*
Y253110D01*
X129923Y252977D01*
X129943Y252855D01*
X129974Y252758D01*
X130004Y252672D01*
X130040Y252611D01*
X130070Y252560D01*
X130091Y252535D01*
X130101Y252524D01*
X130177Y252458D01*
X130259Y252407D01*
X130345Y252372D01*
X130427Y252346D01*
X130503Y252331D01*
X130564Y252326D01*
X130590Y252321D01*
X130997D01*
X131043Y252326D01*
X131073Y252336D01*
X131094Y252341D01*
X131099Y252346D01*
X131114Y252372D01*
X131124Y252402D01*
X131129Y252428D01*
Y252433D01*
Y252438D01*
Y253960D01*
D02*
G37*
G36*
X131007Y255558D02*
X130742D01*
X130630Y255553D01*
X130528Y255538D01*
X130442Y255512D01*
X130371Y255487D01*
X130310Y255456D01*
X130269Y255436D01*
X130244Y255415D01*
X130233Y255410D01*
X130167Y255349D01*
X130116Y255273D01*
X130081Y255191D01*
X130060Y255110D01*
X130045Y255034D01*
X130040Y254973D01*
X130035Y254952D01*
Y254932D01*
Y254922D01*
Y254917D01*
X130045Y254784D01*
X130065Y254672D01*
X130096Y254575D01*
X130131Y254499D01*
X130172Y254443D01*
X130203Y254402D01*
X130223Y254377D01*
X130233Y254367D01*
X130305Y254311D01*
X130376Y254265D01*
X130447Y254235D01*
X130508Y254214D01*
X130559Y254204D01*
X130600Y254199D01*
X130625Y254194D01*
X131129D01*
Y255441D01*
X131124Y255482D01*
X131114Y255507D01*
X131104Y255522D01*
X131099Y255527D01*
X131068Y255548D01*
X131032Y255553D01*
X131007Y255558D01*
D02*
G37*
G36*
X105725Y254296D02*
X105684D01*
X105638Y254291D01*
X105593Y254285D01*
X105516Y254260D01*
X105450Y254219D01*
X105394Y254173D01*
X105353Y254128D01*
X105323Y254092D01*
X105303Y254062D01*
X105297Y254056D01*
Y254051D01*
X105277Y254006D01*
X105257Y253949D01*
X105226Y253832D01*
X105201Y253710D01*
X105185Y253593D01*
X105175Y253486D01*
Y253440D01*
X105170Y253400D01*
Y253364D01*
Y253339D01*
Y253323D01*
Y253318D01*
Y253227D01*
X105175Y253135D01*
X105185Y253054D01*
X105191Y252982D01*
X105206Y252911D01*
X105216Y252850D01*
X105231Y252794D01*
X105241Y252743D01*
X105257Y252697D01*
X105272Y252662D01*
X105282Y252626D01*
X105292Y252601D01*
X105303Y252580D01*
X105313Y252565D01*
X105318Y252560D01*
Y252555D01*
X105348Y252514D01*
X105379Y252479D01*
X105455Y252417D01*
X105537Y252377D01*
X105618Y252346D01*
X105694Y252331D01*
X105755Y252321D01*
X105781Y252316D01*
X105812D01*
X105913Y252321D01*
X106005Y252341D01*
X106081Y252361D01*
X106142Y252392D01*
X106188Y252417D01*
X106224Y252443D01*
X106244Y252458D01*
X106249Y252463D01*
X106295Y252524D01*
X106331Y252585D01*
X106351Y252646D01*
X106371Y252702D01*
X106381Y252753D01*
X106387Y252794D01*
Y252819D01*
Y252830D01*
Y253664D01*
X106366Y253731D01*
X106341Y253787D01*
X106290Y253893D01*
X106244Y253975D01*
X106198Y254046D01*
X106158Y254097D01*
X106127Y254133D01*
X106102Y254153D01*
X106096Y254158D01*
X106025Y254204D01*
X105959Y254240D01*
X105888Y254260D01*
X105822Y254280D01*
X105766Y254291D01*
X105725Y254296D01*
D02*
G37*
G36*
X64420D02*
X64379D01*
X64333Y254291D01*
X64287Y254285D01*
X64211Y254260D01*
X64145Y254219D01*
X64089Y254173D01*
X64048Y254128D01*
X64017Y254092D01*
X63997Y254062D01*
X63992Y254056D01*
Y254051D01*
X63972Y254006D01*
X63951Y253949D01*
X63921Y253832D01*
X63895Y253710D01*
X63880Y253593D01*
X63870Y253486D01*
Y253440D01*
X63865Y253400D01*
Y253364D01*
Y253339D01*
Y253323D01*
Y253318D01*
Y253227D01*
X63870Y253135D01*
X63880Y253054D01*
X63885Y252982D01*
X63900Y252911D01*
X63911Y252850D01*
X63926Y252794D01*
X63936Y252743D01*
X63951Y252697D01*
X63967Y252662D01*
X63977Y252626D01*
X63987Y252601D01*
X63997Y252580D01*
X64007Y252565D01*
X64012Y252560D01*
Y252555D01*
X64043Y252514D01*
X64073Y252479D01*
X64150Y252417D01*
X64231Y252377D01*
X64313Y252346D01*
X64389Y252331D01*
X64450Y252321D01*
X64476Y252316D01*
X64506D01*
X64608Y252321D01*
X64700Y252341D01*
X64776Y252361D01*
X64837Y252392D01*
X64883Y252417D01*
X64918Y252443D01*
X64939Y252458D01*
X64944Y252463D01*
X64990Y252524D01*
X65025Y252585D01*
X65046Y252646D01*
X65066Y252702D01*
X65076Y252753D01*
X65081Y252794D01*
Y252819D01*
Y252830D01*
Y253664D01*
X65061Y253731D01*
X65035Y253787D01*
X64985Y253893D01*
X64939Y253975D01*
X64893Y254046D01*
X64852Y254097D01*
X64822Y254133D01*
X64796Y254153D01*
X64791Y254158D01*
X64720Y254204D01*
X64654Y254240D01*
X64583Y254260D01*
X64516Y254280D01*
X64460Y254291D01*
X64420Y254296D01*
D02*
G37*
%LPD*%
D10*
X193500Y184000D02*
X211500Y184000D01*
X193500Y202000D02*
X211500D01*
D57*
X190450Y246300D02*
X190683D01*
X182350D02*
X182483D01*
X181050D02*
X181083D01*
X194350Y246400D02*
X195783D01*
X191650D02*
X193383D01*
X190250D02*
X190983D01*
X188650D02*
X189683D01*
X184850D02*
X188183D01*
X184350D02*
X184383D01*
X183950D02*
X184083D01*
X182950D02*
X183783D01*
X182250D02*
X182483D01*
X180650D02*
X181483D01*
X194350Y246500D02*
X195883D01*
X191650D02*
X193383D01*
X190050D02*
X191183D01*
X188650D02*
X189683D01*
X184750D02*
X188183D01*
X182850D02*
X184483D01*
X182250D02*
X182483D01*
X180450D02*
X181683D01*
X194350Y246600D02*
X195783D01*
X191650D02*
X193383D01*
X189950D02*
X191283D01*
X188650D02*
X189683D01*
X184750D02*
X188183D01*
X182850D02*
X184483D01*
X182150D02*
X182483D01*
X180350D02*
X181783D01*
X194650Y246700D02*
X195683D01*
X191750D02*
X193183D01*
X190450D02*
X191383D01*
X189850D02*
X190283D01*
X188950D02*
X189683D01*
X186550D02*
X188083D01*
X184750D02*
X186083D01*
X183150D02*
X184183D01*
X182050D02*
X182483D01*
X181450D02*
X181883D01*
X180250D02*
X180883D01*
X194850Y246800D02*
X195483D01*
X192050D02*
X192983D01*
X190650D02*
X191383D01*
X189050D02*
X189983D01*
X186750D02*
X187683D01*
X184750D02*
X185683D01*
X183250D02*
X183983D01*
X181550D02*
X182483D01*
X180150D02*
X180783D01*
X194850Y246900D02*
X195383D01*
X192050D02*
X192983D01*
X190750D02*
X191483D01*
X189050D02*
X189883D01*
X186850D02*
X187583D01*
X184750D02*
X185483D01*
X183350D02*
X183983D01*
X181650D02*
X182483D01*
X180050D02*
X180683D01*
X194950Y247000D02*
X195283D01*
X192150D02*
X193083D01*
X190750D02*
X191483D01*
X189050D02*
X189883D01*
X186850D02*
X187583D01*
X184750D02*
X185383D01*
X183350D02*
X183983D01*
X181650D02*
X182483D01*
X180050D02*
X180683D01*
X194850Y247100D02*
X195183D01*
X192150D02*
X193083D01*
X190850D02*
X191583D01*
X189050D02*
X189783D01*
X186850D02*
X187583D01*
X184750D02*
X185283D01*
X183350D02*
X183983D01*
X181750D02*
X182483D01*
X179950D02*
X180583D01*
X194850Y247200D02*
X195183D01*
X192250D02*
X193083D01*
X190850D02*
X191583D01*
X189050D02*
X189783D01*
X186850D02*
X187583D01*
X184750D02*
X185183D01*
X183350D02*
X183983D01*
X181750D02*
X182483D01*
X179950D02*
X180583D01*
X194850Y247300D02*
X195183D01*
X192250D02*
X193183D01*
X190850D02*
X191583D01*
X189050D02*
X189783D01*
X186850D02*
X187583D01*
X184750D02*
X185183D01*
X183350D02*
X183983D01*
X181750D02*
X182483D01*
X179850D02*
X180583D01*
X194850Y247400D02*
X195083D01*
X192350D02*
X193183D01*
X190850D02*
X191683D01*
X189050D02*
X189783D01*
X186850D02*
X187583D01*
X184750D02*
X185083D01*
X183350D02*
X183983D01*
X181750D02*
X182483D01*
X179850D02*
X180583D01*
X194750Y247500D02*
X195083D01*
X192350D02*
X193183D01*
X190850D02*
X191683D01*
X189050D02*
X189783D01*
X186850D02*
X187583D01*
X184750D02*
X185083D01*
X183350D02*
X183983D01*
X181750D02*
X182483D01*
X179750D02*
X180583D01*
X194750Y247600D02*
X194983D01*
X192350D02*
X193283D01*
X190850D02*
X191683D01*
X189050D02*
X189683D01*
X186850D02*
X187583D01*
X184750D02*
X184983D01*
X183350D02*
X183983D01*
X181750D02*
X182483D01*
X179750D02*
X180583D01*
X192450Y247700D02*
X194983D01*
X190850D02*
X191683D01*
X189050D02*
X189683D01*
X186850D02*
X187583D01*
X184750D02*
X184983D01*
X183350D02*
X183983D01*
X181750D02*
X182483D01*
X179750D02*
X180583D01*
X192450Y247800D02*
X194883D01*
X190850D02*
X191683D01*
X189050D02*
X189683D01*
X186850D02*
X187583D01*
X184650D02*
X184983D01*
X183350D02*
X183983D01*
X181750D02*
X182483D01*
X179750D02*
X180583D01*
X192550Y247900D02*
X194883D01*
X190850D02*
X191683D01*
X189050D02*
X189683D01*
X186850D02*
X187583D01*
X184750D02*
X184883D01*
X183350D02*
X183983D01*
X181750D02*
X182483D01*
X179750D02*
X180583D01*
X194550Y248000D02*
X194883D01*
X192550D02*
X193383D01*
X190850D02*
X191683D01*
X189050D02*
X189683D01*
X186850D02*
X187583D01*
X183350D02*
X183983D01*
X181750D02*
X182483D01*
X179750D02*
X180583D01*
X194550Y248100D02*
X194783D01*
X192550D02*
X193383D01*
X190850D02*
X191583D01*
X189050D02*
X189783D01*
X186850D02*
X187583D01*
X183350D02*
X183983D01*
X181750D02*
X182483D01*
X179850D02*
X180583D01*
X194550Y248200D02*
X194783D01*
X192650D02*
X193483D01*
X190850D02*
X191583D01*
X189050D02*
X189783D01*
X186850D02*
X187583D01*
X183350D02*
X183983D01*
X181750D02*
X182483D01*
X179850D02*
X180583D01*
X194450Y248300D02*
X194783D01*
X192650D02*
X193483D01*
X190850D02*
X191583D01*
X189050D02*
X189783D01*
X186850D02*
X187583D01*
X183350D02*
X183983D01*
X181750D02*
X182483D01*
X179850D02*
X180583D01*
X194450Y248400D02*
X194683D01*
X192650D02*
X193583D01*
X190850D02*
X191583D01*
X189050D02*
X189783D01*
X186850D02*
X187583D01*
X183350D02*
X183983D01*
X181650D02*
X182483D01*
X179950D02*
X180683D01*
X194350Y248500D02*
X194683D01*
X192750D02*
X193583D01*
X190750D02*
X191483D01*
X189050D02*
X189783D01*
X186850D02*
X187583D01*
X183350D02*
X183983D01*
X181650D02*
X182483D01*
X179950D02*
X180683D01*
X194350Y248600D02*
X194583D01*
X192750D02*
X193583D01*
X190750D02*
X191383D01*
X189050D02*
X189883D01*
X186850D02*
X187583D01*
X183350D02*
X183983D01*
X181550D02*
X182483D01*
X180050D02*
X180783D01*
X194350Y248700D02*
X194583D01*
X192850D02*
X193683D01*
X190650D02*
X191383D01*
X189050D02*
X189983D01*
X186850D02*
X187583D01*
X183350D02*
X183983D01*
X181450D02*
X182483D01*
X180050D02*
X180783D01*
X194250Y248800D02*
X194583D01*
X192850D02*
X193683D01*
X190550D02*
X191283D01*
X189050D02*
X190083D01*
X186850D02*
X187583D01*
X183350D02*
X184083D01*
X181250D02*
X182483D01*
X180150D02*
X181083D01*
X194250Y248900D02*
X194483D01*
X192850D02*
X193783D01*
X189050D02*
X191183D01*
X186850D02*
X187583D01*
X183350D02*
X184483D01*
X181750D02*
X182483D01*
X180250D02*
X181583D01*
X194150Y249000D02*
X194483D01*
X192950D02*
X193783D01*
X189950D02*
X191083D01*
X189050D02*
X189683D01*
X186850D02*
X187583D01*
X183350D02*
X184483D01*
X181750D02*
X182483D01*
X180350D02*
X181483D01*
X194150Y249100D02*
X194383D01*
X192950D02*
X193783D01*
X190050D02*
X190883D01*
X189050D02*
X189783D01*
X186850D02*
X187583D01*
X183350D02*
X184383D01*
X181750D02*
X182483D01*
X180550D02*
X181383D01*
X194150Y249200D02*
X194383D01*
X193050D02*
X193883D01*
X190550D02*
X190583D01*
X189050D02*
X189783D01*
X186850D02*
X187583D01*
X181750D02*
X182483D01*
X180850D02*
X180983D01*
X194050Y249300D02*
X194383D01*
X193050D02*
X193883D01*
X189050D02*
X189783D01*
X186850D02*
X187583D01*
X181750D02*
X182483D01*
X193050Y249400D02*
X194283D01*
X189050D02*
X189783D01*
X186850D02*
X187583D01*
X181750D02*
X182483D01*
X193150Y249500D02*
X194283D01*
X189050D02*
X189783D01*
X186850D02*
X187583D01*
X181750D02*
X182483D01*
X193150Y249600D02*
X194183D01*
X189050D02*
X189783D01*
X186850D02*
X187583D01*
X181750D02*
X182483D01*
X193250Y249700D02*
X194183D01*
X189050D02*
X189783D01*
X186850D02*
X187583D01*
X183550D02*
X183883D01*
X181750D02*
X182483D01*
X193250Y249800D02*
X194183D01*
X189050D02*
X189783D01*
X186850D02*
X187583D01*
X183350D02*
X183983D01*
X181750D02*
X182483D01*
X193250Y249900D02*
X194083D01*
X189050D02*
X189783D01*
X186850D02*
X187583D01*
X183350D02*
X184083D01*
X181750D02*
X182483D01*
X193350Y250000D02*
X194083D01*
X189050D02*
X189783D01*
X186850D02*
X187583D01*
X183250D02*
X184083D01*
X181750D02*
X182483D01*
X193350Y250100D02*
X193983D01*
X189050D02*
X189783D01*
X186850D02*
X187683D01*
X183250D02*
X184083D01*
X181750D02*
X182483D01*
X193350Y250200D02*
X193983D01*
X189050D02*
X189883D01*
X186650D02*
X187783D01*
X183250D02*
X184083D01*
X181750D02*
X182583D01*
X193450Y250300D02*
X193983D01*
X189050D02*
X190183D01*
X186250D02*
X188183D01*
X183350D02*
X184083D01*
X181750D02*
X182883D01*
X193450Y250400D02*
X193883D01*
X189050D02*
X190283D01*
X186150D02*
X188183D01*
X183350D02*
X183983D01*
X181750D02*
X182883D01*
X193550Y250500D02*
X193883D01*
X189050D02*
X190183D01*
X186250D02*
X188183D01*
X183450D02*
X183883D01*
X181750D02*
X182783D01*
X193650Y250600D02*
X193783D01*
X189150D02*
X189883D01*
X183550D02*
X183783D01*
X181850D02*
X182483D01*
X187750Y252000D02*
X189683D01*
X187350Y252100D02*
X190183D01*
X186950Y252200D02*
X190483D01*
X186650Y252300D02*
X190783D01*
X186450Y252400D02*
X190983D01*
X189750Y252500D02*
X191183D01*
X186650D02*
X188583D01*
X186350D02*
X186483D01*
X189850Y252600D02*
X191383D01*
X189150Y252700D02*
X191583D01*
X187850Y252800D02*
X191683D01*
X186750Y252900D02*
X191883D01*
X185850Y253000D02*
X191983D01*
X185150Y253100D02*
X192083D01*
X184950Y253200D02*
X192183D01*
X184850Y253300D02*
X192283D01*
X184750Y253400D02*
X192383D01*
X188350Y253500D02*
X192483D01*
X188250Y253600D02*
X192583D01*
X187050Y253700D02*
X192683D01*
X185750Y253800D02*
X192783D01*
X184650Y253900D02*
X192883D01*
X184050Y254000D02*
X192883D01*
X183950Y254100D02*
X192983D01*
X183850Y254200D02*
X192983D01*
X183750Y254300D02*
X193083D01*
X187350Y254400D02*
X193183D01*
X187350Y254500D02*
X193183D01*
X186350Y254600D02*
X193183D01*
X185250Y254700D02*
X193283D01*
X183950Y254800D02*
X193283D01*
X183250Y254900D02*
X193383D01*
X183250Y255000D02*
X193383D01*
X183150Y255100D02*
X193383D01*
X183150Y255200D02*
X193483D01*
X186650Y255300D02*
X193483D01*
X186650Y255400D02*
X193483D01*
X185750Y255500D02*
X193483D01*
X184550Y255600D02*
X193583D01*
X183550Y255700D02*
X193583D01*
X182750Y255800D02*
X193583D01*
X182750Y255900D02*
X193583D01*
X182750Y256000D02*
X193583D01*
X182650Y256100D02*
X193583D01*
X185550Y256200D02*
X193583D01*
X186050Y256300D02*
X193583D01*
X185950Y256400D02*
X193683D01*
X184750Y256500D02*
X193683D01*
X183650Y256600D02*
X193683D01*
X182650Y256700D02*
X193683D01*
X182450Y256800D02*
X193683D01*
X182450Y256900D02*
X193583D01*
X182450Y257000D02*
X193583D01*
X183950Y257100D02*
X193583D01*
X183550D02*
X183683D01*
X185750Y257200D02*
X193583D01*
X185750Y257300D02*
X193583D01*
X184650Y257400D02*
X193583D01*
X183750Y257500D02*
X193583D01*
X182850Y257600D02*
X193583D01*
X182350Y257700D02*
X193483D01*
X182350Y257800D02*
X193483D01*
X182350Y257900D02*
X193483D01*
X182350Y258000D02*
X193483D01*
X185550Y258100D02*
X193483D01*
X185650Y258200D02*
X193383D01*
X185450Y258300D02*
X193383D01*
X184350Y258400D02*
X193383D01*
X183150Y258500D02*
X193283D01*
X182350Y258600D02*
X193283D01*
X182350Y258700D02*
X193283D01*
X182350Y258800D02*
X193183D01*
X182450Y258900D02*
X193183D01*
X182550Y259000D02*
X193083D01*
X185750Y259100D02*
X193083D01*
X185750Y259200D02*
X192983D01*
X184750Y259300D02*
X192983D01*
X183850Y259400D02*
X192883D01*
X182850Y259500D02*
X192883D01*
X182650Y259600D02*
X192783D01*
X182650Y259700D02*
X192783D01*
X182650Y259800D02*
X192683D01*
X182750Y259900D02*
X192583D01*
X186050Y260000D02*
X192483D01*
X186150Y260100D02*
X192483D01*
X185650Y260200D02*
X192383D01*
X184550Y260300D02*
X192283D01*
X183450Y260400D02*
X192183D01*
X183050Y260500D02*
X192183D01*
X183050Y260600D02*
X192083D01*
X183150Y260700D02*
X191983D01*
X183250Y260800D02*
X191883D01*
X184950Y260900D02*
X191783D01*
X186650Y261000D02*
X191683D01*
X186550Y261100D02*
X191483D01*
X185550Y261200D02*
X191383D01*
X184650Y261300D02*
X191283D01*
X183650Y261400D02*
X191183D01*
X183650Y261500D02*
X190983D01*
X183750Y261600D02*
X190883D01*
X183750Y261700D02*
X190683D01*
X183850Y261800D02*
X190483D01*
X187050Y261900D02*
X190383D01*
X187050Y262000D02*
X190183D01*
X186650Y262100D02*
X189983D01*
X185550Y262200D02*
X189683D01*
X184450Y262300D02*
X189383D01*
X184250Y262400D02*
X188983D01*
X184250Y262500D02*
X188883D01*
X184350Y262600D02*
X188883D01*
X184350Y262700D02*
X188883D01*
X187550Y262800D02*
X188983D01*
X187550Y262900D02*
X189083D01*
X187050Y263000D02*
X189083D01*
X185850Y263100D02*
X189183D01*
X184750Y263200D02*
X189183D01*
X184650Y263300D02*
X189283D01*
X184750Y263400D02*
X189283D01*
X184750Y263500D02*
X189383D01*
X184850Y263600D02*
X189383D01*
X184950Y263700D02*
X189483D01*
X188050Y263800D02*
X189483D01*
X187950Y263900D02*
X189583D01*
X186850Y264000D02*
X189683D01*
X185650Y264100D02*
X189683D01*
X184550Y264200D02*
X189783D01*
X183550Y264300D02*
X189783D01*
X182350Y264400D02*
X189883D01*
X180350Y264500D02*
X189883D01*
X184550Y264600D02*
X189983D01*
X180350D02*
X183283D01*
X188650Y264700D02*
X189983D01*
X188550Y264800D02*
X190083D01*
X187350Y264900D02*
X190083D01*
X186250Y265000D02*
X190183D01*
X185350Y265100D02*
X190183D01*
X184150Y265200D02*
X190283D01*
X182950Y265300D02*
X190383D01*
X180850Y265400D02*
X190383D01*
X180850Y265500D02*
X190483D01*
X189150Y265600D02*
X190483D01*
X180950D02*
X181083D01*
X189050Y265700D02*
X190583D01*
X188250Y265800D02*
X190583D01*
X187050Y265900D02*
X190683D01*
X185950Y266000D02*
X190683D01*
X184650Y266100D02*
X190783D01*
X183550Y266200D02*
X190783D01*
X181950Y266300D02*
X190883D01*
X181350Y266400D02*
X190983D01*
X189650Y266500D02*
X190983D01*
X181350D02*
X182383D01*
X189550Y266600D02*
X191083D01*
X188850Y266700D02*
X191083D01*
X187450Y266800D02*
X191183D01*
X186650Y266900D02*
X191183D01*
X185350Y267000D02*
X191283D01*
X184150Y267100D02*
X191283D01*
X182550Y267200D02*
X191383D01*
X181750Y267300D02*
X191383D01*
X190050Y267400D02*
X191483D01*
X181850D02*
X182983D01*
X190150Y267500D02*
X191483D01*
X189450Y267600D02*
X191583D01*
X188250Y267700D02*
X191683D01*
X187150Y267800D02*
X191683D01*
X187150Y267900D02*
X191783D01*
X187250Y268000D02*
X191783D01*
X187250Y268100D02*
X191883D01*
X187350Y268200D02*
X191883D01*
X188650Y268300D02*
X191983D01*
X190550Y268400D02*
X191983D01*
X190450Y268500D02*
X192083D01*
X189050Y268600D02*
X192083D01*
X188050Y268700D02*
X192183D01*
X187150Y268800D02*
X192183D01*
X186150Y268900D02*
X192283D01*
X184850Y269000D02*
X192283D01*
X182850Y269100D02*
X192383D01*
X182850Y269200D02*
X192483D01*
X191050Y269300D02*
X192483D01*
X182950D02*
X182983D01*
X191050Y269400D02*
X192583D01*
X190250Y269500D02*
X192583D01*
X189150Y269600D02*
X192683D01*
X188050Y269700D02*
X192683D01*
X187150Y269800D02*
X192783D01*
X186050Y269900D02*
X192783D01*
X184450Y270000D02*
X192883D01*
X183350Y270100D02*
X192883D01*
X191350Y270200D02*
X192983D01*
X190950D02*
X190983D01*
X183350D02*
X185883D01*
X191650Y270300D02*
X192983D01*
X191450Y270400D02*
X193083D01*
X190250Y270500D02*
X193083D01*
X189150Y270600D02*
X193183D01*
X188250Y270700D02*
X193183D01*
X187150Y270800D02*
X193283D01*
X185850Y270900D02*
X193383D01*
X183950Y271000D02*
X193383D01*
X183850Y271100D02*
X193383D01*
X192050Y271200D02*
X193483D01*
X183850D02*
X184383D01*
X192050Y271300D02*
X193583D01*
X191450Y271400D02*
X193583D01*
X190250Y271500D02*
X193683D01*
X189050Y271600D02*
X193683D01*
X188150Y271700D02*
X193783D01*
X187150Y271800D02*
X193783D01*
X185750Y271900D02*
X193883D01*
X184250Y272000D02*
X193883D01*
X190950Y272100D02*
X193683D01*
X184350D02*
X186783D01*
X184450Y272200D02*
X184583D01*
D58*
X157615Y266399D02*
X158043Y266185D01*
X158472Y265756D01*
X158686Y265328D01*
X158900Y264685D01*
Y263614D01*
X158686Y262971D01*
X158472Y262543D01*
X158043Y262114D01*
X157615Y261900D01*
X156758D01*
X156329Y262114D01*
X155901Y262543D01*
X155686Y262971D01*
X155472Y263614D01*
Y264685D01*
X155686Y265328D01*
X155901Y265756D01*
X156329Y266185D01*
X156758Y266399D01*
X157615D01*
X154422Y264042D02*
X152494D01*
X151851Y264257D01*
X151637Y264471D01*
X151423Y264899D01*
Y265542D01*
X151637Y265971D01*
X151851Y266185D01*
X152494Y266399D01*
X154422D01*
Y261900D01*
X150416Y266399D02*
Y261900D01*
X147845D01*
X147138Y265328D02*
Y265542D01*
X146924Y265971D01*
X146710Y266185D01*
X146281Y266399D01*
X145424D01*
X144996Y266185D01*
X144782Y265971D01*
X144567Y265542D01*
Y265114D01*
X144782Y264685D01*
X145210Y264042D01*
X147353Y261900D01*
X144353D01*
X143346Y266399D02*
Y261900D01*
X140775D01*
X140283Y264042D02*
X138354D01*
X137712Y264257D01*
X137497Y264471D01*
X137283Y264899D01*
Y265542D01*
X137497Y265971D01*
X137712Y266185D01*
X138354Y266399D01*
X140283D01*
Y261900D01*
X134777Y266399D02*
Y261900D01*
X136276Y266399D02*
X133277D01*
X129206D02*
Y261900D01*
Y266399D02*
X127278D01*
X126636Y266185D01*
X126421Y265971D01*
X126207Y265542D01*
Y265114D01*
X126421Y264685D01*
X126636Y264471D01*
X127278Y264257D01*
X129206D01*
X127707D02*
X126207Y261900D01*
X125200Y263614D02*
X122629D01*
Y264042D01*
X122844Y264471D01*
X123058Y264685D01*
X123486Y264899D01*
X124129D01*
X124557Y264685D01*
X124986Y264257D01*
X125200Y263614D01*
Y263185D01*
X124986Y262543D01*
X124557Y262114D01*
X124129Y261900D01*
X123486D01*
X123058Y262114D01*
X122629Y262543D01*
X121665Y264899D02*
Y260400D01*
Y264257D02*
X121237Y264685D01*
X120808Y264899D01*
X120166D01*
X119737Y264685D01*
X119308Y264257D01*
X119094Y263614D01*
Y263185D01*
X119308Y262543D01*
X119737Y262114D01*
X120166Y261900D01*
X120808D01*
X121237Y262114D01*
X121665Y262543D01*
X118130Y266399D02*
Y261900D01*
X116759Y266399D02*
X116545Y266185D01*
X116331Y266399D01*
X116545Y266613D01*
X116759Y266399D01*
X116545Y264899D02*
Y261900D01*
X112967Y264257D02*
X113396Y264685D01*
X113824Y264899D01*
X114467D01*
X114895Y264685D01*
X115324Y264257D01*
X115538Y263614D01*
Y263185D01*
X115324Y262543D01*
X114895Y262114D01*
X114467Y261900D01*
X113824D01*
X113396Y262114D01*
X112967Y262543D01*
X109432Y264899D02*
Y261900D01*
Y264257D02*
X109861Y264685D01*
X110289Y264899D01*
X110932D01*
X111360Y264685D01*
X111789Y264257D01*
X112003Y263614D01*
Y263185D01*
X111789Y262543D01*
X111360Y262114D01*
X110932Y261900D01*
X110289D01*
X109861Y262114D01*
X109432Y262543D01*
X104697Y266399D02*
Y261900D01*
Y266399D02*
X102769D01*
X102126Y266185D01*
X101912Y265971D01*
X101698Y265542D01*
Y265114D01*
X101912Y264685D01*
X102126Y264471D01*
X102769Y264257D01*
X104697D01*
X103198D02*
X101698Y261900D01*
X100691Y263614D02*
X98120D01*
Y264042D01*
X98334Y264471D01*
X98549Y264685D01*
X98977Y264899D01*
X99620D01*
X100048Y264685D01*
X100477Y264257D01*
X100691Y263614D01*
Y263185D01*
X100477Y262543D01*
X100048Y262114D01*
X99620Y261900D01*
X98977D01*
X98549Y262114D01*
X98120Y262543D01*
X97156Y264899D02*
X95871Y261900D01*
X94585Y264899D02*
X95871Y261900D01*
X90322Y265542D02*
X89893Y265756D01*
X89251Y266399D01*
Y261900D01*
X86808Y262329D02*
X87023Y262114D01*
X86808Y261900D01*
X86594Y262114D01*
X86808Y262329D01*
X85609Y265542D02*
X85180Y265756D01*
X84537Y266399D01*
Y261900D01*
X82095Y262329D02*
X82309Y262114D01*
X82095Y261900D01*
X81881Y262114D01*
X82095Y262329D01*
X79610Y266399D02*
X80253Y266185D01*
X80681Y265542D01*
X80895Y264471D01*
Y263828D01*
X80681Y262757D01*
X80253Y262114D01*
X79610Y261900D01*
X79181D01*
X78539Y262114D01*
X78110Y262757D01*
X77896Y263828D01*
Y264471D01*
X78110Y265542D01*
X78539Y266185D01*
X79181Y266399D01*
X79610D01*
M02*
