G04 Layer_Color=32768*
%FSLAX25Y25*%
%MOIN*%
G70*
G01*
G75*
%ADD59C,0.00197*%
D59*
X22378Y203500D02*
G03*
X22378Y203500I-1378J0D01*
G01*
X69878Y106000D02*
G03*
X69878Y106000I-1378J0D01*
G01*
X96378Y172000D02*
G03*
X96378Y172000I-1378J0D01*
G01*
X22378Y106500D02*
G03*
X22378Y106500I-1378J0D01*
G01*
X90378Y57000D02*
G03*
X90378Y57000I-1378J0D01*
G01*
X43878Y63000D02*
G03*
X43878Y63000I-1378J0D01*
G01*
X135378Y105000D02*
G03*
X135378Y105000I-1378J0D01*
G01*
X157878Y104500D02*
G03*
X157878Y104500I-1378J0D01*
G01*
X196878Y142000D02*
G03*
X196878Y142000I-1378J0D01*
G01*
X196378Y95000D02*
G03*
X196378Y95000I-1378J0D01*
G01*
X206878Y60000D02*
G03*
X206878Y60000I-1378J0D01*
G01*
X180378D02*
G03*
X180378Y60000I-1378J0D01*
G01*
X142941Y68000D02*
G03*
X142941Y68000I-1378J0D01*
G01*
X22378Y169500D02*
G03*
X22378Y169500I-1378J0D01*
G01*
X203878Y193000D02*
G03*
X203878Y193000I-1378J0D01*
G01*
X21000Y201532D02*
Y205469D01*
X19031Y203500D02*
X22968D01*
X66531Y106000D02*
X70468D01*
X68500Y104032D02*
Y107968D01*
X93032Y172000D02*
X96969D01*
X95000Y170031D02*
Y173969D01*
X19031Y106500D02*
X22968D01*
X21000Y104532D02*
Y108468D01*
X89000Y55032D02*
Y58969D01*
X87032Y57000D02*
X90969D01*
X42500Y61032D02*
Y64969D01*
X40532Y63000D02*
X44469D01*
X132032Y105000D02*
X135968D01*
X134000Y103032D02*
Y106968D01*
X154532Y104500D02*
X158468D01*
X156500Y102532D02*
Y106468D01*
X193532Y142000D02*
X197468D01*
X195500Y140032D02*
Y143968D01*
X193032Y95000D02*
X196968D01*
X195000Y93032D02*
Y96969D01*
X205500Y58031D02*
Y61968D01*
X203532Y60000D02*
X207469D01*
X179000Y58031D02*
Y61968D01*
X177032Y60000D02*
X180968D01*
X141563Y66031D02*
Y69968D01*
X139594Y68000D02*
X143532D01*
X21000Y167532D02*
Y171468D01*
X19031Y169500D02*
X22968D01*
X200532Y193000D02*
X204468D01*
X202500Y191032D02*
Y194968D01*
M02*
