G04 Layer_Color=8388736*
%FSLAX25Y25*%
%MOIN*%
G70*
G01*
G75*
%ADD39C,0.05524*%
%ADD40R,0.09461X0.07887*%
%ADD41R,0.07887X0.07887*%
%ADD42C,0.07493*%
%ADD43R,0.07493X0.07493*%
%ADD44C,0.07099*%
%ADD45C,0.02965*%
%ADD46R,0.06706X0.10249*%
%ADD47C,0.06800*%
%ADD48C,0.05918*%
%ADD49R,0.07493X0.07493*%
%ADD50R,0.06706X0.06706*%
%ADD51C,0.06706*%
%ADD52C,0.08674*%
%ADD53C,0.05131*%
%ADD54R,0.13792X0.13792*%
%ADD55R,0.08280X0.08280*%
%ADD56C,0.08280*%
D39*
X115842Y40000D02*
D03*
X135528Y10472D02*
D03*
X96157D02*
D03*
Y20315D02*
D03*
X135528D02*
D03*
D40*
X115842D02*
D03*
D41*
X96157Y40000D02*
D03*
X135528D02*
D03*
X106000D02*
D03*
X125685D02*
D03*
D42*
X21000Y141000D02*
D03*
X88500Y121000D02*
D03*
X78500D02*
D03*
X68500D02*
D03*
X58500D02*
D03*
X48500D02*
D03*
X38500D02*
D03*
X98500Y91000D02*
D03*
X88500D02*
D03*
X78500D02*
D03*
X68500D02*
D03*
X58500D02*
D03*
X48500D02*
D03*
X38500D02*
D03*
X50000Y142000D02*
D03*
X60000D02*
D03*
X70000D02*
D03*
X80000D02*
D03*
X90000D02*
D03*
X100000D02*
D03*
X110000D02*
D03*
X120000D02*
D03*
X130000D02*
D03*
X80000Y202000D02*
D03*
X90000D02*
D03*
X100000D02*
D03*
X110000D02*
D03*
X120000D02*
D03*
X130000D02*
D03*
X140000D02*
D03*
X150000D02*
D03*
Y142000D02*
D03*
X140000D02*
D03*
X60000Y202000D02*
D03*
X50000D02*
D03*
X40000D02*
D03*
X70000D02*
D03*
X50500Y218000D02*
D03*
X200500Y157000D02*
D03*
X190500D02*
D03*
X180500D02*
D03*
Y127000D02*
D03*
X190500D02*
D03*
X200500D02*
D03*
X210500D02*
D03*
X200000Y110000D02*
D03*
X190000D02*
D03*
X180000D02*
D03*
Y80000D02*
D03*
X190000D02*
D03*
X200000D02*
D03*
X210000D02*
D03*
X21000Y164500D02*
D03*
D43*
Y151000D02*
D03*
X98500Y121000D02*
D03*
X40000Y142000D02*
D03*
X210500Y157000D02*
D03*
X210000Y110000D02*
D03*
X21000Y174500D02*
D03*
D44*
Y221217D02*
D03*
Y185784D02*
D03*
Y124216D02*
D03*
Y88784D02*
D03*
X71284Y57000D02*
D03*
X106717D02*
D03*
X134000Y122716D02*
D03*
Y87283D02*
D03*
X156500Y86783D02*
D03*
Y122216D02*
D03*
D45*
X65949Y40224D02*
D03*
X62799Y35500D02*
D03*
X59650Y40224D02*
D03*
X56500Y35500D02*
D03*
X53350Y40224D02*
D03*
D46*
X74217Y17980D02*
D03*
X45083D02*
D03*
D47*
X79158Y73000D02*
D03*
X98843D02*
D03*
X174000Y204343D02*
D03*
Y184658D02*
D03*
X21800Y18215D02*
D03*
Y37900D02*
D03*
D48*
X33051Y63000D02*
D03*
X51949D02*
D03*
D49*
X60500Y218000D02*
D03*
D50*
X209437Y60000D02*
D03*
X175063D02*
D03*
X145500Y68000D02*
D03*
D51*
X201563Y60000D02*
D03*
X182937D02*
D03*
X137626Y68000D02*
D03*
D52*
X162500Y14500D02*
D03*
X201870D02*
D03*
X182185D02*
D03*
D53*
X53500Y244500D02*
D03*
X64406D02*
D03*
X75311D02*
D03*
X86216D02*
D03*
X97122D02*
D03*
X108028D02*
D03*
X118933D02*
D03*
X129839D02*
D03*
X140744D02*
D03*
X151650D02*
D03*
X162555D02*
D03*
X173461D02*
D03*
X48047Y233319D02*
D03*
X58953D02*
D03*
X69858D02*
D03*
X80764D02*
D03*
X91669D02*
D03*
X102575D02*
D03*
X113480D02*
D03*
X124386D02*
D03*
X135291D02*
D03*
X146197D02*
D03*
X157102D02*
D03*
X168008D02*
D03*
X178913D02*
D03*
D54*
X20882Y238910D02*
D03*
X206079D02*
D03*
D55*
X189114Y201858D02*
D03*
D56*
Y184142D02*
D03*
X215886D02*
D03*
Y201858D02*
D03*
M02*
