G04 Layer_Color=128*
%FSLAX25Y25*%
%MOIN*%
G70*
G01*
G75*
%ADD10C,0.00200*%
D10*
X113480Y40000D02*
X118205D01*
X115842Y37638D02*
Y42362D01*
X133165Y10472D02*
X137890D01*
X135528Y8110D02*
Y12835D01*
X93795Y10472D02*
X98520D01*
X96157Y8110D02*
Y12835D01*
X93795Y20315D02*
X98520D01*
X96157Y17953D02*
Y22677D01*
X133165Y20315D02*
X137890D01*
X135528Y17953D02*
Y22677D01*
X113480Y20315D02*
X118205D01*
X115842Y17953D02*
Y22677D01*
X93795Y40000D02*
X98520D01*
X96157Y37638D02*
Y42362D01*
X133165Y40000D02*
X137890D01*
X135528Y37638D02*
Y42362D01*
X103638Y40000D02*
X108362D01*
X106000Y37638D02*
Y42362D01*
X123323Y40000D02*
X128047D01*
X125685Y37638D02*
Y42362D01*
X19228Y141000D02*
X22772D01*
X21000Y139228D02*
Y142772D01*
X19228Y151000D02*
X22772D01*
X21000Y149228D02*
Y152772D01*
X19819Y221217D02*
X22181D01*
X21000Y220035D02*
Y222398D01*
X19819Y185784D02*
X22181D01*
X21000Y184602D02*
Y186965D01*
X65161Y40224D02*
X66736D01*
X65949Y39437D02*
Y41012D01*
X62012Y35500D02*
X63587D01*
X62799Y34713D02*
Y36287D01*
X58862Y40224D02*
X60437D01*
X59650Y39437D02*
Y41012D01*
X55713Y35500D02*
X57287D01*
X56500Y34713D02*
Y36287D01*
X52563Y40224D02*
X54138D01*
X53350Y39437D02*
Y41012D01*
X72445Y17980D02*
X75988D01*
X74217Y16209D02*
Y19752D01*
X43311Y17980D02*
X46854D01*
X45083Y16209D02*
Y19752D01*
X96925Y121000D02*
X100075D01*
X98500Y119425D02*
Y122575D01*
X86925Y121000D02*
X90075D01*
X88500Y119425D02*
Y122575D01*
X76925Y121000D02*
X80075D01*
X78500Y119425D02*
Y122575D01*
X66925Y121000D02*
X70075D01*
X68500Y119425D02*
Y122575D01*
X56925Y121000D02*
X60075D01*
X58500Y119425D02*
Y122575D01*
X46925Y121000D02*
X50075D01*
X48500Y119425D02*
Y122575D01*
X36925Y121000D02*
X40075D01*
X38500Y119425D02*
Y122575D01*
X96925Y91000D02*
X100075D01*
X98500Y89425D02*
Y92575D01*
X86925Y91000D02*
X90075D01*
X88500Y89425D02*
Y92575D01*
X76925Y91000D02*
X80075D01*
X78500Y89425D02*
Y92575D01*
X66925Y91000D02*
X70075D01*
X68500Y89425D02*
Y92575D01*
X56925Y91000D02*
X60075D01*
X58500Y89425D02*
Y92575D01*
X46925Y91000D02*
X50075D01*
X48500Y89425D02*
Y92575D01*
X36925Y91000D02*
X40075D01*
X38500Y89425D02*
Y92575D01*
X38425Y142000D02*
X41575D01*
X40000Y140425D02*
Y143575D01*
X48425Y142000D02*
X51575D01*
X50000Y140425D02*
Y143575D01*
X58425Y142000D02*
X61575D01*
X60000Y140425D02*
Y143575D01*
X68425Y142000D02*
X71575D01*
X70000Y140425D02*
Y143575D01*
X78425Y142000D02*
X81575D01*
X80000Y140425D02*
Y143575D01*
X88425Y142000D02*
X91575D01*
X90000Y140425D02*
Y143575D01*
X98425Y142000D02*
X101575D01*
X100000Y140425D02*
Y143575D01*
X108425Y142000D02*
X111575D01*
X110000Y140425D02*
Y143575D01*
X118425Y142000D02*
X121575D01*
X120000Y140425D02*
Y143575D01*
X128425Y142000D02*
X131575D01*
X130000Y140425D02*
Y143575D01*
X78425Y202000D02*
X81575D01*
X80000Y200425D02*
Y203575D01*
X88425Y202000D02*
X91575D01*
X90000Y200425D02*
Y203575D01*
X98425Y202000D02*
X101575D01*
X100000Y200425D02*
Y203575D01*
X108425Y202000D02*
X111575D01*
X110000Y200425D02*
Y203575D01*
X118425Y202000D02*
X121575D01*
X120000Y200425D02*
Y203575D01*
X128425Y202000D02*
X131575D01*
X130000Y200425D02*
Y203575D01*
X138425Y202000D02*
X141575D01*
X140000Y200425D02*
Y203575D01*
X148425Y202000D02*
X151575D01*
X150000Y200425D02*
Y203575D01*
X148425Y142000D02*
X151575D01*
X150000Y140425D02*
Y143575D01*
X138425Y142000D02*
X141575D01*
X140000Y140425D02*
Y143575D01*
X58425Y202000D02*
X61575D01*
X60000Y200425D02*
Y203575D01*
X48425Y202000D02*
X51575D01*
X50000Y200425D02*
Y203575D01*
X38425Y202000D02*
X41575D01*
X40000Y200425D02*
Y203575D01*
X68425Y202000D02*
X71575D01*
X70000Y200425D02*
Y203575D01*
X19819Y124216D02*
X22181D01*
X21000Y123035D02*
Y125398D01*
X19819Y88784D02*
X22181D01*
X21000Y87602D02*
Y89965D01*
X78173Y73000D02*
X80142D01*
X79158Y72016D02*
Y73984D01*
X97858Y73000D02*
X99827D01*
X98843Y72016D02*
Y73984D01*
X70102Y57000D02*
X72465D01*
X71284Y55819D02*
Y58181D01*
X105535Y57000D02*
X107898D01*
X106717Y55819D02*
Y58181D01*
X31870Y63000D02*
X34232D01*
X33051Y61819D02*
Y64181D01*
X50768Y63000D02*
X53130D01*
X51949Y61819D02*
Y64181D01*
X58728Y218000D02*
X62272D01*
X60500Y216228D02*
Y219772D01*
X48728Y218000D02*
X52272D01*
X50500Y216228D02*
Y219772D01*
X132819Y122716D02*
X135181D01*
X134000Y121535D02*
Y123898D01*
X132819Y87283D02*
X135181D01*
X134000Y86102D02*
Y88465D01*
X173016Y204343D02*
X174984D01*
X174000Y203358D02*
Y205327D01*
X173016Y184658D02*
X174984D01*
X174000Y183673D02*
Y185642D01*
X155319Y86783D02*
X157681D01*
X156500Y85602D02*
Y87965D01*
X155319Y122216D02*
X157681D01*
X156500Y121035D02*
Y123398D01*
X208925Y157000D02*
X212075D01*
X210500Y155425D02*
Y158575D01*
X198925Y157000D02*
X202075D01*
X200500Y155425D02*
Y158575D01*
X188925Y157000D02*
X192075D01*
X190500Y155425D02*
Y158575D01*
X178925Y157000D02*
X182075D01*
X180500Y155425D02*
Y158575D01*
X178925Y127000D02*
X182075D01*
X180500Y125425D02*
Y128575D01*
X188925Y127000D02*
X192075D01*
X190500Y125425D02*
Y128575D01*
X198925Y127000D02*
X202075D01*
X200500Y125425D02*
Y128575D01*
X208925Y127000D02*
X212075D01*
X210500Y125425D02*
Y128575D01*
X208425Y110000D02*
X211575D01*
X210000Y108425D02*
Y111575D01*
X198425Y110000D02*
X201575D01*
X200000Y108425D02*
Y111575D01*
X188425Y110000D02*
X191575D01*
X190000Y108425D02*
Y111575D01*
X178425Y110000D02*
X181575D01*
X180000Y108425D02*
Y111575D01*
X178425Y80000D02*
X181575D01*
X180000Y78425D02*
Y81575D01*
X188425Y80000D02*
X191575D01*
X190000Y78425D02*
Y81575D01*
X198425Y80000D02*
X201575D01*
X200000Y78425D02*
Y81575D01*
X208425Y80000D02*
X211575D01*
X210000Y78425D02*
Y81575D01*
X207862Y60000D02*
X211012D01*
X209437Y58425D02*
Y61575D01*
X199988Y60000D02*
X203138D01*
X201563Y58425D02*
Y61575D01*
X173488Y60000D02*
X176638D01*
X175063Y58425D02*
Y61575D01*
X181362Y60000D02*
X184512D01*
X182937Y58425D02*
Y61575D01*
X160138Y14500D02*
X164862D01*
X162500Y12138D02*
Y16862D01*
X199508Y14500D02*
X204232D01*
X201870Y12138D02*
Y16862D01*
X179823Y14500D02*
X184547D01*
X182185Y12138D02*
Y16862D01*
X143925Y68000D02*
X147075D01*
X145500Y66425D02*
Y69575D01*
X136051Y68000D02*
X139201D01*
X137626Y66425D02*
Y69575D01*
X19228Y174500D02*
X22772D01*
X21000Y172728D02*
Y176272D01*
X19228Y164500D02*
X22772D01*
X21000Y162728D02*
Y166272D01*
X20816Y18215D02*
X22784D01*
X21800Y17231D02*
Y19199D01*
X20816Y37900D02*
X22784D01*
X21800Y36916D02*
Y38884D01*
X52122Y244500D02*
X54878D01*
X53500Y243122D02*
Y245878D01*
X63028Y244500D02*
X65784D01*
X64406Y243122D02*
Y245878D01*
X73933Y244500D02*
X76689D01*
X75311Y243122D02*
Y245878D01*
X84839Y244500D02*
X87594D01*
X86216Y243122D02*
Y245878D01*
X95744Y244500D02*
X98500D01*
X97122Y243122D02*
Y245878D01*
X106650Y244500D02*
X109406D01*
X108028Y243122D02*
Y245878D01*
X117555Y244500D02*
X120311D01*
X118933Y243122D02*
Y245878D01*
X128461Y244500D02*
X131217D01*
X129839Y243122D02*
Y245878D01*
X139366Y244500D02*
X142122D01*
X140744Y243122D02*
Y245878D01*
X150272Y244500D02*
X153027D01*
X151650Y243122D02*
Y245878D01*
X161177Y244500D02*
X163933D01*
X162555Y243122D02*
Y245878D01*
X172083Y244500D02*
X174839D01*
X173461Y243122D02*
Y245878D01*
X46669Y233319D02*
X49425D01*
X48047Y231941D02*
Y234697D01*
X57575Y233319D02*
X60331D01*
X58953Y231941D02*
Y234697D01*
X68480Y233319D02*
X71236D01*
X69858Y231941D02*
Y234697D01*
X79386Y233319D02*
X82142D01*
X80764Y231941D02*
Y234697D01*
X90291Y233319D02*
X93047D01*
X91669Y231941D02*
Y234697D01*
X101197Y233319D02*
X103953D01*
X102575Y231941D02*
Y234697D01*
X112102Y233319D02*
X114858D01*
X113480Y231941D02*
Y234697D01*
X123008Y233319D02*
X125764D01*
X124386Y231941D02*
Y234697D01*
X133913Y233319D02*
X136669D01*
X135291Y231941D02*
Y234697D01*
X144819Y233319D02*
X147575D01*
X146197Y231941D02*
Y234697D01*
X155724Y233319D02*
X158480D01*
X157102Y231941D02*
Y234697D01*
X166630Y233319D02*
X169386D01*
X168008Y231941D02*
Y234697D01*
X177535Y233319D02*
X180291D01*
X178913Y231941D02*
Y234697D01*
X14720Y238910D02*
X27043D01*
X20882Y232748D02*
Y245071D01*
X199917Y238910D02*
X212240D01*
X206079Y232748D02*
Y245071D01*
X187146Y201858D02*
X191083D01*
X189114Y199890D02*
Y203827D01*
X187146Y184142D02*
X191083D01*
X189114Y182173D02*
Y186110D01*
X213917Y184142D02*
X217854D01*
X215886Y182173D02*
Y186110D01*
X213917Y201858D02*
X217854D01*
X215886Y199890D02*
Y203827D01*
X166100Y127500D02*
X168900D01*
X167500Y126100D02*
Y128900D01*
M02*
