G04 Layer_Color=2752767*
%FSLAX25Y25*%
%MOIN*%
G70*
G01*
G75*
%ADD10C,0.00200*%
%ADD11C,0.00267*%
%ADD12C,0.00133*%
D10*
X115042Y39200D02*
Y40800D01*
X116642D01*
Y39200D01*
X115042D01*
X134728Y9672D02*
Y11272D01*
X136328D01*
Y9672D01*
X134728D01*
X95358D02*
Y11272D01*
X96957D01*
Y9672D01*
X95358D01*
Y19515D02*
Y21115D01*
X96957D01*
Y19515D01*
X95358D01*
X21000Y140200D02*
X20200Y141800D01*
X21800D01*
X21000Y140200D01*
Y150200D02*
X20200Y151800D01*
X21800D01*
X21000Y150200D01*
Y220416D02*
X21400Y220816D01*
X21800D01*
X21400Y221217D01*
X21800Y221617D01*
X21400D01*
X21000Y222017D01*
X20600Y221617D01*
X20200D01*
X20600Y221217D01*
X20200Y220816D01*
X20600D01*
X21000Y220416D01*
Y184984D02*
X21400Y185383D01*
X21800D01*
X21400Y185784D01*
X21800Y186184D01*
X21400D01*
X21000Y186583D01*
X20600Y186184D01*
X20200D01*
X20600Y185784D01*
X20200Y185383D01*
X20600D01*
X21000Y184984D01*
X65149Y39424D02*
X65549Y40224D01*
X65149Y41024D01*
X65949Y40624D01*
X66749Y41024D01*
X66349Y40224D01*
X66749Y39424D01*
X65949Y39824D01*
X65149Y39424D01*
X61999Y34700D02*
X62399Y35500D01*
X61999Y36300D01*
X62799Y35900D01*
X63599Y36300D01*
X63199Y35500D01*
X63599Y34700D01*
X62799Y35100D01*
X61999Y34700D01*
X58850Y39424D02*
X59250Y40224D01*
X58850Y41024D01*
X59650Y40624D01*
X60450Y41024D01*
X60050Y40224D01*
X60450Y39424D01*
X59650Y39824D01*
X58850Y39424D01*
X55700Y34700D02*
X56100Y35500D01*
X55700Y36300D01*
X56500Y35900D01*
X57300Y36300D01*
X56900Y35500D01*
X57300Y34700D01*
X56500Y35100D01*
X55700Y34700D01*
X52550Y39424D02*
X52950Y40224D01*
X52550Y41024D01*
X53350Y40624D01*
X54150Y41024D01*
X53750Y40224D01*
X54150Y39424D01*
X53350Y39824D01*
X52550Y39424D01*
X73817Y17580D02*
Y17180D01*
X74616D01*
Y17580D01*
X75016D01*
Y18380D01*
X74616D01*
Y18780D01*
X73817D01*
Y18380D01*
X73417D01*
Y17580D01*
X73817D01*
X44683D02*
Y17180D01*
X45483D01*
Y17580D01*
X45883D01*
Y18380D01*
X45483D01*
Y18780D01*
X44683D01*
Y18380D01*
X44283D01*
Y17580D01*
X44683D01*
X97700Y120200D02*
X98100D01*
X98500Y120600D01*
X98900Y120200D01*
X99300D01*
Y120600D01*
X98900Y121000D01*
X99300Y121400D01*
Y121800D01*
X98900D01*
X98500Y121400D01*
X98100Y121800D01*
X97700D01*
Y121400D01*
X98100Y121000D01*
X97700Y120600D01*
Y120200D01*
X87700D02*
X88100D01*
X88500Y120600D01*
X88900Y120200D01*
X89300D01*
Y120600D01*
X88900Y121000D01*
X89300Y121400D01*
Y121800D01*
X88900D01*
X88500Y121400D01*
X88100Y121800D01*
X87700D01*
Y121400D01*
X88100Y121000D01*
X87700Y120600D01*
Y120200D01*
X77700D02*
X78100D01*
X78500Y120600D01*
X78900Y120200D01*
X79300D01*
Y120600D01*
X78900Y121000D01*
X79300Y121400D01*
Y121800D01*
X78900D01*
X78500Y121400D01*
X78100Y121800D01*
X77700D01*
Y121400D01*
X78100Y121000D01*
X77700Y120600D01*
Y120200D01*
X67700D02*
X68100D01*
X68500Y120600D01*
X68900Y120200D01*
X69300D01*
Y120600D01*
X68900Y121000D01*
X69300Y121400D01*
Y121800D01*
X68900D01*
X68500Y121400D01*
X68100Y121800D01*
X67700D01*
Y121400D01*
X68100Y121000D01*
X67700Y120600D01*
Y120200D01*
X57700D02*
X58100D01*
X58500Y120600D01*
X58900Y120200D01*
X59300D01*
Y120600D01*
X58900Y121000D01*
X59300Y121400D01*
Y121800D01*
X58900D01*
X58500Y121400D01*
X58100Y121800D01*
X57700D01*
Y121400D01*
X58100Y121000D01*
X57700Y120600D01*
Y120200D01*
X47700D02*
X48100D01*
X48500Y120600D01*
X48900Y120200D01*
X49300D01*
Y120600D01*
X48900Y121000D01*
X49300Y121400D01*
Y121800D01*
X48900D01*
X48500Y121400D01*
X48100Y121800D01*
X47700D01*
Y121400D01*
X48100Y121000D01*
X47700Y120600D01*
Y120200D01*
X37700D02*
X38100D01*
X38500Y120600D01*
X38900Y120200D01*
X39300D01*
Y120600D01*
X38900Y121000D01*
X39300Y121400D01*
Y121800D01*
X38900D01*
X38500Y121400D01*
X38100Y121800D01*
X37700D01*
Y121400D01*
X38100Y121000D01*
X37700Y120600D01*
Y120200D01*
X97700Y90200D02*
X98100D01*
X98500Y90600D01*
X98900Y90200D01*
X99300D01*
Y90600D01*
X98900Y91000D01*
X99300Y91400D01*
Y91800D01*
X98900D01*
X98500Y91400D01*
X98100Y91800D01*
X97700D01*
Y91400D01*
X98100Y91000D01*
X97700Y90600D01*
Y90200D01*
X87700D02*
X88100D01*
X88500Y90600D01*
X88900Y90200D01*
X89300D01*
Y90600D01*
X88900Y91000D01*
X89300Y91400D01*
Y91800D01*
X88900D01*
X88500Y91400D01*
X88100Y91800D01*
X87700D01*
Y91400D01*
X88100Y91000D01*
X87700Y90600D01*
Y90200D01*
X77700D02*
X78100D01*
X78500Y90600D01*
X78900Y90200D01*
X79300D01*
Y90600D01*
X78900Y91000D01*
X79300Y91400D01*
Y91800D01*
X78900D01*
X78500Y91400D01*
X78100Y91800D01*
X77700D01*
Y91400D01*
X78100Y91000D01*
X77700Y90600D01*
Y90200D01*
X67700D02*
X68100D01*
X68500Y90600D01*
X68900Y90200D01*
X69300D01*
Y90600D01*
X68900Y91000D01*
X69300Y91400D01*
Y91800D01*
X68900D01*
X68500Y91400D01*
X68100Y91800D01*
X67700D01*
Y91400D01*
X68100Y91000D01*
X67700Y90600D01*
Y90200D01*
X57700D02*
X58100D01*
X58500Y90600D01*
X58900Y90200D01*
X59300D01*
Y90600D01*
X58900Y91000D01*
X59300Y91400D01*
Y91800D01*
X58900D01*
X58500Y91400D01*
X58100Y91800D01*
X57700D01*
Y91400D01*
X58100Y91000D01*
X57700Y90600D01*
Y90200D01*
X47700D02*
X48100D01*
X48500Y90600D01*
X48900Y90200D01*
X49300D01*
Y90600D01*
X48900Y91000D01*
X49300Y91400D01*
Y91800D01*
X48900D01*
X48500Y91400D01*
X48100Y91800D01*
X47700D01*
Y91400D01*
X48100Y91000D01*
X47700Y90600D01*
Y90200D01*
X37700D02*
X38100D01*
X38500Y90600D01*
X38900Y90200D01*
X39300D01*
Y90600D01*
X38900Y91000D01*
X39300Y91400D01*
Y91800D01*
X38900D01*
X38500Y91400D01*
X38100Y91800D01*
X37700D01*
Y91400D01*
X38100Y91000D01*
X37700Y90600D01*
Y90200D01*
X39200Y141200D02*
X39600D01*
X40000Y141600D01*
X40400Y141200D01*
X40800D01*
Y141600D01*
X40400Y142000D01*
X40800Y142400D01*
Y142800D01*
X40400D01*
X40000Y142400D01*
X39600Y142800D01*
X39200D01*
Y142400D01*
X39600Y142000D01*
X39200Y141600D01*
Y141200D01*
X49200D02*
X49600D01*
X50000Y141600D01*
X50400Y141200D01*
X50800D01*
Y141600D01*
X50400Y142000D01*
X50800Y142400D01*
Y142800D01*
X50400D01*
X50000Y142400D01*
X49600Y142800D01*
X49200D01*
Y142400D01*
X49600Y142000D01*
X49200Y141600D01*
Y141200D01*
X59200D02*
X59600D01*
X60000Y141600D01*
X60400Y141200D01*
X60800D01*
Y141600D01*
X60400Y142000D01*
X60800Y142400D01*
Y142800D01*
X60400D01*
X60000Y142400D01*
X59600Y142800D01*
X59200D01*
Y142400D01*
X59600Y142000D01*
X59200Y141600D01*
Y141200D01*
X69200D02*
X69600D01*
X70000Y141600D01*
X70400Y141200D01*
X70800D01*
Y141600D01*
X70400Y142000D01*
X70800Y142400D01*
Y142800D01*
X70400D01*
X70000Y142400D01*
X69600Y142800D01*
X69200D01*
Y142400D01*
X69600Y142000D01*
X69200Y141600D01*
Y141200D01*
X79200D02*
X79600D01*
X80000Y141600D01*
X80400Y141200D01*
X80800D01*
Y141600D01*
X80400Y142000D01*
X80800Y142400D01*
Y142800D01*
X80400D01*
X80000Y142400D01*
X79600Y142800D01*
X79200D01*
Y142400D01*
X79600Y142000D01*
X79200Y141600D01*
Y141200D01*
X89200D02*
X89600D01*
X90000Y141600D01*
X90400Y141200D01*
X90800D01*
Y141600D01*
X90400Y142000D01*
X90800Y142400D01*
Y142800D01*
X90400D01*
X90000Y142400D01*
X89600Y142800D01*
X89200D01*
Y142400D01*
X89600Y142000D01*
X89200Y141600D01*
Y141200D01*
X99200D02*
X99600D01*
X100000Y141600D01*
X100400Y141200D01*
X100800D01*
Y141600D01*
X100400Y142000D01*
X100800Y142400D01*
Y142800D01*
X100400D01*
X100000Y142400D01*
X99600Y142800D01*
X99200D01*
Y142400D01*
X99600Y142000D01*
X99200Y141600D01*
Y141200D01*
X109200D02*
X109600D01*
X110000Y141600D01*
X110400Y141200D01*
X110800D01*
Y141600D01*
X110400Y142000D01*
X110800Y142400D01*
Y142800D01*
X110400D01*
X110000Y142400D01*
X109600Y142800D01*
X109200D01*
Y142400D01*
X109600Y142000D01*
X109200Y141600D01*
Y141200D01*
X119200D02*
X119600D01*
X120000Y141600D01*
X120400Y141200D01*
X120800D01*
Y141600D01*
X120400Y142000D01*
X120800Y142400D01*
Y142800D01*
X120400D01*
X120000Y142400D01*
X119600Y142800D01*
X119200D01*
Y142400D01*
X119600Y142000D01*
X119200Y141600D01*
Y141200D01*
X129200D02*
X129600D01*
X130000Y141600D01*
X130400Y141200D01*
X130800D01*
Y141600D01*
X130400Y142000D01*
X130800Y142400D01*
Y142800D01*
X130400D01*
X130000Y142400D01*
X129600Y142800D01*
X129200D01*
Y142400D01*
X129600Y142000D01*
X129200Y141600D01*
Y141200D01*
X79200Y201200D02*
X79600D01*
X80000Y201600D01*
X80400Y201200D01*
X80800D01*
Y201600D01*
X80400Y202000D01*
X80800Y202400D01*
Y202800D01*
X80400D01*
X80000Y202400D01*
X79600Y202800D01*
X79200D01*
Y202400D01*
X79600Y202000D01*
X79200Y201600D01*
Y201200D01*
X89200D02*
X89600D01*
X90000Y201600D01*
X90400Y201200D01*
X90800D01*
Y201600D01*
X90400Y202000D01*
X90800Y202400D01*
Y202800D01*
X90400D01*
X90000Y202400D01*
X89600Y202800D01*
X89200D01*
Y202400D01*
X89600Y202000D01*
X89200Y201600D01*
Y201200D01*
X99200D02*
X99600D01*
X100000Y201600D01*
X100400Y201200D01*
X100800D01*
Y201600D01*
X100400Y202000D01*
X100800Y202400D01*
Y202800D01*
X100400D01*
X100000Y202400D01*
X99600Y202800D01*
X99200D01*
Y202400D01*
X99600Y202000D01*
X99200Y201600D01*
Y201200D01*
X109200D02*
X109600D01*
X110000Y201600D01*
X110400Y201200D01*
X110800D01*
Y201600D01*
X110400Y202000D01*
X110800Y202400D01*
Y202800D01*
X110400D01*
X110000Y202400D01*
X109600Y202800D01*
X109200D01*
Y202400D01*
X109600Y202000D01*
X109200Y201600D01*
Y201200D01*
X119200D02*
X119600D01*
X120000Y201600D01*
X120400Y201200D01*
X120800D01*
Y201600D01*
X120400Y202000D01*
X120800Y202400D01*
Y202800D01*
X120400D01*
X120000Y202400D01*
X119600Y202800D01*
X119200D01*
Y202400D01*
X119600Y202000D01*
X119200Y201600D01*
Y201200D01*
X129200D02*
X129600D01*
X130000Y201600D01*
X130400Y201200D01*
X130800D01*
Y201600D01*
X130400Y202000D01*
X130800Y202400D01*
Y202800D01*
X130400D01*
X130000Y202400D01*
X129600Y202800D01*
X129200D01*
Y202400D01*
X129600Y202000D01*
X129200Y201600D01*
Y201200D01*
X139200D02*
X139600D01*
X140000Y201600D01*
X140400Y201200D01*
X140800D01*
Y201600D01*
X140400Y202000D01*
X140800Y202400D01*
Y202800D01*
X140400D01*
X140000Y202400D01*
X139600Y202800D01*
X139200D01*
Y202400D01*
X139600Y202000D01*
X139200Y201600D01*
Y201200D01*
X149200D02*
X149600D01*
X150000Y201600D01*
X150400Y201200D01*
X150800D01*
Y201600D01*
X150400Y202000D01*
X150800Y202400D01*
Y202800D01*
X150400D01*
X150000Y202400D01*
X149600Y202800D01*
X149200D01*
Y202400D01*
X149600Y202000D01*
X149200Y201600D01*
Y201200D01*
Y141200D02*
X149600D01*
X150000Y141600D01*
X150400Y141200D01*
X150800D01*
Y141600D01*
X150400Y142000D01*
X150800Y142400D01*
Y142800D01*
X150400D01*
X150000Y142400D01*
X149600Y142800D01*
X149200D01*
Y142400D01*
X149600Y142000D01*
X149200Y141600D01*
Y141200D01*
X139200D02*
X139600D01*
X140000Y141600D01*
X140400Y141200D01*
X140800D01*
Y141600D01*
X140400Y142000D01*
X140800Y142400D01*
Y142800D01*
X140400D01*
X140000Y142400D01*
X139600Y142800D01*
X139200D01*
Y142400D01*
X139600Y142000D01*
X139200Y141600D01*
Y141200D01*
X59200Y201200D02*
X59600D01*
X60000Y201600D01*
X60400Y201200D01*
X60800D01*
Y201600D01*
X60400Y202000D01*
X60800Y202400D01*
Y202800D01*
X60400D01*
X60000Y202400D01*
X59600Y202800D01*
X59200D01*
Y202400D01*
X59600Y202000D01*
X59200Y201600D01*
Y201200D01*
X49200D02*
X49600D01*
X50000Y201600D01*
X50400Y201200D01*
X50800D01*
Y201600D01*
X50400Y202000D01*
X50800Y202400D01*
Y202800D01*
X50400D01*
X50000Y202400D01*
X49600Y202800D01*
X49200D01*
Y202400D01*
X49600Y202000D01*
X49200Y201600D01*
Y201200D01*
X39200D02*
X39600D01*
X40000Y201600D01*
X40400Y201200D01*
X40800D01*
Y201600D01*
X40400Y202000D01*
X40800Y202400D01*
Y202800D01*
X40400D01*
X40000Y202400D01*
X39600Y202800D01*
X39200D01*
Y202400D01*
X39600Y202000D01*
X39200Y201600D01*
Y201200D01*
X69200D02*
X69600D01*
X70000Y201600D01*
X70400Y201200D01*
X70800D01*
Y201600D01*
X70400Y202000D01*
X70800Y202400D01*
Y202800D01*
X70400D01*
X70000Y202400D01*
X69600Y202800D01*
X69200D01*
Y202400D01*
X69600Y202000D01*
X69200Y201600D01*
Y201200D01*
X21000Y123416D02*
X21400Y123817D01*
X21800D01*
X21400Y124216D01*
X21800Y124617D01*
X21400D01*
X21000Y125016D01*
X20600Y124617D01*
X20200D01*
X20600Y124216D01*
X20200Y123817D01*
X20600D01*
X21000Y123416D01*
Y87984D02*
X21400Y88384D01*
X21800D01*
X21400Y88784D01*
X21800Y89183D01*
X21400D01*
X21000Y89583D01*
X20600Y89183D01*
X20200D01*
X20600Y88784D01*
X20200Y88384D01*
X20600D01*
X21000Y87984D01*
X78357Y73000D02*
X79158Y73800D01*
X79957Y73000D01*
X79158Y72200D01*
X78357Y73000D01*
X98043D02*
X98843Y73800D01*
X99642Y73000D01*
X98843Y72200D01*
X98043Y73000D01*
X71284Y56200D02*
X71684Y56600D01*
X72083D01*
X71684Y57000D01*
X72083Y57400D01*
X71684D01*
X71284Y57800D01*
X70884Y57400D01*
X70483D01*
X70884Y57000D01*
X70483Y56600D01*
X70884D01*
X71284Y56200D01*
X106717D02*
X107116Y56600D01*
X107517D01*
X107116Y57000D01*
X107517Y57400D01*
X107116D01*
X106717Y57800D01*
X106316Y57400D01*
X105917D01*
X106316Y57000D01*
X105917Y56600D01*
X106316D01*
X106717Y56200D01*
X33051Y62200D02*
X33451Y62600D01*
X33851D01*
X33451Y63000D01*
X33851Y63400D01*
X33451D01*
X33051Y63800D01*
X32651Y63400D01*
X32251D01*
X32651Y63000D01*
X32251Y62600D01*
X32651D01*
X33051Y62200D01*
X51949D02*
X52349Y62600D01*
X52749D01*
X52349Y63000D01*
X52749Y63400D01*
X52349D01*
X51949Y63800D01*
X51549Y63400D01*
X51149D01*
X51549Y63000D01*
X51149Y62600D01*
X51549D01*
X51949Y62200D01*
X60500Y217200D02*
X59700Y218800D01*
X61300D01*
X60500Y217200D01*
X50500D02*
X49700Y218800D01*
X51300D01*
X50500Y217200D01*
X134000Y121916D02*
X134400Y122317D01*
X134800D01*
X134400Y122716D01*
X134800Y123117D01*
X134400D01*
X134000Y123516D01*
X133600Y123117D01*
X133200D01*
X133600Y122716D01*
X133200Y122317D01*
X133600D01*
X134000Y121916D01*
Y86484D02*
X134400Y86883D01*
X134800D01*
X134400Y87283D01*
X134800Y87683D01*
X134400D01*
X134000Y88083D01*
X133600Y87683D01*
X133200D01*
X133600Y87283D01*
X133200Y86883D01*
X133600D01*
X134000Y86484D01*
X173200Y204343D02*
X174000Y205142D01*
X174800Y204343D01*
X174000Y203542D01*
X173200Y204343D01*
Y184658D02*
X174000Y185458D01*
X174800Y184658D01*
X174000Y183858D01*
X173200Y184658D01*
X156500Y85984D02*
X156900Y86383D01*
X157300D01*
X156900Y86783D01*
X157300Y87183D01*
X156900D01*
X156500Y87584D01*
X156100Y87183D01*
X155700D01*
X156100Y86783D01*
X155700Y86383D01*
X156100D01*
X156500Y85984D01*
Y121416D02*
X156900Y121817D01*
X157300D01*
X156900Y122216D01*
X157300Y122617D01*
X156900D01*
X156500Y123017D01*
X156100Y122617D01*
X155700D01*
X156100Y122216D01*
X155700Y121817D01*
X156100D01*
X156500Y121416D01*
X209700Y156200D02*
X210100D01*
X210500Y156600D01*
X210900Y156200D01*
X211300D01*
Y156600D01*
X210900Y157000D01*
X211300Y157400D01*
Y157800D01*
X210900D01*
X210500Y157400D01*
X210100Y157800D01*
X209700D01*
Y157400D01*
X210100Y157000D01*
X209700Y156600D01*
Y156200D01*
X199700D02*
X200100D01*
X200500Y156600D01*
X200900Y156200D01*
X201300D01*
Y156600D01*
X200900Y157000D01*
X201300Y157400D01*
Y157800D01*
X200900D01*
X200500Y157400D01*
X200100Y157800D01*
X199700D01*
Y157400D01*
X200100Y157000D01*
X199700Y156600D01*
Y156200D01*
X189700D02*
X190100D01*
X190500Y156600D01*
X190900Y156200D01*
X191300D01*
Y156600D01*
X190900Y157000D01*
X191300Y157400D01*
Y157800D01*
X190900D01*
X190500Y157400D01*
X190100Y157800D01*
X189700D01*
Y157400D01*
X190100Y157000D01*
X189700Y156600D01*
Y156200D01*
X179700D02*
X180100D01*
X180500Y156600D01*
X180900Y156200D01*
X181300D01*
Y156600D01*
X180900Y157000D01*
X181300Y157400D01*
Y157800D01*
X180900D01*
X180500Y157400D01*
X180100Y157800D01*
X179700D01*
Y157400D01*
X180100Y157000D01*
X179700Y156600D01*
Y156200D01*
Y126200D02*
X180100D01*
X180500Y126600D01*
X180900Y126200D01*
X181300D01*
Y126600D01*
X180900Y127000D01*
X181300Y127400D01*
Y127800D01*
X180900D01*
X180500Y127400D01*
X180100Y127800D01*
X179700D01*
Y127400D01*
X180100Y127000D01*
X179700Y126600D01*
Y126200D01*
X189700D02*
X190100D01*
X190500Y126600D01*
X190900Y126200D01*
X191300D01*
Y126600D01*
X190900Y127000D01*
X191300Y127400D01*
Y127800D01*
X190900D01*
X190500Y127400D01*
X190100Y127800D01*
X189700D01*
Y127400D01*
X190100Y127000D01*
X189700Y126600D01*
Y126200D01*
X199700D02*
X200100D01*
X200500Y126600D01*
X200900Y126200D01*
X201300D01*
Y126600D01*
X200900Y127000D01*
X201300Y127400D01*
Y127800D01*
X200900D01*
X200500Y127400D01*
X200100Y127800D01*
X199700D01*
Y127400D01*
X200100Y127000D01*
X199700Y126600D01*
Y126200D01*
X209700D02*
X210100D01*
X210500Y126600D01*
X210900Y126200D01*
X211300D01*
Y126600D01*
X210900Y127000D01*
X211300Y127400D01*
Y127800D01*
X210900D01*
X210500Y127400D01*
X210100Y127800D01*
X209700D01*
Y127400D01*
X210100Y127000D01*
X209700Y126600D01*
Y126200D01*
X209200Y109200D02*
X209600D01*
X210000Y109600D01*
X210400Y109200D01*
X210800D01*
Y109600D01*
X210400Y110000D01*
X210800Y110400D01*
Y110800D01*
X210400D01*
X210000Y110400D01*
X209600Y110800D01*
X209200D01*
Y110400D01*
X209600Y110000D01*
X209200Y109600D01*
Y109200D01*
X199200D02*
X199600D01*
X200000Y109600D01*
X200400Y109200D01*
X200800D01*
Y109600D01*
X200400Y110000D01*
X200800Y110400D01*
Y110800D01*
X200400D01*
X200000Y110400D01*
X199600Y110800D01*
X199200D01*
Y110400D01*
X199600Y110000D01*
X199200Y109600D01*
Y109200D01*
X189200D02*
X189600D01*
X190000Y109600D01*
X190400Y109200D01*
X190800D01*
Y109600D01*
X190400Y110000D01*
X190800Y110400D01*
Y110800D01*
X190400D01*
X190000Y110400D01*
X189600Y110800D01*
X189200D01*
Y110400D01*
X189600Y110000D01*
X189200Y109600D01*
Y109200D01*
X179200D02*
X179600D01*
X180000Y109600D01*
X180400Y109200D01*
X180800D01*
Y109600D01*
X180400Y110000D01*
X180800Y110400D01*
Y110800D01*
X180400D01*
X180000Y110400D01*
X179600Y110800D01*
X179200D01*
Y110400D01*
X179600Y110000D01*
X179200Y109600D01*
Y109200D01*
Y79200D02*
X179600D01*
X180000Y79600D01*
X180400Y79200D01*
X180800D01*
Y79600D01*
X180400Y80000D01*
X180800Y80400D01*
Y80800D01*
X180400D01*
X180000Y80400D01*
X179600Y80800D01*
X179200D01*
Y80400D01*
X179600Y80000D01*
X179200Y79600D01*
Y79200D01*
X189200D02*
X189600D01*
X190000Y79600D01*
X190400Y79200D01*
X190800D01*
Y79600D01*
X190400Y80000D01*
X190800Y80400D01*
Y80800D01*
X190400D01*
X190000Y80400D01*
X189600Y80800D01*
X189200D01*
Y80400D01*
X189600Y80000D01*
X189200Y79600D01*
Y79200D01*
X199200D02*
X199600D01*
X200000Y79600D01*
X200400Y79200D01*
X200800D01*
Y79600D01*
X200400Y80000D01*
X200800Y80400D01*
Y80800D01*
X200400D01*
X200000Y80400D01*
X199600Y80800D01*
X199200D01*
Y80400D01*
X199600Y80000D01*
X199200Y79600D01*
Y79200D01*
X209200D02*
X209600D01*
X210000Y79600D01*
X210400Y79200D01*
X210800D01*
Y79600D01*
X210400Y80000D01*
X210800Y80400D01*
Y80800D01*
X210400D01*
X210000Y80400D01*
X209600Y80800D01*
X209200D01*
Y80400D01*
X209600Y80000D01*
X209200Y79600D01*
Y79200D01*
X208637Y59200D02*
X209037D01*
X209437Y59600D01*
X209837Y59200D01*
X210237D01*
Y59600D01*
X209837Y60000D01*
X210237Y60400D01*
Y60800D01*
X209837D01*
X209437Y60400D01*
X209037Y60800D01*
X208637D01*
Y60400D01*
X209037Y60000D01*
X208637Y59600D01*
Y59200D01*
X200763D02*
X201163D01*
X201563Y59600D01*
X201963Y59200D01*
X202363D01*
Y59600D01*
X201963Y60000D01*
X202363Y60400D01*
Y60800D01*
X201963D01*
X201563Y60400D01*
X201163Y60800D01*
X200763D01*
Y60400D01*
X201163Y60000D01*
X200763Y59600D01*
Y59200D01*
X174263D02*
X174663D01*
X175063Y59600D01*
X175463Y59200D01*
X175863D01*
Y59600D01*
X175463Y60000D01*
X175863Y60400D01*
Y60800D01*
X175463D01*
X175063Y60400D01*
X174663Y60800D01*
X174263D01*
Y60400D01*
X174663Y60000D01*
X174263Y59600D01*
Y59200D01*
X182137D02*
X182537D01*
X182937Y59600D01*
X183337Y59200D01*
X183737D01*
Y59600D01*
X183337Y60000D01*
X183737Y60400D01*
Y60800D01*
X183337D01*
X182937Y60400D01*
X182537Y60800D01*
X182137D01*
Y60400D01*
X182537Y60000D01*
X182137Y59600D01*
Y59200D01*
X144700Y67200D02*
X145100D01*
X145500Y67600D01*
X145900Y67200D01*
X146300D01*
Y67600D01*
X145900Y68000D01*
X146300Y68400D01*
Y68800D01*
X145900D01*
X145500Y68400D01*
X145100Y68800D01*
X144700D01*
Y68400D01*
X145100Y68000D01*
X144700Y67600D01*
Y67200D01*
X136826D02*
X137226D01*
X137626Y67600D01*
X138026Y67200D01*
X138426D01*
Y67600D01*
X138026Y68000D01*
X138426Y68400D01*
Y68800D01*
X138026D01*
X137626Y68400D01*
X137226Y68800D01*
X136826D01*
Y68400D01*
X137226Y68000D01*
X136826Y67600D01*
Y67200D01*
X21000Y173700D02*
X20200Y175300D01*
X21800D01*
X21000Y173700D01*
Y163700D02*
X20200Y165300D01*
X21800D01*
X21000Y163700D01*
Y18215D02*
X21800Y19015D01*
X22600Y18215D01*
X21800Y17415D01*
X21000Y18215D01*
Y37900D02*
X21800Y38700D01*
X22600Y37900D01*
X21800Y37100D01*
X21000Y37900D01*
X52700Y243700D02*
Y245300D01*
X54300D01*
Y243700D01*
X52700D01*
X53100Y244100D02*
Y244900D01*
X53900D01*
Y244100D01*
X53100D01*
X63605Y243700D02*
Y245300D01*
X65206D01*
Y243700D01*
X63605D01*
X64006Y244100D02*
Y244900D01*
X64806D01*
Y244100D01*
X64006D01*
X74511Y243700D02*
Y245300D01*
X76111D01*
Y243700D01*
X74511D01*
X74911Y244100D02*
Y244900D01*
X75711D01*
Y244100D01*
X74911D01*
X85417Y243700D02*
Y245300D01*
X87016D01*
Y243700D01*
X85417D01*
X85817Y244100D02*
Y244900D01*
X86616D01*
Y244100D01*
X85817D01*
X96322Y243700D02*
Y245300D01*
X97922D01*
Y243700D01*
X96322D01*
X96722Y244100D02*
Y244900D01*
X97522D01*
Y244100D01*
X96722D01*
X107228Y243700D02*
Y245300D01*
X108828D01*
Y243700D01*
X107228D01*
X107628Y244100D02*
Y244900D01*
X108428D01*
Y244100D01*
X107628D01*
X118133Y243700D02*
Y245300D01*
X119733D01*
Y243700D01*
X118133D01*
X118533Y244100D02*
Y244900D01*
X119333D01*
Y244100D01*
X118533D01*
X129039Y243700D02*
Y245300D01*
X130639D01*
Y243700D01*
X129039D01*
X129439Y244100D02*
Y244900D01*
X130239D01*
Y244100D01*
X129439D01*
X139944Y243700D02*
Y245300D01*
X141544D01*
Y243700D01*
X139944D01*
X140344Y244100D02*
Y244900D01*
X141144D01*
Y244100D01*
X140344D01*
X150850Y243700D02*
Y245300D01*
X152450D01*
Y243700D01*
X150850D01*
X151250Y244100D02*
Y244900D01*
X152050D01*
Y244100D01*
X151250D01*
X161755Y243700D02*
Y245300D01*
X163355D01*
Y243700D01*
X161755D01*
X162155Y244100D02*
Y244900D01*
X162955D01*
Y244100D01*
X162155D01*
X172661Y243700D02*
Y245300D01*
X174261D01*
Y243700D01*
X172661D01*
X173061Y244100D02*
Y244900D01*
X173861D01*
Y244100D01*
X173061D01*
X47247Y232519D02*
Y234119D01*
X48847D01*
Y232519D01*
X47247D01*
X47647Y232919D02*
Y233719D01*
X48447D01*
Y232919D01*
X47647D01*
X58153Y232519D02*
Y234119D01*
X59753D01*
Y232519D01*
X58153D01*
X58553Y232919D02*
Y233719D01*
X59353D01*
Y232919D01*
X58553D01*
X69058Y232519D02*
Y234119D01*
X70658D01*
Y232519D01*
X69058D01*
X69458Y232919D02*
Y233719D01*
X70258D01*
Y232919D01*
X69458D01*
X79964Y232519D02*
Y234119D01*
X81564D01*
Y232519D01*
X79964D01*
X80364Y232919D02*
Y233719D01*
X81164D01*
Y232919D01*
X80364D01*
X90869Y232519D02*
Y234119D01*
X92469D01*
Y232519D01*
X90869D01*
X91269Y232919D02*
Y233719D01*
X92069D01*
Y232919D01*
X91269D01*
X101775Y232519D02*
Y234119D01*
X103375D01*
Y232519D01*
X101775D01*
X102175Y232919D02*
Y233719D01*
X102975D01*
Y232919D01*
X102175D01*
X112680Y232519D02*
Y234119D01*
X114280D01*
Y232519D01*
X112680D01*
X113080Y232919D02*
Y233719D01*
X113880D01*
Y232919D01*
X113080D01*
X123586Y232519D02*
Y234119D01*
X125186D01*
Y232519D01*
X123586D01*
X123986Y232919D02*
Y233719D01*
X124786D01*
Y232919D01*
X123986D01*
X134491Y232519D02*
Y234119D01*
X136091D01*
Y232519D01*
X134491D01*
X134891Y232919D02*
Y233719D01*
X135691D01*
Y232919D01*
X134891D01*
X145397Y232519D02*
Y234119D01*
X146997D01*
Y232519D01*
X145397D01*
X145797Y232919D02*
Y233719D01*
X146597D01*
Y232919D01*
X145797D01*
X156302Y232519D02*
Y234119D01*
X157902D01*
Y232519D01*
X156302D01*
X156702Y232919D02*
Y233719D01*
X157502D01*
Y232919D01*
X156702D01*
X167208Y232519D02*
Y234119D01*
X168808D01*
Y232519D01*
X167208D01*
X167608Y232919D02*
Y233719D01*
X168408D01*
Y232919D01*
X167608D01*
X178113Y232519D02*
Y234119D01*
X179713D01*
Y232519D01*
X178113D01*
X178513Y232919D02*
Y233719D01*
X179313D01*
Y232919D01*
X178513D01*
X189114Y201058D02*
X188314Y202658D01*
X189914D01*
X189114Y201058D01*
Y201458D02*
X188714Y202258D01*
X189514D01*
X189114Y201458D01*
Y183342D02*
X188314Y184942D01*
X189914D01*
X189114Y183342D01*
Y183742D02*
X188714Y184542D01*
X189514D01*
X189114Y183742D01*
X215886Y183342D02*
X215086Y184942D01*
X216686D01*
X215886Y183342D01*
Y183742D02*
X215486Y184542D01*
X216286D01*
X215886Y183742D01*
Y201058D02*
X215086Y202658D01*
X216686D01*
X215886Y201058D01*
Y201458D02*
X215486Y202258D01*
X216286D01*
X215886Y201458D01*
X167500Y126700D02*
X167900Y127100D01*
X168300D01*
X167900Y127500D01*
X168300Y127900D01*
X167900D01*
X167500Y128300D01*
X167100Y127900D01*
X166700D01*
X167100Y127500D01*
X166700Y127100D01*
X167100D01*
X167500Y126700D01*
Y127100D02*
X167700Y127300D01*
X167900D01*
X167700Y127500D01*
X167900Y127700D01*
X167700D01*
X167500Y127900D01*
X167300Y127700D01*
X167100D01*
X167300Y127500D01*
X167100Y127300D01*
X167300D01*
X167500Y127100D01*
D11*
X136328Y20315D02*
G03*
X136328Y20315I-800J0D01*
G01*
X116642D02*
G03*
X116642Y20315I-800J0D01*
G01*
X96957Y40000D02*
G03*
X96957Y40000I-800J0D01*
G01*
X136328D02*
G03*
X136328Y40000I-800J0D01*
G01*
X106800D02*
G03*
X106800Y40000I-800J0D01*
G01*
X126485D02*
G03*
X126485Y40000I-800J0D01*
G01*
X163300Y14500D02*
G03*
X163300Y14500I-800J0D01*
G01*
X202670D02*
G03*
X202670Y14500I-800J0D01*
G01*
X182985D02*
G03*
X182985Y14500I-800J0D01*
G01*
X21682Y238910D02*
G03*
X21682Y238910I-800J0D01*
G01*
X206879D02*
G03*
X206879Y238910I-800J0D01*
G01*
D12*
X21282D02*
G03*
X21282Y238910I-400J0D01*
G01*
X206479D02*
G03*
X206479Y238910I-400J0D01*
G01*
M02*
