M48
;Layer_Color=9474304
;FILE_FORMAT=2:5
INCH,TZ
;TYPE=PLATED
T1F00S00C0.01575
T2F00S00C0.01968
T3F00S00C0.02362
T4F00S00C0.02756
T5F00S00C0.02800
T6F00S00C0.03150
T7F00S00C0.03543
T9F00S00C0.03937
T10F00S00C0.04724
T11F00S00C0.12323
%
T01
X56500Y35500
X62799
X65949Y40224
X59650
X53350
T02
X21800Y18215
Y37900
X79158Y73000
X98843
X174000Y184658
Y204343
T03
X156500Y86783
X134000Y87283
X106717Y57000
X71284
X51949Y63000
X33051
X21000Y88784
Y124216
Y185784
Y221217
X134000Y122716
X156500Y122216
T04
X48047Y233319
X58953
X69858
X80764
X91669
X102575
X113480
X124386
X135291
X146197
X140744Y244500
X129839
X118933
X108028
X97122
X86216
X75311
X64406
X53500
X151650
X162555
X173461
X168008Y233319
X178913
X157102
T05
X167500Y127500
T06
X175063Y60000
X182937
X201563
X209437
X210000Y80000
X200000
X190000
X180000
X145500Y68000
X137626
X98500Y91000
X88500
X78500
X68500
X58500
X48500
X38500
Y121000
X48500
X58500
X68500
X78500
X88500
X98500
X100000Y142000
X110000
X120000
X130000
X140000
X90000
X80000
X70000
X60000
X50000
X40000
Y202000
X50000
X60000
X70000
X80000
X90000
X100000
X110000
X120000
X130000
X140000
X150000
Y142000
X180500Y127000
X190500
X200500
X210500
X210000Y110000
X200000
X190000
X180000
X180500Y157000
X190500
X200500
X210500
T07
X21000Y141000
Y151000
Y164500
Y174500
X50500Y218000
X60500
T09
X189114Y184142
Y201858
X215886
Y184142
T10
X162500Y14500
X182185
X201870
X135528Y20315
Y40000
X125685
X106000
X96157
X115842Y20315
T11
X20882Y238910
X206079
M30
