G04 Layer_Color=16711935*
%FSLAX25Y25*%
%MOIN*%
G70*
G01*
G75*
%ADD10C,0.01000*%
D10*
X227227Y267500D02*
X226987Y268470D01*
X226670Y269417D01*
X226276Y270335D01*
X225809Y271218D01*
X225273Y272061D01*
X224669Y272857D01*
X224003Y273601D01*
X223279Y274289D01*
X222501Y274916D01*
X221675Y275478D01*
X220807Y275971D01*
X219901Y276392D01*
X218964Y276737D01*
X218002Y277006D01*
X10006Y277000D02*
X9036Y276760D01*
X8089Y276443D01*
X7171Y276049D01*
X6288Y275583D01*
X5446Y275046D01*
X4649Y274443D01*
X3905Y273777D01*
X3217Y273052D01*
X2590Y272275D01*
X2028Y271449D01*
X1535Y270580D01*
X1115Y269674D01*
X769Y268737D01*
X500Y267775D01*
Y16500D02*
X740Y15530D01*
X1057Y14583D01*
X1451Y13665D01*
X1917Y12782D01*
X2454Y11939D01*
X3057Y11143D01*
X3723Y10399D01*
X4448Y9711D01*
X5225Y9084D01*
X6051Y8522D01*
X6920Y8029D01*
X7826Y7608D01*
X8763Y7262D01*
X9725Y6994D01*
X217736Y7000D02*
X218706Y7240D01*
X219653Y7557D01*
X220571Y7951D01*
X221455Y8417D01*
X222297Y8954D01*
X223093Y9557D01*
X223838Y10223D01*
X224526Y10948D01*
X225153Y11725D01*
X225714Y12551D01*
X226207Y13420D01*
X226628Y14326D01*
X226974Y15263D01*
X227242Y16225D01*
X217936Y6800D02*
X218906Y7040D01*
X219853Y7357D01*
X220771Y7751D01*
X221655Y8217D01*
X222497Y8754D01*
X223293Y9357D01*
X224038Y10023D01*
X224726Y10748D01*
X225353Y11525D01*
X225914Y12351D01*
X226407Y13220D01*
X226828Y14126D01*
X227174Y15063D01*
X227443Y16025D01*
X700Y16300D02*
X940Y15330D01*
X1257Y14383D01*
X1651Y13465D01*
X2117Y12582D01*
X2654Y11739D01*
X3257Y10943D01*
X3923Y10199D01*
X4648Y9511D01*
X5425Y8884D01*
X6251Y8322D01*
X7120Y7829D01*
X8026Y7408D01*
X8963Y7062D01*
X9925Y6794D01*
X10206Y276800D02*
X9236Y276560D01*
X8289Y276243D01*
X7371Y275849D01*
X6488Y275383D01*
X5646Y274846D01*
X4849Y274243D01*
X4105Y273577D01*
X3417Y272852D01*
X2790Y272075D01*
X2228Y271249D01*
X1735Y270380D01*
X1314Y269474D01*
X969Y268537D01*
X700Y267575D01*
X227427Y267300D02*
X227187Y268270D01*
X226870Y269217D01*
X226476Y270135D01*
X226009Y271018D01*
X225473Y271861D01*
X224869Y272657D01*
X224203Y273401D01*
X223479Y274089D01*
X222702Y274716D01*
X221876Y275278D01*
X221007Y275771D01*
X220101Y276192D01*
X219164Y276537D01*
X218201Y276806D01*
X227227Y267500D02*
X227242Y16500D01*
X9725Y7000D02*
X217736D01*
X500Y16500D02*
Y267775D01*
X10006Y277000D02*
X217995D01*
X10206Y276800D02*
X218195D01*
X700Y16300D02*
Y267575D01*
X9925Y6800D02*
X217936D01*
X227427Y267300D02*
X227443Y16300D01*
M02*
