G04 Layer_Color=32896*
%FSLAX25Y25*%
%MOIN*%
G70*
G01*
G75*
%ADD10C,0.01000*%
%ADD57C,0.00100*%
%ADD58C,0.00900*%
G36*
X91026Y255906D02*
X90924Y255753D01*
X90842Y255600D01*
X90776Y255463D01*
X90725Y255341D01*
X90705Y255285D01*
X90690Y255234D01*
X90675Y255193D01*
X90664Y255157D01*
X90659Y255127D01*
X90654Y255107D01*
X90649Y255091D01*
Y255086D01*
X90639Y255025D01*
X90629Y254969D01*
X90613Y254923D01*
X90598Y254883D01*
X90583Y254847D01*
X90568Y254822D01*
X90552Y254796D01*
X90537Y254781D01*
X90512Y254755D01*
X90486Y254740D01*
X90471Y254735D01*
X90466D01*
X90440Y254740D01*
X90410Y254755D01*
X90384Y254776D01*
X90359Y254796D01*
X90338Y254817D01*
X90318Y254837D01*
X90308Y254852D01*
X90303Y254857D01*
X90267Y254908D01*
X90242Y254959D01*
X90227Y255005D01*
X90211Y255051D01*
X90206Y255091D01*
X90201Y255122D01*
Y255147D01*
Y255152D01*
X90206Y255193D01*
X90216Y255234D01*
X90247Y255326D01*
X90262Y255366D01*
X90277Y255402D01*
X90288Y255422D01*
X90293Y255432D01*
X90313Y255473D01*
X90344Y255514D01*
X90384Y255560D01*
X90430Y255606D01*
X90481Y255656D01*
X90537Y255707D01*
X90649Y255804D01*
X90761Y255890D01*
X90812Y255931D01*
X90853Y255962D01*
X90893Y255987D01*
X90919Y256013D01*
X90939Y256023D01*
X90944Y256028D01*
X91026Y255906D01*
D02*
G37*
G36*
X114877Y255616D02*
X114918Y255606D01*
X115005Y255580D01*
X115045Y255560D01*
X115076Y255550D01*
X115096Y255539D01*
X115101Y255534D01*
X115157Y255499D01*
X115198Y255453D01*
X115234Y255397D01*
X115254Y255346D01*
X115269Y255295D01*
X115275Y255254D01*
X115279Y255229D01*
Y255224D01*
Y255219D01*
X115275Y255137D01*
X115259Y255071D01*
X115239Y255010D01*
X115213Y254964D01*
X115183Y254928D01*
X115163Y254903D01*
X115142Y254888D01*
X115137Y254883D01*
X115081Y254847D01*
X115025Y254822D01*
X114979Y254801D01*
X114938Y254791D01*
X114903Y254781D01*
X114877Y254776D01*
X114857D01*
X114821Y254781D01*
X114786Y254791D01*
X114694Y254817D01*
X114654Y254832D01*
X114623Y254847D01*
X114603Y254852D01*
X114592Y254857D01*
X114526Y254893D01*
X114480Y254944D01*
X114445Y255000D01*
X114424Y255056D01*
X114409Y255107D01*
X114404Y255152D01*
X114399Y255183D01*
Y255188D01*
Y255193D01*
X114404Y255280D01*
X114424Y255356D01*
X114450Y255412D01*
X114480Y255458D01*
X114516Y255493D01*
X114541Y255519D01*
X114562Y255529D01*
X114567Y255534D01*
X114628Y255565D01*
X114684Y255585D01*
X114730Y255600D01*
X114766Y255611D01*
X114796Y255616D01*
X114816Y255621D01*
X114837D01*
X114877Y255616D01*
D02*
G37*
G36*
X79960Y257932D02*
X79955Y257860D01*
Y257692D01*
X79950Y257514D01*
Y257321D01*
X79945Y257117D01*
Y256914D01*
Y256710D01*
X79940Y256511D01*
Y256318D01*
Y256140D01*
Y256059D01*
Y255977D01*
Y255906D01*
Y255840D01*
Y255773D01*
Y255717D01*
Y255672D01*
Y255631D01*
Y255600D01*
Y255575D01*
Y255560D01*
Y255555D01*
X80057Y255488D01*
X80169Y255422D01*
X80270Y255366D01*
X80367Y255315D01*
X80454Y255264D01*
X80530Y255224D01*
X80601Y255188D01*
X80663Y255152D01*
X80713Y255127D01*
X80759Y255101D01*
X80800Y255081D01*
X80830Y255066D01*
X80856Y255056D01*
X80871Y255046D01*
X80881Y255041D01*
X80886D01*
X80545Y254694D01*
X80515Y254745D01*
X80474Y254796D01*
X80383Y254903D01*
X80286Y255015D01*
X80184Y255122D01*
X80087Y255219D01*
X80047Y255259D01*
X80011Y255295D01*
X79980Y255326D01*
X79960Y255346D01*
X79945Y255361D01*
X79940Y255366D01*
X79950Y255270D01*
X79965Y255173D01*
X80006Y254984D01*
X80052Y254801D01*
X80077Y254720D01*
X80102Y254643D01*
X80133Y254572D01*
X80153Y254506D01*
X80179Y254450D01*
X80199Y254399D01*
X80215Y254358D01*
X80230Y254333D01*
X80235Y254313D01*
X80240Y254308D01*
X80291Y254206D01*
X80357Y254104D01*
X80423Y254007D01*
X80494Y253910D01*
X80652Y253727D01*
X80729Y253646D01*
X80810Y253564D01*
X80881Y253493D01*
X80953Y253427D01*
X81014Y253371D01*
X81070Y253320D01*
X81116Y253284D01*
X81151Y253254D01*
X81172Y253234D01*
X81182Y253228D01*
X81100Y253096D01*
X80932Y253193D01*
X80785Y253295D01*
X80642Y253401D01*
X80515Y253503D01*
X80403Y253605D01*
X80301Y253702D01*
X80215Y253799D01*
X80133Y253890D01*
X80067Y253972D01*
X80006Y254053D01*
X79960Y254119D01*
X79924Y254180D01*
X79894Y254226D01*
X79874Y254262D01*
X79863Y254287D01*
X79858Y254292D01*
X79802Y254419D01*
X79751Y254552D01*
X79711Y254684D01*
X79675Y254811D01*
X79644Y254939D01*
X79619Y255066D01*
X79599Y255183D01*
X79583Y255295D01*
X79573Y255397D01*
X79563Y255493D01*
X79558Y255580D01*
X79553Y255651D01*
Y255707D01*
Y255753D01*
Y255779D01*
Y255789D01*
Y257580D01*
X79385Y257743D01*
X79960Y258003D01*
Y257932D01*
D02*
G37*
G36*
X86867Y256624D02*
X86908Y256506D01*
X86949Y256389D01*
X86989Y256277D01*
X87030Y256181D01*
X87045Y256140D01*
X87061Y256104D01*
X87076Y256079D01*
X87081Y256059D01*
X87091Y256043D01*
Y256038D01*
X87162Y255885D01*
X87234Y255738D01*
X87310Y255600D01*
X87381Y255473D01*
X87412Y255417D01*
X87442Y255366D01*
X87473Y255320D01*
X87493Y255285D01*
X87514Y255254D01*
X87529Y255234D01*
X87534Y255219D01*
X87539Y255213D01*
X87641Y255066D01*
X87738Y254923D01*
X87834Y254796D01*
X87916Y254689D01*
X87956Y254638D01*
X87987Y254598D01*
X88017Y254562D01*
X88043Y254526D01*
X88063Y254506D01*
X88079Y254486D01*
X88089Y254475D01*
X88094Y254470D01*
X87977Y254358D01*
X87870Y254450D01*
X87768Y254542D01*
X87671Y254633D01*
X87585Y254720D01*
X87503Y254801D01*
X87427Y254878D01*
X87361Y254954D01*
X87295Y255020D01*
X87244Y255086D01*
X87193Y255142D01*
X87152Y255188D01*
X87122Y255234D01*
X87096Y255264D01*
X87076Y255290D01*
X87066Y255305D01*
X87061Y255310D01*
X86999Y255392D01*
X86944Y255473D01*
X86893Y255544D01*
X86847Y255611D01*
X86801Y255677D01*
X86760Y255733D01*
X86725Y255784D01*
X86694Y255829D01*
X86669Y255870D01*
X86643Y255906D01*
X86623Y255936D01*
X86608Y255962D01*
X86592Y255982D01*
X86582Y255997D01*
X86577Y256002D01*
Y256008D01*
X86531Y256084D01*
X86480Y256150D01*
X86429Y256206D01*
X86384Y256252D01*
X86343Y256293D01*
X86307Y256318D01*
X86287Y256333D01*
X86277Y256338D01*
X86831Y256740D01*
X86867Y256624D01*
D02*
G37*
G36*
X85019Y256517D02*
X84851Y256313D01*
X84704Y256125D01*
X84633Y256033D01*
X84572Y255952D01*
X84516Y255870D01*
X84465Y255799D01*
X84419Y255733D01*
X84378Y255677D01*
X84348Y255626D01*
X84317Y255585D01*
X84297Y255550D01*
X84281Y255524D01*
X84271Y255509D01*
X84266Y255504D01*
X84164Y255341D01*
X84083Y255193D01*
X84012Y255061D01*
X83981Y255005D01*
X83956Y254949D01*
X83930Y254898D01*
X83915Y254857D01*
X83895Y254822D01*
X83884Y254786D01*
X83874Y254766D01*
X83864Y254745D01*
X83859Y254735D01*
Y254730D01*
X83844Y254684D01*
X83828Y254643D01*
X83813Y254603D01*
X83798Y254572D01*
X83762Y254526D01*
X83732Y254496D01*
X83706Y254475D01*
X83681Y254465D01*
X83666Y254460D01*
X83661D01*
X83635Y254465D01*
X83605Y254481D01*
X83574Y254501D01*
X83548Y254526D01*
X83528Y254552D01*
X83508Y254572D01*
X83498Y254588D01*
X83492Y254592D01*
X83457Y254648D01*
X83431Y254704D01*
X83416Y254761D01*
X83401Y254817D01*
X83396Y254867D01*
X83391Y254903D01*
Y254928D01*
Y254939D01*
Y254969D01*
X83396Y255000D01*
X83406Y255071D01*
X83416Y255107D01*
X83421Y255132D01*
X83426Y255152D01*
Y255157D01*
X83437Y255188D01*
X83452Y255224D01*
X83492Y255300D01*
X83548Y255376D01*
X83610Y255458D01*
X83666Y255524D01*
X83716Y255585D01*
X83732Y255606D01*
X83747Y255621D01*
X83757Y255631D01*
X83762Y255636D01*
X83823Y255702D01*
X83900Y255773D01*
X83981Y255850D01*
X84068Y255931D01*
X84256Y256094D01*
X84449Y256257D01*
X84541Y256333D01*
X84623Y256405D01*
X84704Y256466D01*
X84770Y256522D01*
X84826Y256568D01*
X84872Y256603D01*
X84897Y256628D01*
X84908Y256634D01*
X85019Y256517D01*
D02*
G37*
G36*
X122920Y255896D02*
X124772D01*
X124806Y255873D01*
X124615Y255621D01*
X124401Y255666D01*
X124350D01*
X124319Y255519D01*
X124284Y255381D01*
X124243Y255244D01*
X124197Y255112D01*
X124151Y254990D01*
X124106Y254872D01*
X124055Y254761D01*
X124004Y254659D01*
X123958Y254567D01*
X123917Y254486D01*
X123877Y254419D01*
X123841Y254358D01*
X123810Y254308D01*
X123790Y254277D01*
X123775Y254252D01*
X123770Y254246D01*
X123877Y254139D01*
X124004Y254033D01*
X124141Y253936D01*
X124289Y253839D01*
X124442Y253753D01*
X124599Y253671D01*
X124757Y253595D01*
X124915Y253529D01*
X125063Y253463D01*
X125200Y253407D01*
X125327Y253361D01*
X125439Y253320D01*
X125490Y253305D01*
X125531Y253290D01*
X125572Y253279D01*
X125602Y253269D01*
X125628Y253259D01*
X125648Y253254D01*
X125658Y253249D01*
X125663D01*
X125622Y253096D01*
X125393Y253137D01*
X125169Y253183D01*
X124961Y253244D01*
X124762Y253305D01*
X124574Y253376D01*
X124401Y253452D01*
X124238Y253529D01*
X124090Y253600D01*
X123958Y253676D01*
X123841Y253743D01*
X123744Y253809D01*
X123658Y253865D01*
X123591Y253910D01*
X123546Y253946D01*
X123515Y253966D01*
X123505Y253977D01*
X123403Y253885D01*
X123296Y253799D01*
X123189Y253712D01*
X123077Y253641D01*
X122965Y253570D01*
X122854Y253508D01*
X122747Y253447D01*
X122645Y253396D01*
X122548Y253351D01*
X122456Y253310D01*
X122375Y253279D01*
X122309Y253254D01*
X122248Y253228D01*
X122207Y253213D01*
X122182Y253208D01*
X122171Y253203D01*
X122161Y253244D01*
X122146Y253279D01*
X122120Y253315D01*
X122090Y253351D01*
X122019Y253407D01*
X121937Y253452D01*
X121856Y253488D01*
X121820Y253503D01*
X121785Y253514D01*
X121759Y253524D01*
X121739Y253529D01*
X121723Y253534D01*
X121718D01*
Y253681D01*
X121897Y253702D01*
X122059Y253727D01*
X122217Y253763D01*
X122365Y253799D01*
X122502Y253844D01*
X122629Y253885D01*
X122741Y253931D01*
X122848Y253977D01*
X122940Y254023D01*
X123021Y254068D01*
X123093Y254104D01*
X123149Y254139D01*
X123195Y254170D01*
X123230Y254190D01*
X123250Y254206D01*
X123256Y254211D01*
X123174Y254313D01*
X123098Y254419D01*
X122955Y254648D01*
X122828Y254878D01*
X122772Y254984D01*
X122721Y255091D01*
X122675Y255193D01*
X122635Y255285D01*
X122599Y255366D01*
X122568Y255437D01*
X122543Y255493D01*
X122528Y255539D01*
X122518Y255565D01*
X122512Y255575D01*
X122289Y255707D01*
X122731Y256115D01*
X122920Y255896D01*
D02*
G37*
G36*
X95887Y255957D02*
X98340D01*
X98111Y255662D01*
X98014Y255682D01*
X97923Y255702D01*
X97836Y255712D01*
X97755Y255717D01*
X97689Y255722D01*
X97638Y255728D01*
X95897D01*
X96589Y255229D01*
X96869Y255351D01*
X96864Y255229D01*
X96859Y255127D01*
X96854Y255041D01*
X96849Y254974D01*
Y254923D01*
Y254888D01*
Y254867D01*
Y254862D01*
X99139D01*
X98915Y254567D01*
X98818Y254588D01*
X98722Y254608D01*
X98635Y254618D01*
X98554Y254623D01*
X98488Y254628D01*
X98437Y254633D01*
X96849D01*
Y253865D01*
X96854Y253809D01*
X96869Y253768D01*
X96895Y253737D01*
X96915Y253717D01*
X96940Y253702D01*
X96966Y253697D01*
X96981Y253692D01*
X97057D01*
X97103Y253697D01*
X97159Y253702D01*
X97276Y253717D01*
X97398Y253732D01*
X97515Y253748D01*
X97566Y253753D01*
X97617Y253758D01*
X97653Y253763D01*
X97683Y253768D01*
X97704Y253773D01*
X97709D01*
Y253574D01*
X97587Y253534D01*
X97480Y253488D01*
X97388Y253447D01*
X97312Y253401D01*
X97246Y253361D01*
X97190Y253325D01*
X97149Y253284D01*
X97113Y253249D01*
X97088Y253218D01*
X97067Y253188D01*
X97052Y253162D01*
X97042Y253137D01*
X97037Y253106D01*
Y253101D01*
Y253096D01*
X96930Y253137D01*
X96838Y253183D01*
X96762Y253223D01*
X96691Y253274D01*
X96635Y253320D01*
X96589Y253366D01*
X96548Y253412D01*
X96518Y253452D01*
X96492Y253498D01*
X96472Y253534D01*
X96462Y253570D01*
X96452Y253600D01*
X96447Y253620D01*
X96441Y253641D01*
Y253651D01*
Y253656D01*
Y254633D01*
X94273D01*
X94792Y255208D01*
X95154Y254862D01*
X96441D01*
Y254888D01*
X96294Y255000D01*
X96462Y255107D01*
X96294Y255203D01*
X96212Y255244D01*
X96141Y255285D01*
X96075Y255320D01*
X96014Y255356D01*
X95958Y255387D01*
X95907Y255412D01*
X95861Y255437D01*
X95820Y255458D01*
X95785Y255478D01*
X95759Y255493D01*
X95739Y255504D01*
X95719Y255514D01*
X95714Y255519D01*
X95709D01*
X95607Y255565D01*
X95515Y255600D01*
X95434Y255621D01*
X95362Y255636D01*
X95301Y255641D01*
X95220D01*
X95627Y256175D01*
X95887Y255957D01*
D02*
G37*
G36*
X123195Y257789D02*
X124055D01*
X124462Y257962D01*
X124457Y257835D01*
X124452Y257713D01*
X124447Y257606D01*
X124442Y257509D01*
Y257433D01*
Y257397D01*
Y257372D01*
Y257351D01*
Y257336D01*
Y257326D01*
Y257321D01*
X124447Y257209D01*
X124457Y257092D01*
X124477Y256980D01*
X124497Y256878D01*
X124518Y256786D01*
X124528Y256746D01*
X124538Y256715D01*
X124543Y256684D01*
X124548Y256664D01*
X124554Y256654D01*
Y256649D01*
X124579Y256578D01*
X124620Y256501D01*
X124671Y256425D01*
X124727Y256349D01*
X124788Y256267D01*
X124854Y256191D01*
X124991Y256048D01*
X125063Y255982D01*
X125124Y255921D01*
X125185Y255865D01*
X125241Y255819D01*
X125281Y255779D01*
X125317Y255753D01*
X125337Y255733D01*
X125348Y255728D01*
X125271Y255600D01*
X125129Y255677D01*
X124996Y255748D01*
X124879Y255824D01*
X124806Y255873D01*
X124823Y255896D01*
X124772D01*
X124676Y255967D01*
X124589Y256038D01*
X124518Y256104D01*
X124452Y256165D01*
X124396Y256221D01*
X124350Y256272D01*
X124314Y256323D01*
X124284Y256359D01*
X124258Y256389D01*
X124243Y256415D01*
X124238Y256430D01*
X124233Y256435D01*
X124192Y256522D01*
X124156Y256613D01*
X124126Y256705D01*
X124095Y256802D01*
X124060Y256990D01*
X124045Y257077D01*
X124034Y257168D01*
X124024Y257249D01*
X124019Y257321D01*
X124014Y257387D01*
Y257448D01*
Y257494D01*
Y257529D01*
Y257555D01*
Y257560D01*
X123200D01*
Y256562D01*
Y256491D01*
X123189Y256435D01*
X123169Y256379D01*
X123144Y256338D01*
X123113Y256298D01*
X123077Y256267D01*
X123042Y256242D01*
X123001Y256221D01*
X122925Y256191D01*
X122854Y256175D01*
X122828D01*
X122808Y256170D01*
X122207D01*
X122141Y256175D01*
X121998D01*
X121963Y256181D01*
X121912D01*
X121881Y256186D01*
X121861D01*
X121835Y256196D01*
X121815Y256206D01*
X121805Y256226D01*
X121795Y256242D01*
X121785Y256272D01*
Y256282D01*
Y256288D01*
X121790Y256318D01*
X121795Y256349D01*
X121820Y256420D01*
X121835Y256450D01*
X121851Y256476D01*
X121856Y256491D01*
X121861Y256496D01*
X121897Y256542D01*
X121937Y256573D01*
X121988Y256588D01*
X122044Y256598D01*
X122090D01*
X122131Y256593D01*
X122161Y256588D01*
X122171D01*
X122248Y256568D01*
X122319Y256552D01*
X122390Y256542D01*
X122446Y256537D01*
X122502Y256532D01*
X122538Y256527D01*
X122573D01*
X122640Y256532D01*
X122691Y256552D01*
X122721Y256578D01*
X122747Y256608D01*
X122762Y256634D01*
X122767Y256659D01*
X122772Y256679D01*
Y256684D01*
Y257519D01*
X122604Y257672D01*
X123032Y258008D01*
X123195Y257789D01*
D02*
G37*
G36*
X100936Y258064D02*
X100931Y257982D01*
Y257896D01*
Y257799D01*
X100926Y257692D01*
Y257586D01*
Y257468D01*
Y257351D01*
X100921Y257102D01*
Y256842D01*
Y256583D01*
X100916Y256323D01*
Y256069D01*
Y255829D01*
Y255722D01*
Y255616D01*
Y255514D01*
Y255422D01*
Y255341D01*
Y255264D01*
Y255198D01*
Y255142D01*
Y255101D01*
Y255066D01*
Y255046D01*
Y255041D01*
X102814Y254669D01*
X102550Y254419D01*
X102336Y254526D01*
X100916Y254817D01*
Y254628D01*
Y254450D01*
Y254272D01*
X100921Y254109D01*
Y253951D01*
Y253804D01*
X100926Y253666D01*
Y253544D01*
Y253427D01*
X100931Y253325D01*
Y253239D01*
Y253167D01*
X100936Y253106D01*
Y253065D01*
Y253040D01*
Y253030D01*
X100508Y253203D01*
Y253228D01*
X100514Y253264D01*
Y253305D01*
Y253351D01*
X100519Y253457D01*
Y253574D01*
X100524Y253712D01*
Y253849D01*
Y254145D01*
X100529Y254287D01*
Y254425D01*
Y254552D01*
Y254664D01*
Y254715D01*
Y254761D01*
Y254796D01*
Y254832D01*
Y254857D01*
Y254878D01*
Y254888D01*
Y254893D01*
X99648Y255076D01*
X100137Y255478D01*
X100371Y255173D01*
X100529Y255122D01*
Y257667D01*
X100320Y257850D01*
X100936Y258135D01*
Y258064D01*
D02*
G37*
G36*
X102178Y256008D02*
X102081Y255875D01*
X102000Y255753D01*
X101939Y255641D01*
X101883Y255539D01*
X101842Y255458D01*
X101827Y255427D01*
X101816Y255397D01*
X101806Y255376D01*
X101801Y255361D01*
X101796Y255351D01*
Y255346D01*
X101771Y255275D01*
X101740Y255224D01*
X101715Y255183D01*
X101689Y255157D01*
X101669Y255142D01*
X101654Y255137D01*
X101643Y255132D01*
X101638D01*
X101613Y255137D01*
X101587Y255152D01*
X101562Y255173D01*
X101537Y255198D01*
X101516Y255219D01*
X101506Y255239D01*
X101496Y255254D01*
X101491Y255259D01*
X101465Y255305D01*
X101445Y255351D01*
X101435Y255392D01*
X101425Y255427D01*
X101419Y255458D01*
X101414Y255483D01*
Y255499D01*
Y255504D01*
X101419Y255560D01*
X101435Y255611D01*
X101460Y255656D01*
X101481Y255702D01*
X101506Y255738D01*
X101531Y255763D01*
X101547Y255784D01*
X101552Y255789D01*
X101582Y255814D01*
X101613Y255845D01*
X101694Y255901D01*
X101786Y255957D01*
X101878Y256013D01*
X101964Y256059D01*
X102000Y256079D01*
X102035Y256094D01*
X102061Y256109D01*
X102081Y256119D01*
X102096Y256130D01*
X102102D01*
X102178Y256008D01*
D02*
G37*
G36*
X129593Y257158D02*
X129384D01*
X129364Y257153D01*
X129328Y257143D01*
X129313Y257133D01*
X129308Y257127D01*
X129287Y257102D01*
X129282Y257077D01*
X129277Y257051D01*
Y257046D01*
Y257041D01*
Y254038D01*
X129282Y253997D01*
X129292Y253966D01*
X129303Y253951D01*
X129308Y253946D01*
X129318Y253936D01*
X129333Y253931D01*
X129369Y253926D01*
X129399Y253921D01*
X129633D01*
Y253686D01*
X128254D01*
X128157Y253692D01*
X128066Y253697D01*
X127979Y253712D01*
X127898Y253727D01*
X127826Y253748D01*
X127755Y253768D01*
X127694Y253793D01*
X127633Y253819D01*
X127582Y253844D01*
X127541Y253870D01*
X127501Y253890D01*
X127470Y253910D01*
X127445Y253926D01*
X127429Y253941D01*
X127419Y253946D01*
X127414Y253951D01*
X127358Y254002D01*
X127312Y254058D01*
X127267Y254119D01*
X127231Y254175D01*
X127200Y254236D01*
X127175Y254297D01*
X127139Y254409D01*
X127114Y254511D01*
X127109Y254557D01*
X127104Y254592D01*
X127099Y254628D01*
Y254648D01*
Y254664D01*
Y254669D01*
X127104Y254796D01*
X127124Y254913D01*
X127155Y255020D01*
X127185Y255117D01*
X127221Y255193D01*
X127236Y255224D01*
X127246Y255249D01*
X127261Y255270D01*
X127267Y255285D01*
X127277Y255295D01*
Y255300D01*
X127312Y255351D01*
X127353Y255402D01*
X127455Y255483D01*
X127562Y255555D01*
X127669Y255611D01*
X127765Y255651D01*
X127811Y255666D01*
X127847Y255682D01*
X127877Y255692D01*
X127903Y255697D01*
X127918Y255702D01*
X127923D01*
X127852Y255722D01*
X127791Y255743D01*
X127735Y255768D01*
X127679Y255789D01*
X127633Y255814D01*
X127592Y255840D01*
X127521Y255890D01*
X127465Y255931D01*
X127429Y255967D01*
X127409Y255992D01*
X127404Y256002D01*
X127358Y256084D01*
X127322Y256170D01*
X127302Y256257D01*
X127282Y256338D01*
X127272Y256410D01*
X127267Y256466D01*
Y256486D01*
Y256501D01*
Y256511D01*
Y256517D01*
X127272Y256598D01*
X127277Y256674D01*
X127292Y256740D01*
X127307Y256807D01*
X127328Y256868D01*
X127348Y256919D01*
X127373Y256970D01*
X127399Y257010D01*
X127424Y257051D01*
X127450Y257082D01*
X127470Y257112D01*
X127490Y257133D01*
X127506Y257153D01*
X127521Y257163D01*
X127526Y257173D01*
X127531D01*
X127582Y257214D01*
X127638Y257244D01*
X127765Y257300D01*
X127893Y257341D01*
X128020Y257367D01*
X128081Y257372D01*
X128137Y257382D01*
X128188Y257387D01*
X128228D01*
X128264Y257392D01*
X129593D01*
Y257158D01*
D02*
G37*
G36*
X135085D02*
X134871D01*
X134851Y257153D01*
X134815Y257143D01*
X134800Y257133D01*
X134795Y257127D01*
X134774Y257102D01*
X134769Y257077D01*
X134764Y257051D01*
Y257046D01*
Y257041D01*
Y254038D01*
X134769Y253997D01*
X134779Y253966D01*
X134790Y253951D01*
X134795Y253946D01*
X134805Y253936D01*
X134820Y253931D01*
X134856Y253926D01*
X134886Y253921D01*
X135105D01*
Y253686D01*
X133980D01*
Y253921D01*
X134184D01*
X134230Y253926D01*
X134260Y253936D01*
X134281Y253941D01*
X134286Y253946D01*
X134301Y253972D01*
X134311Y254002D01*
X134316Y254028D01*
Y254033D01*
Y254038D01*
Y255371D01*
X133721D01*
X133639Y255376D01*
X133563Y255381D01*
X133415Y255412D01*
X133283Y255453D01*
X133222Y255478D01*
X133171Y255504D01*
X133120Y255529D01*
X133079Y255555D01*
X133039Y255575D01*
X133008Y255595D01*
X132983Y255611D01*
X132967Y255626D01*
X132957Y255631D01*
X132952Y255636D01*
X132896Y255687D01*
X132845Y255748D01*
X132799Y255804D01*
X132764Y255870D01*
X132733Y255936D01*
X132708Y255997D01*
X132667Y256125D01*
X132652Y256186D01*
X132641Y256237D01*
X132636Y256288D01*
X132631Y256328D01*
X132626Y256364D01*
Y256394D01*
Y256410D01*
Y256415D01*
X132631Y256491D01*
X132641Y256562D01*
X132657Y256634D01*
X132672Y256700D01*
X132723Y256817D01*
X132779Y256919D01*
X132809Y256964D01*
X132835Y257000D01*
X132860Y257036D01*
X132886Y257061D01*
X132901Y257082D01*
X132916Y257102D01*
X132927Y257107D01*
X132932Y257112D01*
X132993Y257163D01*
X133054Y257204D01*
X133120Y257244D01*
X133191Y257275D01*
X133334Y257326D01*
X133471Y257356D01*
X133532Y257367D01*
X133593Y257377D01*
X133644Y257382D01*
X133690Y257387D01*
X133731Y257392D01*
X135085D01*
Y257158D01*
D02*
G37*
G36*
X70976Y254817D02*
X71017Y254710D01*
X71058Y254613D01*
X71098Y254532D01*
X71139Y254450D01*
X71175Y254384D01*
X71210Y254323D01*
X71241Y254272D01*
X71271Y254226D01*
X71297Y254185D01*
X71322Y254155D01*
X71343Y254129D01*
X71358Y254114D01*
X71368Y254099D01*
X71373Y254094D01*
X71378Y254089D01*
X71439Y254033D01*
X71485Y253977D01*
X71521Y253936D01*
X71541Y253895D01*
X71556Y253865D01*
X71561Y253844D01*
X71567Y253829D01*
Y253824D01*
X71561Y253799D01*
X71551Y253768D01*
X71521Y253722D01*
X71490Y253692D01*
X71480Y253686D01*
X71475Y253681D01*
X71434Y253661D01*
X71389Y253651D01*
X71338Y253646D01*
X71210D01*
X71185Y253651D01*
X71175D01*
X71103Y253671D01*
X71037Y253707D01*
X70986Y253753D01*
X70946Y253799D01*
X70915Y253839D01*
X70890Y253880D01*
X70880Y253905D01*
X70874Y253916D01*
X70859Y253966D01*
X70844Y254023D01*
X70829Y254089D01*
X70818Y254165D01*
X70798Y254328D01*
X70783Y254491D01*
X70778Y254567D01*
X70773Y254643D01*
X70767Y254715D01*
Y254771D01*
X70762Y254822D01*
Y254862D01*
Y254883D01*
Y254893D01*
X70935Y254928D01*
X70976Y254817D01*
D02*
G37*
G36*
X85880Y257896D02*
X85875Y257713D01*
X85869Y257529D01*
Y257443D01*
X85864Y257356D01*
Y257280D01*
Y257209D01*
Y257143D01*
Y257087D01*
Y257041D01*
Y257010D01*
Y256985D01*
Y256980D01*
Y254012D01*
Y253972D01*
X85875Y253931D01*
X85895Y253870D01*
X85920Y253829D01*
X85956Y253799D01*
X85992Y253783D01*
X86017Y253773D01*
X86037Y253768D01*
X86083D01*
X86129Y253773D01*
X86180Y253778D01*
X86231Y253783D01*
X86348Y253799D01*
X86465Y253814D01*
X86572Y253829D01*
X86618Y253839D01*
X86659Y253844D01*
X86694Y253849D01*
X86725Y253854D01*
X86740Y253860D01*
X86745D01*
Y253656D01*
X86623Y253605D01*
X86516Y253559D01*
X86424Y253508D01*
X86348Y253463D01*
X86282Y253412D01*
X86226Y253371D01*
X86185Y253325D01*
X86150Y253290D01*
X86124Y253249D01*
X86104Y253218D01*
X86088Y253188D01*
X86078Y253162D01*
X86073Y253142D01*
Y253127D01*
Y253121D01*
Y253116D01*
X85961Y253162D01*
X85864Y253213D01*
X85778Y253269D01*
X85707Y253330D01*
X85646Y253391D01*
X85590Y253452D01*
X85549Y253519D01*
X85518Y253574D01*
X85488Y253636D01*
X85473Y253686D01*
X85457Y253737D01*
X85447Y253778D01*
X85442Y253814D01*
X85437Y253844D01*
Y253860D01*
Y253865D01*
Y257540D01*
X85203Y257769D01*
X85885Y258069D01*
X85880Y257896D01*
D02*
G37*
G36*
X114903Y254353D02*
X114954Y254343D01*
X115000Y254333D01*
X115040Y254318D01*
X115081Y254297D01*
X115112Y254287D01*
X115132Y254277D01*
X115137Y254272D01*
X115188Y254231D01*
X115224Y254185D01*
X115249Y254129D01*
X115264Y254073D01*
X115275Y254023D01*
X115279Y253982D01*
Y253951D01*
Y253946D01*
Y253941D01*
X115269Y253860D01*
X115249Y253788D01*
X115218Y253727D01*
X115188Y253681D01*
X115157Y253651D01*
X115127Y253625D01*
X115106Y253610D01*
X115101Y253605D01*
X115040Y253574D01*
X114995Y253554D01*
X114949Y253534D01*
X114918Y253524D01*
X114888Y253519D01*
X114872Y253514D01*
X114857D01*
X114827Y253519D01*
X114786Y253529D01*
X114704Y253559D01*
X114669Y253574D01*
X114638Y253590D01*
X114618Y253600D01*
X114613Y253605D01*
X114557Y253646D01*
X114516Y253697D01*
X114480Y253753D01*
X114460Y253804D01*
X114445Y253854D01*
X114440Y253895D01*
X114435Y253921D01*
Y253931D01*
Y254012D01*
X114450Y254079D01*
X114470Y254134D01*
X114496Y254180D01*
X114521Y254216D01*
X114541Y254236D01*
X114562Y254252D01*
X114567Y254257D01*
X114623Y254292D01*
X114674Y254318D01*
X114725Y254333D01*
X114766Y254348D01*
X114806Y254353D01*
X114832Y254358D01*
X114857D01*
X114903Y254353D01*
D02*
G37*
G36*
X74076Y256023D02*
X75292D01*
X75659Y256196D01*
X75654Y256002D01*
X75649Y255814D01*
X75644Y255641D01*
Y255560D01*
X75639Y255483D01*
Y255417D01*
Y255351D01*
Y255300D01*
Y255249D01*
Y255213D01*
Y255188D01*
Y255168D01*
Y255163D01*
Y254974D01*
X75644Y254801D01*
Y254643D01*
X75649Y254572D01*
Y254506D01*
Y254445D01*
X75654Y254389D01*
Y254343D01*
Y254302D01*
X75659Y254272D01*
Y254252D01*
Y254236D01*
Y254231D01*
X75252Y254353D01*
Y254654D01*
X74081D01*
Y254292D01*
X73674Y254414D01*
X73679Y254526D01*
X73684Y254633D01*
X73689Y254735D01*
Y254827D01*
X73694Y254898D01*
Y254928D01*
Y254954D01*
Y254974D01*
Y254995D01*
Y255000D01*
Y255005D01*
Y255758D01*
X73526Y255931D01*
X73908Y256242D01*
X74076Y256023D01*
D02*
G37*
G36*
X69775Y255392D02*
X69693Y255300D01*
X69622Y255213D01*
X69556Y255132D01*
X69495Y255056D01*
X69444Y254990D01*
X69398Y254923D01*
X69358Y254867D01*
X69322Y254817D01*
X69291Y254771D01*
X69266Y254730D01*
X69246Y254699D01*
X69230Y254674D01*
X69220Y254648D01*
X69210Y254633D01*
X69205Y254628D01*
Y254623D01*
X69184Y254577D01*
X69169Y254537D01*
X69149Y254496D01*
X69129Y254465D01*
X69093Y254419D01*
X69057Y254389D01*
X69032Y254369D01*
X69006Y254358D01*
X68991Y254353D01*
X68986D01*
X68971Y254358D01*
X68950Y254363D01*
X68915Y254384D01*
X68889Y254399D01*
X68884Y254409D01*
X68879D01*
X68854Y254440D01*
X68828Y254475D01*
X68808Y254521D01*
X68787Y254572D01*
X68772Y254618D01*
X68762Y254654D01*
X68752Y254679D01*
Y254689D01*
X68747Y254730D01*
X68742Y254771D01*
X68747Y254811D01*
X68757Y254847D01*
X68787Y254918D01*
X68823Y254979D01*
X68864Y255030D01*
X68905Y255071D01*
X68930Y255091D01*
X68935Y255101D01*
X68940D01*
X68991Y255137D01*
X69042Y255173D01*
X69159Y255249D01*
X69286Y255320D01*
X69409Y255381D01*
X69469Y255412D01*
X69520Y255437D01*
X69571Y255463D01*
X69612Y255483D01*
X69648Y255499D01*
X69678Y255509D01*
X69693Y255519D01*
X69699D01*
X69775Y255392D01*
D02*
G37*
G36*
X130112Y257412D02*
X130142Y257387D01*
X130168Y257372D01*
X130188Y257362D01*
X130203Y257351D01*
X130214Y257346D01*
X130224Y257341D01*
X130254Y257331D01*
X130290Y257326D01*
X130331D01*
X130366Y257331D01*
X130407Y257336D01*
X130483Y257356D01*
X130514Y257367D01*
X130539Y257372D01*
X130560Y257382D01*
X130565D01*
X130682Y257412D01*
X130738Y257423D01*
X130784Y257428D01*
X130824Y257433D01*
X130880D01*
X131002Y257428D01*
X131114Y257407D01*
X131221Y257382D01*
X131323Y257346D01*
X131415Y257306D01*
X131501Y257260D01*
X131578Y257214D01*
X131649Y257163D01*
X131715Y257112D01*
X131766Y257061D01*
X131817Y257015D01*
X131853Y256975D01*
X131883Y256939D01*
X131904Y256914D01*
X131919Y256893D01*
X131924Y256888D01*
X131990Y256781D01*
X132051Y256674D01*
X132102Y256562D01*
X132143Y256445D01*
X132183Y256328D01*
X132214Y256216D01*
X132239Y256109D01*
X132260Y256002D01*
X132275Y255901D01*
X132285Y255814D01*
X132295Y255733D01*
X132300Y255662D01*
Y255606D01*
X132306Y255560D01*
Y255534D01*
Y255524D01*
X132300Y255351D01*
X132290Y255183D01*
X132270Y255035D01*
X132250Y254893D01*
X132224Y254766D01*
X132194Y254648D01*
X132158Y254542D01*
X132122Y254450D01*
X132092Y254369D01*
X132056Y254297D01*
X132026Y254236D01*
X132000Y254185D01*
X131980Y254150D01*
X131959Y254119D01*
X131949Y254104D01*
X131944Y254099D01*
X131873Y254017D01*
X131797Y253946D01*
X131720Y253885D01*
X131639Y253834D01*
X131557Y253788D01*
X131476Y253753D01*
X131395Y253722D01*
X131318Y253697D01*
X131247Y253681D01*
X131181Y253666D01*
X131120Y253656D01*
X131069Y253646D01*
X131028D01*
X130992Y253641D01*
X130967D01*
X130891Y253646D01*
X130819Y253656D01*
X130753Y253666D01*
X130687Y253686D01*
X130565Y253732D01*
X130463Y253788D01*
X130417Y253814D01*
X130382Y253844D01*
X130346Y253870D01*
X130315Y253890D01*
X130295Y253910D01*
X130280Y253926D01*
X130270Y253931D01*
X130264Y253936D01*
X130163Y254053D01*
X130071Y254185D01*
X130000Y254318D01*
X129944Y254445D01*
X129923Y254501D01*
X129903Y254557D01*
X129888Y254608D01*
X129873Y254648D01*
X129862Y254684D01*
X129857Y254710D01*
X129852Y254725D01*
Y254730D01*
X130076Y254822D01*
X130117Y254669D01*
X130168Y254537D01*
X130224Y254425D01*
X130275Y254328D01*
X130300Y254287D01*
X130326Y254257D01*
X130346Y254226D01*
X130366Y254201D01*
X130382Y254185D01*
X130392Y254170D01*
X130397Y254165D01*
X130402Y254160D01*
X130448Y254119D01*
X130489Y254089D01*
X130585Y254033D01*
X130672Y253992D01*
X130758Y253966D01*
X130830Y253946D01*
X130891Y253941D01*
X130911Y253936D01*
X130941D01*
X131023Y253941D01*
X131099Y253956D01*
X131170Y253977D01*
X131237Y254002D01*
X131293Y254033D01*
X131349Y254068D01*
X131395Y254104D01*
X131435Y254145D01*
X131476Y254185D01*
X131507Y254221D01*
X131532Y254257D01*
X131552Y254287D01*
X131573Y254313D01*
X131583Y254338D01*
X131593Y254348D01*
Y254353D01*
X131629Y254435D01*
X131659Y254526D01*
X131710Y254720D01*
X131741Y254918D01*
X131766Y255107D01*
X131776Y255198D01*
X131781Y255280D01*
X131786Y255351D01*
Y255417D01*
X131791Y255473D01*
Y255509D01*
Y255534D01*
Y255544D01*
X131786Y255677D01*
X131781Y255799D01*
X131771Y255916D01*
X131756Y256028D01*
X131741Y256130D01*
X131720Y256226D01*
X131700Y256313D01*
X131674Y256394D01*
X131654Y256466D01*
X131634Y256532D01*
X131613Y256588D01*
X131598Y256634D01*
X131583Y256669D01*
X131573Y256695D01*
X131562Y256710D01*
Y256715D01*
X131517Y256797D01*
X131466Y256868D01*
X131415Y256929D01*
X131364Y256985D01*
X131308Y257026D01*
X131257Y257066D01*
X131206Y257097D01*
X131155Y257122D01*
X131104Y257138D01*
X131064Y257153D01*
X131023Y257163D01*
X130987Y257173D01*
X130962D01*
X130936Y257178D01*
X130921D01*
X130809Y257168D01*
X130712Y257148D01*
X130626Y257117D01*
X130550Y257082D01*
X130494Y257041D01*
X130448Y257010D01*
X130422Y256990D01*
X130412Y256980D01*
X130377Y256939D01*
X130341Y256898D01*
X130275Y256802D01*
X130219Y256695D01*
X130168Y256593D01*
X130132Y256501D01*
X130112Y256461D01*
X130102Y256430D01*
X130091Y256399D01*
X130081Y256379D01*
X130076Y256364D01*
Y256359D01*
X129852Y256415D01*
X130071Y257438D01*
X130112Y257412D01*
D02*
G37*
G36*
X67882Y254811D02*
X67795Y254704D01*
X67713Y254603D01*
X67647Y254511D01*
X67581Y254425D01*
X67530Y254348D01*
X67479Y254282D01*
X67439Y254221D01*
X67403Y254165D01*
X67373Y254119D01*
X67347Y254079D01*
X67332Y254048D01*
X67317Y254017D01*
X67301Y253997D01*
X67296Y253982D01*
X67291Y253977D01*
Y253972D01*
X67266Y253910D01*
X67240Y253860D01*
X67220Y253819D01*
X67194Y253783D01*
X67169Y253758D01*
X67149Y253737D01*
X67128Y253722D01*
X67108Y253712D01*
X67077Y253707D01*
X67047D01*
X67031Y253712D01*
X67026Y253717D01*
X66980Y253758D01*
X66940Y253809D01*
X66909Y253860D01*
X66884Y253916D01*
X66869Y253961D01*
X66858Y254002D01*
X66848Y254028D01*
Y254038D01*
X66843Y254079D01*
Y254119D01*
X66858Y254195D01*
X66889Y254267D01*
X66925Y254328D01*
X66965Y254379D01*
X67001Y254419D01*
X67026Y254440D01*
X67031Y254450D01*
X67036D01*
X67082Y254486D01*
X67133Y254526D01*
X67250Y254603D01*
X67378Y254679D01*
X67500Y254750D01*
X67561Y254786D01*
X67617Y254817D01*
X67663Y254842D01*
X67708Y254862D01*
X67744Y254883D01*
X67769Y254898D01*
X67790Y254903D01*
X67795Y254908D01*
X67882Y254811D01*
D02*
G37*
G36*
X70360Y254857D02*
X70355Y254669D01*
X70350Y254481D01*
Y254394D01*
X70345Y254308D01*
Y254231D01*
Y254160D01*
Y254094D01*
Y254038D01*
Y253992D01*
Y253961D01*
Y253936D01*
Y253931D01*
Y253829D01*
X70335Y253737D01*
X70309Y253661D01*
X70279Y253595D01*
X70238Y253539D01*
X70192Y253493D01*
X70141Y253457D01*
X70091Y253427D01*
X70040Y253407D01*
X69989Y253391D01*
X69938Y253381D01*
X69897Y253371D01*
X69856Y253366D01*
X68268D01*
X68187Y253376D01*
X68116Y253391D01*
X68049Y253417D01*
X67988Y253442D01*
X67932Y253473D01*
X67887Y253508D01*
X67841Y253544D01*
X67805Y253580D01*
X67775Y253615D01*
X67744Y253646D01*
X67724Y253676D01*
X67708Y253702D01*
X67698Y253722D01*
X67688Y253732D01*
Y253737D01*
X67759Y253778D01*
X67815Y253829D01*
X67861Y253880D01*
X67892Y253931D01*
X67912Y253977D01*
X67922Y254012D01*
X67932Y254038D01*
Y254048D01*
X67943Y254134D01*
X67948Y254231D01*
X67953Y254328D01*
Y254419D01*
X67958Y254501D01*
Y254537D01*
Y254567D01*
Y254592D01*
Y254613D01*
Y254623D01*
Y254628D01*
X68177D01*
X68182Y254542D01*
X68187Y254460D01*
X68192Y254384D01*
X68197Y254313D01*
X68202Y254252D01*
X68207Y254195D01*
X68212Y254139D01*
X68217Y254094D01*
X68228Y254053D01*
X68233Y254023D01*
X68238Y253992D01*
Y253966D01*
X68243Y253951D01*
X68248Y253936D01*
Y253931D01*
Y253926D01*
X68258Y253885D01*
X68273Y253854D01*
X68304Y253804D01*
X68340Y253763D01*
X68380Y253743D01*
X68421Y253727D01*
X68451Y253722D01*
X69683D01*
X69734Y253727D01*
X69780Y253737D01*
X69816Y253753D01*
X69846Y253768D01*
X69872Y253788D01*
X69907Y253829D01*
X69928Y253875D01*
X69938Y253916D01*
Y253941D01*
Y253946D01*
Y253951D01*
Y254552D01*
X69770Y254735D01*
X70365Y255035D01*
X70360Y254857D01*
D02*
G37*
G36*
X73984Y256842D02*
X76056D01*
X75827Y256547D01*
X75745Y256568D01*
X75669Y256588D01*
X75598Y256598D01*
X75532Y256603D01*
X75476Y256608D01*
X75430Y256613D01*
X73231D01*
X73689Y257122D01*
X73984Y256842D01*
D02*
G37*
G36*
X120644Y257825D02*
X120522Y257708D01*
X120420Y257596D01*
X120339Y257494D01*
X120268Y257397D01*
X120217Y257321D01*
X120202Y257285D01*
X120181Y257260D01*
X120171Y257234D01*
X120161Y257219D01*
X120156Y257209D01*
Y257204D01*
X120135Y257153D01*
X120115Y257112D01*
X120100Y257077D01*
X120079Y257041D01*
X120039Y256990D01*
X119998Y256959D01*
X119967Y256939D01*
X119942Y256929D01*
X119922Y256924D01*
X119916D01*
X119901Y256929D01*
X119881Y256934D01*
X119835Y256964D01*
X119815Y256975D01*
X119799Y256990D01*
X119789Y256995D01*
X119784Y257000D01*
X119754Y257036D01*
X119733Y257071D01*
X119713Y257117D01*
X119703Y257158D01*
X119698Y257193D01*
X119693Y257224D01*
Y257244D01*
Y257249D01*
X119703Y257316D01*
X119723Y257377D01*
X119754Y257433D01*
X119789Y257479D01*
X119825Y257519D01*
X119855Y257555D01*
X119876Y257575D01*
X119886Y257580D01*
X119927Y257611D01*
X119973Y257642D01*
X120023Y257672D01*
X120079Y257708D01*
X120196Y257769D01*
X120314Y257830D01*
X120425Y257881D01*
X120476Y257906D01*
X120517Y257927D01*
X120553Y257942D01*
X120578Y257952D01*
X120599Y257962D01*
X120604D01*
X120644Y257825D01*
D02*
G37*
G36*
X102157Y257270D02*
X102096Y257199D01*
X102040Y257133D01*
X101989Y257071D01*
X101944Y257015D01*
X101867Y256908D01*
X101806Y256822D01*
X101760Y256751D01*
X101730Y256700D01*
X101720Y256684D01*
X101715Y256669D01*
X101710Y256664D01*
Y256659D01*
X101679Y256593D01*
X101654Y256542D01*
X101623Y256511D01*
X101598Y256486D01*
X101572Y256471D01*
X101552Y256466D01*
X101542Y256461D01*
X101537D01*
X101516Y256466D01*
X101496Y256471D01*
X101460Y256501D01*
X101430Y256527D01*
X101425Y256532D01*
X101419Y256537D01*
X101399Y256573D01*
X101379Y256608D01*
X101353Y256695D01*
X101343Y256730D01*
X101338Y256761D01*
X101333Y256781D01*
Y256786D01*
Y256847D01*
X101348Y256908D01*
X101374Y256959D01*
X101399Y257000D01*
X101430Y257036D01*
X101460Y257066D01*
X101481Y257082D01*
X101486Y257087D01*
X101521Y257112D01*
X101557Y257138D01*
X101648Y257189D01*
X101745Y257239D01*
X101847Y257290D01*
X101939Y257331D01*
X101974Y257351D01*
X102010Y257367D01*
X102040Y257382D01*
X102061Y257387D01*
X102076Y257397D01*
X102081D01*
X102157Y257270D01*
D02*
G37*
G36*
X126106Y257921D02*
X126019Y257764D01*
X125948Y257621D01*
X125892Y257499D01*
X125872Y257443D01*
X125852Y257392D01*
X125831Y257346D01*
X125821Y257306D01*
X125811Y257270D01*
X125801Y257239D01*
X125790Y257219D01*
Y257204D01*
X125785Y257193D01*
Y257189D01*
X125775Y257148D01*
X125765Y257107D01*
X125740Y257046D01*
X125709Y257005D01*
X125678Y256975D01*
X125653Y256959D01*
X125628Y256949D01*
X125612Y256944D01*
X125607D01*
X125587Y256949D01*
X125566Y256959D01*
X125515Y256995D01*
X125490Y257010D01*
X125475Y257026D01*
X125460Y257036D01*
X125454Y257041D01*
X125419Y257082D01*
X125388Y257122D01*
X125368Y257168D01*
X125353Y257209D01*
X125343Y257244D01*
X125337Y257275D01*
X125332Y257295D01*
Y257300D01*
X125337Y257362D01*
X125348Y257417D01*
X125373Y257468D01*
X125399Y257519D01*
X125424Y257560D01*
X125444Y257591D01*
X125465Y257611D01*
X125470Y257616D01*
X125500Y257646D01*
X125531Y257682D01*
X125612Y257748D01*
X125699Y257809D01*
X125780Y257876D01*
X125862Y257927D01*
X125897Y257952D01*
X125928Y257972D01*
X125953Y257988D01*
X125974Y257998D01*
X125984Y258008D01*
X125989D01*
X126106Y257921D01*
D02*
G37*
G36*
X81772Y258003D02*
X81787Y257911D01*
X81803Y257809D01*
X81818Y257702D01*
X81859Y257489D01*
X81894Y257280D01*
X81915Y257183D01*
X81930Y257092D01*
X81950Y257010D01*
X81960Y256939D01*
X81976Y256878D01*
X81981Y256832D01*
X81991Y256807D01*
Y256797D01*
X82719D01*
X82490Y256501D01*
X82398Y256522D01*
X82306Y256542D01*
X82230Y256552D01*
X82159Y256557D01*
X82103Y256562D01*
X82057Y256568D01*
X82021D01*
X82108Y256237D01*
X82149Y256074D01*
X82195Y255916D01*
X82230Y255768D01*
X82271Y255626D01*
X82306Y255488D01*
X82342Y255366D01*
X82373Y255249D01*
X82398Y255147D01*
X82424Y255056D01*
X82444Y254979D01*
X82464Y254918D01*
X82474Y254872D01*
X82480Y254847D01*
X82485Y254837D01*
X82352Y254786D01*
X82210Y254725D01*
X82072Y254659D01*
X81945Y254592D01*
X81884Y254562D01*
X81833Y254532D01*
X81787Y254506D01*
X81747Y254481D01*
X81711Y254460D01*
X81686Y254445D01*
X81670Y254440D01*
X81665Y254435D01*
X81736Y254313D01*
X81813Y254190D01*
X81981Y253961D01*
X82067Y253854D01*
X82154Y253753D01*
X82235Y253656D01*
X82317Y253570D01*
X82398Y253488D01*
X82469Y253417D01*
X82530Y253351D01*
X82586Y253300D01*
X82632Y253254D01*
X82668Y253223D01*
X82688Y253203D01*
X82699Y253198D01*
X82607Y253096D01*
X82469Y253183D01*
X82337Y253274D01*
X82210Y253366D01*
X82093Y253463D01*
X81986Y253564D01*
X81884Y253661D01*
X81792Y253758D01*
X81711Y253849D01*
X81635Y253936D01*
X81568Y254017D01*
X81512Y254089D01*
X81467Y254150D01*
X81431Y254201D01*
X81406Y254241D01*
X81390Y254262D01*
X81385Y254272D01*
X81309Y254211D01*
X81238Y254150D01*
X81172Y254094D01*
X81110Y254038D01*
X81065Y253992D01*
X81024Y253956D01*
X81003Y253936D01*
X80993Y253926D01*
X80958Y253885D01*
X80927Y253860D01*
X80897Y253839D01*
X80866Y253824D01*
X80846Y253814D01*
X80825Y253809D01*
X80810D01*
X80779Y253814D01*
X80754Y253834D01*
X80734Y253860D01*
X80718Y253895D01*
X80703Y253926D01*
X80698Y253951D01*
X80693Y253972D01*
Y253977D01*
X80688Y254038D01*
X80693Y254099D01*
X80708Y254150D01*
X80724Y254195D01*
X80744Y254236D01*
X80759Y254262D01*
X80769Y254282D01*
X80774Y254287D01*
X80795Y254313D01*
X80825Y254343D01*
X80892Y254394D01*
X80968Y254445D01*
X81044Y254491D01*
X81116Y254526D01*
X81182Y254557D01*
X81202Y254567D01*
X81222Y254577D01*
X81233Y254582D01*
X81238D01*
X81182Y254725D01*
X81131Y254878D01*
X81080Y255035D01*
X81034Y255198D01*
X80948Y255524D01*
X80912Y255682D01*
X80876Y255835D01*
X80846Y255977D01*
X80820Y256109D01*
X80795Y256226D01*
X80774Y256328D01*
X80764Y256374D01*
X80759Y256410D01*
X80754Y256445D01*
X80749Y256476D01*
X80744Y256496D01*
X80739Y256511D01*
Y256522D01*
Y256527D01*
X80603Y256667D01*
X80566Y256578D01*
X80515Y256450D01*
X80500Y256389D01*
X80479Y256338D01*
X80464Y256293D01*
X80454Y256252D01*
X80444Y256216D01*
X80433Y256186D01*
X80428Y256160D01*
Y256145D01*
X80423Y256135D01*
Y256130D01*
X80418Y256079D01*
X80408Y256038D01*
X80398Y256002D01*
X80388Y255967D01*
X80362Y255916D01*
X80332Y255885D01*
X80306Y255865D01*
X80281Y255855D01*
X80265Y255850D01*
X80260D01*
X80240Y255855D01*
X80220Y255865D01*
X80194Y255885D01*
X80174Y255906D01*
X80148Y255926D01*
X80133Y255946D01*
X80123Y255957D01*
X80118Y255962D01*
X80082Y256008D01*
X80057Y256048D01*
X80041Y256094D01*
X80026Y256135D01*
X80021Y256170D01*
X80016Y256196D01*
Y256216D01*
Y256221D01*
X80021Y256262D01*
X80026Y256303D01*
X80057Y256384D01*
X80072Y256420D01*
X80082Y256445D01*
X80092Y256466D01*
X80098Y256471D01*
X80113Y256501D01*
X80138Y256537D01*
X80169Y256578D01*
X80204Y256613D01*
X80281Y256700D01*
X80367Y256781D01*
X80444Y256853D01*
X80479Y256888D01*
X80510Y256914D01*
X80540Y256939D01*
X80561Y256954D01*
X80571Y256964D01*
X80576Y256970D01*
X80698Y256888D01*
X80627Y256725D01*
X80622Y256713D01*
X80586Y256684D01*
X80603Y256667D01*
X80622Y256713D01*
X80973Y256995D01*
X81116Y256797D01*
X81619D01*
X81594Y256903D01*
X81568Y257000D01*
X81543Y257092D01*
X81523Y257173D01*
X81502Y257249D01*
X81482Y257321D01*
X81467Y257382D01*
X81451Y257438D01*
X81436Y257484D01*
X81426Y257524D01*
X81416Y257560D01*
X81411Y257586D01*
X81406Y257611D01*
X81401Y257626D01*
X81395Y257631D01*
Y257636D01*
X81217Y257804D01*
X81762Y258089D01*
X81772Y258003D01*
D02*
G37*
G36*
X97246Y257962D02*
X97159Y257784D01*
X97088Y257616D01*
X97057Y257540D01*
X97032Y257468D01*
X97012Y257402D01*
X96991Y257341D01*
X96976Y257290D01*
X96961Y257239D01*
X96951Y257199D01*
X96945Y257163D01*
X96935Y257133D01*
Y257112D01*
X96930Y257102D01*
Y257097D01*
X96920Y257046D01*
X96905Y257005D01*
X96895Y256970D01*
X96874Y256934D01*
X96844Y256883D01*
X96808Y256853D01*
X96777Y256832D01*
X96752Y256822D01*
X96732Y256817D01*
X96727D01*
X96701Y256822D01*
X96671Y256837D01*
X96640Y256858D01*
X96609Y256878D01*
X96579Y256898D01*
X96558Y256919D01*
X96543Y256934D01*
X96538Y256939D01*
X96497Y256990D01*
X96472Y257046D01*
X96452Y257107D01*
X96441Y257168D01*
Y257224D01*
Y257265D01*
Y257295D01*
Y257300D01*
Y257306D01*
X96452Y257356D01*
X96477Y257407D01*
X96513Y257463D01*
X96558Y257524D01*
X96609Y257586D01*
X96665Y257646D01*
X96788Y257769D01*
X96915Y257876D01*
X96971Y257921D01*
X97022Y257962D01*
X97062Y257998D01*
X97093Y258023D01*
X97118Y258038D01*
X97123Y258044D01*
X97246Y257962D01*
D02*
G37*
G36*
X95637Y257840D02*
X95729Y257596D01*
X95775Y257479D01*
X95826Y257362D01*
X95871Y257249D01*
X95917Y257148D01*
X95958Y257051D01*
X95999Y256959D01*
X96034Y256883D01*
X96070Y256817D01*
X96095Y256761D01*
X96116Y256725D01*
X96126Y256700D01*
X96131Y256690D01*
X98422D01*
X98447Y256944D01*
X98650D01*
X98671Y256837D01*
X98686Y256740D01*
X98707Y256649D01*
X98732Y256562D01*
X98752Y256486D01*
X98773Y256415D01*
X98793Y256349D01*
X98813Y256293D01*
X98834Y256242D01*
X98854Y256196D01*
X98869Y256160D01*
X98885Y256130D01*
X98895Y256104D01*
X98905Y256089D01*
X98910Y256079D01*
Y256074D01*
X98946Y256038D01*
X98971Y256008D01*
X98992Y255972D01*
X99002Y255941D01*
X99012Y255916D01*
X99017Y255896D01*
Y255885D01*
Y255880D01*
X99012Y255860D01*
X99007Y255845D01*
X98981Y255814D01*
X98956Y255794D01*
X98951Y255784D01*
X98946D01*
X98890Y255758D01*
X98839Y255748D01*
X98824Y255743D01*
X98768D01*
X98737Y255748D01*
X98666Y255768D01*
X98630Y255773D01*
X98605Y255784D01*
X98584Y255789D01*
X98579D01*
X98528Y255814D01*
X98483Y255850D01*
X98452Y255890D01*
X98432Y255931D01*
X98416Y255972D01*
X98406Y256008D01*
X98401Y256028D01*
Y256038D01*
X98396Y256115D01*
X98391Y256191D01*
X98396Y256262D01*
X98401Y256328D01*
X98406Y256379D01*
X98411Y256425D01*
X98416Y256450D01*
Y256461D01*
X94930D01*
X95266Y255906D01*
X95138Y255824D01*
X95047Y255921D01*
X94955Y256008D01*
X94869Y256084D01*
X94787Y256150D01*
X94711Y256206D01*
X94634Y256257D01*
X94568Y256298D01*
X94502Y256333D01*
X94446Y256364D01*
X94395Y256384D01*
X94354Y256399D01*
X94314Y256415D01*
X94288Y256420D01*
X94263Y256425D01*
X94253Y256430D01*
X94248D01*
X94685Y256949D01*
X94925Y256690D01*
X95912D01*
X95785Y256847D01*
X95663Y257005D01*
X95546Y257153D01*
X95439Y257290D01*
X95393Y257356D01*
X95352Y257412D01*
X95311Y257463D01*
X95281Y257504D01*
X95256Y257540D01*
X95235Y257565D01*
X95225Y257580D01*
X95220Y257586D01*
X94986Y257702D01*
X95561Y258089D01*
X95637Y257840D01*
D02*
G37*
G36*
X98360Y257855D02*
X98299Y257758D01*
X98243Y257662D01*
X98198Y257575D01*
X98152Y257494D01*
X98116Y257417D01*
X98080Y257346D01*
X98050Y257285D01*
X98024Y257229D01*
X98004Y257178D01*
X97989Y257133D01*
X97974Y257097D01*
X97958Y257066D01*
X97953Y257041D01*
X97948Y257026D01*
X97943Y257015D01*
Y257010D01*
X97928Y256959D01*
X97913Y256914D01*
X97897Y256873D01*
X97877Y256837D01*
X97862Y256807D01*
X97846Y256781D01*
X97811Y256746D01*
X97785Y256725D01*
X97760Y256715D01*
X97745Y256710D01*
X97739D01*
X97709Y256715D01*
X97678Y256730D01*
X97648Y256751D01*
X97617Y256776D01*
X97592Y256802D01*
X97571Y256822D01*
X97556Y256837D01*
X97551Y256842D01*
X97510Y256898D01*
X97485Y256959D01*
X97475Y257026D01*
X97465Y257087D01*
Y257138D01*
X97470Y257183D01*
X97475Y257214D01*
Y257219D01*
Y257224D01*
X97490Y257275D01*
X97521Y257326D01*
X97561Y257382D01*
X97612Y257438D01*
X97673Y257499D01*
X97739Y257560D01*
X97877Y257677D01*
X98014Y257779D01*
X98075Y257825D01*
X98131Y257865D01*
X98177Y257896D01*
X98213Y257921D01*
X98233Y257937D01*
X98243Y257942D01*
X98360Y257855D01*
D02*
G37*
G36*
X118247Y257962D02*
X118242Y257906D01*
X118237Y257789D01*
Y257657D01*
X118232Y257514D01*
Y257367D01*
X118227Y257214D01*
Y257056D01*
Y256903D01*
X118222Y256761D01*
Y256624D01*
Y256496D01*
Y256384D01*
Y256338D01*
Y256293D01*
Y256257D01*
Y256226D01*
Y256201D01*
Y256181D01*
Y256170D01*
Y256165D01*
X119657D01*
X119428Y255870D01*
X119331Y255896D01*
X119240Y255916D01*
X119158Y255936D01*
X119082Y255952D01*
X119016Y255967D01*
X118979Y255974D01*
X118222Y255936D01*
Y254139D01*
Y254073D01*
Y253997D01*
Y253921D01*
X118227Y253834D01*
X118232Y253661D01*
Y253493D01*
X118237Y253412D01*
Y253335D01*
X118242Y253269D01*
Y253213D01*
X118247Y253162D01*
Y253127D01*
Y253106D01*
Y253096D01*
X117774Y253264D01*
X117779Y253407D01*
X117784Y253549D01*
X117789Y253686D01*
Y253809D01*
X117794Y253865D01*
Y253916D01*
Y253961D01*
Y254002D01*
Y254033D01*
Y254053D01*
Y254068D01*
Y254073D01*
Y255936D01*
X116196D01*
X116628Y256445D01*
X116929Y256165D01*
X117794D01*
Y257524D01*
X117626Y257733D01*
X118247Y258008D01*
Y257962D01*
D02*
G37*
G36*
X120359Y256186D02*
X121255D01*
X121026Y255890D01*
X120934Y255916D01*
X120858Y255936D01*
X120797Y255957D01*
X120746Y255972D01*
X120705Y255987D01*
X120691Y255992D01*
X120349Y255957D01*
Y254114D01*
X120354Y254023D01*
X120364Y253941D01*
X120375Y253870D01*
X120390Y253814D01*
X120410Y253768D01*
X120420Y253732D01*
X120431Y253712D01*
X120436Y253707D01*
X120054Y253305D01*
X120008Y253376D01*
X119952Y253457D01*
X119886Y253549D01*
X119815Y253651D01*
X119738Y253758D01*
X119662Y253870D01*
X119499Y254089D01*
X119423Y254190D01*
X119346Y254292D01*
X119280Y254379D01*
X119219Y254460D01*
X119173Y254526D01*
X119133Y254577D01*
X119123Y254592D01*
X119112Y254608D01*
X119102Y254613D01*
Y254618D01*
X119189Y254740D01*
X119962Y254023D01*
Y255896D01*
X119754Y256064D01*
X120105Y256425D01*
X120359Y256186D01*
D02*
G37*
G36*
X76682Y257758D02*
X76677Y257570D01*
Y257479D01*
X76672Y257392D01*
Y257316D01*
Y257239D01*
X76667Y257173D01*
Y257117D01*
Y257066D01*
Y257020D01*
Y256985D01*
Y256959D01*
Y256944D01*
Y256939D01*
Y254287D01*
Y254206D01*
Y254119D01*
X76672Y253931D01*
X76682Y253732D01*
X76687Y253544D01*
X76692Y253457D01*
X76697Y253376D01*
X76702Y253305D01*
X76708Y253239D01*
Y253188D01*
X76713Y253152D01*
Y253127D01*
Y253116D01*
X76265Y253264D01*
Y257519D01*
X73007D01*
Y253992D01*
Y253946D01*
X73017Y253905D01*
X73027Y253870D01*
X73038Y253844D01*
X73073Y253799D01*
X73109Y253768D01*
X73150Y253748D01*
X73185Y253743D01*
X73206Y253737D01*
X73216D01*
X73256Y253743D01*
X73307D01*
X73414Y253753D01*
X73536Y253768D01*
X73654Y253778D01*
X73760Y253793D01*
X73811Y253799D01*
X73852Y253804D01*
X73883Y253809D01*
X73913D01*
X73928Y253814D01*
X73934D01*
Y253610D01*
X73806Y253570D01*
X73694Y253529D01*
X73603Y253488D01*
X73516Y253447D01*
X73450Y253407D01*
X73389Y253366D01*
X73343Y253325D01*
X73307Y253290D01*
X73277Y253254D01*
X73251Y253218D01*
X73236Y253188D01*
X73226Y253167D01*
X73221Y253147D01*
X73216Y253132D01*
Y253121D01*
Y253116D01*
X73104Y253157D01*
X73007Y253208D01*
X72921Y253259D01*
X72849Y253320D01*
X72793Y253376D01*
X72742Y253437D01*
X72702Y253498D01*
X72671Y253559D01*
X72646Y253615D01*
X72625Y253671D01*
X72615Y253717D01*
X72605Y253758D01*
X72600Y253793D01*
Y253824D01*
Y253839D01*
Y253844D01*
Y257479D01*
X72432Y257631D01*
X72834Y257967D01*
X73002Y257748D01*
X76300D01*
X76692Y257967D01*
X76682Y257758D01*
D02*
G37*
G36*
X107024Y257957D02*
X107018Y257809D01*
X107013Y257677D01*
Y257616D01*
X107008Y257565D01*
Y257514D01*
Y257473D01*
Y257438D01*
Y257402D01*
Y257382D01*
Y257362D01*
Y257351D01*
Y257346D01*
X108433D01*
Y257672D01*
X108265Y257860D01*
X108861Y258089D01*
X108856Y257937D01*
X108851Y257799D01*
X108846Y257672D01*
X108841Y257560D01*
Y257514D01*
Y257473D01*
Y257433D01*
Y257402D01*
Y257377D01*
Y257362D01*
Y257351D01*
Y257346D01*
X110062D01*
X109833Y257051D01*
X109737Y257071D01*
X109645Y257092D01*
X109553Y257102D01*
X109477Y257107D01*
X109406Y257112D01*
X109355Y257117D01*
X108841D01*
Y256781D01*
Y256624D01*
X108846Y256466D01*
Y256318D01*
Y256175D01*
X108851Y256043D01*
Y255921D01*
Y255809D01*
X108856Y255712D01*
Y255626D01*
Y255550D01*
X108861Y255493D01*
Y255448D01*
Y255422D01*
Y255412D01*
X108433Y255555D01*
Y255646D01*
X107935D01*
Y255198D01*
X110210D01*
X109981Y254903D01*
X109884Y254923D01*
X109792Y254944D01*
X109701Y254954D01*
X109625Y254959D01*
X109553Y254964D01*
X109502Y254969D01*
X108291D01*
X108408Y254791D01*
X108540Y254623D01*
X108688Y254465D01*
X108841Y254313D01*
X109004Y254170D01*
X109167Y254033D01*
X109329Y253910D01*
X109487Y253799D01*
X109640Y253697D01*
X109782Y253610D01*
X109915Y253534D01*
X110027Y253468D01*
X110078Y253442D01*
X110118Y253417D01*
X110159Y253396D01*
X110189Y253381D01*
X110215Y253366D01*
X110235Y253361D01*
X110246Y253351D01*
X110251D01*
X110215Y253183D01*
X109930Y253284D01*
X109665Y253396D01*
X109421Y253524D01*
X109197Y253661D01*
X108988Y253804D01*
X108800Y253951D01*
X108632Y254094D01*
X108484Y254241D01*
X108352Y254379D01*
X108240Y254506D01*
X108149Y254623D01*
X108072Y254725D01*
X108036Y254771D01*
X108011Y254811D01*
X107986Y254842D01*
X107970Y254872D01*
X107955Y254898D01*
X107945Y254913D01*
X107935Y254923D01*
Y254735D01*
Y254542D01*
Y254363D01*
X107940Y254190D01*
Y254028D01*
Y253875D01*
X107945Y253732D01*
Y253605D01*
Y253488D01*
X107950Y253381D01*
Y253290D01*
Y253218D01*
X107955Y253157D01*
Y253111D01*
Y253086D01*
Y253076D01*
X107507Y253223D01*
X107527Y254901D01*
X107512Y254867D01*
X107461Y254771D01*
X107344Y254588D01*
X107217Y254409D01*
X107074Y254246D01*
X106922Y254094D01*
X106769Y253956D01*
X106611Y253829D01*
X106454Y253712D01*
X106306Y253610D01*
X106163Y253524D01*
X106036Y253447D01*
X105919Y253381D01*
X105873Y253356D01*
X105827Y253335D01*
X105787Y253315D01*
X105756Y253300D01*
X105731Y253284D01*
X105710Y253274D01*
X105700Y253269D01*
X105695D01*
X105675Y253320D01*
X105649Y253361D01*
X105619Y253396D01*
X105583Y253432D01*
X105507Y253483D01*
X105430Y253519D01*
X105354Y253544D01*
X105293Y253559D01*
X105268D01*
X105247Y253564D01*
X105232D01*
Y253737D01*
X105369Y253763D01*
X105507Y253793D01*
X105634Y253829D01*
X105756Y253865D01*
X105878Y253905D01*
X105990Y253946D01*
X106204Y254038D01*
X106397Y254139D01*
X106571Y254241D01*
X106728Y254348D01*
X106866Y254450D01*
X106983Y254552D01*
X107085Y254648D01*
X107171Y254735D01*
X107242Y254811D01*
X107293Y254878D01*
X107329Y254928D01*
X107354Y254959D01*
X107360Y254964D01*
Y254969D01*
X105232D01*
X105731Y255499D01*
X106051Y255198D01*
X107527D01*
Y255646D01*
X107008D01*
Y255453D01*
X106581Y255600D01*
X106586Y255672D01*
Y255763D01*
X106591Y255865D01*
Y255982D01*
X106596Y256104D01*
Y256231D01*
Y256486D01*
X106601Y256608D01*
Y256725D01*
Y256832D01*
Y256929D01*
Y257005D01*
Y257041D01*
Y257066D01*
Y257087D01*
Y257102D01*
Y257112D01*
Y257117D01*
X105339D01*
X105817Y257646D01*
X106138Y257346D01*
X106601D01*
Y257692D01*
X106433Y257881D01*
X107029Y258115D01*
X107024Y257957D01*
D02*
G37*
G36*
X102840Y257927D02*
X103007Y257845D01*
X103165Y257774D01*
X103313Y257718D01*
X103384Y257692D01*
X103445Y257672D01*
X103501Y257657D01*
X103547Y257642D01*
X103588Y257631D01*
X103613Y257621D01*
X103634Y257616D01*
X103639D01*
X103832Y257575D01*
X103924Y257555D01*
X104005Y257540D01*
X104087Y257524D01*
X104163Y257509D01*
X104229Y257499D01*
X104290Y257489D01*
X104346Y257479D01*
X104397Y257468D01*
X104438Y257463D01*
X104473Y257458D01*
X104504Y257453D01*
X104524Y257448D01*
X104540D01*
Y257260D01*
X104463Y257265D01*
X104387Y257270D01*
X104224Y257285D01*
X104056Y257306D01*
X103898Y257321D01*
X103827Y257331D01*
X103761Y257341D01*
X103700Y257346D01*
X103649Y257351D01*
X103608Y257362D01*
X103572D01*
X103552Y257367D01*
X103547D01*
Y256440D01*
X104708D01*
X104479Y256145D01*
X104382Y256165D01*
X104290Y256186D01*
X104199Y256196D01*
X104122Y256201D01*
X104051Y256206D01*
X104000Y256211D01*
X103568D01*
X103588Y256150D01*
X103613Y256079D01*
X103674Y255936D01*
X103741Y255789D01*
X103807Y255651D01*
X103842Y255585D01*
X103873Y255524D01*
X103898Y255468D01*
X103924Y255422D01*
X103944Y255387D01*
X103959Y255356D01*
X103970Y255336D01*
X103975Y255331D01*
X104092Y255122D01*
X104224Y254923D01*
X104351Y254735D01*
X104412Y254648D01*
X104473Y254567D01*
X104530Y254491D01*
X104580Y254425D01*
X104631Y254363D01*
X104672Y254313D01*
X104702Y254272D01*
X104728Y254241D01*
X104743Y254221D01*
X104748Y254216D01*
X104631Y254104D01*
X104499Y254221D01*
X104372Y254338D01*
X104255Y254455D01*
X104153Y254577D01*
X104051Y254694D01*
X103964Y254811D01*
X103883Y254918D01*
X103812Y255025D01*
X103751Y255122D01*
X103695Y255213D01*
X103649Y255295D01*
X103613Y255361D01*
X103583Y255417D01*
X103562Y255458D01*
X103552Y255483D01*
X103547Y255493D01*
Y255244D01*
Y255000D01*
Y254766D01*
X103552Y254542D01*
Y254333D01*
Y254129D01*
X103557Y253946D01*
Y253773D01*
Y253620D01*
X103562Y253483D01*
Y253361D01*
Y253310D01*
Y253264D01*
Y253218D01*
X103568Y253183D01*
Y253152D01*
Y253121D01*
Y253101D01*
Y253086D01*
Y253081D01*
Y253076D01*
X103140Y253244D01*
Y253295D01*
X103145Y253351D01*
Y253412D01*
X103150Y253483D01*
Y253559D01*
Y253641D01*
X103155Y253819D01*
Y254007D01*
X103160Y254211D01*
Y254414D01*
Y254618D01*
X103165Y254817D01*
Y255010D01*
Y255097D01*
Y255183D01*
Y255259D01*
Y255336D01*
Y255402D01*
Y255463D01*
Y255514D01*
Y255560D01*
Y255595D01*
Y255621D01*
Y255636D01*
Y255641D01*
X103089Y255544D01*
X103018Y255448D01*
X102957Y255361D01*
X102906Y255275D01*
X102865Y255203D01*
X102834Y255152D01*
X102824Y255132D01*
X102814Y255117D01*
X102809Y255107D01*
Y255101D01*
X102789Y255061D01*
X102773Y255025D01*
X102738Y254964D01*
X102702Y254923D01*
X102672Y254893D01*
X102646Y254878D01*
X102626Y254867D01*
X102616Y254862D01*
X102611D01*
X102590Y254867D01*
X102570Y254883D01*
X102550Y254903D01*
X102529Y254923D01*
X102514Y254944D01*
X102504Y254964D01*
X102499Y254979D01*
X102494Y254984D01*
X102473Y255030D01*
X102453Y255076D01*
X102443Y255122D01*
X102437Y255157D01*
X102432Y255188D01*
X102427Y255213D01*
Y255229D01*
Y255234D01*
X102432Y255280D01*
X102448Y255326D01*
X102468Y255371D01*
X102488Y255417D01*
X102514Y255453D01*
X102534Y255478D01*
X102550Y255499D01*
X102555Y255504D01*
X102580Y255534D01*
X102616Y255560D01*
X102656Y255590D01*
X102702Y255616D01*
X102799Y255672D01*
X102906Y255722D01*
X103003Y255768D01*
X103048Y255789D01*
X103089Y255804D01*
X103120Y255819D01*
X103145Y255824D01*
X103160Y255835D01*
X103165D01*
Y256211D01*
X102173D01*
X102585Y256700D01*
X102865Y256440D01*
X103165D01*
Y257423D01*
X103003Y257453D01*
X102855Y257479D01*
X102717Y257504D01*
X102656Y257509D01*
X102600Y257519D01*
X102544Y257524D01*
X102499Y257529D01*
X102458Y257535D01*
X102427Y257540D01*
X102397D01*
X102376Y257545D01*
X102361D01*
X102682Y258028D01*
X102840Y257927D01*
D02*
G37*
G36*
X79217Y257855D02*
X79212Y257723D01*
X79207Y257611D01*
X79202Y257514D01*
Y257473D01*
Y257438D01*
Y257407D01*
Y257382D01*
Y257362D01*
Y257346D01*
Y257341D01*
Y257336D01*
Y253697D01*
Y253625D01*
X79186Y253559D01*
X79171Y253503D01*
X79141Y253457D01*
X79110Y253417D01*
X79074Y253381D01*
X79034Y253351D01*
X78993Y253330D01*
X78912Y253295D01*
X78871Y253284D01*
X78840Y253274D01*
X78810Y253269D01*
X78789Y253264D01*
X78199D01*
X78128Y253269D01*
X78061Y253279D01*
X78005Y253295D01*
X77950Y253315D01*
X77904Y253340D01*
X77858Y253371D01*
X77822Y253401D01*
X77792Y253432D01*
X77741Y253493D01*
X77705Y253549D01*
X77695Y253570D01*
X77685Y253585D01*
X77680Y253595D01*
Y253600D01*
X77731Y253625D01*
X77771Y253666D01*
X77807Y253712D01*
X77827Y253763D01*
X77843Y253814D01*
X77858Y253854D01*
X77863Y253880D01*
Y253890D01*
X77873Y253987D01*
X77878Y254094D01*
X77883Y254201D01*
Y254302D01*
X77888Y254389D01*
Y254430D01*
Y254460D01*
Y254491D01*
Y254511D01*
Y254521D01*
Y254526D01*
X78082D01*
X78087Y254440D01*
X78092Y254358D01*
X78097Y254282D01*
X78102Y254211D01*
X78107Y254145D01*
X78112Y254089D01*
X78117Y254038D01*
X78123Y253992D01*
X78128Y253951D01*
X78133Y253916D01*
X78138Y253890D01*
X78143Y253865D01*
Y253849D01*
X78148Y253834D01*
Y253829D01*
Y253824D01*
X78163Y253753D01*
X78184Y253702D01*
X78199Y253661D01*
X78219Y253636D01*
X78240Y253615D01*
X78250Y253605D01*
X78260Y253600D01*
X78575D01*
X78621Y253605D01*
X78662Y253610D01*
X78698Y253625D01*
X78723Y253641D01*
X78769Y253686D01*
X78794Y253737D01*
X78810Y253788D01*
X78815Y253834D01*
Y253865D01*
Y253870D01*
Y253875D01*
Y255366D01*
X78688Y255249D01*
X78581Y255137D01*
X78489Y255041D01*
X78418Y254954D01*
X78362Y254883D01*
X78321Y254827D01*
X78306Y254806D01*
X78296Y254791D01*
X78290Y254786D01*
Y254781D01*
X78245Y254715D01*
X78204Y254669D01*
X78168Y254633D01*
X78133Y254613D01*
X78107Y254598D01*
X78087Y254592D01*
X78077Y254588D01*
X78072D01*
X78041Y254592D01*
X78016Y254608D01*
X77995Y254628D01*
X77980Y254654D01*
X77965Y254674D01*
X77955Y254694D01*
X77950Y254710D01*
Y254715D01*
X77934Y254761D01*
X77924Y254801D01*
X77919Y254832D01*
X77914Y254857D01*
X77909Y254872D01*
Y254888D01*
Y254898D01*
X77914Y254954D01*
X77929Y255005D01*
X77950Y255051D01*
X77970Y255097D01*
X77995Y255132D01*
X78016Y255163D01*
X78031Y255183D01*
X78036Y255188D01*
X78066Y255219D01*
X78107Y255244D01*
X78153Y255280D01*
X78209Y255310D01*
X78275Y255341D01*
X78336Y255371D01*
X78474Y255427D01*
X78601Y255483D01*
X78662Y255504D01*
X78713Y255524D01*
X78754Y255539D01*
X78784Y255550D01*
X78810Y255560D01*
X78815D01*
Y255901D01*
X78723Y255977D01*
X78632Y256053D01*
X78540Y256119D01*
X78458Y256175D01*
X78392Y256226D01*
X78336Y256267D01*
X78316Y256277D01*
X78301Y256288D01*
X78296Y256298D01*
X78290D01*
X78189Y256364D01*
X78097Y256415D01*
X78016Y256461D01*
X77944Y256491D01*
X77888Y256517D01*
X77843Y256537D01*
X77817Y256542D01*
X77807Y256547D01*
X78194Y256970D01*
X78229Y256903D01*
X78270Y256837D01*
X78367Y256690D01*
X78469Y256547D01*
X78570Y256410D01*
X78621Y256349D01*
X78667Y256293D01*
X78708Y256242D01*
X78743Y256196D01*
X78774Y256160D01*
X78794Y256135D01*
X78810Y256115D01*
X78815Y256109D01*
Y257560D01*
X78647Y257723D01*
X79222Y258003D01*
X79217Y257855D01*
D02*
G37*
G36*
X69393Y258054D02*
Y257967D01*
X69388Y257779D01*
X69383Y257591D01*
X69378Y257407D01*
Y257321D01*
Y257244D01*
Y257173D01*
Y257112D01*
Y257061D01*
Y257020D01*
Y257000D01*
Y256990D01*
X71338D01*
X71109Y256695D01*
X71012Y256715D01*
X70915Y256735D01*
X70829Y256746D01*
X70747Y256751D01*
X70681Y256756D01*
X70630Y256761D01*
X69378D01*
Y255829D01*
X70895D01*
X70666Y255534D01*
X70569Y255555D01*
X70472Y255575D01*
X70386Y255585D01*
X70304Y255590D01*
X70238Y255595D01*
X70187Y255600D01*
X67347D01*
X67826Y256130D01*
X68146Y255829D01*
X68971D01*
Y256761D01*
X67011D01*
X67489Y257290D01*
X67810Y256990D01*
X68971D01*
Y257672D01*
X68782Y257855D01*
X69398Y258135D01*
X69393Y258054D01*
D02*
G37*
G36*
X92542Y258033D02*
X92553Y257947D01*
X92583Y257764D01*
X92619Y257575D01*
X92660Y257402D01*
X92680Y257321D01*
X92695Y257249D01*
X92716Y257178D01*
X92731Y257122D01*
X92741Y257077D01*
X92751Y257041D01*
X92761Y257020D01*
Y257010D01*
X92914D01*
X93301Y257209D01*
X93296Y256827D01*
X93291Y256644D01*
Y256461D01*
X93286Y256288D01*
Y256119D01*
Y255962D01*
X93281Y255819D01*
Y255682D01*
Y255565D01*
Y255458D01*
Y255366D01*
Y255295D01*
Y255244D01*
Y255224D01*
Y255208D01*
Y255203D01*
Y255198D01*
Y254832D01*
X93286Y254470D01*
Y254297D01*
Y254129D01*
X93291Y253972D01*
Y253824D01*
Y253686D01*
X93296Y253564D01*
Y253452D01*
Y253361D01*
X93301Y253284D01*
Y253254D01*
Y253228D01*
Y253208D01*
Y253193D01*
Y253188D01*
Y253183D01*
X92894Y253376D01*
Y253707D01*
X91911D01*
Y253269D01*
X91504Y253457D01*
Y253534D01*
X91509Y253620D01*
Y253712D01*
Y253814D01*
X91514Y253921D01*
Y254038D01*
Y254155D01*
Y254282D01*
X91519Y254542D01*
Y254811D01*
Y255081D01*
Y255351D01*
X91524Y255616D01*
Y255736D01*
X91448Y255687D01*
X91280Y255855D01*
X91128Y256033D01*
X90985Y256206D01*
X90924Y256288D01*
X90863Y256369D01*
X90812Y256440D01*
X90761Y256506D01*
X90720Y256568D01*
X90690Y256618D01*
X90659Y256664D01*
X90639Y256695D01*
X90629Y256715D01*
X90624Y256720D01*
X89494D01*
X89499Y256511D01*
Y256313D01*
X89504Y256125D01*
X89509Y255946D01*
X89514Y255779D01*
X89519Y255621D01*
Y255473D01*
X89524Y255336D01*
X89529Y255208D01*
X89534Y255091D01*
Y254979D01*
X89539Y254878D01*
X89544Y254781D01*
X89550Y254694D01*
Y254613D01*
X89555Y254542D01*
X89560Y254470D01*
Y254414D01*
X89565Y254358D01*
Y254313D01*
X89570Y254267D01*
Y254231D01*
X89575Y254170D01*
X89580Y254129D01*
X89585Y254104D01*
Y254089D01*
Y254084D01*
X89595Y254023D01*
X89611Y253972D01*
X89626Y253926D01*
X89646Y253890D01*
X89667Y253854D01*
X89687Y253829D01*
X89728Y253788D01*
X89774Y253768D01*
X89804Y253753D01*
X89829Y253748D01*
X89880D01*
X89931Y253753D01*
X89987Y253758D01*
X90048Y253763D01*
X90181Y253783D01*
X90308Y253804D01*
X90374Y253814D01*
X90430Y253824D01*
X90486Y253834D01*
X90532Y253844D01*
X90573Y253849D01*
X90603Y253854D01*
X90624Y253860D01*
X90629D01*
Y253656D01*
X90522Y253620D01*
X90425Y253585D01*
X90338Y253544D01*
X90262Y253503D01*
X90196Y253463D01*
X90140Y253417D01*
X90089Y253376D01*
X90048Y253335D01*
X90013Y253295D01*
X89982Y253259D01*
X89962Y253223D01*
X89942Y253193D01*
X89931Y253172D01*
X89921Y253152D01*
X89916Y253142D01*
Y253137D01*
X89789Y253183D01*
X89682Y253228D01*
X89595Y253269D01*
X89524Y253310D01*
X89473Y253340D01*
X89438Y253366D01*
X89412Y253386D01*
X89407Y253391D01*
X89356Y253447D01*
X89310Y253519D01*
X89270Y253595D01*
X89239Y253671D01*
X89214Y253743D01*
X89198Y253799D01*
X89193Y253824D01*
X89188Y253839D01*
X89183Y253849D01*
Y253854D01*
X89178Y253890D01*
X89168Y253941D01*
X89163Y254002D01*
X89158Y254068D01*
X89148Y254150D01*
X89142Y254236D01*
X89137Y254333D01*
X89132Y254430D01*
X89127Y254537D01*
X89122Y254648D01*
X89112Y254883D01*
X89102Y255127D01*
X89097Y255371D01*
X89086Y255616D01*
X89081Y255845D01*
Y255957D01*
X89076Y256059D01*
Y256160D01*
X89071Y256252D01*
Y256333D01*
Y256410D01*
Y256476D01*
X89066Y256532D01*
Y256578D01*
Y256613D01*
Y256634D01*
Y256639D01*
X88873Y256807D01*
X89244Y257189D01*
X89504Y256949D01*
X90557D01*
X90496Y257066D01*
X90435Y257173D01*
X90379Y257270D01*
X90328Y257356D01*
X90283Y257433D01*
X90237Y257499D01*
X90201Y257555D01*
X90166Y257606D01*
X90135Y257646D01*
X90109Y257677D01*
X90084Y257708D01*
X90064Y257728D01*
X90053Y257743D01*
X90043Y257753D01*
X90033Y257758D01*
X90593Y258089D01*
X90639Y257881D01*
X90695Y257682D01*
X90720Y257586D01*
X90746Y257499D01*
X90776Y257412D01*
X90802Y257331D01*
X90822Y257260D01*
X90847Y257193D01*
X90868Y257138D01*
X90883Y257092D01*
X90898Y257051D01*
X90909Y257026D01*
X90919Y257005D01*
Y257000D01*
X90960Y256903D01*
X91005Y256797D01*
X91107Y256588D01*
X91219Y256384D01*
X91270Y256282D01*
X91326Y256191D01*
X91377Y256104D01*
X91423Y256023D01*
X91463Y255952D01*
X91504Y255890D01*
X91524Y255857D01*
Y255738D01*
Y255736D01*
X91575Y255768D01*
X91570Y255779D01*
X91555Y255799D01*
X91535Y255840D01*
X91524Y255857D01*
Y255860D01*
Y255977D01*
Y256084D01*
Y256186D01*
Y256282D01*
Y256369D01*
Y256445D01*
Y256517D01*
Y256573D01*
Y256618D01*
Y256654D01*
Y256674D01*
Y256679D01*
X91316Y256847D01*
X91687Y257229D01*
X91922Y257010D01*
X92537D01*
X92476Y257127D01*
X92415Y257229D01*
X92359Y257321D01*
X92303Y257407D01*
X92252Y257479D01*
X92207Y257545D01*
X92166Y257601D01*
X92125Y257646D01*
X92089Y257687D01*
X92059Y257718D01*
X92028Y257748D01*
X92008Y257769D01*
X91993Y257784D01*
X91978Y257794D01*
X91967Y257799D01*
X92537Y258115D01*
X92542Y258033D01*
D02*
G37*
G36*
X125806Y256313D02*
X126676D01*
X126447Y256018D01*
X126355Y256038D01*
X126274Y256059D01*
X126203Y256069D01*
X126142Y256074D01*
X126091Y256079D01*
X126060Y256084D01*
X125811D01*
Y254195D01*
Y254139D01*
X125821Y254089D01*
X125836Y254038D01*
X125857Y253992D01*
X125877Y253956D01*
X125897Y253926D01*
X125913Y253905D01*
X125918Y253900D01*
X125531Y253559D01*
X125454Y253666D01*
X125383Y253773D01*
X125312Y253870D01*
X125246Y253961D01*
X125190Y254038D01*
X125164Y254068D01*
X125144Y254094D01*
X125129Y254114D01*
X125119Y254129D01*
X125108Y254139D01*
Y254145D01*
X125022Y254262D01*
X124925Y254384D01*
X124828Y254501D01*
X124737Y254613D01*
X124660Y254710D01*
X124625Y254750D01*
X124594Y254786D01*
X124574Y254811D01*
X124554Y254832D01*
X124543Y254847D01*
X124538Y254852D01*
X124655Y254974D01*
X125403Y254257D01*
Y256023D01*
X125195Y256196D01*
X125643Y256532D01*
X125806Y256313D01*
D02*
G37*
%LPC*%
G36*
X124141Y255666D02*
X122925D01*
X122970Y255534D01*
X123021Y255407D01*
X123072Y255285D01*
X123123Y255173D01*
X123174Y255066D01*
X123225Y254969D01*
X123276Y254878D01*
X123322Y254796D01*
X123363Y254720D01*
X123403Y254659D01*
X123439Y254603D01*
X123469Y254557D01*
X123495Y254516D01*
X123515Y254491D01*
X123525Y254475D01*
X123530Y254470D01*
X123591Y254542D01*
X123647Y254623D01*
X123704Y254710D01*
X123759Y254806D01*
X123866Y255005D01*
X123958Y255198D01*
X123999Y255295D01*
X124034Y255381D01*
X124065Y255458D01*
X124090Y255529D01*
X124111Y255585D01*
X124126Y255631D01*
X124136Y255656D01*
X124141Y255666D01*
D02*
G37*
G36*
X128829Y255560D02*
X128402D01*
X128264Y255550D01*
X128142Y255529D01*
X128040Y255493D01*
X127959Y255458D01*
X127893Y255417D01*
X127847Y255381D01*
X127821Y255361D01*
X127811Y255351D01*
X127776Y255310D01*
X127745Y255264D01*
X127694Y255163D01*
X127658Y255061D01*
X127638Y254954D01*
X127623Y254857D01*
X127618Y254817D01*
Y254781D01*
X127613Y254750D01*
Y254730D01*
Y254715D01*
Y254710D01*
X127623Y254577D01*
X127643Y254455D01*
X127674Y254358D01*
X127704Y254272D01*
X127740Y254211D01*
X127770Y254160D01*
X127791Y254134D01*
X127801Y254124D01*
X127877Y254058D01*
X127959Y254007D01*
X128045Y253972D01*
X128127Y253946D01*
X128203Y253931D01*
X128264Y253926D01*
X128290Y253921D01*
X128697D01*
X128743Y253926D01*
X128773Y253936D01*
X128794Y253941D01*
X128799Y253946D01*
X128814Y253972D01*
X128824Y254002D01*
X128829Y254028D01*
Y254033D01*
Y254038D01*
Y255560D01*
D02*
G37*
G36*
X128707Y257158D02*
X128442D01*
X128330Y257153D01*
X128228Y257138D01*
X128142Y257112D01*
X128071Y257087D01*
X128010Y257056D01*
X127969Y257036D01*
X127944Y257015D01*
X127933Y257010D01*
X127867Y256949D01*
X127816Y256873D01*
X127781Y256791D01*
X127760Y256710D01*
X127745Y256634D01*
X127740Y256573D01*
X127735Y256552D01*
Y256532D01*
Y256522D01*
Y256517D01*
X127745Y256384D01*
X127765Y256272D01*
X127796Y256175D01*
X127831Y256099D01*
X127872Y256043D01*
X127903Y256002D01*
X127923Y255977D01*
X127933Y255967D01*
X128005Y255911D01*
X128076Y255865D01*
X128147Y255835D01*
X128208Y255814D01*
X128259Y255804D01*
X128300Y255799D01*
X128325Y255794D01*
X128829D01*
Y257041D01*
X128824Y257082D01*
X128814Y257107D01*
X128804Y257122D01*
X128799Y257127D01*
X128768Y257148D01*
X128732Y257153D01*
X128707Y257158D01*
D02*
G37*
G36*
X134194D02*
X133812D01*
X133741Y257148D01*
X133675Y257143D01*
X133614Y257127D01*
X133563Y257112D01*
X133512Y257097D01*
X133466Y257082D01*
X133425Y257066D01*
X133364Y257031D01*
X133318Y257000D01*
X133293Y256980D01*
X133283Y256970D01*
X133222Y256893D01*
X133176Y256802D01*
X133140Y256705D01*
X133120Y256613D01*
X133105Y256527D01*
X133100Y256491D01*
Y256461D01*
X133095Y256430D01*
Y256410D01*
Y256399D01*
Y256394D01*
Y256313D01*
X133105Y256242D01*
X133115Y256175D01*
X133130Y256109D01*
X133145Y256053D01*
X133166Y256008D01*
X133186Y255962D01*
X133206Y255921D01*
X133232Y255885D01*
X133252Y255855D01*
X133288Y255814D01*
X133313Y255789D01*
X133318Y255779D01*
X133324D01*
X133410Y255722D01*
X133502Y255677D01*
X133588Y255646D01*
X133670Y255626D01*
X133741Y255616D01*
X133797Y255611D01*
X133817Y255606D01*
X134316D01*
Y257041D01*
X134311Y257082D01*
X134301Y257107D01*
X134291Y257122D01*
X134286Y257127D01*
X134255Y257148D01*
X134219Y257153D01*
X134194Y257158D01*
D02*
G37*
G36*
X75252Y255794D02*
X74081D01*
Y254883D01*
X75252D01*
Y255794D01*
D02*
G37*
G36*
X81650Y256568D02*
X81121D01*
X81146Y256384D01*
X81177Y256206D01*
X81207Y256028D01*
X81243Y255860D01*
X81278Y255702D01*
X81314Y255550D01*
X81350Y255407D01*
X81385Y255275D01*
X81421Y255152D01*
X81451Y255046D01*
X81482Y254949D01*
X81507Y254867D01*
X81528Y254806D01*
X81543Y254761D01*
X81553Y254730D01*
X81558Y254720D01*
X81660Y254761D01*
X81762Y254801D01*
X81853Y254837D01*
X81940Y254867D01*
X82016Y254893D01*
X82072Y254913D01*
X82093Y254918D01*
X82108Y254923D01*
X82118Y254928D01*
X82123D01*
X82062Y255142D01*
X82001Y255341D01*
X81950Y255519D01*
X81899Y255687D01*
X81859Y255835D01*
X81818Y255967D01*
X81782Y256089D01*
X81757Y256191D01*
X81731Y256282D01*
X81706Y256364D01*
X81691Y256425D01*
X81675Y256476D01*
X81665Y256517D01*
X81655Y256547D01*
X81650Y256562D01*
Y256568D01*
D02*
G37*
G36*
X108433Y256405D02*
X107008D01*
Y255875D01*
X108433D01*
Y256405D01*
D02*
G37*
G36*
Y257117D02*
X107008D01*
Y256634D01*
X108433D01*
Y257117D01*
D02*
G37*
G36*
X92894Y255305D02*
X91911D01*
Y253936D01*
X92894D01*
Y255305D01*
D02*
G37*
G36*
Y256781D02*
X91911D01*
Y255534D01*
X92894D01*
Y256781D01*
D02*
G37*
%LPD*%
D10*
X193500Y202000D02*
X211500D01*
X193500Y184000D02*
X211500Y184000D01*
D57*
X48267Y277100D02*
X48400D01*
X48167Y277000D02*
X50600D01*
X54767D02*
X57500D01*
X48067Y276900D02*
X57700D01*
X49567Y276800D02*
X57700D01*
X50967Y276700D02*
X57600D01*
X51967Y276600D02*
X57600D01*
X52867Y276500D02*
X57500D01*
X54067Y276400D02*
X57500D01*
X55267Y276300D02*
X57400D01*
X55867Y276200D02*
X57400D01*
X47667Y276100D02*
X48200D01*
X55867D02*
X57300D01*
X47667Y276000D02*
X57200D01*
X47767Y275900D02*
X57200D01*
X49667Y275800D02*
X57200D01*
X50967Y275700D02*
X57100D01*
X52067Y275600D02*
X57000D01*
X52967Y275500D02*
X57000D01*
X54067Y275400D02*
X56900D01*
X55267Y275300D02*
X56900D01*
X55467Y275200D02*
X56800D01*
X47167Y275100D02*
X49700D01*
X54767D02*
X54800D01*
X55167D02*
X56800D01*
X47167Y275000D02*
X56700D01*
X48267Y274900D02*
X56700D01*
X49867Y274800D02*
X56600D01*
X50967Y274700D02*
X56600D01*
X51867Y274600D02*
X56500D01*
X52967Y274500D02*
X56500D01*
X54067Y274400D02*
X56400D01*
X54867Y274300D02*
X56400D01*
X46767Y274200D02*
X46800D01*
X54867D02*
X56300D01*
X46667Y274100D02*
X56300D01*
X46667Y274000D02*
X56200D01*
X48667Y273900D02*
X56100D01*
X49967Y273800D02*
X56100D01*
X50967Y273700D02*
X56000D01*
X51867Y273600D02*
X56000D01*
X52867Y273500D02*
X55900D01*
X54267Y273400D02*
X55900D01*
X54367Y273300D02*
X55800D01*
X52467Y273200D02*
X55800D01*
X51167Y273100D02*
X55700D01*
X51067Y273000D02*
X55700D01*
X51067Y272900D02*
X55600D01*
X50967Y272800D02*
X55600D01*
X50967Y272700D02*
X55500D01*
X52067Y272600D02*
X55500D01*
X53267Y272500D02*
X55400D01*
X53967Y272400D02*
X55300D01*
X45667Y272300D02*
X46800D01*
X53867D02*
X55300D01*
X45567Y272200D02*
X55200D01*
X46367Y272100D02*
X55200D01*
X47967Y272000D02*
X55100D01*
X49167Y271900D02*
X55100D01*
X50467Y271800D02*
X55000D01*
X51267Y271700D02*
X55000D01*
X52667Y271600D02*
X54900D01*
X53367Y271500D02*
X54900D01*
X45167Y271400D02*
X46200D01*
X53467D02*
X54800D01*
X45167Y271300D02*
X54800D01*
X45767Y271200D02*
X54700D01*
X47367Y271100D02*
X54600D01*
X48467Y271000D02*
X54600D01*
X49767Y270900D02*
X54500D01*
X50867Y270800D02*
X54500D01*
X52067Y270700D02*
X54400D01*
X52867Y270600D02*
X54400D01*
X44767Y270500D02*
X44900D01*
X52967D02*
X54300D01*
X44667Y270400D02*
X54300D01*
X44667Y270300D02*
X54200D01*
X46767Y270200D02*
X54200D01*
X47967Y270100D02*
X54100D01*
X49167Y270000D02*
X54000D01*
X50067Y269900D02*
X54000D01*
X51167Y269800D02*
X53900D01*
X52367Y269700D02*
X53900D01*
X52467Y269600D02*
X53800D01*
X44167Y269500D02*
X47100D01*
X48367D02*
X53800D01*
X44167Y269400D02*
X53700D01*
X46167Y269300D02*
X53700D01*
X47367Y269200D02*
X53600D01*
X48367Y269100D02*
X53600D01*
X49467Y269000D02*
X53500D01*
X50667Y268900D02*
X53500D01*
X51767Y268800D02*
X53400D01*
X51867Y268700D02*
X53300D01*
X48767Y268600D02*
X53300D01*
X48667Y268500D02*
X53200D01*
X48567Y268400D02*
X53200D01*
X48567Y268300D02*
X53100D01*
X48467Y268200D02*
X53100D01*
X48567Y268100D02*
X53000D01*
X49667Y268000D02*
X53000D01*
X50867Y267900D02*
X52900D01*
X51367Y267800D02*
X52900D01*
X51367Y267700D02*
X52800D01*
X48167Y267600D02*
X52700D01*
X48167Y267500D02*
X52700D01*
X48067Y267400D02*
X52700D01*
X48067Y267300D02*
X52800D01*
X48267Y267200D02*
X53200D01*
X49367Y267100D02*
X53500D01*
X50467Y267000D02*
X53800D01*
X50867Y266900D02*
X54000D01*
X50867Y266800D02*
X54200D01*
X47667Y266700D02*
X54300D01*
X47567Y266600D02*
X54500D01*
X47567Y266500D02*
X54700D01*
X47467Y266400D02*
X54800D01*
X47467Y266300D02*
X55000D01*
X48467Y266200D02*
X55100D01*
X49367Y266100D02*
X55200D01*
X50367Y266000D02*
X55300D01*
X50467Y265900D02*
X55500D01*
X48767Y265800D02*
X55600D01*
X47067Y265700D02*
X55700D01*
X46967Y265600D02*
X55800D01*
X46867Y265500D02*
X55900D01*
X46867Y265400D02*
X56000D01*
X47267Y265300D02*
X56000D01*
X48367Y265200D02*
X56100D01*
X49467Y265100D02*
X56200D01*
X49967Y265000D02*
X56300D01*
X49867Y264900D02*
X56300D01*
X46567Y264800D02*
X56400D01*
X46467Y264700D02*
X56500D01*
X46467Y264600D02*
X56600D01*
X46467Y264500D02*
X56600D01*
X46667Y264400D02*
X56700D01*
X47667Y264300D02*
X56700D01*
X48567Y264200D02*
X56800D01*
X49567Y264100D02*
X56800D01*
X49567Y264000D02*
X56900D01*
X46367Y263900D02*
X56900D01*
X46267Y263800D02*
X57000D01*
X46167Y263700D02*
X57000D01*
X46167Y263600D02*
X57100D01*
X46167Y263500D02*
X57100D01*
X46967Y263400D02*
X57100D01*
X48167Y263300D02*
X57200D01*
X49267Y263200D02*
X57200D01*
X49467Y263100D02*
X57200D01*
X49367Y263000D02*
X57300D01*
X46167Y262900D02*
X57300D01*
X46167Y262800D02*
X57300D01*
X46167Y262700D02*
X57300D01*
X46167Y262600D02*
X57300D01*
X46667Y262500D02*
X57400D01*
X47567Y262400D02*
X57400D01*
X48467Y262300D02*
X57400D01*
X49567Y262200D02*
X57400D01*
X49567Y262100D02*
X57400D01*
X47367Y262000D02*
X47500D01*
X47767D02*
X57400D01*
X46267Y261900D02*
X57400D01*
X46267Y261800D02*
X57400D01*
X46267Y261700D02*
X57500D01*
X46467Y261600D02*
X57500D01*
X47467Y261500D02*
X57500D01*
X48567Y261400D02*
X57500D01*
X49767Y261300D02*
X57500D01*
X49867Y261200D02*
X57400D01*
X49367Y261100D02*
X57400D01*
X46467Y261000D02*
X57400D01*
X46567Y260900D02*
X57400D01*
X46567Y260800D02*
X57400D01*
X46567Y260700D02*
X57400D01*
X47367Y260600D02*
X57400D01*
X48367Y260500D02*
X57400D01*
X49567Y260400D02*
X57300D01*
X50467Y260300D02*
X57300D01*
X50467Y260200D02*
X57300D01*
X46967Y260100D02*
X57300D01*
X46967Y260000D02*
X57200D01*
X47067Y259900D02*
X57200D01*
X47067Y259800D02*
X57200D01*
X47767Y259700D02*
X57100D01*
X49067Y259600D02*
X57100D01*
X50167Y259500D02*
X57000D01*
X51167Y259400D02*
X57000D01*
X51167Y259300D02*
X57000D01*
X47567Y259200D02*
X56900D01*
X47667Y259100D02*
X56800D01*
X47767Y259000D02*
X56800D01*
X47867Y258900D02*
X56700D01*
X48467Y258800D02*
X56700D01*
X49567Y258700D02*
X56600D01*
X50867Y258600D02*
X56500D01*
X52067Y258500D02*
X56400D01*
X52167Y258400D02*
X56300D01*
X48567Y258300D02*
X56200D01*
X48667Y258200D02*
X56100D01*
X48767Y258100D02*
X56000D01*
X48967Y258000D02*
X55900D01*
X49667Y257900D02*
X55800D01*
X50567Y257800D02*
X55700D01*
X51667Y257700D02*
X55500D01*
X52967Y257600D02*
X55400D01*
X53667Y257500D02*
X55200D01*
X50167Y257400D02*
X50300D01*
X50467D02*
X52400D01*
X53567D02*
X55000D01*
X50267Y257300D02*
X54800D01*
X50467Y257200D02*
X54600D01*
X50767Y257100D02*
X54300D01*
X51167Y257000D02*
X54000D01*
X51567Y256900D02*
X53500D01*
X45667Y255500D02*
X46300D01*
X47367D02*
X47600D01*
X52967D02*
X53700D01*
X57467D02*
X57600D01*
X45567Y255400D02*
X46600D01*
X47267D02*
X47700D01*
X50067D02*
X52000D01*
X52867D02*
X54000D01*
X57367D02*
X57700D01*
X45567Y255300D02*
X46700D01*
X47167D02*
X47800D01*
X49967D02*
X52000D01*
X52867D02*
X54100D01*
X57267D02*
X57700D01*
X45567Y255200D02*
X46700D01*
X47167D02*
X47900D01*
X50067D02*
X52000D01*
X52867D02*
X54000D01*
X57267D02*
X57800D01*
X45567Y255100D02*
X46400D01*
X47067D02*
X47900D01*
X50467D02*
X51600D01*
X52867D02*
X53700D01*
X57167D02*
X57800D01*
X45567Y255000D02*
X46300D01*
X47067D02*
X47900D01*
X50667D02*
X51500D01*
X52867D02*
X53600D01*
X57167D02*
X57800D01*
X45567Y254900D02*
X46300D01*
X47067D02*
X47900D01*
X50667D02*
X51400D01*
X52867D02*
X53600D01*
X57167D02*
X57900D01*
X45567Y254800D02*
X46300D01*
X47167D02*
X47900D01*
X50667D02*
X51400D01*
X52867D02*
X53600D01*
X57067D02*
X57900D01*
X45567Y254700D02*
X46300D01*
X47167D02*
X47800D01*
X50667D02*
X51400D01*
X52867D02*
X53600D01*
X57067D02*
X58000D01*
X45567Y254600D02*
X46300D01*
X47367D02*
X47700D01*
X50667D02*
X51400D01*
X52867D02*
X53600D01*
X57067D02*
X58000D01*
X45567Y254500D02*
X46300D01*
X50667D02*
X51400D01*
X52867D02*
X53600D01*
X56967D02*
X58000D01*
X45567Y254400D02*
X46300D01*
X50667D02*
X51400D01*
X52867D02*
X53600D01*
X56967D02*
X58100D01*
X45567Y254300D02*
X46300D01*
X50667D02*
X51400D01*
X52867D02*
X53600D01*
X56867D02*
X58100D01*
X45567Y254200D02*
X46300D01*
X50667D02*
X51400D01*
X52867D02*
X53600D01*
X56867D02*
X57700D01*
X57867D02*
X58200D01*
X44667Y254100D02*
X44800D01*
X45567D02*
X46300D01*
X50667D02*
X51400D01*
X52867D02*
X53600D01*
X54367D02*
X54400D01*
X56867D02*
X57700D01*
X57967D02*
X58200D01*
X44367Y254000D02*
X45200D01*
X45567D02*
X46300D01*
X47167D02*
X48200D01*
X50667D02*
X51400D01*
X52867D02*
X53600D01*
X53867D02*
X54700D01*
X56767D02*
X57600D01*
X57967D02*
X58200D01*
X44167Y253900D02*
X45300D01*
X45567D02*
X46300D01*
X47167D02*
X48300D01*
X50667D02*
X51400D01*
X52867D02*
X53500D01*
X53767D02*
X54900D01*
X56767D02*
X57600D01*
X57967D02*
X58300D01*
X44067Y253800D02*
X45400D01*
X45567D02*
X46300D01*
X47167D02*
X48300D01*
X50667D02*
X51400D01*
X52867D02*
X55000D01*
X56667D02*
X57600D01*
X58067D02*
X58300D01*
X43967Y253700D02*
X44900D01*
X45067D02*
X46300D01*
X47167D02*
X47900D01*
X50667D02*
X51400D01*
X52867D02*
X53900D01*
X54367D02*
X55100D01*
X56667D02*
X57500D01*
X58067D02*
X58400D01*
X43867Y253600D02*
X44600D01*
X45267D02*
X46300D01*
X47167D02*
X47800D01*
X50667D02*
X51400D01*
X52867D02*
X53800D01*
X54467D02*
X55200D01*
X56667D02*
X57500D01*
X58167D02*
X58400D01*
X43867Y253500D02*
X44600D01*
X45367D02*
X46300D01*
X47167D02*
X47800D01*
X50667D02*
X51400D01*
X52867D02*
X53700D01*
X54567D02*
X55200D01*
X56567D02*
X57400D01*
X58167D02*
X58400D01*
X43767Y253400D02*
X44500D01*
X45467D02*
X46300D01*
X47167D02*
X47800D01*
X50667D02*
X51400D01*
X52867D02*
X53600D01*
X54567D02*
X55300D01*
X56567D02*
X57400D01*
X58167D02*
X58500D01*
X43767Y253300D02*
X44500D01*
X45467D02*
X46300D01*
X47167D02*
X47800D01*
X50667D02*
X51400D01*
X52867D02*
X53600D01*
X54667D02*
X55400D01*
X56467D02*
X57400D01*
X58267D02*
X58500D01*
X43667Y253200D02*
X44400D01*
X45567D02*
X46300D01*
X47167D02*
X47800D01*
X50667D02*
X51400D01*
X52867D02*
X53600D01*
X54667D02*
X55400D01*
X56467D02*
X57300D01*
X58267D02*
X58600D01*
X43667Y253100D02*
X44400D01*
X45567D02*
X46300D01*
X47167D02*
X47800D01*
X50667D02*
X51400D01*
X52867D02*
X53600D01*
X54667D02*
X55400D01*
X56467D02*
X57300D01*
X58367D02*
X58600D01*
X43667Y253000D02*
X44400D01*
X45567D02*
X46300D01*
X47167D02*
X47800D01*
X50667D02*
X51400D01*
X52867D02*
X53600D01*
X54667D02*
X55400D01*
X56367D02*
X57200D01*
X58367D02*
X58600D01*
X43567Y252900D02*
X44400D01*
X45567D02*
X46300D01*
X47167D02*
X47800D01*
X50667D02*
X51400D01*
X52867D02*
X53500D01*
X54667D02*
X55500D01*
X56367D02*
X57200D01*
X58367D02*
X58700D01*
X43567Y252800D02*
X44400D01*
X45567D02*
X46300D01*
X47167D02*
X47800D01*
X48567D02*
X48700D01*
X50667D02*
X51400D01*
X52867D02*
X53500D01*
X54667D02*
X55500D01*
X56367D02*
X58700D01*
X43567Y252700D02*
X44400D01*
X45567D02*
X46300D01*
X47167D02*
X47800D01*
X48467D02*
X48800D01*
X50667D02*
X51400D01*
X52867D02*
X53500D01*
X54667D02*
X55500D01*
X56267D02*
X58700D01*
X43567Y252600D02*
X44400D01*
X45567D02*
X46300D01*
X47167D02*
X47800D01*
X48567D02*
X48800D01*
X50667D02*
X51400D01*
X52867D02*
X53500D01*
X54667D02*
X55500D01*
X56267D02*
X58800D01*
X43567Y252500D02*
X44400D01*
X45567D02*
X46300D01*
X47167D02*
X47800D01*
X48567D02*
X48800D01*
X50667D02*
X51400D01*
X52867D02*
X53500D01*
X54667D02*
X55500D01*
X56167D02*
X57100D01*
X58567D02*
X58800D01*
X43567Y252400D02*
X44400D01*
X45567D02*
X46300D01*
X47167D02*
X47800D01*
X48567D02*
X48900D01*
X50667D02*
X51400D01*
X52867D02*
X53600D01*
X54667D02*
X55500D01*
X56167D02*
X57000D01*
X58567D02*
X58900D01*
X43667Y252300D02*
X44400D01*
X45567D02*
X46300D01*
X47167D02*
X47800D01*
X48567D02*
X48900D01*
X50667D02*
X51400D01*
X52867D02*
X53600D01*
X54667D02*
X55500D01*
X56167D02*
X57000D01*
X58667D02*
X58900D01*
X43667Y252200D02*
X44400D01*
X45567D02*
X46300D01*
X47167D02*
X47800D01*
X48567D02*
X49000D01*
X50667D02*
X51400D01*
X52867D02*
X53600D01*
X54667D02*
X55400D01*
X56067D02*
X57000D01*
X58667D02*
X59000D01*
X43767Y252100D02*
X44400D01*
X45567D02*
X46300D01*
X47167D02*
X47800D01*
X48567D02*
X49000D01*
X50667D02*
X51400D01*
X52867D02*
X53600D01*
X54667D02*
X55400D01*
X56067D02*
X56900D01*
X58667D02*
X59000D01*
X43767Y252000D02*
X44400D01*
X45567D02*
X46300D01*
X47167D02*
X47800D01*
X48567D02*
X49100D01*
X50667D02*
X51400D01*
X52867D02*
X53600D01*
X54667D02*
X55400D01*
X55967D02*
X56900D01*
X58667D02*
X59000D01*
X43867Y251900D02*
X44500D01*
X45467D02*
X46300D01*
X47167D02*
X47800D01*
X48567D02*
X49200D01*
X50667D02*
X51400D01*
X52867D02*
X53700D01*
X54567D02*
X55300D01*
X55967D02*
X56900D01*
X58767D02*
X59100D01*
X43867Y251800D02*
X44500D01*
X45467D02*
X46300D01*
X47167D02*
X47800D01*
X48567D02*
X49300D01*
X50667D02*
X51400D01*
X52867D02*
X53700D01*
X54567D02*
X55300D01*
X55867D02*
X56800D01*
X58667D02*
X59200D01*
X43967Y251700D02*
X44600D01*
X45367D02*
X46300D01*
X47067D02*
X47800D01*
X48567D02*
X49500D01*
X50567D02*
X51500D01*
X52867D02*
X53800D01*
X54467D02*
X55200D01*
X55867D02*
X56800D01*
X58667D02*
X59300D01*
X44067Y251600D02*
X44700D01*
X45267D02*
X45700D01*
X45867D02*
X46300D01*
X46967D02*
X48000D01*
X48567D02*
X49900D01*
X50367D02*
X51900D01*
X52767D02*
X53500D01*
X53667D02*
X54100D01*
X54267D02*
X55200D01*
X55567D02*
X57000D01*
X58467D02*
X59500D01*
X44167Y251500D02*
X45600D01*
X45967D02*
X46300D01*
X46667D02*
X48300D01*
X48567D02*
X52000D01*
X52467D02*
X53500D01*
X53767D02*
X55100D01*
X55467D02*
X57200D01*
X58167D02*
X59600D01*
X44267Y251400D02*
X45500D01*
X46067D02*
X46300D01*
X46667D02*
X48300D01*
X48567D02*
X52000D01*
X52467D02*
X53500D01*
X53867D02*
X55000D01*
X55467D02*
X57200D01*
X58167D02*
X59700D01*
X44467Y251300D02*
X45300D01*
X46067D02*
X46300D01*
X46767D02*
X47600D01*
X47767D02*
X47900D01*
X48167D02*
X48200D01*
X48667D02*
X52000D01*
X52467D02*
X53500D01*
X54067D02*
X54800D01*
X55467D02*
X57200D01*
X58167D02*
X59600D01*
X44867Y251200D02*
X44900D01*
X46167D02*
X46300D01*
X54267D02*
X54500D01*
D58*
X170715Y269999D02*
X171143Y269785D01*
X171572Y269356D01*
X171786Y268928D01*
X172000Y268285D01*
Y267214D01*
X171786Y266571D01*
X171572Y266143D01*
X171143Y265714D01*
X170715Y265500D01*
X169858D01*
X169429Y265714D01*
X169001Y266143D01*
X168786Y266571D01*
X168572Y267214D01*
Y268285D01*
X168786Y268928D01*
X169001Y269356D01*
X169429Y269785D01*
X169858Y269999D01*
X170715D01*
X167522Y267642D02*
X165594D01*
X164952Y267857D01*
X164737Y268071D01*
X164523Y268499D01*
Y269142D01*
X164737Y269571D01*
X164952Y269785D01*
X165594Y269999D01*
X167522D01*
Y265500D01*
X163516Y269999D02*
Y265500D01*
X160945D01*
X160238Y268928D02*
Y269142D01*
X160024Y269571D01*
X159810Y269785D01*
X159381Y269999D01*
X158524D01*
X158096Y269785D01*
X157882Y269571D01*
X157667Y269142D01*
Y268714D01*
X157882Y268285D01*
X158310Y267642D01*
X160452Y265500D01*
X157453D01*
X156446Y269999D02*
Y265500D01*
X153875D01*
X153383Y267642D02*
X151454D01*
X150812Y267857D01*
X150598Y268071D01*
X150383Y268499D01*
Y269142D01*
X150598Y269571D01*
X150812Y269785D01*
X151454Y269999D01*
X153383D01*
Y265500D01*
X147877Y269999D02*
Y265500D01*
X149376Y269999D02*
X146377D01*
X142306D02*
Y265500D01*
Y269999D02*
X140378D01*
X139735Y269785D01*
X139521Y269571D01*
X139307Y269142D01*
Y268714D01*
X139521Y268285D01*
X139735Y268071D01*
X140378Y267857D01*
X142306D01*
X140807D02*
X139307Y265500D01*
X138300Y267214D02*
X135729D01*
Y267642D01*
X135943Y268071D01*
X136158Y268285D01*
X136586Y268499D01*
X137229D01*
X137657Y268285D01*
X138086Y267857D01*
X138300Y267214D01*
Y266785D01*
X138086Y266143D01*
X137657Y265714D01*
X137229Y265500D01*
X136586D01*
X136158Y265714D01*
X135729Y266143D01*
X134765Y268499D02*
Y264000D01*
Y267857D02*
X134337Y268285D01*
X133908Y268499D01*
X133265D01*
X132837Y268285D01*
X132408Y267857D01*
X132194Y267214D01*
Y266785D01*
X132408Y266143D01*
X132837Y265714D01*
X133265Y265500D01*
X133908D01*
X134337Y265714D01*
X134765Y266143D01*
X131230Y269999D02*
Y265500D01*
X129859Y269999D02*
X129645Y269785D01*
X129430Y269999D01*
X129645Y270213D01*
X129859Y269999D01*
X129645Y268499D02*
Y265500D01*
X126067Y267857D02*
X126496Y268285D01*
X126924Y268499D01*
X127567D01*
X127995Y268285D01*
X128424Y267857D01*
X128638Y267214D01*
Y266785D01*
X128424Y266143D01*
X127995Y265714D01*
X127567Y265500D01*
X126924D01*
X126496Y265714D01*
X126067Y266143D01*
X122532Y268499D02*
Y265500D01*
Y267857D02*
X122960Y268285D01*
X123389Y268499D01*
X124032D01*
X124460Y268285D01*
X124889Y267857D01*
X125103Y267214D01*
Y266785D01*
X124889Y266143D01*
X124460Y265714D01*
X124032Y265500D01*
X123389D01*
X122960Y265714D01*
X122532Y266143D01*
X117797Y269999D02*
Y265500D01*
Y269999D02*
X115869D01*
X115226Y269785D01*
X115012Y269571D01*
X114798Y269142D01*
Y268714D01*
X115012Y268285D01*
X115226Y268071D01*
X115869Y267857D01*
X117797D01*
X116298D02*
X114798Y265500D01*
X113791Y267214D02*
X111220D01*
Y267642D01*
X111434Y268071D01*
X111649Y268285D01*
X112077Y268499D01*
X112720D01*
X113148Y268285D01*
X113577Y267857D01*
X113791Y267214D01*
Y266785D01*
X113577Y266143D01*
X113148Y265714D01*
X112720Y265500D01*
X112077D01*
X111649Y265714D01*
X111220Y266143D01*
X110256Y268499D02*
X108971Y265500D01*
X107685Y268499D02*
X108971Y265500D01*
X103422Y269142D02*
X102993Y269356D01*
X102351Y269999D01*
Y265500D01*
X99908Y265929D02*
X100122Y265714D01*
X99908Y265500D01*
X99694Y265714D01*
X99908Y265929D01*
X97423Y269999D02*
X98066Y269785D01*
X98494Y269142D01*
X98709Y268071D01*
Y267428D01*
X98494Y266357D01*
X98066Y265714D01*
X97423Y265500D01*
X96995D01*
X96352Y265714D01*
X95923Y266357D01*
X95709Y267428D01*
Y268071D01*
X95923Y269142D01*
X96352Y269785D01*
X96995Y269999D01*
X97423D01*
M02*
