G04 Layer_Physical_Order=2*
G04 Layer_Color=16711680*
%FSLAX25Y25*%
%MOIN*%
G70*
G01*
G75*
%ADD10C,0.01000*%
%ADD11C,0.07480*%
%ADD12R,0.07480X0.07480*%
%ADD13R,0.12992X0.12992*%
%ADD14C,0.04331*%
%ADD15C,0.06000*%
%ADD16C,0.06693*%
%ADD17R,0.06693X0.06693*%
%ADD18C,0.05906*%
%ADD19R,0.05906X0.05906*%
%ADD20C,0.07874*%
%ADD21C,0.06299*%
%ADD22R,0.06693X0.06693*%
%ADD23C,0.05118*%
%ADD24R,0.05906X0.09449*%
%ADD25C,0.02165*%
%ADD26R,0.07087X0.07087*%
%ADD27R,0.08661X0.07087*%
%ADD28C,0.04724*%
%ADD29C,0.05000*%
G36*
X218771Y275281D02*
X220363Y274622D01*
X221833Y273721D01*
X223035Y272694D01*
X224062Y271492D01*
X224963Y270022D01*
X225622Y268430D01*
X225901Y267268D01*
X225917Y16500D01*
X225919Y16493D01*
X225717Y15655D01*
X225058Y14063D01*
X224158Y12594D01*
X223038Y11283D01*
X221728Y10164D01*
X220258Y9264D01*
X218666Y8604D01*
X217505Y8326D01*
X138431D01*
X138210Y8774D01*
X138290Y8878D01*
X138608Y9647D01*
X138717Y10472D01*
X138608Y11298D01*
X138290Y12067D01*
X137783Y12728D01*
X137122Y13235D01*
X136353Y13553D01*
X135528Y13662D01*
X134702Y13553D01*
X133933Y13235D01*
X133272Y12728D01*
X132765Y12067D01*
X132447Y11298D01*
X132338Y10472D01*
X132447Y9647D01*
X132765Y8878D01*
X132845Y8774D01*
X132624Y8326D01*
X99061D01*
X98840Y8774D01*
X98920Y8878D01*
X99238Y9647D01*
X99347Y10472D01*
X99238Y11298D01*
X98920Y12067D01*
X98413Y12728D01*
X97752Y13235D01*
X96983Y13553D01*
X96157Y13662D01*
X95332Y13553D01*
X94563Y13235D01*
X93902Y12728D01*
X93395Y12067D01*
X93077Y11298D01*
X92968Y10472D01*
X93077Y9647D01*
X93395Y8878D01*
X93475Y8774D01*
X93254Y8326D01*
X9961D01*
X9155Y8519D01*
X7563Y9178D01*
X6094Y10079D01*
X4891Y11106D01*
X3864Y12308D01*
X2964Y13778D01*
X2304Y15370D01*
X2025Y16532D01*
Y267313D01*
X2225Y268145D01*
X2885Y269737D01*
X3785Y271206D01*
X4904Y272516D01*
X6215Y273636D01*
X7684Y274536D01*
X9276Y275196D01*
X10438Y275475D01*
X217966D01*
X218771Y275281D01*
D02*
G37*
%LPC*%
G36*
X38000Y120500D02*
X34182D01*
X34265Y119865D01*
X34703Y118808D01*
X35400Y117900D01*
X36308Y117203D01*
X37365Y116765D01*
X38000Y116682D01*
Y120500D01*
D02*
G37*
G36*
X42818D02*
X39000D01*
Y116682D01*
X39635Y116765D01*
X40692Y117203D01*
X41600Y117900D01*
X42297Y118808D01*
X42735Y119865D01*
X42818Y120500D01*
D02*
G37*
G36*
X48500Y125182D02*
X47418Y125040D01*
X46409Y124622D01*
X45543Y123957D01*
X44878Y123091D01*
X44460Y122082D01*
X44318Y121000D01*
X44460Y119918D01*
X44878Y118909D01*
X45543Y118043D01*
X46409Y117378D01*
X47418Y116960D01*
X48500Y116818D01*
X49582Y116960D01*
X50591Y117378D01*
X51457Y118043D01*
X52122Y118909D01*
X52540Y119918D01*
X52682Y121000D01*
X52540Y122082D01*
X52122Y123091D01*
X51457Y123957D01*
X50591Y124622D01*
X49582Y125040D01*
X48500Y125182D01*
D02*
G37*
G36*
X190000Y114182D02*
X188918Y114040D01*
X187909Y113622D01*
X187043Y112957D01*
X186378Y112091D01*
X185960Y111082D01*
X185818Y110000D01*
X185960Y108918D01*
X186378Y107909D01*
X187043Y107043D01*
X187909Y106378D01*
X188918Y105960D01*
X190000Y105818D01*
X191082Y105960D01*
X192091Y106378D01*
X192957Y107043D01*
X193622Y107909D01*
X194040Y108918D01*
X194182Y110000D01*
X194040Y111082D01*
X193622Y112091D01*
X192957Y112957D01*
X192091Y113622D01*
X191082Y114040D01*
X190000Y114182D01*
D02*
G37*
G36*
X179500Y114318D02*
X178865Y114235D01*
X177808Y113797D01*
X176900Y113100D01*
X176203Y112192D01*
X175765Y111135D01*
X175682Y110500D01*
X179500D01*
Y114318D01*
D02*
G37*
G36*
X180500D02*
Y110500D01*
X184318D01*
X184235Y111135D01*
X183797Y112192D01*
X183100Y113100D01*
X182192Y113797D01*
X181135Y114235D01*
X180500Y114318D01*
D02*
G37*
G36*
X160620Y121717D02*
X157000D01*
Y118097D01*
X157583Y118174D01*
X158593Y118592D01*
X159459Y119257D01*
X160125Y120124D01*
X160543Y121133D01*
X160620Y121717D01*
D02*
G37*
G36*
X156000D02*
X152380D01*
X152457Y121133D01*
X152875Y120124D01*
X153541Y119257D01*
X154407Y118592D01*
X155417Y118174D01*
X156000Y118097D01*
Y121717D01*
D02*
G37*
G36*
X60000Y146182D02*
X58918Y146040D01*
X57909Y145622D01*
X57043Y144957D01*
X56378Y144091D01*
X55960Y143082D01*
X55818Y142000D01*
X55960Y140918D01*
X56378Y139909D01*
X57043Y139043D01*
X57909Y138378D01*
X58918Y137960D01*
X60000Y137818D01*
X60149Y137837D01*
X60504Y137835D01*
X61341Y137783D01*
X61680Y137738D01*
X61984Y137679D01*
X62244Y137610D01*
X62457Y137534D01*
X62624Y137455D01*
X62745Y137379D01*
X62758Y137367D01*
X69063Y131063D01*
X69493Y130775D01*
X70000Y130675D01*
X124168D01*
X129596Y125246D01*
X129600Y125241D01*
X129672Y125129D01*
X129746Y124975D01*
X129818Y124779D01*
X129883Y124541D01*
X129939Y124262D01*
X129982Y123952D01*
X130032Y123180D01*
X130034Y122852D01*
X130016Y122716D01*
X130152Y121686D01*
X130550Y120725D01*
X131183Y119900D01*
X132008Y119267D01*
X132969Y118869D01*
X134000Y118733D01*
X135031Y118869D01*
X135992Y119267D01*
X136817Y119900D01*
X137450Y120725D01*
X137848Y121686D01*
X137984Y122716D01*
X137848Y123748D01*
X137450Y124708D01*
X136817Y125533D01*
X135992Y126166D01*
X135031Y126565D01*
X134000Y126700D01*
X133864Y126682D01*
X133537Y126685D01*
X132765Y126734D01*
X132455Y126778D01*
X132175Y126833D01*
X131937Y126898D01*
X131741Y126970D01*
X131588Y127044D01*
X131475Y127117D01*
X131470Y127121D01*
X125654Y132937D01*
X125224Y133225D01*
X124716Y133326D01*
X70549D01*
X64633Y139242D01*
X64621Y139255D01*
X64545Y139376D01*
X64466Y139543D01*
X64389Y139756D01*
X64321Y140016D01*
X64262Y140320D01*
X64217Y140659D01*
X64165Y141496D01*
X64163Y141851D01*
X64182Y142000D01*
X64040Y143082D01*
X63622Y144091D01*
X62957Y144957D01*
X62091Y145622D01*
X61082Y146040D01*
X60000Y146182D01*
D02*
G37*
G36*
X58500Y125182D02*
X57418Y125040D01*
X56409Y124622D01*
X55543Y123957D01*
X54878Y123091D01*
X54460Y122082D01*
X54318Y121000D01*
X54460Y119918D01*
X54878Y118909D01*
X55543Y118043D01*
X56409Y117378D01*
X57418Y116960D01*
X58500Y116818D01*
X59582Y116960D01*
X60591Y117378D01*
X61457Y118043D01*
X62122Y118909D01*
X62540Y119918D01*
X62682Y121000D01*
X62540Y122082D01*
X62122Y123091D01*
X61457Y123957D01*
X60591Y124622D01*
X59582Y125040D01*
X58500Y125182D01*
D02*
G37*
G36*
X68500D02*
X67418Y125040D01*
X66409Y124622D01*
X65543Y123957D01*
X64878Y123091D01*
X64460Y122082D01*
X64318Y121000D01*
X64460Y119918D01*
X64878Y118909D01*
X65543Y118043D01*
X66409Y117378D01*
X67418Y116960D01*
X68500Y116818D01*
X69582Y116960D01*
X70591Y117378D01*
X71457Y118043D01*
X72122Y118909D01*
X72540Y119918D01*
X72682Y121000D01*
X72540Y122082D01*
X72122Y123091D01*
X71457Y123957D01*
X70591Y124622D01*
X69582Y125040D01*
X68500Y125182D01*
D02*
G37*
G36*
X78500D02*
X77418Y125040D01*
X76409Y124622D01*
X75543Y123957D01*
X74878Y123091D01*
X74460Y122082D01*
X74318Y121000D01*
X74460Y119918D01*
X74878Y118909D01*
X75543Y118043D01*
X76409Y117378D01*
X77418Y116960D01*
X78500Y116818D01*
X79582Y116960D01*
X80591Y117378D01*
X81457Y118043D01*
X82122Y118909D01*
X82540Y119918D01*
X82682Y121000D01*
X82540Y122082D01*
X82122Y123091D01*
X81457Y123957D01*
X80591Y124622D01*
X79582Y125040D01*
X78500Y125182D01*
D02*
G37*
G36*
X21000Y92767D02*
X19969Y92631D01*
X19008Y92233D01*
X18183Y91600D01*
X17550Y90775D01*
X17152Y89815D01*
X17016Y88784D01*
X17152Y87752D01*
X17550Y86792D01*
X18183Y85967D01*
X19008Y85334D01*
X19969Y84935D01*
X21000Y84800D01*
X22031Y84935D01*
X22992Y85334D01*
X23817Y85967D01*
X24450Y86792D01*
X24848Y87752D01*
X24984Y88784D01*
X24848Y89815D01*
X24450Y90775D01*
X23817Y91600D01*
X22992Y92233D01*
X22031Y92631D01*
X21000Y92767D01*
D02*
G37*
G36*
X38500Y95182D02*
X37418Y95040D01*
X36409Y94622D01*
X35543Y93957D01*
X34878Y93091D01*
X34460Y92082D01*
X34318Y91000D01*
X34460Y89918D01*
X34878Y88909D01*
X35543Y88043D01*
X36409Y87378D01*
X37418Y86960D01*
X38500Y86818D01*
X39582Y86960D01*
X40591Y87378D01*
X41457Y88043D01*
X42122Y88909D01*
X42540Y89918D01*
X42682Y91000D01*
X42540Y92082D01*
X42122Y93091D01*
X41457Y93957D01*
X40591Y94622D01*
X39582Y95040D01*
X38500Y95182D01*
D02*
G37*
G36*
X48500D02*
X47418Y95040D01*
X46409Y94622D01*
X45543Y93957D01*
X44878Y93091D01*
X44460Y92082D01*
X44318Y91000D01*
X44460Y89918D01*
X44878Y88909D01*
X45543Y88043D01*
X46409Y87378D01*
X47418Y86960D01*
X48500Y86818D01*
X49582Y86960D01*
X50591Y87378D01*
X51457Y88043D01*
X52122Y88909D01*
X52540Y89918D01*
X52682Y91000D01*
X52540Y92082D01*
X52122Y93091D01*
X51457Y93957D01*
X50591Y94622D01*
X49582Y95040D01*
X48500Y95182D01*
D02*
G37*
G36*
X190000Y84182D02*
X188918Y84040D01*
X187909Y83622D01*
X187043Y82957D01*
X186378Y82091D01*
X185960Y81082D01*
X185818Y80000D01*
X185960Y78918D01*
X186378Y77909D01*
X187043Y77043D01*
X187909Y76378D01*
X188918Y75960D01*
X190000Y75818D01*
X191082Y75960D01*
X192091Y76378D01*
X192957Y77043D01*
X193622Y77909D01*
X194040Y78918D01*
X194182Y80000D01*
X194040Y81082D01*
X193622Y82091D01*
X192957Y82957D01*
X192091Y83622D01*
X191082Y84040D01*
X190000Y84182D01*
D02*
G37*
G36*
X200000D02*
X198918Y84040D01*
X197909Y83622D01*
X197043Y82957D01*
X196378Y82091D01*
X195960Y81082D01*
X195818Y80000D01*
X195960Y78918D01*
X196378Y77909D01*
X197043Y77043D01*
X197909Y76378D01*
X198918Y75960D01*
X200000Y75818D01*
X201082Y75960D01*
X202091Y76378D01*
X202957Y77043D01*
X203622Y77909D01*
X204040Y78918D01*
X204182Y80000D01*
X204040Y81082D01*
X203622Y82091D01*
X202957Y82957D01*
X202091Y83622D01*
X201082Y84040D01*
X200000Y84182D01*
D02*
G37*
G36*
X156500Y90767D02*
X155469Y90631D01*
X154508Y90233D01*
X153683Y89600D01*
X153050Y88775D01*
X152652Y87814D01*
X152516Y86783D01*
X152652Y85752D01*
X153050Y84792D01*
X153683Y83967D01*
X154508Y83333D01*
X155469Y82936D01*
X156500Y82800D01*
X157531Y82936D01*
X158492Y83333D01*
X159317Y83967D01*
X159950Y84792D01*
X160348Y85752D01*
X160484Y86783D01*
X160348Y87814D01*
X159950Y88775D01*
X159317Y89600D01*
X158492Y90233D01*
X157531Y90631D01*
X156500Y90767D01*
D02*
G37*
G36*
X88500Y95182D02*
X87418Y95040D01*
X86409Y94622D01*
X85543Y93957D01*
X84878Y93091D01*
X84460Y92082D01*
X84318Y91000D01*
X84460Y89918D01*
X84878Y88909D01*
X85543Y88043D01*
X86409Y87378D01*
X87418Y86960D01*
X88500Y86818D01*
X89582Y86960D01*
X90591Y87378D01*
X91457Y88043D01*
X92122Y88909D01*
X92540Y89918D01*
X92682Y91000D01*
X92540Y92082D01*
X92122Y93091D01*
X91457Y93957D01*
X90591Y94622D01*
X89582Y95040D01*
X88500Y95182D01*
D02*
G37*
G36*
X179500Y109500D02*
X175682D01*
X175765Y108865D01*
X176203Y107808D01*
X176900Y106900D01*
X177808Y106203D01*
X178865Y105765D01*
X179500Y105682D01*
Y109500D01*
D02*
G37*
G36*
X184318D02*
X180500D01*
Y105682D01*
X181135Y105765D01*
X182192Y106203D01*
X183100Y106900D01*
X183797Y107808D01*
X184235Y108865D01*
X184318Y109500D01*
D02*
G37*
G36*
X58500Y95182D02*
X57418Y95040D01*
X56409Y94622D01*
X55543Y93957D01*
X54878Y93091D01*
X54460Y92082D01*
X54318Y91000D01*
X54460Y89918D01*
X54878Y88909D01*
X55543Y88043D01*
X56409Y87378D01*
X57418Y86960D01*
X58500Y86818D01*
X59582Y86960D01*
X60591Y87378D01*
X61457Y88043D01*
X62122Y88909D01*
X62540Y89918D01*
X62682Y91000D01*
X62540Y92082D01*
X62122Y93091D01*
X61457Y93957D01*
X60591Y94622D01*
X59582Y95040D01*
X58500Y95182D01*
D02*
G37*
G36*
X68500D02*
X67418Y95040D01*
X66409Y94622D01*
X65543Y93957D01*
X64878Y93091D01*
X64460Y92082D01*
X64318Y91000D01*
X64460Y89918D01*
X64878Y88909D01*
X65543Y88043D01*
X66409Y87378D01*
X67418Y86960D01*
X68500Y86818D01*
X69582Y86960D01*
X70591Y87378D01*
X71457Y88043D01*
X72122Y88909D01*
X72540Y89918D01*
X72682Y91000D01*
X72540Y92082D01*
X72122Y93091D01*
X71457Y93957D01*
X70591Y94622D01*
X69582Y95040D01*
X68500Y95182D01*
D02*
G37*
G36*
X78500D02*
X77418Y95040D01*
X76409Y94622D01*
X75543Y93957D01*
X74878Y93091D01*
X74460Y92082D01*
X74318Y91000D01*
X74460Y89918D01*
X74878Y88909D01*
X75543Y88043D01*
X76409Y87378D01*
X77418Y86960D01*
X78500Y86818D01*
X79582Y86960D01*
X80591Y87378D01*
X81457Y88043D01*
X82122Y88909D01*
X82540Y89918D01*
X82682Y91000D01*
X82540Y92082D01*
X82122Y93091D01*
X81457Y93957D01*
X80591Y94622D01*
X79582Y95040D01*
X78500Y95182D01*
D02*
G37*
G36*
X21000Y128200D02*
X19969Y128065D01*
X19008Y127666D01*
X18183Y127033D01*
X17550Y126208D01*
X17152Y125248D01*
X17016Y124216D01*
X17152Y123186D01*
X17550Y122225D01*
X18183Y121400D01*
X19008Y120767D01*
X19969Y120369D01*
X21000Y120233D01*
X22031Y120369D01*
X22992Y120767D01*
X23817Y121400D01*
X24450Y122225D01*
X24848Y123186D01*
X24984Y124216D01*
X24848Y125248D01*
X24450Y126208D01*
X23817Y127033D01*
X22992Y127666D01*
X22031Y128065D01*
X21000Y128200D01*
D02*
G37*
G36*
X154318Y141500D02*
X150500D01*
Y137682D01*
X151135Y137765D01*
X152192Y138203D01*
X153100Y138900D01*
X153797Y139808D01*
X154235Y140865D01*
X154318Y141500D01*
D02*
G37*
G36*
X50000Y146182D02*
X48918Y146040D01*
X47909Y145622D01*
X47043Y144957D01*
X46378Y144091D01*
X45960Y143082D01*
X45818Y142000D01*
X45960Y140918D01*
X46378Y139909D01*
X47043Y139043D01*
X47909Y138378D01*
X48918Y137960D01*
X50000Y137818D01*
X51082Y137960D01*
X52091Y138378D01*
X52957Y139043D01*
X53622Y139909D01*
X54040Y140918D01*
X54182Y142000D01*
X54040Y143082D01*
X53622Y144091D01*
X52957Y144957D01*
X52091Y145622D01*
X51082Y146040D01*
X50000Y146182D01*
D02*
G37*
G36*
X80000D02*
X78918Y146040D01*
X77909Y145622D01*
X77043Y144957D01*
X76378Y144091D01*
X75960Y143082D01*
X75818Y142000D01*
X75960Y140918D01*
X76378Y139909D01*
X77043Y139043D01*
X77909Y138378D01*
X78918Y137960D01*
X80000Y137818D01*
X81082Y137960D01*
X82091Y138378D01*
X82957Y139043D01*
X83622Y139909D01*
X84040Y140918D01*
X84182Y142000D01*
X84040Y143082D01*
X83622Y144091D01*
X82957Y144957D01*
X82091Y145622D01*
X81082Y146040D01*
X80000Y146182D01*
D02*
G37*
G36*
X20500Y140500D02*
X16682D01*
X16765Y139865D01*
X17203Y138808D01*
X17900Y137900D01*
X18808Y137203D01*
X19865Y136765D01*
X20500Y136682D01*
Y140500D01*
D02*
G37*
G36*
X25318D02*
X21500D01*
Y136682D01*
X22135Y136765D01*
X23192Y137203D01*
X24100Y137900D01*
X24797Y138808D01*
X25235Y139865D01*
X25318Y140500D01*
D02*
G37*
G36*
X149500Y141500D02*
X145682D01*
X145765Y140865D01*
X146203Y139808D01*
X146900Y138900D01*
X147808Y138203D01*
X148865Y137765D01*
X149500Y137682D01*
Y141500D01*
D02*
G37*
G36*
X120000Y146182D02*
X118918Y146040D01*
X117909Y145622D01*
X117043Y144957D01*
X116378Y144091D01*
X115960Y143082D01*
X115818Y142000D01*
X115960Y140918D01*
X116378Y139909D01*
X117043Y139043D01*
X117909Y138378D01*
X118918Y137960D01*
X120000Y137818D01*
X121082Y137960D01*
X122091Y138378D01*
X122957Y139043D01*
X123622Y139909D01*
X124040Y140918D01*
X124182Y142000D01*
X124040Y143082D01*
X123622Y144091D01*
X122957Y144957D01*
X122091Y145622D01*
X121082Y146040D01*
X120000Y146182D01*
D02*
G37*
G36*
X130000D02*
X128918Y146040D01*
X127909Y145622D01*
X127043Y144957D01*
X126378Y144091D01*
X125960Y143082D01*
X125818Y142000D01*
X125960Y140918D01*
X126378Y139909D01*
X127043Y139043D01*
X127909Y138378D01*
X128918Y137960D01*
X130000Y137818D01*
X131082Y137960D01*
X132091Y138378D01*
X132957Y139043D01*
X133622Y139909D01*
X134040Y140918D01*
X134182Y142000D01*
X134040Y143082D01*
X133622Y144091D01*
X132957Y144957D01*
X132091Y145622D01*
X131082Y146040D01*
X130000Y146182D01*
D02*
G37*
G36*
X140000D02*
X138918Y146040D01*
X137909Y145622D01*
X137043Y144957D01*
X136378Y144091D01*
X135960Y143082D01*
X135818Y142000D01*
X135960Y140918D01*
X136378Y139909D01*
X137043Y139043D01*
X137909Y138378D01*
X138918Y137960D01*
X140000Y137818D01*
X141082Y137960D01*
X142091Y138378D01*
X142957Y139043D01*
X143622Y139909D01*
X144040Y140918D01*
X144182Y142000D01*
X144040Y143082D01*
X143622Y144091D01*
X142957Y144957D01*
X142091Y145622D01*
X141082Y146040D01*
X140000Y146182D01*
D02*
G37*
G36*
X90000D02*
X88918Y146040D01*
X87909Y145622D01*
X87043Y144957D01*
X86378Y144091D01*
X85960Y143082D01*
X85818Y142000D01*
X85960Y140918D01*
X86378Y139909D01*
X87043Y139043D01*
X87909Y138378D01*
X88918Y137960D01*
X90000Y137818D01*
X91082Y137960D01*
X92091Y138378D01*
X92957Y139043D01*
X93622Y139909D01*
X94040Y140918D01*
X94182Y142000D01*
X94040Y143082D01*
X93622Y144091D01*
X92957Y144957D01*
X92091Y145622D01*
X91082Y146040D01*
X90000Y146182D01*
D02*
G37*
G36*
X100000D02*
X98918Y146040D01*
X97909Y145622D01*
X97043Y144957D01*
X96378Y144091D01*
X95960Y143082D01*
X95818Y142000D01*
X95960Y140918D01*
X96378Y139909D01*
X97043Y139043D01*
X97909Y138378D01*
X98918Y137960D01*
X100000Y137818D01*
X101082Y137960D01*
X102091Y138378D01*
X102957Y139043D01*
X103622Y139909D01*
X104040Y140918D01*
X104182Y142000D01*
X104040Y143082D01*
X103622Y144091D01*
X102957Y144957D01*
X102091Y145622D01*
X101082Y146040D01*
X100000Y146182D01*
D02*
G37*
G36*
X110000D02*
X108918Y146040D01*
X107909Y145622D01*
X107043Y144957D01*
X106378Y144091D01*
X105960Y143082D01*
X105818Y142000D01*
X105960Y140918D01*
X106378Y139909D01*
X107043Y139043D01*
X107909Y138378D01*
X108918Y137960D01*
X110000Y137818D01*
X111082Y137960D01*
X112091Y138378D01*
X112957Y139043D01*
X113622Y139909D01*
X114040Y140918D01*
X114182Y142000D01*
X114040Y143082D01*
X113622Y144091D01*
X112957Y144957D01*
X112091Y145622D01*
X111082Y146040D01*
X110000Y146182D01*
D02*
G37*
G36*
X194818Y126500D02*
X191000D01*
Y122682D01*
X191635Y122765D01*
X192692Y123203D01*
X193600Y123900D01*
X194297Y124808D01*
X194735Y125865D01*
X194818Y126500D01*
D02*
G37*
G36*
X156000Y126336D02*
X155417Y126259D01*
X154407Y125841D01*
X153541Y125176D01*
X152875Y124309D01*
X152457Y123300D01*
X152380Y122717D01*
X156000D01*
Y126336D01*
D02*
G37*
G36*
X157000Y126336D02*
Y122717D01*
X160620D01*
X160543Y123300D01*
X160125Y124309D01*
X159459Y125176D01*
X158593Y125841D01*
X157583Y126259D01*
X157000Y126336D01*
D02*
G37*
G36*
X38000Y125318D02*
X37365Y125235D01*
X36308Y124797D01*
X35400Y124100D01*
X34703Y123192D01*
X34265Y122135D01*
X34182Y121500D01*
X38000D01*
Y125318D01*
D02*
G37*
G36*
X39000D02*
Y121500D01*
X42818D01*
X42735Y122135D01*
X42297Y123192D01*
X41600Y124100D01*
X40692Y124797D01*
X39635Y125235D01*
X39000Y125318D01*
D02*
G37*
G36*
X190000Y126500D02*
X186182D01*
X186265Y125865D01*
X186703Y124808D01*
X187400Y123900D01*
X188308Y123203D01*
X189365Y122765D01*
X190000Y122682D01*
Y126500D01*
D02*
G37*
G36*
X70000Y146182D02*
X68918Y146040D01*
X67909Y145622D01*
X67043Y144957D01*
X66378Y144091D01*
X65960Y143082D01*
X65818Y142000D01*
X65960Y140918D01*
X66378Y139909D01*
X67043Y139043D01*
X67909Y138378D01*
X68918Y137960D01*
X70000Y137818D01*
X70148Y137837D01*
X70504Y137835D01*
X71341Y137783D01*
X71680Y137738D01*
X71984Y137679D01*
X72244Y137610D01*
X72457Y137534D01*
X72623Y137455D01*
X72745Y137379D01*
X72758Y137367D01*
X75563Y134563D01*
X75993Y134275D01*
X76500Y134175D01*
X163451D01*
X166174Y131451D01*
Y131350D01*
X166157Y131260D01*
X166120Y131140D01*
X166062Y131001D01*
X165980Y130846D01*
X165873Y130676D01*
X165746Y130500D01*
X165386Y130079D01*
X165221Y129911D01*
X165146Y129854D01*
X164618Y129164D01*
X164285Y128361D01*
X164172Y127500D01*
X164285Y126638D01*
X164618Y125836D01*
X165146Y125146D01*
X165836Y124618D01*
X166639Y124285D01*
X167500Y124171D01*
X168361Y124285D01*
X169164Y124618D01*
X169854Y125146D01*
X170382Y125836D01*
X170715Y126638D01*
X170828Y127500D01*
X170715Y128361D01*
X170382Y129164D01*
X169854Y129854D01*
X169788Y129904D01*
X169414Y130301D01*
X169260Y130491D01*
X169127Y130676D01*
X169020Y130846D01*
X168938Y131001D01*
X168880Y131140D01*
X168843Y131260D01*
X168825Y131350D01*
Y132000D01*
X168725Y132507D01*
X168437Y132937D01*
X164937Y136437D01*
X164507Y136725D01*
X164000Y136826D01*
X77049D01*
X74633Y139242D01*
X74621Y139255D01*
X74545Y139376D01*
X74466Y139543D01*
X74389Y139756D01*
X74321Y140016D01*
X74262Y140320D01*
X74217Y140659D01*
X74165Y141496D01*
X74163Y141851D01*
X74182Y142000D01*
X74040Y143082D01*
X73622Y144091D01*
X72957Y144957D01*
X72091Y145622D01*
X71082Y146040D01*
X70000Y146182D01*
D02*
G37*
G36*
X190000Y131318D02*
X189365Y131235D01*
X188308Y130797D01*
X187400Y130100D01*
X186703Y129192D01*
X186265Y128135D01*
X186182Y127500D01*
X190000D01*
Y131318D01*
D02*
G37*
G36*
X191000D02*
Y127500D01*
X194818D01*
X194735Y128135D01*
X194297Y129192D01*
X193600Y130100D01*
X192692Y130797D01*
X191635Y131235D01*
X191000Y131318D01*
D02*
G37*
G36*
X50000Y206182D02*
X48918Y206040D01*
X47909Y205622D01*
X47043Y204957D01*
X46378Y204091D01*
X45960Y203082D01*
X45818Y202000D01*
X45960Y200918D01*
X46378Y199909D01*
X47043Y199043D01*
X47909Y198378D01*
X48918Y197960D01*
X50000Y197818D01*
X50148Y197837D01*
X50504Y197835D01*
X51341Y197783D01*
X51680Y197738D01*
X51984Y197679D01*
X52244Y197610D01*
X52457Y197534D01*
X52623Y197455D01*
X52745Y197379D01*
X52758Y197367D01*
X68063Y182063D01*
X68493Y181775D01*
X69000Y181675D01*
X130951D01*
X179174Y133451D01*
Y132226D01*
X179173Y132209D01*
X179141Y132069D01*
X179080Y131895D01*
X178983Y131690D01*
X178848Y131458D01*
X178674Y131202D01*
X178467Y130930D01*
X177911Y130301D01*
X177662Y130049D01*
X177543Y129957D01*
X176878Y129091D01*
X176460Y128082D01*
X176318Y127000D01*
X176460Y125918D01*
X176878Y124909D01*
X177543Y124043D01*
X178409Y123378D01*
X179418Y122960D01*
X180500Y122818D01*
X181582Y122960D01*
X182591Y123378D01*
X183457Y124043D01*
X184122Y124909D01*
X184540Y125918D01*
X184682Y127000D01*
X184540Y128082D01*
X184122Y129091D01*
X183457Y129957D01*
X183338Y130049D01*
X183089Y130301D01*
X182533Y130930D01*
X182325Y131202D01*
X182152Y131458D01*
X182017Y131690D01*
X181920Y131895D01*
X181859Y132069D01*
X181827Y132209D01*
X181825Y132226D01*
Y134000D01*
X181725Y134507D01*
X181437Y134937D01*
X132437Y183937D01*
X132007Y184225D01*
X131500Y184326D01*
X69549D01*
X54633Y199242D01*
X54621Y199255D01*
X54545Y199376D01*
X54466Y199543D01*
X54390Y199756D01*
X54321Y200016D01*
X54262Y200320D01*
X54217Y200659D01*
X54165Y201496D01*
X54163Y201852D01*
X54182Y202000D01*
X54040Y203082D01*
X53622Y204091D01*
X52957Y204957D01*
X52091Y205622D01*
X51082Y206040D01*
X50000Y206182D01*
D02*
G37*
G36*
X200500Y131182D02*
X199418Y131040D01*
X198409Y130622D01*
X197543Y129957D01*
X196878Y129091D01*
X196460Y128082D01*
X196318Y127000D01*
X196460Y125918D01*
X196878Y124909D01*
X197543Y124043D01*
X198409Y123378D01*
X199418Y122960D01*
X200500Y122818D01*
X201582Y122960D01*
X202591Y123378D01*
X203457Y124043D01*
X204122Y124909D01*
X204540Y125918D01*
X204682Y127000D01*
X204540Y128082D01*
X204122Y129091D01*
X203457Y129957D01*
X202591Y130622D01*
X201582Y131040D01*
X200500Y131182D01*
D02*
G37*
G36*
X210500D02*
X209418Y131040D01*
X208409Y130622D01*
X207543Y129957D01*
X206878Y129091D01*
X206460Y128082D01*
X206318Y127000D01*
X206460Y125918D01*
X206878Y124909D01*
X207543Y124043D01*
X208409Y123378D01*
X209418Y122960D01*
X210500Y122818D01*
X211582Y122960D01*
X212591Y123378D01*
X213457Y124043D01*
X214122Y124909D01*
X214540Y125918D01*
X214682Y127000D01*
X214540Y128082D01*
X214122Y129091D01*
X213457Y129957D01*
X212591Y130622D01*
X211582Y131040D01*
X210500Y131182D01*
D02*
G37*
G36*
X180000Y84182D02*
X178918Y84040D01*
X177909Y83622D01*
X177043Y82957D01*
X176378Y82091D01*
X175960Y81082D01*
X175818Y80000D01*
X175960Y78918D01*
X176378Y77909D01*
X177043Y77043D01*
X177909Y76378D01*
X178918Y75960D01*
X180000Y75818D01*
X181082Y75960D01*
X182091Y76378D01*
X182957Y77043D01*
X183622Y77909D01*
X184040Y78918D01*
X184182Y80000D01*
X184040Y81082D01*
X183622Y82091D01*
X182957Y82957D01*
X182091Y83622D01*
X181082Y84040D01*
X180000Y84182D01*
D02*
G37*
G36*
X73717Y23705D02*
X70264D01*
Y18480D01*
X73717D01*
Y23705D01*
D02*
G37*
G36*
X78169D02*
X74717D01*
Y18480D01*
X78169D01*
Y23705D01*
D02*
G37*
G36*
X44583D02*
X41130D01*
Y18480D01*
X44583D01*
Y23705D01*
D02*
G37*
G36*
X121173Y19815D02*
X116342D01*
Y15772D01*
X121173D01*
Y19815D01*
D02*
G37*
G36*
X96157Y23504D02*
X95332Y23396D01*
X94563Y23077D01*
X93902Y22570D01*
X93395Y21910D01*
X93077Y21140D01*
X92968Y20315D01*
X93077Y19489D01*
X93395Y18720D01*
X93902Y18060D01*
X94563Y17553D01*
X95332Y17234D01*
X96157Y17126D01*
X96983Y17234D01*
X97752Y17553D01*
X98413Y18060D01*
X98920Y18720D01*
X99238Y19489D01*
X99347Y20315D01*
X99238Y21140D01*
X98920Y21910D01*
X98413Y22570D01*
X97752Y23077D01*
X96983Y23396D01*
X96157Y23504D01*
D02*
G37*
G36*
X135528D02*
X134702Y23396D01*
X133933Y23077D01*
X133272Y22570D01*
X132765Y21910D01*
X132447Y21140D01*
X132338Y20315D01*
X132447Y19489D01*
X132765Y18720D01*
X133272Y18060D01*
X133933Y17553D01*
X134702Y17234D01*
X135528Y17126D01*
X136353Y17234D01*
X137122Y17553D01*
X137783Y18060D01*
X138290Y18720D01*
X138608Y19489D01*
X138717Y20315D01*
X138608Y21140D01*
X138290Y21910D01*
X137783Y22570D01*
X137122Y23077D01*
X136353Y23396D01*
X135528Y23504D01*
D02*
G37*
G36*
X200000Y114182D02*
X198918Y114040D01*
X197909Y113622D01*
X197043Y112957D01*
X196378Y112091D01*
X195960Y111082D01*
X195818Y110000D01*
X195960Y108918D01*
X196378Y107909D01*
X197043Y107043D01*
X197909Y106378D01*
X198918Y105960D01*
X200000Y105818D01*
X201082Y105960D01*
X202091Y106378D01*
X202957Y107043D01*
X203048Y107162D01*
X203301Y107411D01*
X203930Y107967D01*
X204202Y108175D01*
X204458Y108348D01*
X204690Y108483D01*
X204895Y108580D01*
X205069Y108642D01*
X205209Y108673D01*
X205226Y108675D01*
X205854D01*
Y105853D01*
X211902D01*
X211920Y105850D01*
X211939Y105853D01*
X212216D01*
X212264Y105820D01*
X212532Y105593D01*
X216674Y101451D01*
Y32049D01*
X204788Y20163D01*
X204771Y20149D01*
X204630Y20062D01*
X204416Y19959D01*
X204135Y19848D01*
X203809Y19742D01*
X201795Y19299D01*
X201167Y19200D01*
X201167Y19200D01*
X201166Y19200D01*
X201103Y19177D01*
X200634Y19115D01*
X199481Y18638D01*
X198492Y17878D01*
X197732Y16889D01*
X197255Y15737D01*
X197092Y14500D01*
X197255Y13263D01*
X197732Y12111D01*
X198492Y11122D01*
X199481Y10362D01*
X200634Y9885D01*
X201870Y9722D01*
X203107Y9885D01*
X204259Y10362D01*
X205249Y11122D01*
X206008Y12111D01*
X206485Y13263D01*
X206648Y14500D01*
X206557Y15191D01*
X206562Y15256D01*
X206429Y16310D01*
X206407Y16738D01*
X206411Y17129D01*
X206440Y17472D01*
X206490Y17764D01*
X206558Y18005D01*
X206639Y18197D01*
X206727Y18344D01*
X206769Y18395D01*
X218937Y30563D01*
X219225Y30993D01*
X219325Y31500D01*
Y102000D01*
X219225Y102507D01*
X218937Y102937D01*
X214449Y107426D01*
X214292Y107595D01*
X214186Y107727D01*
X214146Y107784D01*
Y108061D01*
X214150Y108080D01*
X214146Y108098D01*
Y114146D01*
X205854D01*
Y111326D01*
X205226D01*
X205209Y111327D01*
X205069Y111358D01*
X204895Y111420D01*
X204690Y111517D01*
X204458Y111652D01*
X204202Y111826D01*
X203930Y112033D01*
X203301Y112589D01*
X203048Y112838D01*
X202957Y112957D01*
X202091Y113622D01*
X201082Y114040D01*
X200000Y114182D01*
D02*
G37*
G36*
X115342Y24858D02*
X110512D01*
Y20815D01*
X115342D01*
Y24858D01*
D02*
G37*
G36*
X121173D02*
X116342D01*
Y20815D01*
X121173D01*
Y24858D01*
D02*
G37*
G36*
X49035Y23705D02*
X45583D01*
Y18480D01*
X49035D01*
Y23705D01*
D02*
G37*
G36*
X21300Y22184D02*
X20756Y22112D01*
X19783Y21709D01*
X18947Y21068D01*
X18306Y20232D01*
X17903Y19259D01*
X17831Y18715D01*
X21300D01*
Y22184D01*
D02*
G37*
G36*
X22300D02*
Y18715D01*
X25769D01*
X25697Y19259D01*
X25294Y20232D01*
X24653Y21068D01*
X23817Y21709D01*
X22844Y22112D01*
X22300Y22184D01*
D02*
G37*
G36*
X44583Y17480D02*
X41130D01*
Y12256D01*
X44583D01*
Y17480D01*
D02*
G37*
G36*
X49035D02*
X45583D01*
Y12256D01*
X49035D01*
Y17480D01*
D02*
G37*
G36*
X73717Y17480D02*
X70264D01*
Y12256D01*
X73717D01*
Y17480D01*
D02*
G37*
G36*
X162000Y14000D02*
X157586D01*
X157690Y13211D01*
X158187Y12010D01*
X158979Y10979D01*
X160010Y10187D01*
X161211Y9690D01*
X162000Y9586D01*
Y14000D01*
D02*
G37*
G36*
X167414D02*
X163000D01*
Y9586D01*
X163789Y9690D01*
X164990Y10187D01*
X166021Y10979D01*
X166813Y12010D01*
X167310Y13211D01*
X167414Y14000D01*
D02*
G37*
G36*
X182185Y19278D02*
X180948Y19115D01*
X179796Y18638D01*
X178807Y17878D01*
X178047Y16889D01*
X177570Y15737D01*
X177407Y14500D01*
X177570Y13263D01*
X178047Y12111D01*
X178807Y11122D01*
X179796Y10362D01*
X180948Y9885D01*
X182185Y9722D01*
X183422Y9885D01*
X184574Y10362D01*
X185564Y11122D01*
X186323Y12111D01*
X186800Y13263D01*
X186963Y14500D01*
X186800Y15737D01*
X186323Y16889D01*
X185564Y17878D01*
X184574Y18638D01*
X183422Y19115D01*
X182185Y19278D01*
D02*
G37*
G36*
X162000Y19414D02*
X161211Y19310D01*
X160010Y18812D01*
X158979Y18021D01*
X158187Y16990D01*
X157690Y15789D01*
X157586Y15000D01*
X162000D01*
Y19414D01*
D02*
G37*
G36*
X163000D02*
Y15000D01*
X167414D01*
X167310Y15789D01*
X166813Y16990D01*
X166021Y18021D01*
X164990Y18812D01*
X163789Y19310D01*
X163000Y19414D01*
D02*
G37*
G36*
X115342Y19815D02*
X110512D01*
Y15772D01*
X115342D01*
Y19815D01*
D02*
G37*
G36*
X78169Y17480D02*
X74717D01*
Y12256D01*
X78169D01*
Y17480D01*
D02*
G37*
G36*
X21300Y17715D02*
X17831D01*
X17903Y17171D01*
X18306Y16198D01*
X18947Y15362D01*
X19783Y14721D01*
X20756Y14318D01*
X21300Y14246D01*
Y17715D01*
D02*
G37*
G36*
X25769D02*
X22300D01*
Y14246D01*
X22844Y14318D01*
X23817Y14721D01*
X24653Y15362D01*
X25294Y16198D01*
X25697Y17171D01*
X25769Y17715D01*
D02*
G37*
G36*
X56500Y37420D02*
X55765Y37273D01*
X55143Y36857D01*
X54727Y36235D01*
X54580Y35500D01*
X54727Y34765D01*
X55143Y34143D01*
X55765Y33727D01*
X56500Y33580D01*
X57235Y33727D01*
X57857Y34143D01*
X58273Y34765D01*
X58420Y35500D01*
X58273Y36235D01*
X57857Y36857D01*
X57235Y37273D01*
X56500Y37420D01*
D02*
G37*
G36*
X202063Y63921D02*
Y60000D01*
Y56079D01*
X202595Y56149D01*
X203556Y56547D01*
X204382Y57181D01*
X205016Y58007D01*
X205184Y58413D01*
X205684Y58314D01*
Y56247D01*
X213190D01*
Y63753D01*
X205684D01*
Y61686D01*
X205184Y61586D01*
X205016Y61993D01*
X204382Y62819D01*
X203556Y63453D01*
X202595Y63851D01*
X202063Y63921D01*
D02*
G37*
G36*
X33051Y66388D02*
X32174Y66273D01*
X31357Y65934D01*
X30656Y65396D01*
X30117Y64694D01*
X29779Y63877D01*
X29663Y63000D01*
X29779Y62123D01*
X30117Y61306D01*
X30656Y60604D01*
X31357Y60066D01*
X32174Y59727D01*
X33051Y59612D01*
X33928Y59727D01*
X34745Y60066D01*
X35447Y60604D01*
X35985Y61306D01*
X36324Y62123D01*
X36439Y63000D01*
X36324Y63877D01*
X35985Y64694D01*
X35447Y65396D01*
X34745Y65934D01*
X33928Y66273D01*
X33051Y66388D01*
D02*
G37*
G36*
X51949D02*
X51072Y66273D01*
X50255Y65934D01*
X49553Y65396D01*
X49015Y64694D01*
X48676Y63877D01*
X48561Y63000D01*
X48676Y62123D01*
X49015Y61306D01*
X49553Y60604D01*
X50255Y60066D01*
X51072Y59727D01*
X51949Y59612D01*
X52826Y59727D01*
X53643Y60066D01*
X54344Y60604D01*
X54883Y61306D01*
X55221Y62123D01*
X55337Y63000D01*
X55221Y63877D01*
X54883Y64694D01*
X54344Y65396D01*
X53643Y65934D01*
X52826Y66273D01*
X51949Y66388D01*
D02*
G37*
G36*
X88500Y125182D02*
X87418Y125040D01*
X86409Y124622D01*
X85543Y123957D01*
X84878Y123091D01*
X84460Y122082D01*
X84318Y121000D01*
X84460Y119918D01*
X84878Y118909D01*
X85543Y118043D01*
X86409Y117378D01*
X87418Y116960D01*
X88500Y116818D01*
X88648Y116837D01*
X89004Y116835D01*
X89841Y116783D01*
X90180Y116738D01*
X90484Y116679D01*
X90744Y116610D01*
X90957Y116534D01*
X91123Y116455D01*
X91245Y116379D01*
X91258Y116367D01*
X111674Y95951D01*
Y61832D01*
X110174Y60332D01*
X110153Y60314D01*
X110055Y60254D01*
X109952Y60211D01*
X109835Y60183D01*
X109693Y60172D01*
X109522Y60182D01*
X109320Y60219D01*
X109086Y60286D01*
X108823Y60388D01*
X108735Y60429D01*
X108708Y60450D01*
X108577Y60504D01*
X108508Y60537D01*
X108483Y60543D01*
X107748Y60848D01*
X106717Y60984D01*
X105685Y60848D01*
X104725Y60450D01*
X103900Y59817D01*
X103267Y58992D01*
X102869Y58031D01*
X102733Y57000D01*
X102869Y55969D01*
X103267Y55008D01*
X103900Y54183D01*
X104725Y53550D01*
X105685Y53152D01*
X106717Y53016D01*
X107748Y53152D01*
X108708Y53550D01*
X109533Y54183D01*
X110167Y55008D01*
X110282Y55286D01*
X110310Y55323D01*
X110310Y55326D01*
X110312Y55329D01*
X111166Y57116D01*
X111599Y57930D01*
X111689Y58079D01*
X111731Y58140D01*
X113937Y60346D01*
X114225Y60776D01*
X114325Y61283D01*
Y96500D01*
X114225Y97007D01*
X113937Y97437D01*
X94983Y116392D01*
X95174Y116853D01*
X100402D01*
X100420Y116850D01*
X100439Y116853D01*
X100716D01*
X100764Y116820D01*
X101032Y116593D01*
X118675Y98951D01*
Y61549D01*
X109451Y52325D01*
X77833D01*
X75688Y54470D01*
X75684Y54475D01*
X75611Y54588D01*
X75537Y54741D01*
X75465Y54937D01*
X75400Y55175D01*
X75344Y55454D01*
X75301Y55765D01*
X75252Y56537D01*
X75249Y56864D01*
X75267Y57000D01*
X75131Y58031D01*
X74733Y58992D01*
X74100Y59817D01*
X73275Y60450D01*
X72315Y60848D01*
X71284Y60984D01*
X70252Y60848D01*
X69292Y60450D01*
X68467Y59817D01*
X67834Y58992D01*
X67435Y58031D01*
X67300Y57000D01*
X67435Y55969D01*
X67834Y55008D01*
X68467Y54183D01*
X69292Y53550D01*
X70252Y53152D01*
X71284Y53016D01*
X71419Y53034D01*
X71747Y53032D01*
X72519Y52982D01*
X72829Y52939D01*
X73108Y52883D01*
X73346Y52818D01*
X73542Y52746D01*
X73696Y52672D01*
X73808Y52600D01*
X73813Y52596D01*
X76346Y50063D01*
X76776Y49775D01*
X77284Y49674D01*
X110000D01*
X110507Y49775D01*
X110937Y50063D01*
X120937Y60063D01*
X121225Y60493D01*
X121326Y61000D01*
Y99500D01*
X121225Y100007D01*
X120937Y100437D01*
X102949Y118426D01*
X102792Y118595D01*
X102686Y118727D01*
X102647Y118784D01*
Y119061D01*
X102650Y119080D01*
X102647Y119098D01*
Y125146D01*
X94353D01*
Y117674D01*
X93892Y117483D01*
X93133Y118242D01*
X93121Y118255D01*
X93045Y118377D01*
X92966Y118543D01*
X92889Y118756D01*
X92821Y119016D01*
X92762Y119320D01*
X92717Y119659D01*
X92665Y120496D01*
X92663Y120852D01*
X92682Y121000D01*
X92540Y122082D01*
X92122Y123091D01*
X91457Y123957D01*
X90591Y124622D01*
X89582Y125040D01*
X88500Y125182D01*
D02*
G37*
G36*
X186858Y59500D02*
X183437D01*
Y56079D01*
X183969Y56149D01*
X184930Y56547D01*
X185756Y57181D01*
X186390Y58007D01*
X186788Y58968D01*
X186858Y59500D01*
D02*
G37*
G36*
X201063D02*
X197642D01*
X197712Y58968D01*
X198110Y58007D01*
X198744Y57181D01*
X199570Y56547D01*
X200531Y56149D01*
X201063Y56079D01*
Y59500D01*
D02*
G37*
G36*
X137626Y71785D02*
X136646Y71656D01*
X135733Y71278D01*
X134950Y70676D01*
X134348Y69893D01*
X133970Y68980D01*
X133841Y68000D01*
X133970Y67020D01*
X134348Y66107D01*
X134950Y65324D01*
X135733Y64722D01*
X136646Y64344D01*
X137626Y64215D01*
X138606Y64344D01*
X139518Y64722D01*
X140303Y65324D01*
X140904Y66107D01*
X141282Y67020D01*
X141747Y66902D01*
Y64247D01*
X149253D01*
Y71753D01*
X141747D01*
Y69098D01*
X141282Y68980D01*
X140904Y69893D01*
X140303Y70676D01*
X139518Y71278D01*
X138606Y71656D01*
X137626Y71785D01*
D02*
G37*
G36*
X79158Y76833D02*
X78166Y76702D01*
X77241Y76319D01*
X76447Y75710D01*
X75838Y74916D01*
X75455Y73992D01*
X75325Y73000D01*
X75455Y72008D01*
X75838Y71084D01*
X76447Y70290D01*
X77241Y69681D01*
X78166Y69298D01*
X79158Y69167D01*
X80150Y69298D01*
X81074Y69681D01*
X81868Y70290D01*
X82477Y71084D01*
X82860Y72008D01*
X82990Y73000D01*
X82860Y73992D01*
X82477Y74916D01*
X81868Y75710D01*
X81074Y76319D01*
X80150Y76702D01*
X79158Y76833D01*
D02*
G37*
G36*
X98843D02*
X97851Y76702D01*
X96926Y76319D01*
X96132Y75710D01*
X95523Y74916D01*
X95140Y73992D01*
X95010Y73000D01*
X95140Y72008D01*
X95523Y71084D01*
X96132Y70290D01*
X96926Y69681D01*
X97851Y69298D01*
X98843Y69167D01*
X99835Y69298D01*
X100759Y69681D01*
X101553Y70290D01*
X102162Y71084D01*
X102545Y72008D01*
X102675Y73000D01*
X102545Y73992D01*
X102162Y74916D01*
X101553Y75710D01*
X100759Y76319D01*
X99835Y76702D01*
X98843Y76833D01*
D02*
G37*
G36*
X201063Y63921D02*
X200531Y63851D01*
X199570Y63453D01*
X198744Y62819D01*
X198110Y61993D01*
X197712Y61032D01*
X197642Y60500D01*
X201063D01*
Y63921D01*
D02*
G37*
G36*
X183437D02*
Y60500D01*
X186858D01*
X186788Y61032D01*
X186390Y61993D01*
X185756Y62819D01*
X184930Y63453D01*
X183969Y63851D01*
X183437Y63921D01*
D02*
G37*
G36*
X182437D02*
X181905Y63851D01*
X180944Y63453D01*
X180118Y62819D01*
X179484Y61993D01*
X179316Y61586D01*
X178816Y61686D01*
Y63753D01*
X171310D01*
Y56247D01*
X178816D01*
Y58314D01*
X179316Y58413D01*
X179484Y58007D01*
X180118Y57181D01*
X180944Y56547D01*
X181905Y56149D01*
X182437Y56079D01*
Y60000D01*
Y63921D01*
D02*
G37*
G36*
X110343Y44343D02*
X101657D01*
Y35657D01*
X110343D01*
Y44343D01*
D02*
G37*
G36*
X130028D02*
X121342D01*
Y35657D01*
X130028D01*
Y44343D01*
D02*
G37*
G36*
X139871D02*
X131184D01*
Y35657D01*
X139871D01*
Y44343D01*
D02*
G37*
G36*
X62799Y37420D02*
X62065Y37273D01*
X61442Y36857D01*
X61026Y36235D01*
X60880Y35500D01*
X61026Y34765D01*
X61442Y34143D01*
X62065Y33727D01*
X62799Y33580D01*
X63534Y33727D01*
X64157Y34143D01*
X64573Y34765D01*
X64719Y35500D01*
X64573Y36235D01*
X64157Y36857D01*
X63534Y37273D01*
X62799Y37420D01*
D02*
G37*
G36*
X21800Y41733D02*
X20808Y41602D01*
X19884Y41219D01*
X19090Y40610D01*
X18481Y39816D01*
X18098Y38892D01*
X17967Y37900D01*
X18098Y36908D01*
X18481Y35984D01*
X19090Y35190D01*
X19884Y34581D01*
X20808Y34198D01*
X21800Y34067D01*
X22792Y34198D01*
X23716Y34581D01*
X24510Y35190D01*
X25119Y35984D01*
X25502Y36908D01*
X25633Y37900D01*
X25502Y38892D01*
X25119Y39816D01*
X24510Y40610D01*
X23716Y41219D01*
X22792Y41602D01*
X21800Y41733D01*
D02*
G37*
G36*
X100501Y44343D02*
X91814D01*
Y35657D01*
X100501D01*
Y44343D01*
D02*
G37*
G36*
X59650Y42144D02*
X58915Y41998D01*
X58292Y41582D01*
X57876Y40959D01*
X57730Y40224D01*
X57876Y39490D01*
X58292Y38867D01*
X58915Y38451D01*
X59650Y38305D01*
X60384Y38451D01*
X61007Y38867D01*
X61423Y39490D01*
X61569Y40224D01*
X61423Y40959D01*
X61007Y41582D01*
X60384Y41998D01*
X59650Y42144D01*
D02*
G37*
G36*
X65449Y42248D02*
X65136Y42186D01*
X64447Y41726D01*
X63987Y41037D01*
X63925Y40724D01*
X65449D01*
Y42248D01*
D02*
G37*
G36*
X66449D02*
Y40724D01*
X67973D01*
X67911Y41037D01*
X67450Y41726D01*
X66761Y42186D01*
X66449Y42248D01*
D02*
G37*
G36*
X115842Y43189D02*
X115017Y43081D01*
X114248Y42762D01*
X113587Y42255D01*
X113080Y41595D01*
X112762Y40826D01*
X112653Y40000D01*
X112762Y39175D01*
X113080Y38405D01*
X113587Y37745D01*
X114248Y37238D01*
X115017Y36919D01*
X115842Y36810D01*
X116668Y36919D01*
X117437Y37238D01*
X118098Y37745D01*
X118605Y38405D01*
X118923Y39175D01*
X119032Y40000D01*
X118923Y40826D01*
X118605Y41595D01*
X118098Y42255D01*
X117437Y42762D01*
X116668Y43081D01*
X115842Y43189D01*
D02*
G37*
G36*
X65449Y39724D02*
X63925D01*
X63987Y39412D01*
X64447Y38723D01*
X65136Y38263D01*
X65449Y38200D01*
Y39724D01*
D02*
G37*
G36*
X67973D02*
X66449D01*
Y38200D01*
X66761Y38263D01*
X67450Y38723D01*
X67911Y39412D01*
X67973Y39724D01*
D02*
G37*
G36*
X178913Y236310D02*
X178139Y236208D01*
X177418Y235909D01*
X176798Y235434D01*
X176323Y234814D01*
X176024Y234093D01*
X175923Y233319D01*
X176024Y232545D01*
X176323Y231823D01*
X176798Y231204D01*
X177418Y230729D01*
X178139Y230430D01*
X178913Y230328D01*
X179688Y230430D01*
X180409Y230729D01*
X181028Y231204D01*
X181504Y231823D01*
X181802Y232545D01*
X181904Y233319D01*
X181802Y234093D01*
X181504Y234814D01*
X181028Y235434D01*
X180409Y235909D01*
X179688Y236208D01*
X178913Y236310D01*
D02*
G37*
G36*
X28178Y246205D02*
X13586D01*
Y231613D01*
X28178D01*
Y246205D01*
D02*
G37*
G36*
X213375D02*
X198783D01*
Y231613D01*
X213375D01*
Y246205D01*
D02*
G37*
G36*
X168008Y236310D02*
X167234Y236208D01*
X166512Y235909D01*
X165893Y235434D01*
X165418Y234814D01*
X165119Y234093D01*
X165017Y233319D01*
X165119Y232545D01*
X165418Y231823D01*
X165893Y231204D01*
X166512Y230729D01*
X167234Y230430D01*
X168008Y230328D01*
X168782Y230430D01*
X169503Y230729D01*
X170123Y231204D01*
X170598Y231823D01*
X170897Y232545D01*
X170999Y233319D01*
X170897Y234093D01*
X170598Y234814D01*
X170123Y235434D01*
X169503Y235909D01*
X168782Y236208D01*
X168008Y236310D01*
D02*
G37*
G36*
X135291D02*
X134517Y236208D01*
X133796Y235909D01*
X133176Y235434D01*
X132701Y234814D01*
X132402Y234093D01*
X132300Y233319D01*
X132402Y232545D01*
X132701Y231823D01*
X133176Y231204D01*
X133796Y230729D01*
X134517Y230430D01*
X135291Y230328D01*
X136065Y230430D01*
X136787Y230729D01*
X137406Y231204D01*
X137882Y231823D01*
X138180Y232545D01*
X138282Y233319D01*
X138180Y234093D01*
X137882Y234814D01*
X137406Y235434D01*
X136787Y235909D01*
X136065Y236208D01*
X135291Y236310D01*
D02*
G37*
G36*
X146197D02*
X145423Y236208D01*
X144701Y235909D01*
X144082Y235434D01*
X143607Y234814D01*
X143308Y234093D01*
X143206Y233319D01*
X143308Y232545D01*
X143607Y231823D01*
X144082Y231204D01*
X144701Y230729D01*
X145423Y230430D01*
X146197Y230328D01*
X146971Y230430D01*
X147692Y230729D01*
X148312Y231204D01*
X148787Y231823D01*
X149086Y232545D01*
X149188Y233319D01*
X149086Y234093D01*
X148787Y234814D01*
X148312Y235434D01*
X147692Y235909D01*
X146971Y236208D01*
X146197Y236310D01*
D02*
G37*
G36*
X157102D02*
X156328Y236208D01*
X155607Y235909D01*
X154988Y235434D01*
X154512Y234814D01*
X154213Y234093D01*
X154111Y233319D01*
X154213Y232545D01*
X154512Y231823D01*
X154988Y231204D01*
X155607Y230729D01*
X156328Y230430D01*
X157102Y230328D01*
X157877Y230430D01*
X158598Y230729D01*
X159217Y231204D01*
X159693Y231823D01*
X159991Y232545D01*
X160093Y233319D01*
X159991Y234093D01*
X159693Y234814D01*
X159217Y235434D01*
X158598Y235909D01*
X157877Y236208D01*
X157102Y236310D01*
D02*
G37*
G36*
X89343Y244000D02*
X86717D01*
Y241373D01*
X87043Y241416D01*
X87813Y241735D01*
X88474Y242243D01*
X88981Y242904D01*
X89300Y243674D01*
X89343Y244000D01*
D02*
G37*
G36*
X53000D02*
X50373D01*
X50416Y243674D01*
X50735Y242904D01*
X51242Y242243D01*
X51904Y241735D01*
X52674Y241416D01*
X53000Y241373D01*
Y244000D01*
D02*
G37*
G36*
X96622D02*
X93995D01*
X94038Y243674D01*
X94357Y242904D01*
X94864Y242243D01*
X95526Y241735D01*
X96296Y241416D01*
X96622Y241373D01*
Y244000D01*
D02*
G37*
G36*
X118433D02*
X115806D01*
X115849Y243674D01*
X116168Y242904D01*
X116675Y242243D01*
X117337Y241735D01*
X118107Y241416D01*
X118433Y241373D01*
Y244000D01*
D02*
G37*
G36*
X74811D02*
X72184D01*
X72227Y243674D01*
X72546Y242904D01*
X73053Y242243D01*
X73715Y241735D01*
X74485Y241416D01*
X74811Y241373D01*
Y244000D01*
D02*
G37*
G36*
X132965D02*
X130339D01*
Y241373D01*
X130665Y241416D01*
X131435Y241735D01*
X132096Y242243D01*
X132604Y242904D01*
X132922Y243674D01*
X132965Y244000D01*
D02*
G37*
G36*
X63906D02*
X61279D01*
X61322Y243674D01*
X61641Y242904D01*
X62148Y242243D01*
X62809Y241735D01*
X63579Y241416D01*
X63906Y241373D01*
Y244000D01*
D02*
G37*
G36*
X50500Y222182D02*
X49418Y222040D01*
X48409Y221622D01*
X47543Y220957D01*
X46878Y220091D01*
X46460Y219082D01*
X46318Y218000D01*
X46460Y216918D01*
X46878Y215909D01*
X47543Y215043D01*
X48409Y214378D01*
X49418Y213960D01*
X50500Y213818D01*
X51582Y213960D01*
X52591Y214378D01*
X53457Y215043D01*
X54122Y215909D01*
X54540Y216918D01*
X54682Y218000D01*
X54540Y219082D01*
X54122Y220091D01*
X53457Y220957D01*
X52591Y221622D01*
X51582Y222040D01*
X50500Y222182D01*
D02*
G37*
G36*
X64647Y222147D02*
X56353D01*
Y213854D01*
X64647D01*
Y222147D01*
D02*
G37*
G36*
X48047Y236310D02*
X47273Y236208D01*
X46552Y235909D01*
X45932Y235434D01*
X45457Y234814D01*
X45158Y234093D01*
X45056Y233319D01*
X45158Y232545D01*
X45457Y231823D01*
X45932Y231204D01*
X46552Y230729D01*
X47273Y230430D01*
X48047Y230328D01*
X48821Y230430D01*
X49543Y230729D01*
X50162Y231204D01*
X50638Y231823D01*
X50936Y232545D01*
X51038Y233319D01*
X50936Y234093D01*
X50638Y234814D01*
X50162Y235434D01*
X49543Y235909D01*
X48821Y236208D01*
X48047Y236310D01*
D02*
G37*
G36*
X174500Y208311D02*
Y204842D01*
X177969D01*
X177897Y205387D01*
X177494Y206360D01*
X176853Y207195D01*
X176017Y207837D01*
X175044Y208240D01*
X174500Y208311D01*
D02*
G37*
G36*
X188614Y206598D02*
X184374D01*
Y202358D01*
X188614D01*
Y206598D01*
D02*
G37*
G36*
X193854D02*
X189614D01*
Y202358D01*
X193854D01*
Y206598D01*
D02*
G37*
G36*
X173500Y208311D02*
X172956Y208240D01*
X171983Y207837D01*
X171147Y207195D01*
X170506Y206360D01*
X170103Y205387D01*
X170031Y204842D01*
X173500D01*
Y208311D01*
D02*
G37*
G36*
X102575Y236310D02*
X101801Y236208D01*
X101079Y235909D01*
X100460Y235434D01*
X99985Y234814D01*
X99686Y234093D01*
X99584Y233319D01*
X99686Y232545D01*
X99985Y231823D01*
X100460Y231204D01*
X101079Y230729D01*
X101801Y230430D01*
X102575Y230328D01*
X103349Y230430D01*
X104070Y230729D01*
X104690Y231204D01*
X105165Y231823D01*
X105464Y232545D01*
X105566Y233319D01*
X105464Y234093D01*
X105165Y234814D01*
X104690Y235434D01*
X104070Y235909D01*
X103349Y236208D01*
X102575Y236310D01*
D02*
G37*
G36*
X113480D02*
X112706Y236208D01*
X111985Y235909D01*
X111365Y235434D01*
X110890Y234814D01*
X110591Y234093D01*
X110489Y233319D01*
X110591Y232545D01*
X110890Y231823D01*
X111365Y231204D01*
X111985Y230729D01*
X112706Y230430D01*
X113480Y230328D01*
X114254Y230430D01*
X114976Y230729D01*
X115595Y231204D01*
X116071Y231823D01*
X116369Y232545D01*
X116471Y233319D01*
X116369Y234093D01*
X116071Y234814D01*
X115595Y235434D01*
X114976Y235909D01*
X114254Y236208D01*
X113480Y236310D01*
D02*
G37*
G36*
X124386D02*
X123612Y236208D01*
X122890Y235909D01*
X122271Y235434D01*
X121796Y234814D01*
X121497Y234093D01*
X121395Y233319D01*
X121497Y232545D01*
X121796Y231823D01*
X122271Y231204D01*
X122890Y230729D01*
X123612Y230430D01*
X124386Y230328D01*
X125160Y230430D01*
X125881Y230729D01*
X126501Y231204D01*
X126976Y231823D01*
X127275Y232545D01*
X127377Y233319D01*
X127275Y234093D01*
X126976Y234814D01*
X126501Y235434D01*
X125881Y235909D01*
X125160Y236208D01*
X124386Y236310D01*
D02*
G37*
G36*
X91669D02*
X90895Y236208D01*
X90174Y235909D01*
X89554Y235434D01*
X89079Y234814D01*
X88780Y234093D01*
X88678Y233319D01*
X88780Y232545D01*
X89079Y231823D01*
X89554Y231204D01*
X90174Y230729D01*
X90895Y230430D01*
X91669Y230328D01*
X92443Y230430D01*
X93165Y230729D01*
X93784Y231204D01*
X94260Y231823D01*
X94558Y232545D01*
X94660Y233319D01*
X94558Y234093D01*
X94260Y234814D01*
X93784Y235434D01*
X93165Y235909D01*
X92443Y236208D01*
X91669Y236310D01*
D02*
G37*
G36*
X58953D02*
X58179Y236208D01*
X57457Y235909D01*
X56838Y235434D01*
X56362Y234814D01*
X56064Y234093D01*
X55962Y233319D01*
X56064Y232545D01*
X56362Y231823D01*
X56838Y231204D01*
X57457Y230729D01*
X58179Y230430D01*
X58953Y230328D01*
X59727Y230430D01*
X60448Y230729D01*
X61068Y231204D01*
X61543Y231823D01*
X61842Y232545D01*
X61944Y233319D01*
X61842Y234093D01*
X61543Y234814D01*
X61068Y235434D01*
X60448Y235909D01*
X59727Y236208D01*
X58953Y236310D01*
D02*
G37*
G36*
X69858D02*
X69084Y236208D01*
X68363Y235909D01*
X67743Y235434D01*
X67268Y234814D01*
X66969Y234093D01*
X66867Y233319D01*
X66969Y232545D01*
X67268Y231823D01*
X67743Y231204D01*
X68363Y230729D01*
X69084Y230430D01*
X69858Y230328D01*
X70632Y230430D01*
X71354Y230729D01*
X71973Y231204D01*
X72448Y231823D01*
X72747Y232545D01*
X72849Y233319D01*
X72747Y234093D01*
X72448Y234814D01*
X71973Y235434D01*
X71354Y235909D01*
X70632Y236208D01*
X69858Y236310D01*
D02*
G37*
G36*
X80764D02*
X79990Y236208D01*
X79268Y235909D01*
X78649Y235434D01*
X78174Y234814D01*
X77875Y234093D01*
X77773Y233319D01*
X77875Y232545D01*
X78174Y231823D01*
X78649Y231204D01*
X79268Y230729D01*
X79990Y230430D01*
X80764Y230328D01*
X81538Y230430D01*
X82259Y230729D01*
X82879Y231204D01*
X83354Y231823D01*
X83653Y232545D01*
X83755Y233319D01*
X83653Y234093D01*
X83354Y234814D01*
X82879Y235434D01*
X82259Y235909D01*
X81538Y236208D01*
X80764Y236310D01*
D02*
G37*
G36*
X107528Y244000D02*
X104901D01*
X104944Y243674D01*
X105263Y242904D01*
X105770Y242243D01*
X106431Y241735D01*
X107201Y241416D01*
X107528Y241373D01*
Y244000D01*
D02*
G37*
G36*
X85716Y247627D02*
X85390Y247584D01*
X84620Y247265D01*
X83959Y246758D01*
X83452Y246096D01*
X83133Y245326D01*
X83090Y245000D01*
X85716D01*
Y247627D01*
D02*
G37*
G36*
X129339D02*
X129012Y247584D01*
X128242Y247265D01*
X127581Y246758D01*
X127074Y246096D01*
X126755Y245326D01*
X126712Y245000D01*
X129339D01*
Y247627D01*
D02*
G37*
G36*
X130339Y247627D02*
Y245000D01*
X132965D01*
X132922Y245326D01*
X132604Y246096D01*
X132096Y246758D01*
X131435Y247265D01*
X130665Y247584D01*
X130339Y247627D01*
D02*
G37*
G36*
X107528Y247627D02*
X107201Y247584D01*
X106431Y247265D01*
X105770Y246758D01*
X105263Y246096D01*
X104944Y245326D01*
X104901Y245000D01*
X107528D01*
Y247627D01*
D02*
G37*
G36*
X118433D02*
X118107Y247584D01*
X117337Y247265D01*
X116675Y246758D01*
X116168Y246096D01*
X115849Y245326D01*
X115806Y245000D01*
X118433D01*
Y247627D01*
D02*
G37*
G36*
X53000D02*
X52674Y247584D01*
X51904Y247265D01*
X51242Y246758D01*
X50735Y246096D01*
X50416Y245326D01*
X50373Y245000D01*
X53000D01*
Y247627D01*
D02*
G37*
G36*
X96622D02*
X96296Y247584D01*
X95526Y247265D01*
X94864Y246758D01*
X94357Y246096D01*
X94038Y245326D01*
X93995Y245000D01*
X96622D01*
Y247627D01*
D02*
G37*
G36*
X64906D02*
Y245000D01*
X67532D01*
X67489Y245326D01*
X67170Y246096D01*
X66663Y246758D01*
X66002Y247265D01*
X65232Y247584D01*
X64906Y247627D01*
D02*
G37*
G36*
X119433D02*
Y245000D01*
X122060D01*
X122017Y245326D01*
X121698Y246096D01*
X121191Y246758D01*
X120529Y247265D01*
X119759Y247584D01*
X119433Y247627D01*
D02*
G37*
G36*
X75811D02*
Y245000D01*
X78438D01*
X78395Y245326D01*
X78076Y246096D01*
X77569Y246758D01*
X76907Y247265D01*
X76137Y247584D01*
X75811Y247627D01*
D02*
G37*
G36*
X108528D02*
Y245000D01*
X111154D01*
X111111Y245326D01*
X110793Y246096D01*
X110285Y246758D01*
X109624Y247265D01*
X108854Y247584D01*
X108528Y247627D01*
D02*
G37*
G36*
X86717D02*
Y245000D01*
X89343D01*
X89300Y245326D01*
X88981Y246096D01*
X88474Y246758D01*
X87813Y247265D01*
X87043Y247584D01*
X86717Y247627D01*
D02*
G37*
G36*
X54000D02*
Y245000D01*
X56627D01*
X56584Y245326D01*
X56265Y246096D01*
X55758Y246758D01*
X55096Y247265D01*
X54326Y247584D01*
X54000Y247627D01*
D02*
G37*
G36*
X97622D02*
Y245000D01*
X100249D01*
X100206Y245326D01*
X99887Y246096D01*
X99380Y246758D01*
X98718Y247265D01*
X97948Y247584D01*
X97622Y247627D01*
D02*
G37*
G36*
X67532Y244000D02*
X64906D01*
Y241373D01*
X65232Y241416D01*
X66002Y241735D01*
X66663Y242243D01*
X67170Y242904D01*
X67489Y243674D01*
X67532Y244000D01*
D02*
G37*
G36*
X122060D02*
X119433D01*
Y241373D01*
X119759Y241416D01*
X120529Y241735D01*
X121191Y242243D01*
X121698Y242904D01*
X122017Y243674D01*
X122060Y244000D01*
D02*
G37*
G36*
X129339D02*
X126712D01*
X126755Y243674D01*
X127074Y242904D01*
X127581Y242243D01*
X128242Y241735D01*
X129012Y241416D01*
X129339Y241373D01*
Y244000D01*
D02*
G37*
G36*
X85716D02*
X83090D01*
X83133Y243674D01*
X83452Y242904D01*
X83959Y242243D01*
X84620Y241735D01*
X85390Y241416D01*
X85716Y241373D01*
Y244000D01*
D02*
G37*
G36*
X56627D02*
X54000D01*
Y241373D01*
X54326Y241416D01*
X55096Y241735D01*
X55758Y242243D01*
X56265Y242904D01*
X56584Y243674D01*
X56627Y244000D01*
D02*
G37*
G36*
X100249D02*
X97622D01*
Y241373D01*
X97948Y241416D01*
X98718Y241735D01*
X99380Y242243D01*
X99887Y242904D01*
X100206Y243674D01*
X100249Y244000D01*
D02*
G37*
G36*
X111154D02*
X108528D01*
Y241373D01*
X108854Y241416D01*
X109624Y241735D01*
X110285Y242243D01*
X110793Y242904D01*
X111111Y243674D01*
X111154Y244000D01*
D02*
G37*
G36*
X173461Y247491D02*
X172687Y247389D01*
X171965Y247090D01*
X171346Y246615D01*
X170870Y245995D01*
X170572Y245274D01*
X170470Y244500D01*
X170572Y243726D01*
X170870Y243004D01*
X171346Y242385D01*
X171965Y241910D01*
X172687Y241611D01*
X173461Y241509D01*
X174235Y241611D01*
X174956Y241910D01*
X175575Y242385D01*
X176051Y243004D01*
X176350Y243726D01*
X176452Y244500D01*
X176350Y245274D01*
X176051Y245995D01*
X175575Y246615D01*
X174956Y247090D01*
X174235Y247389D01*
X173461Y247491D01*
D02*
G37*
G36*
X74811Y247627D02*
X74485Y247584D01*
X73715Y247265D01*
X73053Y246758D01*
X72546Y246096D01*
X72227Y245326D01*
X72184Y245000D01*
X74811D01*
Y247627D01*
D02*
G37*
G36*
X63906Y247627D02*
X63579Y247584D01*
X62809Y247265D01*
X62148Y246758D01*
X61641Y246096D01*
X61322Y245326D01*
X61279Y245000D01*
X63906D01*
Y247627D01*
D02*
G37*
G36*
X162555Y247491D02*
X161781Y247389D01*
X161060Y247090D01*
X160440Y246615D01*
X159965Y245995D01*
X159666Y245274D01*
X159564Y244500D01*
X159666Y243726D01*
X159965Y243004D01*
X160440Y242385D01*
X161060Y241910D01*
X161781Y241611D01*
X162555Y241509D01*
X163329Y241611D01*
X164051Y241910D01*
X164670Y242385D01*
X165145Y243004D01*
X165444Y243726D01*
X165546Y244500D01*
X165444Y245274D01*
X165145Y245995D01*
X164670Y246615D01*
X164051Y247090D01*
X163329Y247389D01*
X162555Y247491D01*
D02*
G37*
G36*
X78438Y244000D02*
X75811D01*
Y241373D01*
X76137Y241416D01*
X76907Y241735D01*
X77569Y242243D01*
X78076Y242904D01*
X78395Y243674D01*
X78438Y244000D01*
D02*
G37*
G36*
X140744Y247491D02*
X139970Y247389D01*
X139249Y247090D01*
X138629Y246615D01*
X138154Y245995D01*
X137855Y245274D01*
X137753Y244500D01*
X137855Y243726D01*
X138154Y243004D01*
X138629Y242385D01*
X139249Y241910D01*
X139970Y241611D01*
X140744Y241509D01*
X141518Y241611D01*
X142240Y241910D01*
X142859Y242385D01*
X143334Y243004D01*
X143633Y243726D01*
X143735Y244500D01*
X143633Y245274D01*
X143334Y245995D01*
X142859Y246615D01*
X142240Y247090D01*
X141518Y247389D01*
X140744Y247491D01*
D02*
G37*
G36*
X151650D02*
X150875Y247389D01*
X150154Y247090D01*
X149535Y246615D01*
X149059Y245995D01*
X148761Y245274D01*
X148659Y244500D01*
X148761Y243726D01*
X149059Y243004D01*
X149535Y242385D01*
X150154Y241910D01*
X150875Y241611D01*
X151650Y241509D01*
X152424Y241611D01*
X153145Y241910D01*
X153764Y242385D01*
X154240Y243004D01*
X154539Y243726D01*
X154640Y244500D01*
X154539Y245274D01*
X154240Y245995D01*
X153764Y246615D01*
X153145Y247090D01*
X152424Y247389D01*
X151650Y247491D01*
D02*
G37*
G36*
X214647Y161146D02*
X206353D01*
Y152854D01*
X214647D01*
Y161146D01*
D02*
G37*
G36*
X40000Y206182D02*
X38918Y206040D01*
X37909Y205622D01*
X37043Y204957D01*
X36378Y204091D01*
X35960Y203082D01*
X35818Y202000D01*
X35960Y200918D01*
X36378Y199909D01*
X37043Y199043D01*
X37909Y198378D01*
X38918Y197960D01*
X40000Y197818D01*
X41082Y197960D01*
X42091Y198378D01*
X42957Y199043D01*
X43622Y199909D01*
X44040Y200918D01*
X44182Y202000D01*
X44040Y203082D01*
X43622Y204091D01*
X42957Y204957D01*
X42091Y205622D01*
X41082Y206040D01*
X40000Y206182D01*
D02*
G37*
G36*
X193854Y201358D02*
X189614D01*
Y197118D01*
X193854D01*
Y201358D01*
D02*
G37*
G36*
X215886Y206438D02*
X214701Y206282D01*
X213596Y205824D01*
X212648Y205096D01*
X211920Y204148D01*
X211462Y203044D01*
X211307Y201858D01*
X211462Y200673D01*
X211920Y199569D01*
X212648Y198620D01*
X213596Y197892D01*
X214701Y197435D01*
X215886Y197279D01*
X217071Y197435D01*
X218176Y197892D01*
X219124Y198620D01*
X219852Y199569D01*
X220309Y200673D01*
X220465Y201858D01*
X220309Y203044D01*
X219852Y204148D01*
X219124Y205096D01*
X218176Y205824D01*
X217071Y206282D01*
X215886Y206438D01*
D02*
G37*
G36*
X60000Y206182D02*
X58918Y206040D01*
X57909Y205622D01*
X57043Y204957D01*
X56378Y204091D01*
X55960Y203082D01*
X55818Y202000D01*
X55960Y200918D01*
X56378Y199909D01*
X57043Y199043D01*
X57909Y198378D01*
X58918Y197960D01*
X60000Y197818D01*
X61082Y197960D01*
X62091Y198378D01*
X62957Y199043D01*
X63622Y199909D01*
X64040Y200918D01*
X64182Y202000D01*
X64040Y203082D01*
X63622Y204091D01*
X62957Y204957D01*
X62091Y205622D01*
X61082Y206040D01*
X60000Y206182D01*
D02*
G37*
G36*
X100000D02*
X98918Y206040D01*
X97909Y205622D01*
X97043Y204957D01*
X96378Y204091D01*
X95960Y203082D01*
X95818Y202000D01*
X95960Y200918D01*
X96378Y199909D01*
X97043Y199043D01*
X97909Y198378D01*
X98918Y197960D01*
X100000Y197818D01*
X101082Y197960D01*
X102091Y198378D01*
X102957Y199043D01*
X103622Y199909D01*
X104040Y200918D01*
X104182Y202000D01*
X104040Y203082D01*
X103622Y204091D01*
X102957Y204957D01*
X102091Y205622D01*
X101082Y206040D01*
X100000Y206182D01*
D02*
G37*
G36*
X110000D02*
X108918Y206040D01*
X107909Y205622D01*
X107043Y204957D01*
X106378Y204091D01*
X105960Y203082D01*
X105818Y202000D01*
X105960Y200918D01*
X106378Y199909D01*
X107043Y199043D01*
X107909Y198378D01*
X108918Y197960D01*
X110000Y197818D01*
X111082Y197960D01*
X112091Y198378D01*
X112957Y199043D01*
X113622Y199909D01*
X114040Y200918D01*
X114182Y202000D01*
X114040Y203082D01*
X113622Y204091D01*
X112957Y204957D01*
X112091Y205622D01*
X111082Y206040D01*
X110000Y206182D01*
D02*
G37*
G36*
X90000D02*
X88918Y206040D01*
X87909Y205622D01*
X87043Y204957D01*
X86378Y204091D01*
X85960Y203082D01*
X85818Y202000D01*
X85960Y200918D01*
X86378Y199909D01*
X87043Y199043D01*
X87909Y198378D01*
X88918Y197960D01*
X90000Y197818D01*
X91082Y197960D01*
X92091Y198378D01*
X92957Y199043D01*
X93622Y199909D01*
X94040Y200918D01*
X94182Y202000D01*
X94040Y203082D01*
X93622Y204091D01*
X92957Y204957D01*
X92091Y205622D01*
X91082Y206040D01*
X90000Y206182D01*
D02*
G37*
G36*
X200500Y161182D02*
X199418Y161040D01*
X198409Y160622D01*
X197543Y159957D01*
X196878Y159091D01*
X196460Y158082D01*
X196318Y157000D01*
X196460Y155918D01*
X196878Y154909D01*
X197543Y154043D01*
X198409Y153378D01*
X199418Y152960D01*
X200500Y152818D01*
X201582Y152960D01*
X202591Y153378D01*
X203457Y154043D01*
X204122Y154909D01*
X204540Y155918D01*
X204682Y157000D01*
X204540Y158082D01*
X204122Y159091D01*
X203457Y159957D01*
X202591Y160622D01*
X201582Y161040D01*
X200500Y161182D01*
D02*
G37*
G36*
X188614Y201358D02*
X184374D01*
Y197118D01*
X188614D01*
Y201358D01*
D02*
G37*
G36*
X20500Y168818D02*
X19865Y168735D01*
X18808Y168297D01*
X17900Y167600D01*
X17203Y166692D01*
X16765Y165635D01*
X16682Y165000D01*
X20500D01*
Y168818D01*
D02*
G37*
G36*
X21500D02*
Y165000D01*
X25318D01*
X25235Y165635D01*
X24797Y166692D01*
X24100Y167600D01*
X23192Y168297D01*
X22135Y168735D01*
X21500Y168818D01*
D02*
G37*
G36*
X20500Y164000D02*
X16682D01*
X16765Y163365D01*
X17203Y162308D01*
X17900Y161400D01*
X18808Y160703D01*
X19865Y160265D01*
X20500Y160182D01*
Y164000D01*
D02*
G37*
G36*
X25318D02*
X21500D01*
Y160182D01*
X22135Y160265D01*
X23192Y160703D01*
X24100Y161400D01*
X24797Y162308D01*
X25235Y163365D01*
X25318Y164000D01*
D02*
G37*
G36*
X21000Y225200D02*
X19969Y225064D01*
X19008Y224667D01*
X18183Y224033D01*
X17550Y223208D01*
X17152Y222248D01*
X17016Y221217D01*
X17152Y220185D01*
X17550Y219225D01*
X18183Y218400D01*
X19008Y217767D01*
X19969Y217369D01*
X21000Y217233D01*
X21136Y217251D01*
X21463Y217249D01*
X22235Y217198D01*
X22546Y217156D01*
X22825Y217100D01*
X23063Y217035D01*
X23259Y216963D01*
X23412Y216889D01*
X23525Y216816D01*
X23530Y216812D01*
X26175Y214167D01*
Y181549D01*
X23570Y178944D01*
X23403Y178789D01*
X23269Y178681D01*
X23219Y178647D01*
X16854D01*
Y170353D01*
X25146D01*
Y176719D01*
X25175Y176760D01*
X25404Y177029D01*
X28437Y180063D01*
X28725Y180493D01*
X28826Y181000D01*
Y214717D01*
X28725Y215224D01*
X28437Y215654D01*
X25404Y218687D01*
X25400Y218692D01*
X25328Y218804D01*
X25253Y218958D01*
X25182Y219154D01*
X25117Y219392D01*
X25061Y219671D01*
X25018Y219981D01*
X24968Y220753D01*
X24966Y221081D01*
X24984Y221217D01*
X24848Y222248D01*
X24450Y223208D01*
X23817Y224033D01*
X22992Y224667D01*
X22031Y225064D01*
X21000Y225200D01*
D02*
G37*
G36*
X174000Y188490D02*
X173008Y188360D01*
X172084Y187977D01*
X171290Y187368D01*
X170681Y186574D01*
X170298Y185650D01*
X170167Y184658D01*
X170298Y183666D01*
X170681Y182741D01*
X171290Y181947D01*
X172084Y181338D01*
X173008Y180955D01*
X174000Y180825D01*
X174992Y180955D01*
X175916Y181338D01*
X176710Y181947D01*
X177319Y182741D01*
X177702Y183666D01*
X177833Y184658D01*
X177702Y185650D01*
X177319Y186574D01*
X176710Y187368D01*
X175916Y187977D01*
X174992Y188360D01*
X174000Y188490D01*
D02*
G37*
G36*
X21000Y189767D02*
X19969Y189631D01*
X19008Y189233D01*
X18183Y188600D01*
X17550Y187775D01*
X17152Y186814D01*
X17016Y185784D01*
X17034Y185648D01*
X17032Y185320D01*
X16982Y184548D01*
X16939Y184238D01*
X16883Y183959D01*
X16818Y183721D01*
X16747Y183525D01*
X16672Y183371D01*
X16600Y183258D01*
X16596Y183254D01*
X13063Y179721D01*
X12775Y179291D01*
X12675Y178784D01*
Y158000D01*
X12775Y157493D01*
X13063Y157063D01*
X16556Y153570D01*
X16711Y153403D01*
X16819Y153269D01*
X16854Y153219D01*
Y146853D01*
X25146D01*
Y149674D01*
X30451D01*
X35556Y144570D01*
X35711Y144403D01*
X35819Y144269D01*
X35854Y144219D01*
Y140098D01*
X35850Y140080D01*
X35854Y140061D01*
Y139784D01*
X35820Y139736D01*
X35593Y139468D01*
X29063Y132937D01*
X28775Y132507D01*
X28675Y132000D01*
Y116000D01*
X28775Y115493D01*
X29063Y115063D01*
X37563Y106563D01*
X37993Y106275D01*
X38500Y106175D01*
X81451D01*
X93867Y93758D01*
X93879Y93745D01*
X93955Y93624D01*
X94034Y93457D01*
X94111Y93244D01*
X94179Y92984D01*
X94238Y92680D01*
X94283Y92341D01*
X94335Y91504D01*
X94337Y91149D01*
X94318Y91000D01*
X94337Y90851D01*
X94335Y90496D01*
X94283Y89659D01*
X94238Y89320D01*
X94179Y89016D01*
X94111Y88756D01*
X94034Y88543D01*
X93955Y88376D01*
X93879Y88255D01*
X93867Y88242D01*
X90951Y85325D01*
X72000D01*
X71493Y85225D01*
X71063Y84937D01*
X62831Y76705D01*
X62543Y76275D01*
X62442Y75768D01*
Y51191D01*
X53388Y42136D01*
X53350Y42144D01*
X52616Y41998D01*
X51993Y41582D01*
X51577Y40959D01*
X51431Y40224D01*
X51577Y39490D01*
X51993Y38867D01*
X52616Y38451D01*
X53350Y38305D01*
X54085Y38451D01*
X54708Y38867D01*
X55124Y39490D01*
X55270Y40224D01*
X55263Y40262D01*
X64705Y49705D01*
X64992Y50134D01*
X65093Y50642D01*
X65093Y50642D01*
Y75219D01*
X72549Y82674D01*
X91500D01*
X92007Y82775D01*
X92437Y83063D01*
X95742Y86367D01*
X95755Y86379D01*
X95876Y86455D01*
X96043Y86534D01*
X96256Y86611D01*
X96516Y86679D01*
X96820Y86738D01*
X97159Y86783D01*
X97996Y86835D01*
X98352Y86837D01*
X98500Y86818D01*
X99582Y86960D01*
X100591Y87378D01*
X101457Y88043D01*
X102122Y88909D01*
X102540Y89918D01*
X102682Y91000D01*
X102540Y92082D01*
X102122Y93091D01*
X101457Y93957D01*
X100591Y94622D01*
X99582Y95040D01*
X98500Y95182D01*
X98352Y95163D01*
X97996Y95165D01*
X97159Y95217D01*
X96820Y95262D01*
X96516Y95321D01*
X96256Y95389D01*
X96043Y95466D01*
X95876Y95545D01*
X95755Y95621D01*
X95742Y95633D01*
X82937Y108437D01*
X82507Y108725D01*
X82000Y108826D01*
X39049D01*
X31326Y116549D01*
Y131451D01*
X37426Y137551D01*
X37595Y137708D01*
X37727Y137814D01*
X37784Y137854D01*
X38061D01*
X38080Y137850D01*
X38098Y137854D01*
X41902D01*
X41920Y137850D01*
X41939Y137854D01*
X42216D01*
X42264Y137820D01*
X42533Y137593D01*
X53063Y127063D01*
X53493Y126775D01*
X54000Y126674D01*
X114451D01*
X123674Y117451D01*
Y96284D01*
X123775Y95776D01*
X124063Y95346D01*
X129596Y89813D01*
X129600Y89808D01*
X129672Y89696D01*
X129746Y89542D01*
X129818Y89346D01*
X129883Y89108D01*
X129939Y88829D01*
X129982Y88519D01*
X130032Y87747D01*
X130034Y87419D01*
X130016Y87283D01*
X130152Y86252D01*
X130550Y85292D01*
X131183Y84467D01*
X132008Y83833D01*
X132969Y83435D01*
X134000Y83300D01*
X135031Y83435D01*
X135992Y83833D01*
X136817Y84467D01*
X137450Y85292D01*
X137848Y86252D01*
X137984Y87283D01*
X137966Y87419D01*
X137968Y87747D01*
X138018Y88519D01*
X138061Y88829D01*
X138117Y89108D01*
X138182Y89346D01*
X138253Y89542D01*
X138328Y89696D01*
X138400Y89808D01*
X138404Y89813D01*
X143266Y94674D01*
X199451D01*
X208675Y85451D01*
Y85226D01*
X208673Y85209D01*
X208642Y85069D01*
X208580Y84895D01*
X208483Y84690D01*
X208348Y84458D01*
X208174Y84202D01*
X207967Y83930D01*
X207411Y83301D01*
X207162Y83048D01*
X207043Y82957D01*
X206378Y82091D01*
X205960Y81082D01*
X205818Y80000D01*
X205960Y78918D01*
X206378Y77909D01*
X207043Y77043D01*
X207909Y76378D01*
X208918Y75960D01*
X210000Y75818D01*
X211082Y75960D01*
X212091Y76378D01*
X212957Y77043D01*
X213622Y77909D01*
X214040Y78918D01*
X214182Y80000D01*
X214040Y81082D01*
X213622Y82091D01*
X212957Y82957D01*
X212838Y83048D01*
X212589Y83301D01*
X212033Y83930D01*
X211825Y84202D01*
X211652Y84458D01*
X211517Y84690D01*
X211420Y84895D01*
X211358Y85069D01*
X211327Y85209D01*
X211326Y85226D01*
Y86000D01*
X211225Y86507D01*
X210937Y86937D01*
X200937Y96937D01*
X200507Y97225D01*
X200000Y97325D01*
X142717D01*
X142209Y97225D01*
X141779Y96937D01*
X136530Y91688D01*
X136525Y91684D01*
X136412Y91611D01*
X136259Y91537D01*
X136063Y91465D01*
X135825Y91400D01*
X135546Y91344D01*
X135235Y91302D01*
X134463Y91251D01*
X134135Y91249D01*
X134000Y91267D01*
X133864Y91249D01*
X133537Y91251D01*
X132765Y91302D01*
X132455Y91344D01*
X132175Y91400D01*
X131937Y91465D01*
X131741Y91537D01*
X131588Y91611D01*
X131475Y91684D01*
X131470Y91688D01*
X126326Y96833D01*
Y118000D01*
X126225Y118507D01*
X125937Y118937D01*
X115937Y128937D01*
X115507Y129225D01*
X115000Y129325D01*
X54549D01*
X44449Y139426D01*
X44292Y139594D01*
X44186Y139727D01*
X44146Y139784D01*
Y140061D01*
X44150Y140080D01*
X44146Y140098D01*
Y146147D01*
X37781D01*
X37740Y146175D01*
X37471Y146404D01*
X31937Y151937D01*
X31507Y152225D01*
X31000Y152325D01*
X25146D01*
Y155147D01*
X18781D01*
X18740Y155175D01*
X18471Y155404D01*
X15326Y158549D01*
Y178234D01*
X18470Y181379D01*
X18475Y181383D01*
X18588Y181456D01*
X18741Y181530D01*
X18937Y181602D01*
X19175Y181667D01*
X19455Y181722D01*
X19765Y181765D01*
X20537Y181815D01*
X20864Y181818D01*
X21000Y181800D01*
X22031Y181936D01*
X22992Y182334D01*
X23817Y182967D01*
X24450Y183792D01*
X24848Y184752D01*
X24984Y185784D01*
X24848Y186814D01*
X24450Y187775D01*
X23817Y188600D01*
X22992Y189233D01*
X22031Y189631D01*
X21000Y189767D01*
D02*
G37*
G36*
X189114Y188721D02*
X187929Y188565D01*
X186825Y188108D01*
X185876Y187380D01*
X185148Y186431D01*
X184691Y185327D01*
X184535Y184142D01*
X184691Y182957D01*
X185148Y181852D01*
X185876Y180904D01*
X186825Y180176D01*
X187929Y179718D01*
X189114Y179562D01*
X190299Y179718D01*
X191404Y180176D01*
X192352Y180904D01*
X193080Y181852D01*
X193537Y182957D01*
X193693Y184142D01*
X193537Y185327D01*
X193080Y186431D01*
X192352Y187380D01*
X191404Y188108D01*
X190299Y188565D01*
X189114Y188721D01*
D02*
G37*
G36*
X215886D02*
X214701Y188565D01*
X213596Y188108D01*
X212648Y187380D01*
X211920Y186431D01*
X211462Y185327D01*
X211307Y184142D01*
X211462Y182957D01*
X211920Y181852D01*
X212648Y180904D01*
X213596Y180176D01*
X214701Y179718D01*
X215886Y179562D01*
X217071Y179718D01*
X218176Y180176D01*
X219124Y180904D01*
X219852Y181852D01*
X220309Y182957D01*
X220465Y184142D01*
X220309Y185327D01*
X219852Y186431D01*
X219124Y187380D01*
X218176Y188108D01*
X217071Y188565D01*
X215886Y188721D01*
D02*
G37*
G36*
X149500Y146318D02*
X148865Y146235D01*
X147808Y145797D01*
X146900Y145100D01*
X146203Y144192D01*
X145765Y143135D01*
X145682Y142500D01*
X149500D01*
Y146318D01*
D02*
G37*
G36*
X150500D02*
Y142500D01*
X154318D01*
X154235Y143135D01*
X153797Y144192D01*
X153100Y145100D01*
X152192Y145797D01*
X151135Y146235D01*
X150500Y146318D01*
D02*
G37*
G36*
X150000Y206182D02*
X148918Y206040D01*
X147909Y205622D01*
X147043Y204957D01*
X146378Y204091D01*
X145960Y203082D01*
X145818Y202000D01*
X145960Y200918D01*
X146378Y199909D01*
X147043Y199043D01*
X147909Y198378D01*
X148918Y197960D01*
X150000Y197818D01*
X151082Y197960D01*
X152091Y198378D01*
X152957Y199043D01*
X153622Y199909D01*
X154040Y200918D01*
X154182Y202000D01*
X154040Y203082D01*
X153622Y204091D01*
X152957Y204957D01*
X152091Y205622D01*
X151082Y206040D01*
X150000Y206182D01*
D02*
G37*
G36*
X21500Y145318D02*
Y141500D01*
X25318D01*
X25235Y142135D01*
X24797Y143192D01*
X24100Y144100D01*
X23192Y144797D01*
X22135Y145235D01*
X21500Y145318D01*
D02*
G37*
G36*
X177969Y203842D02*
X174500D01*
Y200374D01*
X175044Y200446D01*
X176017Y200849D01*
X176853Y201490D01*
X177494Y202325D01*
X177897Y203298D01*
X177969Y203842D01*
D02*
G37*
G36*
X173500D02*
X170031D01*
X170103Y203298D01*
X170506Y202325D01*
X171147Y201490D01*
X171983Y200849D01*
X172956Y200446D01*
X173500Y200374D01*
Y203842D01*
D02*
G37*
G36*
X20500Y145318D02*
X19865Y145235D01*
X18808Y144797D01*
X17900Y144100D01*
X17203Y143192D01*
X16765Y142135D01*
X16682Y141500D01*
X20500D01*
Y145318D01*
D02*
G37*
G36*
X140000Y206182D02*
X138918Y206040D01*
X137909Y205622D01*
X137043Y204957D01*
X136378Y204091D01*
X135960Y203082D01*
X135818Y202000D01*
X135960Y200918D01*
X136378Y199909D01*
X137043Y199043D01*
X137909Y198378D01*
X138918Y197960D01*
X140000Y197818D01*
X141082Y197960D01*
X142091Y198378D01*
X142957Y199043D01*
X143622Y199909D01*
X144040Y200918D01*
X144182Y202000D01*
X144040Y203082D01*
X143622Y204091D01*
X142957Y204957D01*
X142091Y205622D01*
X141082Y206040D01*
X140000Y206182D01*
D02*
G37*
G36*
X80000D02*
X78918Y206040D01*
X77909Y205622D01*
X77043Y204957D01*
X76378Y204091D01*
X75960Y203082D01*
X75818Y202000D01*
X75960Y200918D01*
X76378Y199909D01*
X77043Y199043D01*
X77909Y198378D01*
X78918Y197960D01*
X80000Y197818D01*
X80149Y197837D01*
X80504Y197835D01*
X81341Y197783D01*
X81680Y197738D01*
X81984Y197679D01*
X82244Y197610D01*
X82457Y197534D01*
X82623Y197455D01*
X82745Y197379D01*
X82758Y197367D01*
X87063Y193063D01*
X87493Y192775D01*
X88000Y192675D01*
X139951D01*
X168813Y163813D01*
X169243Y163525D01*
X169750Y163425D01*
X182201D01*
X185867Y159758D01*
X185879Y159745D01*
X185955Y159624D01*
X186034Y159457D01*
X186110Y159244D01*
X186179Y158984D01*
X186238Y158680D01*
X186283Y158341D01*
X186335Y157504D01*
X186337Y157149D01*
X186318Y157000D01*
X186460Y155918D01*
X186878Y154909D01*
X187543Y154043D01*
X188409Y153378D01*
X189418Y152960D01*
X190500Y152818D01*
X191582Y152960D01*
X192591Y153378D01*
X193457Y154043D01*
X194122Y154909D01*
X194540Y155918D01*
X194682Y157000D01*
X194540Y158082D01*
X194122Y159091D01*
X193457Y159957D01*
X192591Y160622D01*
X191582Y161040D01*
X190500Y161182D01*
X190351Y161163D01*
X189996Y161165D01*
X189159Y161217D01*
X188820Y161262D01*
X188516Y161321D01*
X188256Y161390D01*
X188043Y161466D01*
X187876Y161545D01*
X187755Y161621D01*
X187742Y161633D01*
X183687Y165687D01*
X183257Y165975D01*
X182750Y166076D01*
X170299D01*
X141437Y194937D01*
X141007Y195225D01*
X140500Y195326D01*
X88549D01*
X84633Y199242D01*
X84621Y199255D01*
X84545Y199376D01*
X84466Y199543D01*
X84390Y199756D01*
X84321Y200016D01*
X84262Y200320D01*
X84217Y200659D01*
X84165Y201496D01*
X84163Y201852D01*
X84182Y202000D01*
X84040Y203082D01*
X83622Y204091D01*
X82957Y204957D01*
X82091Y205622D01*
X81082Y206040D01*
X80000Y206182D01*
D02*
G37*
G36*
X120000D02*
X118918Y206040D01*
X117909Y205622D01*
X117043Y204957D01*
X116378Y204091D01*
X115960Y203082D01*
X115818Y202000D01*
X115960Y200918D01*
X116378Y199909D01*
X117043Y199043D01*
X117909Y198378D01*
X118918Y197960D01*
X120000Y197818D01*
X121082Y197960D01*
X122091Y198378D01*
X122957Y199043D01*
X123622Y199909D01*
X124040Y200918D01*
X124182Y202000D01*
X124040Y203082D01*
X123622Y204091D01*
X122957Y204957D01*
X122091Y205622D01*
X121082Y206040D01*
X120000Y206182D01*
D02*
G37*
G36*
X130000D02*
X128918Y206040D01*
X127909Y205622D01*
X127043Y204957D01*
X126378Y204091D01*
X125960Y203082D01*
X125818Y202000D01*
X125960Y200918D01*
X126378Y199909D01*
X127043Y199043D01*
X127909Y198378D01*
X128918Y197960D01*
X130000Y197818D01*
X131082Y197960D01*
X132091Y198378D01*
X132957Y199043D01*
X133622Y199909D01*
X134040Y200918D01*
X134182Y202000D01*
X134040Y203082D01*
X133622Y204091D01*
X132957Y204957D01*
X132091Y205622D01*
X131082Y206040D01*
X130000Y206182D01*
D02*
G37*
G36*
X70000D02*
X68918Y206040D01*
X67909Y205622D01*
X67043Y204957D01*
X66378Y204091D01*
X65960Y203082D01*
X65818Y202000D01*
X65960Y200918D01*
X66378Y199909D01*
X67043Y199043D01*
X67909Y198378D01*
X68918Y197960D01*
X70000Y197818D01*
X70148Y197837D01*
X70504Y197835D01*
X71341Y197783D01*
X71680Y197738D01*
X71984Y197679D01*
X72244Y197610D01*
X72457Y197534D01*
X72623Y197455D01*
X72745Y197379D01*
X72758Y197367D01*
X82563Y187563D01*
X82993Y187275D01*
X83500Y187174D01*
X136451D01*
X167563Y156063D01*
X167993Y155775D01*
X168500Y155675D01*
X175274D01*
X175291Y155673D01*
X175431Y155641D01*
X175605Y155580D01*
X175810Y155483D01*
X176042Y155348D01*
X176298Y155175D01*
X176570Y154967D01*
X177199Y154411D01*
X177452Y154162D01*
X177543Y154043D01*
X178409Y153378D01*
X179418Y152960D01*
X180500Y152818D01*
X181582Y152960D01*
X182591Y153378D01*
X183457Y154043D01*
X184122Y154909D01*
X184540Y155918D01*
X184682Y157000D01*
X184540Y158082D01*
X184122Y159091D01*
X183457Y159957D01*
X182591Y160622D01*
X181582Y161040D01*
X180500Y161182D01*
X179418Y161040D01*
X178409Y160622D01*
X177543Y159957D01*
X177452Y159838D01*
X177199Y159589D01*
X176570Y159033D01*
X176298Y158826D01*
X176042Y158652D01*
X175810Y158517D01*
X175605Y158420D01*
X175431Y158359D01*
X175291Y158327D01*
X175274Y158326D01*
X169049D01*
X137937Y189437D01*
X137507Y189725D01*
X137000Y189825D01*
X84049D01*
X74633Y199242D01*
X74621Y199255D01*
X74545Y199376D01*
X74466Y199543D01*
X74389Y199756D01*
X74321Y200016D01*
X74262Y200320D01*
X74217Y200659D01*
X74165Y201496D01*
X74163Y201852D01*
X74182Y202000D01*
X74040Y203082D01*
X73622Y204091D01*
X72957Y204957D01*
X72091Y205622D01*
X71082Y206040D01*
X70000Y206182D01*
D02*
G37*
%LPD*%
G36*
X63349Y141468D02*
X63405Y140579D01*
X63457Y140189D01*
X63525Y139833D01*
X63610Y139514D01*
X63711Y139230D01*
X63829Y138983D01*
X63963Y138770D01*
X64113Y138594D01*
X63406Y137887D01*
X63230Y138037D01*
X63017Y138171D01*
X62770Y138289D01*
X62486Y138390D01*
X62167Y138475D01*
X61811Y138543D01*
X61421Y138595D01*
X60532Y138651D01*
X60034Y138654D01*
X63346Y141966D01*
X63349Y141468D01*
D02*
G37*
G36*
X130987Y126461D02*
X131189Y126331D01*
X131422Y126218D01*
X131689Y126121D01*
X131988Y126039D01*
X132319Y125973D01*
X132683Y125923D01*
X133507Y125869D01*
X133968Y125866D01*
X130851Y122748D01*
X130848Y123209D01*
X130794Y124034D01*
X130744Y124398D01*
X130678Y124729D01*
X130596Y125028D01*
X130498Y125294D01*
X130385Y125528D01*
X130256Y125729D01*
X130111Y125898D01*
X130818Y126605D01*
X130987Y126461D01*
D02*
G37*
G36*
X73349Y141468D02*
X73405Y140579D01*
X73457Y140189D01*
X73525Y139833D01*
X73610Y139514D01*
X73711Y139230D01*
X73829Y138983D01*
X73963Y138770D01*
X74113Y138594D01*
X73406Y137887D01*
X73230Y138037D01*
X73017Y138171D01*
X72770Y138289D01*
X72486Y138390D01*
X72167Y138475D01*
X71811Y138543D01*
X71421Y138595D01*
X70532Y138651D01*
X70034Y138654D01*
X73346Y141966D01*
X73349Y141468D01*
D02*
G37*
G36*
X168012Y131259D02*
X168050Y131062D01*
X168113Y130860D01*
X168200Y130653D01*
X168313Y130439D01*
X168450Y130220D01*
X168613Y129995D01*
X168800Y129764D01*
X169250Y129285D01*
X165750D01*
X165988Y129527D01*
X166387Y129995D01*
X166550Y130220D01*
X166688Y130439D01*
X166800Y130653D01*
X166887Y130860D01*
X166950Y131062D01*
X166988Y131259D01*
X167000Y131449D01*
X168000D01*
X168012Y131259D01*
D02*
G37*
G36*
X181018Y132086D02*
X181074Y131841D01*
X181166Y131583D01*
X181295Y131310D01*
X181461Y131025D01*
X181663Y130725D01*
X181903Y130412D01*
X182492Y129744D01*
X182843Y129390D01*
X178157D01*
X178508Y129744D01*
X179097Y130412D01*
X179337Y130725D01*
X179539Y131025D01*
X179705Y131310D01*
X179834Y131583D01*
X179926Y131841D01*
X179982Y132086D01*
X180000Y132317D01*
X181000D01*
X181018Y132086D01*
D02*
G37*
G36*
X53349Y201468D02*
X53404Y200579D01*
X53457Y200189D01*
X53525Y199833D01*
X53610Y199514D01*
X53711Y199230D01*
X53829Y198983D01*
X53963Y198770D01*
X54113Y198594D01*
X53406Y197887D01*
X53230Y198037D01*
X53017Y198171D01*
X52770Y198289D01*
X52486Y198390D01*
X52166Y198475D01*
X51811Y198543D01*
X51421Y198595D01*
X50532Y198651D01*
X50033Y198654D01*
X53346Y201967D01*
X53349Y201468D01*
D02*
G37*
G36*
X206242Y19035D02*
X206061Y18820D01*
X205909Y18566D01*
X205787Y18274D01*
X205694Y17944D01*
X205630Y17575D01*
X205596Y17168D01*
X205591Y16722D01*
X205615Y16238D01*
X205752Y15154D01*
X201294Y18395D01*
X201946Y18497D01*
X204024Y18954D01*
X204410Y19080D01*
X204743Y19210D01*
X205022Y19345D01*
X205249Y19485D01*
X205422Y19629D01*
X206242Y19035D01*
D02*
G37*
G36*
X213278Y108002D02*
X213250Y107910D01*
Y107804D01*
X213278Y107684D01*
X213334Y107549D01*
X213419Y107401D01*
X213532Y107238D01*
X213674Y107062D01*
X214042Y106666D01*
X213334Y105958D01*
X213129Y106156D01*
X212762Y106468D01*
X212599Y106581D01*
X212451Y106666D01*
X212316Y106722D01*
X212196Y106750D01*
X212090D01*
X211998Y106722D01*
X211920Y106666D01*
X213334Y108080D01*
X213278Y108002D01*
D02*
G37*
G36*
X206678Y109000D02*
X206667Y109095D01*
X206637Y109180D01*
X206587Y109255D01*
X206516Y109320D01*
X206424Y109375D01*
X206313Y109420D01*
X206182Y109455D01*
X206030Y109480D01*
X205858Y109495D01*
X205665Y109500D01*
Y110500D01*
X205858Y110505D01*
X206030Y110520D01*
X206182Y110545D01*
X206313Y110580D01*
X206424Y110625D01*
X206516Y110680D01*
X206587Y110745D01*
X206637Y110820D01*
X206667Y110905D01*
X206678Y111000D01*
Y109000D01*
D02*
G37*
G36*
X202744Y111992D02*
X203412Y111403D01*
X203725Y111163D01*
X204025Y110961D01*
X204310Y110795D01*
X204583Y110666D01*
X204841Y110574D01*
X205086Y110518D01*
X205317Y110500D01*
Y109500D01*
X205086Y109482D01*
X204841Y109426D01*
X204583Y109334D01*
X204310Y109205D01*
X204025Y109039D01*
X203725Y108837D01*
X203412Y108597D01*
X202744Y108008D01*
X202390Y107658D01*
Y112343D01*
X202744Y111992D01*
D02*
G37*
G36*
X101778Y119002D02*
X101750Y118910D01*
Y118804D01*
X101778Y118684D01*
X101834Y118549D01*
X101919Y118401D01*
X102032Y118238D01*
X102174Y118061D01*
X102542Y117666D01*
X101834Y116958D01*
X101629Y117156D01*
X101262Y117468D01*
X101099Y117581D01*
X100951Y117666D01*
X100816Y117722D01*
X100696Y117750D01*
X100590D01*
X100498Y117722D01*
X100420Y117666D01*
X101834Y119080D01*
X101778Y119002D01*
D02*
G37*
G36*
X91849Y120468D02*
X91904Y119579D01*
X91957Y119189D01*
X92025Y118833D01*
X92110Y118514D01*
X92211Y118230D01*
X92329Y117983D01*
X92463Y117770D01*
X92613Y117594D01*
X91906Y116887D01*
X91730Y117037D01*
X91517Y117171D01*
X91270Y117289D01*
X90986Y117390D01*
X90667Y117475D01*
X90311Y117543D01*
X89921Y117596D01*
X89032Y117651D01*
X88534Y117654D01*
X91846Y120966D01*
X91849Y120468D01*
D02*
G37*
G36*
X111175Y58751D02*
X111098Y58660D01*
X111003Y58521D01*
X110889Y58333D01*
X110438Y57484D01*
X109576Y55681D01*
X108159Y59800D01*
X108500Y59638D01*
X108826Y59512D01*
X109134Y59423D01*
X109426Y59371D01*
X109701Y59355D01*
X109960Y59375D01*
X110203Y59432D01*
X110429Y59525D01*
X110638Y59655D01*
X110830Y59821D01*
X111175Y58751D01*
D02*
G37*
G36*
X74436Y56507D02*
X74489Y55682D01*
X74540Y55319D01*
X74606Y54988D01*
X74688Y54689D01*
X74785Y54422D01*
X74898Y54189D01*
X75027Y53987D01*
X75172Y53818D01*
X74465Y53111D01*
X74296Y53256D01*
X74095Y53385D01*
X73861Y53498D01*
X73595Y53596D01*
X73296Y53678D01*
X72965Y53744D01*
X72601Y53794D01*
X71776Y53847D01*
X71315Y53851D01*
X74433Y56968D01*
X74436Y56507D01*
D02*
G37*
G36*
X24152Y220724D02*
X24206Y219899D01*
X24256Y219535D01*
X24322Y219204D01*
X24404Y218905D01*
X24502Y218639D01*
X24615Y218405D01*
X24744Y218204D01*
X24889Y218035D01*
X24182Y217328D01*
X24013Y217473D01*
X23811Y217602D01*
X23578Y217715D01*
X23311Y217812D01*
X23012Y217894D01*
X22681Y217960D01*
X22318Y218011D01*
X21493Y218064D01*
X21032Y218067D01*
X24149Y221185D01*
X24152Y220724D01*
D02*
G37*
G36*
X25042Y177834D02*
X24842Y177628D01*
X24529Y177259D01*
X24415Y177096D01*
X24329Y176948D01*
X24271Y176813D01*
X24241Y176693D01*
X24240Y176588D01*
X24267Y176497D01*
X24322Y176420D01*
X22920Y177822D01*
X22997Y177767D01*
X23088Y177740D01*
X23193Y177741D01*
X23313Y177771D01*
X23448Y177828D01*
X23596Y177915D01*
X23759Y178029D01*
X23936Y178172D01*
X24335Y178542D01*
X25042Y177834D01*
D02*
G37*
G36*
X17872Y154842D02*
X18241Y154529D01*
X18404Y154414D01*
X18552Y154328D01*
X18687Y154271D01*
X18807Y154241D01*
X18912Y154240D01*
X19003Y154267D01*
X19080Y154323D01*
X17677Y152920D01*
X17733Y152997D01*
X17760Y153088D01*
X17759Y153193D01*
X17729Y153313D01*
X17672Y153448D01*
X17585Y153596D01*
X17471Y153759D01*
X17328Y153937D01*
X16958Y154334D01*
X17665Y155042D01*
X17872Y154842D01*
D02*
G37*
G36*
X43278Y140002D02*
X43250Y139910D01*
Y139804D01*
X43278Y139684D01*
X43334Y139549D01*
X43419Y139401D01*
X43532Y139238D01*
X43674Y139061D01*
X44042Y138666D01*
X43334Y137958D01*
X43129Y138156D01*
X42762Y138468D01*
X42599Y138581D01*
X42451Y138666D01*
X42316Y138722D01*
X42196Y138750D01*
X42090D01*
X41998Y138722D01*
X41920Y138666D01*
X43334Y140080D01*
X43278Y140002D01*
D02*
G37*
G36*
X24333Y151905D02*
X24363Y151820D01*
X24414Y151745D01*
X24484Y151680D01*
X24576Y151625D01*
X24687Y151580D01*
X24818Y151545D01*
X24970Y151520D01*
X25142Y151505D01*
X25335Y151500D01*
Y150500D01*
X25142Y150495D01*
X24970Y150480D01*
X24818Y150455D01*
X24687Y150420D01*
X24576Y150375D01*
X24484Y150320D01*
X24414Y150255D01*
X24363Y150180D01*
X24333Y150095D01*
X24322Y150000D01*
Y152000D01*
X24333Y151905D01*
D02*
G37*
G36*
X36872Y145842D02*
X37241Y145529D01*
X37404Y145414D01*
X37552Y145328D01*
X37687Y145271D01*
X37806Y145241D01*
X37912Y145240D01*
X38003Y145267D01*
X38080Y145323D01*
X36678Y143920D01*
X36733Y143997D01*
X36760Y144088D01*
X36759Y144193D01*
X36729Y144313D01*
X36672Y144448D01*
X36586Y144596D01*
X36471Y144759D01*
X36329Y144937D01*
X35958Y145334D01*
X36666Y146042D01*
X36872Y145842D01*
D02*
G37*
G36*
X38080Y138666D02*
X38002Y138722D01*
X37910Y138750D01*
X37804D01*
X37684Y138722D01*
X37549Y138666D01*
X37401Y138581D01*
X37238Y138468D01*
X37062Y138326D01*
X36666Y137958D01*
X35958Y138666D01*
X36156Y138871D01*
X36468Y139238D01*
X36581Y139401D01*
X36666Y139549D01*
X36722Y139684D01*
X36750Y139804D01*
Y139910D01*
X36722Y140002D01*
X36666Y140080D01*
X38080Y138666D01*
D02*
G37*
G36*
X95270Y94963D02*
X95483Y94829D01*
X95730Y94711D01*
X96014Y94610D01*
X96333Y94525D01*
X96689Y94457D01*
X97079Y94405D01*
X97968Y94349D01*
X98466Y94346D01*
X95154Y91034D01*
X95151Y91532D01*
X95095Y92421D01*
X95043Y92811D01*
X94975Y93167D01*
X94890Y93486D01*
X94789Y93770D01*
X94671Y94017D01*
X94537Y94230D01*
X94387Y94406D01*
X95094Y95113D01*
X95270Y94963D01*
D02*
G37*
G36*
X98466Y87654D02*
X97968Y87651D01*
X97079Y87595D01*
X96689Y87543D01*
X96333Y87475D01*
X96014Y87390D01*
X95730Y87289D01*
X95483Y87171D01*
X95270Y87037D01*
X95094Y86887D01*
X94387Y87594D01*
X94537Y87770D01*
X94671Y87983D01*
X94789Y88230D01*
X94890Y88514D01*
X94975Y88833D01*
X95043Y89189D01*
X95095Y89579D01*
X95151Y90468D01*
X95154Y90966D01*
X98466Y87654D01*
D02*
G37*
G36*
X130987Y91027D02*
X131189Y90898D01*
X131422Y90785D01*
X131689Y90688D01*
X131988Y90606D01*
X132319Y90540D01*
X132683Y90489D01*
X133507Y90436D01*
X133968Y90433D01*
X130851Y87315D01*
X130848Y87776D01*
X130794Y88601D01*
X130744Y88965D01*
X130678Y89296D01*
X130596Y89595D01*
X130498Y89861D01*
X130385Y90095D01*
X130256Y90296D01*
X130111Y90465D01*
X130818Y91172D01*
X130987Y91027D01*
D02*
G37*
G36*
X137889Y90465D02*
X137744Y90296D01*
X137615Y90095D01*
X137502Y89861D01*
X137404Y89595D01*
X137322Y89296D01*
X137256Y88965D01*
X137206Y88601D01*
X137153Y87776D01*
X137150Y87315D01*
X134031Y90433D01*
X134493Y90436D01*
X135318Y90489D01*
X135681Y90540D01*
X136012Y90606D01*
X136311Y90688D01*
X136578Y90785D01*
X136811Y90898D01*
X137013Y91027D01*
X137182Y91172D01*
X137889Y90465D01*
D02*
G37*
G36*
X210518Y85086D02*
X210574Y84841D01*
X210666Y84583D01*
X210795Y84310D01*
X210961Y84025D01*
X211163Y83725D01*
X211403Y83412D01*
X211992Y82744D01*
X212343Y82390D01*
X207658D01*
X208008Y82744D01*
X208597Y83412D01*
X208837Y83725D01*
X209039Y84025D01*
X209205Y84310D01*
X209334Y84583D01*
X209426Y84841D01*
X209482Y85086D01*
X209500Y85317D01*
X210500D01*
X210518Y85086D01*
D02*
G37*
G36*
X20968Y182634D02*
X20507Y182631D01*
X19682Y182578D01*
X19319Y182527D01*
X18988Y182461D01*
X18689Y182379D01*
X18422Y182282D01*
X18189Y182168D01*
X17987Y182039D01*
X17818Y181895D01*
X17111Y182602D01*
X17256Y182771D01*
X17385Y182972D01*
X17498Y183206D01*
X17596Y183472D01*
X17678Y183771D01*
X17744Y184102D01*
X17794Y184466D01*
X17848Y185291D01*
X17851Y185752D01*
X20968Y182634D01*
D02*
G37*
G36*
X54721Y40888D02*
X54647Y40811D01*
X54523Y40666D01*
X54472Y40597D01*
X54430Y40530D01*
X54395Y40466D01*
X54368Y40404D01*
X54349Y40345D01*
X54338Y40288D01*
X54335Y40234D01*
X53360Y41209D01*
X53414Y41212D01*
X53471Y41223D01*
X53530Y41242D01*
X53592Y41269D01*
X53656Y41304D01*
X53723Y41346D01*
X53792Y41397D01*
X53863Y41455D01*
X54014Y41595D01*
X54721Y40888D01*
D02*
G37*
G36*
X187270Y160963D02*
X187483Y160829D01*
X187730Y160711D01*
X188014Y160610D01*
X188333Y160525D01*
X188689Y160457D01*
X189079Y160405D01*
X189968Y160349D01*
X190466Y160346D01*
X187154Y157034D01*
X187151Y157532D01*
X187095Y158421D01*
X187043Y158811D01*
X186975Y159167D01*
X186890Y159486D01*
X186789Y159770D01*
X186671Y160017D01*
X186537Y160230D01*
X186387Y160406D01*
X187094Y161113D01*
X187270Y160963D01*
D02*
G37*
G36*
X83349Y201468D02*
X83404Y200579D01*
X83457Y200189D01*
X83525Y199833D01*
X83610Y199514D01*
X83711Y199230D01*
X83829Y198983D01*
X83963Y198770D01*
X84113Y198594D01*
X83406Y197887D01*
X83230Y198037D01*
X83017Y198171D01*
X82770Y198289D01*
X82486Y198390D01*
X82166Y198475D01*
X81811Y198543D01*
X81421Y198595D01*
X80532Y198651D01*
X80033Y198654D01*
X83346Y201967D01*
X83349Y201468D01*
D02*
G37*
G36*
X178110Y154657D02*
X177756Y155008D01*
X177088Y155597D01*
X176775Y155837D01*
X176475Y156039D01*
X176190Y156205D01*
X175917Y156334D01*
X175659Y156426D01*
X175414Y156482D01*
X175183Y156500D01*
Y157500D01*
X175414Y157518D01*
X175659Y157574D01*
X175917Y157666D01*
X176190Y157795D01*
X176475Y157961D01*
X176775Y158163D01*
X177088Y158403D01*
X177756Y158992D01*
X178110Y159343D01*
Y154657D01*
D02*
G37*
G36*
X73349Y201468D02*
X73405Y200579D01*
X73457Y200189D01*
X73525Y199833D01*
X73610Y199514D01*
X73711Y199230D01*
X73829Y198983D01*
X73963Y198770D01*
X74113Y198594D01*
X73406Y197887D01*
X73230Y198037D01*
X73017Y198171D01*
X72770Y198289D01*
X72486Y198390D01*
X72167Y198475D01*
X71811Y198543D01*
X71421Y198595D01*
X70532Y198651D01*
X70034Y198654D01*
X73346Y201967D01*
X73349Y201468D01*
D02*
G37*
D10*
X88500Y121000D02*
X113000Y96500D01*
Y61283D02*
Y96500D01*
X200000Y110000D02*
X210000D01*
X50000Y202000D02*
X69000Y183000D01*
X131500D01*
X180500Y134000D01*
Y127000D02*
Y134000D01*
X168500Y157000D02*
X180500D01*
X137000Y188500D02*
X168500Y157000D01*
X83500Y188500D02*
X137000D01*
X70000Y202000D02*
X83500Y188500D01*
X140500Y194000D02*
X169750Y164750D01*
X88000Y194000D02*
X140500D01*
X80000Y202000D02*
X88000Y194000D01*
X182750Y164750D02*
X190500Y157000D01*
X169750Y164750D02*
X182750D01*
X39000Y201000D02*
X40000Y202000D01*
X31000Y151000D02*
X40000Y142000D01*
X210000Y110000D02*
X218000Y102000D01*
X108716Y57000D02*
X113000Y61283D01*
X106717Y57000D02*
X108716D01*
X210000Y80000D02*
Y86000D01*
X200000Y96000D02*
X210000Y86000D01*
X142717Y96000D02*
X200000D01*
X134000Y87283D02*
X142717Y96000D01*
X125000Y96284D02*
X134000Y87283D01*
X125000Y96284D02*
Y118000D01*
X98500Y121000D02*
X120000Y99500D01*
Y61000D02*
Y99500D01*
X110000Y51000D02*
X120000Y61000D01*
X71284Y57000D02*
X77284Y51000D01*
X110000D01*
X91500Y84000D02*
X98500Y91000D01*
X72000Y84000D02*
X91500D01*
X30000Y116000D02*
X38500Y107500D01*
X30000Y116000D02*
Y132000D01*
X40000Y142000D01*
X167500Y127500D02*
Y132000D01*
X40000Y142000D02*
X54000Y128000D01*
X115000D01*
X125000Y118000D01*
X60000Y142000D02*
X70000Y132000D01*
X124716D01*
X134000Y122716D01*
X70000Y142000D02*
X76500Y135500D01*
X164000D01*
X167500Y132000D01*
X21000Y151000D02*
X31000D01*
X14000Y178784D02*
X21000Y185784D01*
X14000Y158000D02*
Y178784D01*
Y158000D02*
X21000Y151000D01*
Y221217D02*
X27500Y214717D01*
Y181000D02*
Y214717D01*
X21000Y174500D02*
X27500Y181000D01*
X63768Y75768D02*
X72000Y84000D01*
X201870Y14500D02*
Y15370D01*
X218000Y31500D01*
Y102000D01*
X63768Y50642D02*
Y75768D01*
X53350Y40224D02*
X63768Y50642D01*
X38500Y107500D02*
X82000D01*
X98500Y91000D01*
X37500Y202500D02*
X39000Y201000D01*
D11*
X215886Y201858D02*
D03*
Y184142D02*
D03*
X189114D02*
D03*
D12*
Y201858D02*
D03*
D13*
X206079Y238910D02*
D03*
X20882D02*
D03*
D14*
X178913Y233319D02*
D03*
X168008D02*
D03*
X157102D02*
D03*
X146197D02*
D03*
X135291D02*
D03*
X124386D02*
D03*
X113480D02*
D03*
X102575D02*
D03*
X91669D02*
D03*
X80764D02*
D03*
X69858D02*
D03*
X58953D02*
D03*
X48047D02*
D03*
X173461Y244500D02*
D03*
X162555D02*
D03*
X151650D02*
D03*
X140744D02*
D03*
X129839D02*
D03*
X118933D02*
D03*
X108028D02*
D03*
X97122D02*
D03*
X86216D02*
D03*
X75311D02*
D03*
X64406D02*
D03*
X53500D02*
D03*
D15*
X21800Y37900D02*
D03*
Y18215D02*
D03*
X174000Y184658D02*
D03*
Y204343D02*
D03*
X98843Y73000D02*
D03*
X79158D02*
D03*
D16*
X21000Y164500D02*
D03*
X210000Y80000D02*
D03*
X200000D02*
D03*
X190000D02*
D03*
X180000D02*
D03*
Y110000D02*
D03*
X190000D02*
D03*
X200000D02*
D03*
X210500Y127000D02*
D03*
X200500D02*
D03*
X190500D02*
D03*
X180500D02*
D03*
Y157000D02*
D03*
X190500D02*
D03*
X200500D02*
D03*
X50500Y218000D02*
D03*
X70000Y202000D02*
D03*
X40000D02*
D03*
X50000D02*
D03*
X60000D02*
D03*
X140000Y142000D02*
D03*
X150000D02*
D03*
Y202000D02*
D03*
X140000D02*
D03*
X130000D02*
D03*
X120000D02*
D03*
X110000D02*
D03*
X100000D02*
D03*
X90000D02*
D03*
X80000D02*
D03*
X130000Y142000D02*
D03*
X120000D02*
D03*
X110000D02*
D03*
X100000D02*
D03*
X90000D02*
D03*
X80000D02*
D03*
X70000D02*
D03*
X60000D02*
D03*
X50000D02*
D03*
X38500Y91000D02*
D03*
X48500D02*
D03*
X58500D02*
D03*
X68500D02*
D03*
X78500D02*
D03*
X88500D02*
D03*
X98500D02*
D03*
X38500Y121000D02*
D03*
X48500D02*
D03*
X58500D02*
D03*
X68500D02*
D03*
X78500D02*
D03*
X88500D02*
D03*
X21000Y141000D02*
D03*
D17*
Y174500D02*
D03*
X210000Y110000D02*
D03*
X210500Y157000D02*
D03*
X40000Y142000D02*
D03*
X98500Y121000D02*
D03*
X21000Y151000D02*
D03*
D18*
X137626Y68000D02*
D03*
X182937Y60000D02*
D03*
X201563D02*
D03*
D19*
X145500Y68000D02*
D03*
X175063Y60000D02*
D03*
X209437D02*
D03*
D20*
X182185Y14500D02*
D03*
X201870D02*
D03*
X162500D02*
D03*
D21*
X156500Y122216D02*
D03*
Y86783D02*
D03*
X134000Y87283D02*
D03*
Y122716D02*
D03*
X106717Y57000D02*
D03*
X71284D02*
D03*
X21000Y88784D02*
D03*
Y124216D02*
D03*
Y185784D02*
D03*
Y221217D02*
D03*
D22*
X60500Y218000D02*
D03*
D23*
X51949Y63000D02*
D03*
X33051D02*
D03*
D24*
X45083Y17980D02*
D03*
X74217D02*
D03*
D25*
X53350Y40224D02*
D03*
X56500Y35500D02*
D03*
X59650Y40224D02*
D03*
X62799Y35500D02*
D03*
X65949Y40224D02*
D03*
D26*
X125685Y40000D02*
D03*
X106000D02*
D03*
X135528D02*
D03*
X96157D02*
D03*
D27*
X115842Y20315D02*
D03*
D28*
X135528D02*
D03*
X96157D02*
D03*
Y10472D02*
D03*
X135528D02*
D03*
X115842Y40000D02*
D03*
D29*
X167500Y127500D02*
D03*
M02*
