G04 Layer_Color=65535*
%FSLAX25Y25*%
%MOIN*%
G70*
G01*
G75*
%ADD10C,0.01000*%
%ADD30C,0.01969*%
%ADD31C,0.00787*%
%ADD32C,0.01500*%
%ADD33C,0.02000*%
%ADD34C,0.00800*%
%ADD35C,0.03937*%
%ADD36C,0.02362*%
%ADD37C,0.00600*%
%ADD38C,0.01200*%
D10*
X25035Y162868D02*
X25853Y163441D01*
X26591Y164113D01*
X27238Y164874D01*
X27783Y165710D01*
X28217Y166609D01*
X28533Y167556D01*
X28727Y168536D01*
X28794Y169532D01*
X28735Y170528D01*
X28549Y171509D01*
X28240Y172459D01*
X27813Y173361D01*
X27275Y174202D01*
X26634Y174968D01*
X25901Y175646D01*
X25088Y176225D01*
X24208Y176697D01*
X23275Y177052D01*
X22305Y177287D01*
X21312Y177396D01*
X20314Y177378D01*
X19326Y177234D01*
X18365Y176965D01*
X17445Y176576D01*
X16583Y176073D01*
X15791Y175465D01*
X15083Y174761D01*
X14470Y173973D01*
X13962Y173114D01*
X13567Y172197D01*
X13293Y171237D01*
X13142Y170250D01*
X13118Y169252D01*
X13221Y168259D01*
X13449Y167287D01*
X13799Y166352D01*
X14265Y165469D01*
X14840Y164652D01*
X15513Y163915D01*
X16275Y163270D01*
X17112Y162726D01*
X210000Y95000D02*
X210147Y94073D01*
X210573Y93237D01*
X211237Y92573D01*
X212073Y92147D01*
X213000Y92000D01*
Y98000D02*
X212073Y97853D01*
X211237Y97427D01*
X210573Y96763D01*
X210147Y95927D01*
X210000Y95000D01*
X210500Y142000D02*
X210647Y141073D01*
X211073Y140237D01*
X211737Y139573D01*
X212573Y139147D01*
X213500Y139000D01*
Y145000D02*
X212573Y144853D01*
X211737Y144427D01*
X211073Y143763D01*
X210647Y142927D01*
X210500Y142000D01*
X216500Y189000D02*
Y197000D01*
X188500Y189000D02*
Y197000D01*
X193500Y182000D02*
X211500D01*
X193500Y204000D02*
X211500D01*
X209500Y195100D02*
Y198000D01*
X195500D02*
X209500D01*
X195500Y195100D02*
Y198000D01*
X199500Y189000D02*
X205400D01*
X202500Y191000D02*
Y193600D01*
Y195400D02*
Y198000D01*
X16800Y13058D02*
X26800D01*
Y43058D01*
X16800D02*
X26800D01*
X16800Y13058D02*
Y43058D01*
X14000Y166000D02*
X27500D01*
X14000Y167000D02*
X28000D01*
X13500Y168000D02*
X28500D01*
X17200Y162800D02*
X25000D01*
X14000Y166000D02*
X27500D01*
X27000Y165500D02*
X27500Y166000D01*
X14500Y165500D02*
X27000D01*
X15000Y164500D02*
X26500D01*
X16000Y163500D02*
X26000D01*
X15000Y164500D02*
X16000Y163500D01*
X27000Y165000D02*
Y165500D01*
X26500Y164500D02*
X27000Y165000D01*
X194685Y-63000D02*
Y-500D01*
X169685Y-63000D02*
X194685D01*
X169685D02*
Y-500D01*
X166185Y29500D02*
X198185D01*
Y25500D02*
Y29500D01*
X166185Y25500D02*
X198185D01*
X166185D02*
Y29500D01*
X202185Y-461D02*
Y7500D01*
X162185Y-461D02*
X202185D01*
X162185D02*
Y7500D01*
X182185Y24500D02*
X183185Y23500D01*
X181185D02*
X182185Y24500D01*
X200185Y27500D02*
X201870D01*
X162500D02*
X166185D01*
X198185D02*
X200185D01*
X182185Y19500D02*
Y24500D01*
X201870Y19500D02*
Y27500D01*
X162500Y19500D02*
Y27500D01*
X148185Y34185D02*
X216185D01*
Y7500D02*
Y34185D01*
X148185Y7500D02*
X216185D01*
X148185D02*
Y34185D01*
X213000Y98000D02*
Y105000D01*
Y85000D02*
Y92000D01*
X178000Y85000D02*
X213000D01*
X178000D02*
Y105000D01*
X213000D01*
X213500Y145000D02*
Y152000D01*
Y132000D02*
Y139000D01*
X178500Y132000D02*
X213500D01*
X178500D02*
Y152000D01*
X213500D01*
X156500Y116500D02*
Y119000D01*
X152000Y116000D02*
X161000D01*
X152000Y93000D02*
Y116000D01*
Y93000D02*
X161000D01*
Y116000D01*
X156500Y90000D02*
Y92500D01*
X169000Y209500D02*
X179000D01*
X169000Y179500D02*
Y209500D01*
Y179500D02*
X179000D01*
Y209500D01*
X134000Y90500D02*
Y93000D01*
X129500Y93500D02*
X138500D01*
Y116500D01*
X129500D02*
X138500D01*
X129500Y93500D02*
Y116500D01*
X134000Y117000D02*
Y119500D01*
X101000Y57000D02*
X103500D01*
X100500Y52500D02*
Y61500D01*
X77500D02*
X100500D01*
X77500Y52500D02*
Y61500D01*
Y52500D02*
X100500D01*
X74500Y57000D02*
X77000D01*
X74000Y68000D02*
Y78000D01*
Y68000D02*
X104000D01*
Y78000D01*
X74000D02*
X104000D01*
X21000Y92000D02*
Y94500D01*
X16500Y95000D02*
X25500D01*
Y118000D01*
X16500D02*
X25500D01*
X16500Y95000D02*
Y118000D01*
X21000Y118500D02*
Y121000D01*
X39050Y7624D02*
Y44724D01*
Y7624D02*
X80050D01*
Y44724D01*
X39050D02*
X80050D01*
X21000Y189000D02*
Y191500D01*
X25500Y192000D02*
Y215000D01*
X16500Y192000D02*
X25500D01*
X16500D02*
Y215000D01*
X25500D01*
X21000Y215500D02*
Y218000D01*
X115842Y-6457D02*
Y-3307D01*
X91185Y7000D02*
X140185D01*
X91185D02*
Y48215D01*
X140185D01*
Y7000D02*
Y48215D01*
X102685Y-6457D02*
X129685D01*
X133685Y2500D02*
Y7000D01*
X97685Y2500D02*
Y7000D01*
X102685Y-6457D02*
Y2500D01*
X129685Y-6457D02*
Y2500D01*
X133685D01*
X97685D02*
X102685D01*
X187900Y212700D02*
Y217698D01*
X190399D01*
X191232Y216865D01*
Y215199D01*
X190399Y214366D01*
X187900D01*
X189566D02*
X191232Y212700D01*
X196231Y216865D02*
X195398Y217698D01*
X193731D01*
X192898Y216865D01*
Y216032D01*
X193731Y215199D01*
X195398D01*
X196231Y214366D01*
Y213533D01*
X195398Y212700D01*
X193731D01*
X192898Y213533D01*
X197897Y217698D02*
X201229D01*
X199563D01*
Y212700D01*
X211226Y216865D02*
X210393Y217698D01*
X208727D01*
X207893Y216865D01*
Y216032D01*
X208727Y215199D01*
X210393D01*
X211226Y214366D01*
Y213533D01*
X210393Y212700D01*
X208727D01*
X207893Y213533D01*
X212892Y217698D02*
Y212700D01*
X214558Y214366D01*
X216224Y212700D01*
Y217698D01*
X24528Y271500D02*
Y265502D01*
X21529D01*
X20529Y266502D01*
Y268501D01*
X21529Y269501D01*
X24528D01*
X14531Y271500D02*
X18530D01*
X14531Y267501D01*
Y266502D01*
X15530Y265502D01*
X17530D01*
X18530Y266502D01*
X56100Y108198D02*
X59432D01*
Y107365D01*
X56100Y104033D01*
Y103200D01*
X63598D02*
Y108198D01*
X61098Y105699D01*
X64431D01*
X66097Y108198D02*
Y103200D01*
Y105699D01*
X69429D01*
Y108198D01*
Y103200D01*
X74427Y107365D02*
X73594Y108198D01*
X71928D01*
X71095Y107365D01*
Y104033D01*
X71928Y103200D01*
X73594D01*
X74427Y104033D01*
X76094Y107365D02*
X76927Y108198D01*
X78593D01*
X79426Y107365D01*
Y104033D01*
X78593Y103200D01*
X76927D01*
X76094Y104033D01*
Y107365D01*
X83591Y103200D02*
Y108198D01*
X81092Y105699D01*
X84424D01*
X123480Y261038D02*
Y268910D01*
X118233D01*
X115609D02*
Y261038D01*
X111673D01*
X110361Y262350D01*
Y264974D01*
X111673Y266286D01*
X115609D01*
X107737Y261038D02*
X102490D01*
X105113D01*
Y268910D01*
D30*
X132358Y75160D02*
X131763Y74322D01*
X131245Y73435D01*
X130806Y72505D01*
X130452Y71541D01*
X130183Y70549D01*
X130003Y69537D01*
X129912Y68514D01*
Y67486D01*
X130003Y66463D01*
X130183Y65451D01*
X130452Y64459D01*
X130806Y63495D01*
X131245Y62565D01*
X131763Y61678D01*
X132358Y60840D01*
X188205Y52840D02*
X188800Y53678D01*
X189318Y54566D01*
X189757Y55495D01*
X190111Y56459D01*
X190380Y57451D01*
X190560Y58463D01*
X190651Y59486D01*
Y60514D01*
X190560Y61537D01*
X190380Y62549D01*
X190111Y63541D01*
X189757Y64505D01*
X189318Y65434D01*
X188800Y66322D01*
X188205Y67160D01*
X196295Y67160D02*
X195700Y66322D01*
X195182Y65434D01*
X194743Y64505D01*
X194389Y63541D01*
X194120Y62549D01*
X193940Y61537D01*
X193849Y60514D01*
Y59486D01*
X193940Y58463D01*
X194120Y57451D01*
X194389Y56459D01*
X194743Y55495D01*
X195182Y54566D01*
X195700Y53678D01*
X196295Y52840D01*
D31*
X152193Y68000D02*
X152146Y68995D01*
X152006Y69982D01*
X151775Y70951D01*
X151454Y71895D01*
X151046Y72804D01*
X150554Y73671D01*
X149984Y74488D01*
X149339Y75248D01*
X148626Y75944D01*
X147851Y76570D01*
X147021Y77122D01*
X146143Y77593D01*
X145225Y77979D01*
X144274Y78278D01*
X143300Y78487D01*
X142310Y78604D01*
X141314Y78627D01*
X140320Y78557D01*
X139337Y78394D01*
X138373Y78140D01*
X137438Y77797D01*
X136538Y77367D01*
X135683Y76856D01*
X134880Y76266D01*
X134135Y75604D01*
X133456Y74875D01*
X132847Y74086D01*
X132316Y73243D01*
X131866Y72354D01*
X131500Y71427D01*
X131224Y70469D01*
X131038Y69490D01*
X130945Y68498D01*
Y67502D01*
X131038Y66510D01*
X131224Y65531D01*
X131500Y64573D01*
X131866Y63646D01*
X132316Y62757D01*
X132847Y61914D01*
X133456Y61125D01*
X134135Y60396D01*
X134880Y59734D01*
X135683Y59144D01*
X136538Y58633D01*
X137438Y58203D01*
X138373Y57860D01*
X139337Y57606D01*
X140320Y57443D01*
X141314Y57373D01*
X142310Y57396D01*
X143300Y57513D01*
X144274Y57722D01*
X145225Y58021D01*
X146143Y58407D01*
X147021Y58878D01*
X147851Y59430D01*
X148626Y60056D01*
X149339Y60752D01*
X149984Y61513D01*
X150554Y62330D01*
X151046Y63196D01*
X151454Y64105D01*
X151775Y65049D01*
X152006Y66018D01*
X152146Y67005D01*
X152193Y68000D01*
X189630Y60000D02*
X189583Y60995D01*
X189444Y61982D01*
X189212Y62951D01*
X188891Y63895D01*
X188483Y64804D01*
X187991Y65671D01*
X187421Y66487D01*
X186776Y67248D01*
X186063Y67944D01*
X185288Y68570D01*
X184458Y69122D01*
X183580Y69593D01*
X182662Y69979D01*
X181711Y70278D01*
X180737Y70487D01*
X179747Y70604D01*
X178751Y70627D01*
X177757Y70557D01*
X176774Y70394D01*
X175810Y70140D01*
X174875Y69797D01*
X173975Y69367D01*
X173120Y68856D01*
X172317Y68266D01*
X171572Y67604D01*
X170893Y66875D01*
X170284Y66086D01*
X169753Y65243D01*
X169303Y64354D01*
X168938Y63427D01*
X168661Y62469D01*
X168475Y61490D01*
X168382Y60498D01*
Y59502D01*
X168475Y58510D01*
X168661Y57531D01*
X168938Y56573D01*
X169303Y55646D01*
X169753Y54757D01*
X170284Y53914D01*
X170893Y53125D01*
X171572Y52396D01*
X172317Y51734D01*
X173120Y51144D01*
X173975Y50633D01*
X174875Y50203D01*
X175810Y49860D01*
X176774Y49606D01*
X177757Y49443D01*
X178751Y49373D01*
X179747Y49396D01*
X180737Y49513D01*
X181711Y49722D01*
X182662Y50021D01*
X183580Y50407D01*
X184458Y50878D01*
X185288Y51430D01*
X186063Y52056D01*
X186776Y52752D01*
X187421Y53513D01*
X187991Y54330D01*
X188483Y55196D01*
X188891Y56105D01*
X189212Y57049D01*
X189444Y58018D01*
X189583Y59005D01*
X189630Y60000D01*
X216130D02*
X216083Y60995D01*
X215944Y61982D01*
X215712Y62951D01*
X215391Y63895D01*
X214983Y64804D01*
X214491Y65671D01*
X213921Y66487D01*
X213276Y67248D01*
X212563Y67944D01*
X211788Y68570D01*
X210958Y69122D01*
X210080Y69593D01*
X209162Y69979D01*
X208211Y70278D01*
X207237Y70487D01*
X206247Y70604D01*
X205251Y70627D01*
X204257Y70557D01*
X203274Y70394D01*
X202310Y70140D01*
X201375Y69797D01*
X200475Y69367D01*
X199620Y68856D01*
X198817Y68266D01*
X198072Y67604D01*
X197393Y66875D01*
X196784Y66086D01*
X196253Y65243D01*
X195803Y64354D01*
X195438Y63427D01*
X195161Y62469D01*
X194975Y61490D01*
X194882Y60498D01*
Y59502D01*
X194975Y58510D01*
X195161Y57531D01*
X195438Y56573D01*
X195803Y55646D01*
X196253Y54757D01*
X196784Y53914D01*
X197393Y53125D01*
X198072Y52396D01*
X198817Y51734D01*
X199620Y51144D01*
X200475Y50633D01*
X201375Y50203D01*
X202310Y49860D01*
X203274Y49606D01*
X204257Y49443D01*
X205251Y49373D01*
X206247Y49396D01*
X207237Y49513D01*
X208211Y49722D01*
X209162Y50021D01*
X210080Y50407D01*
X210958Y50878D01*
X211788Y51430D01*
X212563Y52056D01*
X213276Y52752D01*
X213921Y53513D01*
X214491Y54330D01*
X214983Y55196D01*
X215391Y56105D01*
X215712Y57049D01*
X215944Y58018D01*
X216083Y59005D01*
X216130Y60000D01*
X31532Y168866D02*
X32491Y168920D01*
X33389Y169259D01*
X34144Y169852D01*
X34687Y170643D01*
X34967Y171561D01*
X34960Y172521D01*
X34664Y173434D01*
X34109Y174217D01*
X33344Y174798D01*
X32441Y175122D01*
X31482Y175161D01*
X106000Y108500D02*
X105043Y108310D01*
X104232Y107768D01*
X103690Y106957D01*
X103500Y106000D01*
X103690Y105043D01*
X104232Y104232D01*
X105043Y103690D01*
X106000Y103500D01*
X136563Y59000D02*
X141563Y64000D01*
X134063Y60500D02*
X141563Y68000D01*
X132563Y63000D02*
X141563Y72000D01*
Y57500D02*
Y75874D01*
X131126Y65437D02*
X141563Y75874D01*
Y78500D01*
X131063Y69500D02*
X140063Y78500D01*
X139563Y58000D02*
X141563Y60000D01*
X179000Y64000D02*
X184000Y69000D01*
X179000Y60000D02*
X186500Y67500D01*
X179000Y56000D02*
X188000Y65000D01*
X179000Y52126D02*
Y70500D01*
Y52126D02*
X189437Y62563D01*
X179000Y49500D02*
Y52126D01*
X180500Y49500D02*
X189500Y58500D01*
X179000Y68000D02*
X181000Y70000D01*
X200500Y51000D02*
X205500Y56000D01*
X198000Y52500D02*
X205500Y60000D01*
X196500Y55000D02*
X205500Y64000D01*
Y49500D02*
Y67874D01*
X195063Y57437D02*
X205500Y67874D01*
Y70500D01*
X195000Y61500D02*
X204000Y70500D01*
X203500Y50000D02*
X205500Y52000D01*
X45500Y213000D02*
X65500D01*
Y223000D01*
X45500D02*
X65500D01*
X45500Y213000D02*
Y223000D01*
X31457Y197000D02*
X158000D01*
X31457Y146567D02*
X158000D01*
Y197000D01*
X31457Y175161D02*
Y197000D01*
Y146567D02*
Y168866D01*
X31500Y96000D02*
Y116000D01*
X106000Y96000D02*
Y103500D01*
Y108500D02*
Y116000D01*
X31500Y96000D02*
X106000D01*
X31500Y116000D02*
X106000D01*
X16000Y136000D02*
X26000D01*
X16000D02*
Y156000D01*
X26000D01*
Y136000D02*
Y156000D01*
D32*
X210500Y102500D02*
X209750Y102933D01*
Y102067D01*
X210500Y102500D01*
X211000Y149500D02*
X210250Y149933D01*
Y149067D01*
X211000Y149500D01*
D33*
X218000Y110000D02*
X217500Y110866D01*
X216500D01*
X216000Y110000D01*
X216500Y109134D01*
X217500D01*
X218000Y110000D01*
X218500Y157000D02*
X218000Y157866D01*
X217000D01*
X216500Y157000D01*
X217000Y156134D01*
X218000D01*
X218500Y157000D01*
X34000Y142000D02*
X33500Y142866D01*
X32500D01*
X32000Y142000D01*
X32500Y141134D01*
X33500D01*
X34000Y142000D01*
X106500Y121000D02*
X106000Y121866D01*
X105000D01*
X104500Y121000D01*
X105000Y120134D01*
X106000D01*
X106500Y121000D01*
X217880Y227509D02*
Y276309D01*
X217780Y276209D02*
X217880Y276309D01*
X9180Y276209D02*
X217780D01*
X9180Y227710D02*
Y276209D01*
Y227710D02*
X9380Y227509D01*
X217880D01*
X9280Y227609D02*
X9380Y227509D01*
D34*
X30000Y72153D02*
X29003Y72110D01*
X28016Y71958D01*
X27052Y71699D01*
X26122Y71337D01*
X25237Y70876D01*
X24407Y70321D01*
X23643Y69679D01*
X22953Y68958D01*
X22345Y68166D01*
X21828Y67313D01*
X21406Y66408D01*
X21086Y65462D01*
X20870Y64488D01*
X20762Y63496D01*
X20762Y62498D01*
X20871Y61505D01*
X21088Y60531D01*
X21409Y59586D01*
X21831Y58681D01*
X22350Y57828D01*
X22957Y57037D01*
X23648Y56316D01*
X24413Y55675D01*
X25243Y55121D01*
X26129Y54660D01*
X27059Y54299D01*
X28024Y54041D01*
X29010Y53890D01*
X30007Y53847D01*
X55000Y53847D02*
X55997Y53891D01*
X56984Y54043D01*
X57948Y54301D01*
X58878Y54663D01*
X59763Y55124D01*
X60593Y55679D01*
X61357Y56321D01*
X62047Y57042D01*
X62655Y57834D01*
X63172Y58688D01*
X63594Y59593D01*
X63914Y60538D01*
X64130Y61512D01*
X64238Y62505D01*
X64238Y63503D01*
X64129Y64495D01*
X63912Y65469D01*
X63591Y66414D01*
X63169Y67319D01*
X62651Y68172D01*
X62042Y68963D01*
X61352Y69684D01*
X60587Y70325D01*
X59757Y70879D01*
X58871Y71340D01*
X57941Y71701D01*
X56976Y71959D01*
X55990Y72110D01*
X54993Y72153D01*
X30007Y53846D02*
X55000D01*
X30000Y72153D02*
X54993D01*
X29200Y79132D02*
X29866Y79799D01*
X31199D01*
X31866Y79132D01*
Y78466D01*
X31199Y77799D01*
X30533D01*
X31199D01*
X31866Y77133D01*
Y76466D01*
X31199Y75800D01*
X29866D01*
X29200Y76466D01*
X33199Y75800D02*
Y76466D01*
X33865D01*
Y75800D01*
X33199D01*
X39197Y79799D02*
X36531D01*
Y77799D01*
X37864Y78466D01*
X38530D01*
X39197Y77799D01*
Y76466D01*
X38530Y75800D01*
X37197D01*
X36531Y76466D01*
X40530Y79132D02*
X41196Y79799D01*
X42529D01*
X43196Y79132D01*
Y78466D01*
X42529Y77799D01*
X43196Y77133D01*
Y76466D01*
X42529Y75800D01*
X41196D01*
X40530Y76466D01*
Y77133D01*
X41196Y77799D01*
X40530Y78466D01*
Y79132D01*
X41196Y77799D02*
X42529D01*
X44528Y75800D02*
Y79799D01*
X45861Y78466D01*
X47194Y79799D01*
Y75800D01*
X48527Y79799D02*
Y75800D01*
Y77799D01*
X51193D01*
Y79799D01*
Y75800D01*
X52526Y78466D02*
X55192D01*
X52526Y75800D01*
X55192D01*
X70600Y220599D02*
X71933D01*
X71266D01*
Y216600D01*
X70600D01*
X71933D01*
X73932D02*
Y220599D01*
X75932D01*
X76598Y219932D01*
Y218599D01*
X75932Y217933D01*
X73932D01*
X75265D02*
X76598Y216600D01*
X80597Y217266D02*
Y219932D01*
X79930Y220599D01*
X78597D01*
X77931Y219932D01*
Y217266D01*
X78597Y216600D01*
X79930D01*
X79264Y217933D02*
X80597Y216600D01*
X79930D02*
X80597Y217266D01*
X88594Y220599D02*
X87261D01*
X87928D01*
Y217266D01*
X87261Y216600D01*
X86595D01*
X85928Y217266D01*
X89927Y219266D02*
Y217266D01*
X90594Y216600D01*
X92593D01*
Y219266D01*
X93926Y216600D02*
Y219266D01*
X94592D01*
X95259Y218599D01*
Y216600D01*
Y218599D01*
X95925Y219266D01*
X96592Y218599D01*
Y216600D01*
X97925Y215267D02*
Y219266D01*
X99924D01*
X100590Y218599D01*
Y217266D01*
X99924Y216600D01*
X97925D01*
X103923D02*
X102590D01*
X101923Y217266D01*
Y218599D01*
X102590Y219266D01*
X103923D01*
X104589Y218599D01*
Y217933D01*
X101923D01*
X105922Y219266D02*
Y216600D01*
Y217933D01*
X106588Y218599D01*
X107255Y219266D01*
X107921D01*
X148900Y99900D02*
Y101233D01*
Y100566D01*
X144901D01*
X145568Y99900D01*
Y103232D02*
X144901Y103899D01*
Y105232D01*
X145568Y105898D01*
X148233D01*
X148900Y105232D01*
Y103899D01*
X148233Y103232D01*
X145568D01*
X148900Y107231D02*
X144901D01*
X147567D02*
X146234Y109230D01*
X147567Y107231D02*
X148900Y109230D01*
X125500Y100100D02*
Y101433D01*
Y100766D01*
X121501D01*
X122168Y100100D01*
Y103432D02*
X121501Y104099D01*
Y105432D01*
X122168Y106098D01*
X124834D01*
X125500Y105432D01*
Y104099D01*
X124834Y103432D01*
X122168D01*
X125500Y107431D02*
X121501D01*
X124167D02*
X122834Y109430D01*
X124167Y107431D02*
X125500Y109430D01*
X213100Y17100D02*
Y18433D01*
Y17766D01*
X209101D01*
X209768Y17100D01*
Y20432D02*
X209101Y21099D01*
Y22432D01*
X209768Y23098D01*
X212434D01*
X213100Y22432D01*
Y21099D01*
X212434Y20432D01*
X209768D01*
X213100Y24431D02*
X209101D01*
X211767D02*
X210434Y26430D01*
X211767Y24431D02*
X213100Y26430D01*
X11200Y102699D02*
X7201D01*
X9201Y100700D01*
Y103366D01*
X7201Y104699D02*
Y107364D01*
X7868D01*
X10533Y104699D01*
X11200D01*
X7868Y108697D02*
X7201Y109364D01*
Y110697D01*
X7868Y111363D01*
X10533D01*
X11200Y110697D01*
Y109364D01*
X10533Y108697D01*
X7868D01*
X114699Y55100D02*
Y59099D01*
X112700Y57099D01*
X115366D01*
X116699Y59099D02*
X119365D01*
Y58432D01*
X116699Y55766D01*
Y55100D01*
X120697Y58432D02*
X121364Y59099D01*
X122697D01*
X123363Y58432D01*
Y55766D01*
X122697Y55100D01*
X121364D01*
X120697Y55766D01*
Y58432D01*
X186000Y96999D02*
Y93000D01*
X188666D01*
X189999D02*
Y96999D01*
X191332Y95666D01*
X192665Y96999D01*
Y93000D01*
X193997Y96332D02*
X194664Y96999D01*
X195997D01*
X196663Y96332D01*
Y95666D01*
X195997Y94999D01*
X195330D01*
X195997D01*
X196663Y94333D01*
Y93666D01*
X195997Y93000D01*
X194664D01*
X193997Y93666D01*
X200662Y96999D02*
X197996D01*
Y94999D01*
X199329Y95666D01*
X199996D01*
X200662Y94999D01*
Y93666D01*
X199996Y93000D01*
X198663D01*
X197996Y93666D01*
X201995Y96332D02*
X202661Y96999D01*
X203994D01*
X204661Y96332D01*
Y95666D01*
X203994Y94999D01*
X204661Y94333D01*
Y93666D01*
X203994Y93000D01*
X202661D01*
X201995Y93666D01*
Y94333D01*
X202661Y94999D01*
X201995Y95666D01*
Y96332D01*
X202661Y94999D02*
X203994D01*
X181500Y143499D02*
Y142832D01*
X182833Y141499D01*
X184166Y142832D01*
Y143499D01*
X182833Y141499D02*
Y139500D01*
X185499D02*
Y143499D01*
X186832Y142166D01*
X188164Y143499D01*
Y139500D01*
X189497Y142832D02*
X190164Y143499D01*
X191497D01*
X192163Y142832D01*
Y142166D01*
X191497Y141499D01*
X190830D01*
X191497D01*
X192163Y140833D01*
Y140166D01*
X191497Y139500D01*
X190164D01*
X189497Y140166D01*
X193496Y142832D02*
X194163Y143499D01*
X195495D01*
X196162Y142832D01*
Y140166D01*
X195495Y139500D01*
X194163D01*
X193496Y140166D01*
Y142832D01*
X197495Y139500D02*
X198828D01*
X198161D01*
Y143499D01*
X197495Y142832D01*
X202826Y139500D02*
Y143499D01*
X200827Y141499D01*
X203493D01*
X204826Y143499D02*
Y139500D01*
X206825D01*
X207492Y140166D01*
Y140833D01*
X206825Y141499D01*
X204826D01*
X206825D01*
X207492Y142166D01*
Y142832D01*
X206825Y143499D01*
X204826D01*
X172800Y41500D02*
X174133D01*
X173467D01*
Y45499D01*
X172800Y44832D01*
X176132D02*
X176799Y45499D01*
X178132D01*
X178798Y44832D01*
Y42166D01*
X178132Y41500D01*
X176799D01*
X176132Y42166D01*
Y44832D01*
X180131Y44166D02*
Y42166D01*
X180797Y41500D01*
X182797D01*
Y44166D01*
X186795Y45499D02*
X184130D01*
Y43499D01*
X185463D01*
X184130D01*
Y41500D01*
X198500D02*
X199833D01*
X199167D01*
Y45499D01*
X198500Y44832D01*
X201832D02*
X202499Y45499D01*
X203832D01*
X204498Y44832D01*
Y42166D01*
X203832Y41500D01*
X202499D01*
X201832Y42166D01*
Y44832D01*
X205831Y44166D02*
Y42166D01*
X206497Y41500D01*
X208497D01*
Y44166D01*
X212495Y45499D02*
X209830D01*
Y43499D01*
X211163D01*
X209830D01*
Y41500D01*
X168166Y170100D02*
X165500D01*
X168166Y172766D01*
Y173432D01*
X167499Y174099D01*
X166166D01*
X165500Y173432D01*
X169499Y170100D02*
Y170766D01*
X170165D01*
Y170100D01*
X169499D01*
X175497D02*
X172831D01*
X175497Y172766D01*
Y173432D01*
X174830Y174099D01*
X173497D01*
X172831Y173432D01*
X176830Y172766D02*
Y170766D01*
X177496Y170100D01*
X179496D01*
Y172766D01*
X183494Y174099D02*
X180828D01*
Y172099D01*
X182161D01*
X180828D01*
Y170100D01*
X154100Y65500D02*
X155433D01*
X154766D01*
Y69499D01*
X154100Y68832D01*
X157432D02*
X158099Y69499D01*
X159432D01*
X160098Y68832D01*
Y66166D01*
X159432Y65500D01*
X158099D01*
X157432Y66166D01*
Y68832D01*
X161431Y68166D02*
Y66166D01*
X162097Y65500D01*
X164097D01*
Y68166D01*
X168096Y69499D02*
X165430D01*
Y67499D01*
X166763D01*
X165430D01*
Y65500D01*
X12700Y19000D02*
Y20333D01*
Y19667D01*
X8701D01*
X9368Y19000D01*
Y22332D02*
X8701Y22999D01*
Y24332D01*
X9368Y24998D01*
X12033D01*
X12700Y24332D01*
Y22999D01*
X12033Y22332D01*
X9368D01*
Y26331D02*
X8701Y26997D01*
Y28330D01*
X9368Y28997D01*
X12033D01*
X12700Y28330D01*
Y26997D01*
X12033Y26331D01*
X9368D01*
X12700Y30330D02*
X10034D01*
Y32329D01*
X10701Y32996D01*
X12700D01*
X8701Y36994D02*
Y34328D01*
X10701D01*
Y35661D01*
Y34328D01*
X12700D01*
X109199Y71100D02*
Y75099D01*
X107200Y73099D01*
X109866D01*
X111199Y71100D02*
Y71766D01*
X111865D01*
Y71100D01*
X111199D01*
X114531Y75099D02*
X117197D01*
Y74432D01*
X114531Y71766D01*
Y71100D01*
X118530D02*
Y73766D01*
X120529D01*
X121195Y73099D01*
Y71100D01*
X125194Y75099D02*
X122528D01*
Y73099D01*
X123861D01*
X122528D01*
Y71100D01*
X11600Y199900D02*
Y201233D01*
Y200567D01*
X7601D01*
X8268Y199900D01*
X11600Y203232D02*
X7601D01*
X10267D02*
X8934Y205232D01*
X10267Y203232D02*
X11600Y205232D01*
X27500Y141100D02*
X29499D01*
X27500Y151900D02*
X29499D01*
X28500Y152899D02*
Y150900D01*
X15599Y133599D02*
X13600D01*
Y132099D01*
X14600Y132599D01*
X15100D01*
X15599Y132099D01*
Y131100D01*
X15100Y130600D01*
X14100D01*
X13600Y131100D01*
X16599Y133599D02*
Y131600D01*
X17599Y130600D01*
X18598Y131600D01*
Y133599D01*
X22597D02*
Y130600D01*
X24097D01*
X24596Y131100D01*
Y133099D01*
X24097Y133599D01*
X22597D01*
X27595Y133099D02*
X27096Y133599D01*
X26096D01*
X25596Y133099D01*
Y131100D01*
X26096Y130600D01*
X27096D01*
X27595Y131100D01*
X151201Y16300D02*
X153867D01*
X155200Y17633D01*
X153867Y18966D01*
X151201D01*
X155200Y20965D02*
Y22298D01*
X154534Y22964D01*
X153201D01*
X152534Y22298D01*
Y20965D01*
X153201Y20299D01*
X154534D01*
X155200Y20965D01*
Y24297D02*
Y25630D01*
Y24964D01*
X151201D01*
Y24297D01*
D35*
X38707Y154500D02*
X38000Y155207D01*
X37293Y154500D01*
X38000Y153793D01*
X38707Y154500D01*
D36*
X102894Y113000D02*
X102106D01*
X102894D01*
D37*
X43500Y59000D02*
Y67000D01*
X41500D02*
X43500D01*
X41500Y59000D02*
Y67000D01*
Y59000D02*
X43500D01*
X45000D02*
Y67000D01*
X40000Y59000D02*
Y67000D01*
X37000Y63000D02*
X40000D01*
X45000D02*
X48000D01*
X103500Y12983D02*
X103917Y13399D01*
X104750D01*
X105166Y12983D01*
Y12566D01*
X104750Y12150D01*
X104333D01*
X104750D01*
X105166Y11733D01*
Y11316D01*
X104750Y10900D01*
X103917D01*
X103500Y11316D01*
X107665Y13399D02*
X105999D01*
Y12150D01*
X106832D01*
X105999D01*
Y10900D01*
X108498Y12983D02*
X108915Y13399D01*
X109748D01*
X110164Y12983D01*
Y11316D01*
X109748Y10900D01*
X108915D01*
X108498Y11316D01*
Y12983D01*
X110998Y13399D02*
X112664D01*
Y12983D01*
X110998Y11316D01*
Y10900D01*
X114330D02*
X113497Y11733D01*
Y12566D01*
X114330Y13399D01*
X115579Y12983D02*
X115996Y13399D01*
X116829D01*
X117246Y12983D01*
Y12566D01*
X116829Y12150D01*
X116412D01*
X116829D01*
X117246Y11733D01*
Y11316D01*
X116829Y10900D01*
X115996D01*
X115579Y11316D01*
X118079Y10900D02*
Y11316D01*
X118495D01*
Y10900D01*
X118079D01*
X121827Y13399D02*
X120161D01*
Y12150D01*
X120994Y12566D01*
X121411D01*
X121827Y12150D01*
Y11316D01*
X121411Y10900D01*
X120578D01*
X120161Y11316D01*
X122661Y10900D02*
Y12566D01*
X123077D01*
X123494Y12150D01*
Y10900D01*
Y12150D01*
X123910Y12566D01*
X124327Y12150D01*
Y10900D01*
X125160D02*
Y12566D01*
X125576D01*
X125993Y12150D01*
Y10900D01*
Y12150D01*
X126409Y12566D01*
X126826Y12150D01*
Y10900D01*
X127659D02*
X128492Y11733D01*
Y12566D01*
X127659Y13399D01*
X51200Y28899D02*
Y26816D01*
X51617Y26400D01*
X52450D01*
X52866Y26816D01*
Y28899D01*
X55365Y28483D02*
X54949Y28899D01*
X54116D01*
X53699Y28483D01*
Y28066D01*
X54116Y27650D01*
X54949D01*
X55365Y27233D01*
Y26816D01*
X54949Y26400D01*
X54116D01*
X53699Y26816D01*
X56198Y28899D02*
Y26400D01*
X57448D01*
X57864Y26816D01*
Y27233D01*
X57448Y27650D01*
X56198D01*
X57448D01*
X57864Y28066D01*
Y28483D01*
X57448Y28899D01*
X56198D01*
X61197Y26400D02*
Y28899D01*
X62446D01*
X62863Y28483D01*
Y27650D01*
X62446Y27233D01*
X61197D01*
X63696Y28899D02*
Y26400D01*
X64529Y27233D01*
X65362Y26400D01*
Y28899D01*
X66195Y26400D02*
Y28899D01*
X67445D01*
X67861Y28483D01*
Y27650D01*
X67445Y27233D01*
X66195D01*
X67028D02*
X67861Y26400D01*
X10500Y160600D02*
X7501D01*
Y162100D01*
X8001Y162599D01*
X9001D01*
X9500Y162100D01*
Y160600D01*
X7501Y163599D02*
X10500D01*
X9500Y164599D01*
X10500Y165598D01*
X7501D01*
X10500Y166598D02*
X7501D01*
Y168098D01*
X8001Y168597D01*
X9001D01*
X9500Y168098D01*
Y166598D01*
Y167598D02*
X10500Y168597D01*
X7501Y172596D02*
X10500D01*
Y174595D01*
X7501Y177594D02*
Y175595D01*
X10500D01*
Y177594D01*
X9001Y175595D02*
Y176595D01*
X7501Y178594D02*
X10500D01*
Y180094D01*
X10000Y180594D01*
X8001D01*
X7501Y180094D01*
Y178594D01*
Y138299D02*
Y136300D01*
X10500D01*
Y138299D01*
X9001Y136300D02*
Y137300D01*
X7501Y139299D02*
X10500Y141298D01*
X7501D02*
X10500Y139299D01*
X7501Y142298D02*
Y144297D01*
Y143298D01*
X10500D01*
Y148296D02*
X7501D01*
Y149796D01*
X8001Y150295D01*
X9001D01*
X9500Y149796D01*
Y148296D01*
X7501Y151295D02*
X10500D01*
X9500Y152295D01*
X10500Y153295D01*
X7501D01*
X10500Y154294D02*
X7501D01*
Y155794D01*
X8001Y156293D01*
X9001D01*
X9500Y155794D01*
Y154294D01*
Y155294D02*
X10500Y156293D01*
X50300Y15900D02*
Y18399D01*
X51133Y17566D01*
X51966Y18399D01*
Y15900D01*
X52799D02*
X53632D01*
X53216D01*
Y17566D01*
X52799D01*
X54882Y15900D02*
Y17566D01*
X56131D01*
X56548Y17150D01*
Y15900D01*
X57381D02*
X58214D01*
X57798D01*
Y17566D01*
X57381D01*
X59464Y17150D02*
X61130D01*
X61963Y18399D02*
Y16317D01*
X62379Y15900D01*
X63213D01*
X63629Y16317D01*
Y18399D01*
X66128Y17983D02*
X65712Y18399D01*
X64879D01*
X64462Y17983D01*
Y17566D01*
X64879Y17150D01*
X65712D01*
X66128Y16733D01*
Y16317D01*
X65712Y15900D01*
X64879D01*
X64462Y16317D01*
X66961Y18399D02*
Y15900D01*
X68211D01*
X68627Y16317D01*
Y16733D01*
X68211Y17150D01*
X66961D01*
X68211D01*
X68627Y17566D01*
Y17983D01*
X68211Y18399D01*
X66961D01*
X103800Y29400D02*
Y31066D01*
X104633Y31899D01*
X105466Y31066D01*
Y29400D01*
Y30650D01*
X103800D01*
X106299Y31066D02*
Y29816D01*
X106716Y29400D01*
X107965D01*
Y31066D01*
X110465Y31899D02*
Y29400D01*
X109215D01*
X108798Y29816D01*
Y30650D01*
X109215Y31066D01*
X110465D01*
X111298Y29400D02*
X112131D01*
X111714D01*
Y31066D01*
X111298D01*
X113797Y29400D02*
X114630D01*
X115046Y29816D01*
Y30650D01*
X114630Y31066D01*
X113797D01*
X113380Y30650D01*
Y29816D01*
X113797Y29400D01*
X120045Y31899D02*
X119212D01*
X119628D01*
Y29816D01*
X119212Y29400D01*
X118795D01*
X118379Y29816D01*
X121294Y31066D02*
X122127D01*
X122544Y30650D01*
Y29400D01*
X121294D01*
X120878Y29816D01*
X121294Y30233D01*
X122544D01*
X125043Y31066D02*
X123793D01*
X123377Y30650D01*
Y29816D01*
X123793Y29400D01*
X125043D01*
X125876D02*
Y31899D01*
Y30233D02*
X127126Y31066D01*
X125876Y30233D02*
X127126Y29400D01*
D38*
X76800Y174398D02*
Y173231D01*
X79133Y170899D01*
X81465Y173231D01*
Y174398D01*
X79133Y170899D02*
Y167400D01*
X83798D02*
Y174398D01*
X86130Y172065D01*
X88463Y174398D01*
Y167400D01*
X90795Y173231D02*
X91962Y174398D01*
X94294D01*
X95461Y173231D01*
Y172065D01*
X94294Y170899D01*
X93128D01*
X94294D01*
X95461Y169733D01*
Y168566D01*
X94294Y167400D01*
X91962D01*
X90795Y168566D01*
X97793Y173231D02*
X98959Y174398D01*
X101292D01*
X102458Y173231D01*
Y172065D01*
X101292Y170899D01*
X102458Y169733D01*
Y168566D01*
X101292Y167400D01*
X98959D01*
X97793Y168566D01*
Y169733D01*
X98959Y170899D01*
X97793Y172065D01*
Y173231D01*
X98959Y170899D02*
X101292D01*
X104791Y167400D02*
X107123D01*
X105957D01*
Y174398D01*
X104791Y173231D01*
X115288Y167400D02*
X110622D01*
X115288Y172065D01*
Y173231D01*
X114121Y174398D01*
X111789D01*
X110622Y173231D01*
M02*
