G04 Layer_Color=2752767*
%FSLAX25Y25*%
%MOIN*%
G70*
G01*
G75*
%ADD59C,0.00200*%
%ADD60C,0.00267*%
%ADD61C,0.00133*%
D59*
X215086Y201058D02*
Y202658D01*
X216686D01*
Y201058D01*
X215086D01*
Y183342D02*
Y184942D01*
X216686D01*
Y183342D01*
X215086D01*
X188314D02*
Y184942D01*
X189914D01*
Y183342D01*
X188314D01*
Y201058D02*
Y202658D01*
X189914D01*
Y201058D01*
X188314D01*
X178913Y232519D02*
X178113Y234119D01*
X179713D01*
X178913Y232519D01*
X168008D02*
X167208Y234119D01*
X168808D01*
X168008Y232519D01*
X157102D02*
X156302Y234119D01*
X157902D01*
X157102Y232519D01*
X146197D02*
X145397Y234119D01*
X146997D01*
X146197Y232519D01*
X135291D02*
X134491Y234119D01*
X136091D01*
X135291Y232519D01*
X124386D02*
X123586Y234119D01*
X125186D01*
X124386Y232519D01*
X113480D02*
X112680Y234119D01*
X114280D01*
X113480Y232519D01*
X102575D02*
X101775Y234119D01*
X103375D01*
X102575Y232519D01*
X91669D02*
X90869Y234119D01*
X92469D01*
X91669Y232519D01*
X80764D02*
X79964Y234119D01*
X81564D01*
X80764Y232519D01*
X69858D02*
X69058Y234119D01*
X70658D01*
X69858Y232519D01*
X58953D02*
X58153Y234119D01*
X59753D01*
X58953Y232519D01*
X48047D02*
X47247Y234119D01*
X48847D01*
X48047Y232519D01*
X173461Y243700D02*
X172661Y245300D01*
X174261D01*
X173461Y243700D01*
X162555D02*
X161755Y245300D01*
X163355D01*
X162555Y243700D01*
X151650D02*
X150850Y245300D01*
X152450D01*
X151650Y243700D01*
X140744D02*
X139944Y245300D01*
X141544D01*
X140744Y243700D01*
X129839D02*
X129039Y245300D01*
X130639D01*
X129839Y243700D01*
X118933D02*
X118133Y245300D01*
X119733D01*
X118933Y243700D01*
X108028D02*
X107228Y245300D01*
X108828D01*
X108028Y243700D01*
X97122D02*
X96322Y245300D01*
X97922D01*
X97122Y243700D01*
X86216D02*
X85417Y245300D01*
X87016D01*
X86216Y243700D01*
X75311D02*
X74511Y245300D01*
X76111D01*
X75311Y243700D01*
X64406D02*
X63605Y245300D01*
X65206D01*
X64406Y243700D01*
X53500D02*
X52700Y245300D01*
X54300D01*
X53500Y243700D01*
X21800Y37100D02*
X22200Y37500D01*
X22600D01*
X22200Y37900D01*
X22600Y38300D01*
X22200D01*
X21800Y38700D01*
X21400Y38300D01*
X21000D01*
X21400Y37900D01*
X21000Y37500D01*
X21400D01*
X21800Y37100D01*
Y17415D02*
X22200Y17815D01*
X22600D01*
X22200Y18215D01*
X22600Y18615D01*
X22200D01*
X21800Y19015D01*
X21400Y18615D01*
X21000D01*
X21400Y18215D01*
X21000Y17815D01*
X21400D01*
X21800Y17415D01*
X20200Y163700D02*
X20600Y164500D01*
X20200Y165300D01*
X21000Y164900D01*
X21800Y165300D01*
X21400Y164500D01*
X21800Y163700D01*
X21000Y164100D01*
X20200Y163700D01*
Y173700D02*
X20600Y174500D01*
X20200Y175300D01*
X21000Y174900D01*
X21800Y175300D01*
X21400Y174500D01*
X21800Y173700D01*
X21000Y174100D01*
X20200Y173700D01*
X137226Y67600D02*
Y67200D01*
X138026D01*
Y67600D01*
X138426D01*
Y68400D01*
X138026D01*
Y68800D01*
X137226D01*
Y68400D01*
X136826D01*
Y67600D01*
X137226D01*
X145100D02*
Y67200D01*
X145900D01*
Y67600D01*
X146300D01*
Y68400D01*
X145900D01*
Y68800D01*
X145100D01*
Y68400D01*
X144700D01*
Y67600D01*
X145100D01*
X181385Y13700D02*
X181785D01*
X182185Y14100D01*
X182585Y13700D01*
X182985D01*
Y14100D01*
X182585Y14500D01*
X182985Y14900D01*
Y15300D01*
X182585D01*
X182185Y14900D01*
X181785Y15300D01*
X181385D01*
Y14900D01*
X181785Y14500D01*
X181385Y14100D01*
Y13700D01*
X201070D02*
X201470D01*
X201870Y14100D01*
X202270Y13700D01*
X202670D01*
Y14100D01*
X202270Y14500D01*
X202670Y14900D01*
Y15300D01*
X202270D01*
X201870Y14900D01*
X201470Y15300D01*
X201070D01*
Y14900D01*
X201470Y14500D01*
X201070Y14100D01*
Y13700D01*
X161700D02*
X162100D01*
X162500Y14100D01*
X162900Y13700D01*
X163300D01*
Y14100D01*
X162900Y14500D01*
X163300Y14900D01*
Y15300D01*
X162900D01*
X162500Y14900D01*
X162100Y15300D01*
X161700D01*
Y14900D01*
X162100Y14500D01*
X161700Y14100D01*
Y13700D01*
X182537Y59600D02*
Y59200D01*
X183337D01*
Y59600D01*
X183737D01*
Y60400D01*
X183337D01*
Y60800D01*
X182537D01*
Y60400D01*
X182137D01*
Y59600D01*
X182537D01*
X174663D02*
Y59200D01*
X175463D01*
Y59600D01*
X175863D01*
Y60400D01*
X175463D01*
Y60800D01*
X174663D01*
Y60400D01*
X174263D01*
Y59600D01*
X174663D01*
X201163D02*
Y59200D01*
X201963D01*
Y59600D01*
X202363D01*
Y60400D01*
X201963D01*
Y60800D01*
X201163D01*
Y60400D01*
X200763D01*
Y59600D01*
X201163D01*
X209037D02*
Y59200D01*
X209837D01*
Y59600D01*
X210237D01*
Y60400D01*
X209837D01*
Y60800D01*
X209037D01*
Y60400D01*
X208637D01*
Y59600D01*
X209037D01*
X209600Y79600D02*
Y79200D01*
X210400D01*
Y79600D01*
X210800D01*
Y80400D01*
X210400D01*
Y80800D01*
X209600D01*
Y80400D01*
X209200D01*
Y79600D01*
X209600D01*
X199600D02*
Y79200D01*
X200400D01*
Y79600D01*
X200800D01*
Y80400D01*
X200400D01*
Y80800D01*
X199600D01*
Y80400D01*
X199200D01*
Y79600D01*
X199600D01*
X189600D02*
Y79200D01*
X190400D01*
Y79600D01*
X190800D01*
Y80400D01*
X190400D01*
Y80800D01*
X189600D01*
Y80400D01*
X189200D01*
Y79600D01*
X189600D01*
X179600D02*
Y79200D01*
X180400D01*
Y79600D01*
X180800D01*
Y80400D01*
X180400D01*
Y80800D01*
X179600D01*
Y80400D01*
X179200D01*
Y79600D01*
X179600D01*
Y109600D02*
Y109200D01*
X180400D01*
Y109600D01*
X180800D01*
Y110400D01*
X180400D01*
Y110800D01*
X179600D01*
Y110400D01*
X179200D01*
Y109600D01*
X179600D01*
X189600D02*
Y109200D01*
X190400D01*
Y109600D01*
X190800D01*
Y110400D01*
X190400D01*
Y110800D01*
X189600D01*
Y110400D01*
X189200D01*
Y109600D01*
X189600D01*
X199600D02*
Y109200D01*
X200400D01*
Y109600D01*
X200800D01*
Y110400D01*
X200400D01*
Y110800D01*
X199600D01*
Y110400D01*
X199200D01*
Y109600D01*
X199600D01*
X209600D02*
Y109200D01*
X210400D01*
Y109600D01*
X210800D01*
Y110400D01*
X210400D01*
Y110800D01*
X209600D01*
Y110400D01*
X209200D01*
Y109600D01*
X209600D01*
X210100Y126600D02*
Y126200D01*
X210900D01*
Y126600D01*
X211300D01*
Y127400D01*
X210900D01*
Y127800D01*
X210100D01*
Y127400D01*
X209700D01*
Y126600D01*
X210100D01*
X200100D02*
Y126200D01*
X200900D01*
Y126600D01*
X201300D01*
Y127400D01*
X200900D01*
Y127800D01*
X200100D01*
Y127400D01*
X199700D01*
Y126600D01*
X200100D01*
X190100D02*
Y126200D01*
X190900D01*
Y126600D01*
X191300D01*
Y127400D01*
X190900D01*
Y127800D01*
X190100D01*
Y127400D01*
X189700D01*
Y126600D01*
X190100D01*
X180100D02*
Y126200D01*
X180900D01*
Y126600D01*
X181300D01*
Y127400D01*
X180900D01*
Y127800D01*
X180100D01*
Y127400D01*
X179700D01*
Y126600D01*
X180100D01*
Y156600D02*
Y156200D01*
X180900D01*
Y156600D01*
X181300D01*
Y157400D01*
X180900D01*
Y157800D01*
X180100D01*
Y157400D01*
X179700D01*
Y156600D01*
X180100D01*
X190100D02*
Y156200D01*
X190900D01*
Y156600D01*
X191300D01*
Y157400D01*
X190900D01*
Y157800D01*
X190100D01*
Y157400D01*
X189700D01*
Y156600D01*
X190100D01*
X200100D02*
Y156200D01*
X200900D01*
Y156600D01*
X201300D01*
Y157400D01*
X200900D01*
Y157800D01*
X200100D01*
Y157400D01*
X199700D01*
Y156600D01*
X200100D01*
X210100D02*
Y156200D01*
X210900D01*
Y156600D01*
X211300D01*
Y157400D01*
X210900D01*
Y157800D01*
X210100D01*
Y157400D01*
X209700D01*
Y156600D01*
X210100D01*
X155700Y122216D02*
X156500Y123017D01*
X157300Y122216D01*
X156500Y121416D01*
X155700Y122216D01*
Y86783D02*
X156500Y87584D01*
X157300Y86783D01*
X156500Y85984D01*
X155700Y86783D01*
X174000Y183858D02*
X174400Y184257D01*
X174800D01*
X174400Y184658D01*
X174800Y185057D01*
X174400D01*
X174000Y185458D01*
X173600Y185057D01*
X173200D01*
X173600Y184658D01*
X173200Y184257D01*
X173600D01*
X174000Y183858D01*
Y203542D02*
X174400Y203942D01*
X174800D01*
X174400Y204343D01*
X174800Y204743D01*
X174400D01*
X174000Y205142D01*
X173600Y204743D01*
X173200D01*
X173600Y204343D01*
X173200Y203942D01*
X173600D01*
X174000Y203542D01*
X133200Y87283D02*
X134000Y88083D01*
X134800Y87283D01*
X134000Y86484D01*
X133200Y87283D01*
Y122716D02*
X134000Y123516D01*
X134800Y122716D01*
X134000Y121916D01*
X133200Y122716D01*
X49700Y217200D02*
X50100Y218000D01*
X49700Y218800D01*
X50500Y218400D01*
X51300Y218800D01*
X50900Y218000D01*
X51300Y217200D01*
X50500Y217600D01*
X49700Y217200D01*
X59700D02*
X60100Y218000D01*
X59700Y218800D01*
X60500Y218400D01*
X61300Y218800D01*
X60900Y218000D01*
X61300Y217200D01*
X60500Y217600D01*
X59700Y217200D01*
X51149Y63000D02*
X51949Y63800D01*
X52749Y63000D01*
X51949Y62200D01*
X51149Y63000D01*
X32251D02*
X33051Y63800D01*
X33851Y63000D01*
X33051Y62200D01*
X32251Y63000D01*
X105917Y57000D02*
X106717Y57800D01*
X107517Y57000D01*
X106717Y56200D01*
X105917Y57000D01*
X70483D02*
X71284Y57800D01*
X72083Y57000D01*
X71284Y56200D01*
X70483Y57000D01*
X98843Y72200D02*
X99243Y72600D01*
X99642D01*
X99243Y73000D01*
X99642Y73400D01*
X99243D01*
X98843Y73800D01*
X98443Y73400D01*
X98043D01*
X98443Y73000D01*
X98043Y72600D01*
X98443D01*
X98843Y72200D01*
X79158D02*
X79558Y72600D01*
X79957D01*
X79558Y73000D01*
X79957Y73400D01*
X79558D01*
X79158Y73800D01*
X78758Y73400D01*
X78357D01*
X78758Y73000D01*
X78357Y72600D01*
X78758D01*
X79158Y72200D01*
X20200Y88784D02*
X21000Y89583D01*
X21800Y88784D01*
X21000Y87984D01*
X20200Y88784D01*
Y124216D02*
X21000Y125016D01*
X21800Y124216D01*
X21000Y123416D01*
X20200Y124216D01*
X69600Y201600D02*
Y201200D01*
X70400D01*
Y201600D01*
X70800D01*
Y202400D01*
X70400D01*
Y202800D01*
X69600D01*
Y202400D01*
X69200D01*
Y201600D01*
X69600D01*
X39600D02*
Y201200D01*
X40400D01*
Y201600D01*
X40800D01*
Y202400D01*
X40400D01*
Y202800D01*
X39600D01*
Y202400D01*
X39200D01*
Y201600D01*
X39600D01*
X49600D02*
Y201200D01*
X50400D01*
Y201600D01*
X50800D01*
Y202400D01*
X50400D01*
Y202800D01*
X49600D01*
Y202400D01*
X49200D01*
Y201600D01*
X49600D01*
X59600D02*
Y201200D01*
X60400D01*
Y201600D01*
X60800D01*
Y202400D01*
X60400D01*
Y202800D01*
X59600D01*
Y202400D01*
X59200D01*
Y201600D01*
X59600D01*
X139600Y141600D02*
Y141200D01*
X140400D01*
Y141600D01*
X140800D01*
Y142400D01*
X140400D01*
Y142800D01*
X139600D01*
Y142400D01*
X139200D01*
Y141600D01*
X139600D01*
X149600D02*
Y141200D01*
X150400D01*
Y141600D01*
X150800D01*
Y142400D01*
X150400D01*
Y142800D01*
X149600D01*
Y142400D01*
X149200D01*
Y141600D01*
X149600D01*
Y201600D02*
Y201200D01*
X150400D01*
Y201600D01*
X150800D01*
Y202400D01*
X150400D01*
Y202800D01*
X149600D01*
Y202400D01*
X149200D01*
Y201600D01*
X149600D01*
X139600D02*
Y201200D01*
X140400D01*
Y201600D01*
X140800D01*
Y202400D01*
X140400D01*
Y202800D01*
X139600D01*
Y202400D01*
X139200D01*
Y201600D01*
X139600D01*
X129600D02*
Y201200D01*
X130400D01*
Y201600D01*
X130800D01*
Y202400D01*
X130400D01*
Y202800D01*
X129600D01*
Y202400D01*
X129200D01*
Y201600D01*
X129600D01*
X119600D02*
Y201200D01*
X120400D01*
Y201600D01*
X120800D01*
Y202400D01*
X120400D01*
Y202800D01*
X119600D01*
Y202400D01*
X119200D01*
Y201600D01*
X119600D01*
X109600D02*
Y201200D01*
X110400D01*
Y201600D01*
X110800D01*
Y202400D01*
X110400D01*
Y202800D01*
X109600D01*
Y202400D01*
X109200D01*
Y201600D01*
X109600D01*
X99600D02*
Y201200D01*
X100400D01*
Y201600D01*
X100800D01*
Y202400D01*
X100400D01*
Y202800D01*
X99600D01*
Y202400D01*
X99200D01*
Y201600D01*
X99600D01*
X89600D02*
Y201200D01*
X90400D01*
Y201600D01*
X90800D01*
Y202400D01*
X90400D01*
Y202800D01*
X89600D01*
Y202400D01*
X89200D01*
Y201600D01*
X89600D01*
X79600D02*
Y201200D01*
X80400D01*
Y201600D01*
X80800D01*
Y202400D01*
X80400D01*
Y202800D01*
X79600D01*
Y202400D01*
X79200D01*
Y201600D01*
X79600D01*
X129600Y141600D02*
Y141200D01*
X130400D01*
Y141600D01*
X130800D01*
Y142400D01*
X130400D01*
Y142800D01*
X129600D01*
Y142400D01*
X129200D01*
Y141600D01*
X129600D01*
X119600D02*
Y141200D01*
X120400D01*
Y141600D01*
X120800D01*
Y142400D01*
X120400D01*
Y142800D01*
X119600D01*
Y142400D01*
X119200D01*
Y141600D01*
X119600D01*
X109600D02*
Y141200D01*
X110400D01*
Y141600D01*
X110800D01*
Y142400D01*
X110400D01*
Y142800D01*
X109600D01*
Y142400D01*
X109200D01*
Y141600D01*
X109600D01*
X99600D02*
Y141200D01*
X100400D01*
Y141600D01*
X100800D01*
Y142400D01*
X100400D01*
Y142800D01*
X99600D01*
Y142400D01*
X99200D01*
Y141600D01*
X99600D01*
X89600D02*
Y141200D01*
X90400D01*
Y141600D01*
X90800D01*
Y142400D01*
X90400D01*
Y142800D01*
X89600D01*
Y142400D01*
X89200D01*
Y141600D01*
X89600D01*
X79600D02*
Y141200D01*
X80400D01*
Y141600D01*
X80800D01*
Y142400D01*
X80400D01*
Y142800D01*
X79600D01*
Y142400D01*
X79200D01*
Y141600D01*
X79600D01*
X69600D02*
Y141200D01*
X70400D01*
Y141600D01*
X70800D01*
Y142400D01*
X70400D01*
Y142800D01*
X69600D01*
Y142400D01*
X69200D01*
Y141600D01*
X69600D01*
X59600D02*
Y141200D01*
X60400D01*
Y141600D01*
X60800D01*
Y142400D01*
X60400D01*
Y142800D01*
X59600D01*
Y142400D01*
X59200D01*
Y141600D01*
X59600D01*
X49600D02*
Y141200D01*
X50400D01*
Y141600D01*
X50800D01*
Y142400D01*
X50400D01*
Y142800D01*
X49600D01*
Y142400D01*
X49200D01*
Y141600D01*
X49600D01*
X39600D02*
Y141200D01*
X40400D01*
Y141600D01*
X40800D01*
Y142400D01*
X40400D01*
Y142800D01*
X39600D01*
Y142400D01*
X39200D01*
Y141600D01*
X39600D01*
X38100Y90600D02*
Y90200D01*
X38900D01*
Y90600D01*
X39300D01*
Y91400D01*
X38900D01*
Y91800D01*
X38100D01*
Y91400D01*
X37700D01*
Y90600D01*
X38100D01*
X48100D02*
Y90200D01*
X48900D01*
Y90600D01*
X49300D01*
Y91400D01*
X48900D01*
Y91800D01*
X48100D01*
Y91400D01*
X47700D01*
Y90600D01*
X48100D01*
X58100D02*
Y90200D01*
X58900D01*
Y90600D01*
X59300D01*
Y91400D01*
X58900D01*
Y91800D01*
X58100D01*
Y91400D01*
X57700D01*
Y90600D01*
X58100D01*
X68100D02*
Y90200D01*
X68900D01*
Y90600D01*
X69300D01*
Y91400D01*
X68900D01*
Y91800D01*
X68100D01*
Y91400D01*
X67700D01*
Y90600D01*
X68100D01*
X78100D02*
Y90200D01*
X78900D01*
Y90600D01*
X79300D01*
Y91400D01*
X78900D01*
Y91800D01*
X78100D01*
Y91400D01*
X77700D01*
Y90600D01*
X78100D01*
X88100D02*
Y90200D01*
X88900D01*
Y90600D01*
X89300D01*
Y91400D01*
X88900D01*
Y91800D01*
X88100D01*
Y91400D01*
X87700D01*
Y90600D01*
X88100D01*
X98100D02*
Y90200D01*
X98900D01*
Y90600D01*
X99300D01*
Y91400D01*
X98900D01*
Y91800D01*
X98100D01*
Y91400D01*
X97700D01*
Y90600D01*
X98100D01*
X38100Y120600D02*
Y120200D01*
X38900D01*
Y120600D01*
X39300D01*
Y121400D01*
X38900D01*
Y121800D01*
X38100D01*
Y121400D01*
X37700D01*
Y120600D01*
X38100D01*
X48100D02*
Y120200D01*
X48900D01*
Y120600D01*
X49300D01*
Y121400D01*
X48900D01*
Y121800D01*
X48100D01*
Y121400D01*
X47700D01*
Y120600D01*
X48100D01*
X58100D02*
Y120200D01*
X58900D01*
Y120600D01*
X59300D01*
Y121400D01*
X58900D01*
Y121800D01*
X58100D01*
Y121400D01*
X57700D01*
Y120600D01*
X58100D01*
X68100D02*
Y120200D01*
X68900D01*
Y120600D01*
X69300D01*
Y121400D01*
X68900D01*
Y121800D01*
X68100D01*
Y121400D01*
X67700D01*
Y120600D01*
X68100D01*
X78100D02*
Y120200D01*
X78900D01*
Y120600D01*
X79300D01*
Y121400D01*
X78900D01*
Y121800D01*
X78100D01*
Y121400D01*
X77700D01*
Y120600D01*
X78100D01*
X88100D02*
Y120200D01*
X88900D01*
Y120600D01*
X89300D01*
Y121400D01*
X88900D01*
Y121800D01*
X88100D01*
Y121400D01*
X87700D01*
Y120600D01*
X88100D01*
X98100D02*
Y120200D01*
X98900D01*
Y120600D01*
X99300D01*
Y121400D01*
X98900D01*
Y121800D01*
X98100D01*
Y121400D01*
X97700D01*
Y120600D01*
X98100D01*
X44283Y17180D02*
Y18780D01*
X45883D01*
Y17180D01*
X44283D01*
X44683Y17580D02*
Y18380D01*
X45483D01*
Y17580D01*
X44683D01*
X73417Y17180D02*
Y18780D01*
X75016D01*
Y17180D01*
X73417D01*
X73817Y17580D02*
Y18380D01*
X74616D01*
Y17580D01*
X73817D01*
X20200Y185784D02*
X21000Y186583D01*
X21800Y185784D01*
X21000Y184984D01*
X20200Y185784D01*
Y221217D02*
X21000Y222017D01*
X21800Y221217D01*
X21000Y220416D01*
X20200Y221217D01*
Y150200D02*
X20600Y151000D01*
X20200Y151800D01*
X21000Y151400D01*
X21800Y151800D01*
X21400Y151000D01*
X21800Y150200D01*
X21000Y150600D01*
X20200Y150200D01*
Y140200D02*
X20600Y141000D01*
X20200Y141800D01*
X21000Y141400D01*
X21800Y141800D01*
X21400Y141000D01*
X21800Y140200D01*
X21000Y140600D01*
X20200Y140200D01*
X124885Y39200D02*
X125285D01*
X125685Y39600D01*
X126085Y39200D01*
X126485D01*
Y39600D01*
X126085Y40000D01*
X126485Y40400D01*
Y40800D01*
X126085D01*
X125685Y40400D01*
X125285Y40800D01*
X124885D01*
Y40400D01*
X125285Y40000D01*
X124885Y39600D01*
Y39200D01*
X105200D02*
X105600D01*
X106000Y39600D01*
X106400Y39200D01*
X106800D01*
Y39600D01*
X106400Y40000D01*
X106800Y40400D01*
Y40800D01*
X106400D01*
X106000Y40400D01*
X105600Y40800D01*
X105200D01*
Y40400D01*
X105600Y40000D01*
X105200Y39600D01*
Y39200D01*
X134728D02*
X135128D01*
X135528Y39600D01*
X135928Y39200D01*
X136328D01*
Y39600D01*
X135928Y40000D01*
X136328Y40400D01*
Y40800D01*
X135928D01*
X135528Y40400D01*
X135128Y40800D01*
X134728D01*
Y40400D01*
X135128Y40000D01*
X134728Y39600D01*
Y39200D01*
X95358D02*
X95758D01*
X96157Y39600D01*
X96557Y39200D01*
X96957D01*
Y39600D01*
X96557Y40000D01*
X96957Y40400D01*
Y40800D01*
X96557D01*
X96157Y40400D01*
X95758Y40800D01*
X95358D01*
Y40400D01*
X95758Y40000D01*
X95358Y39600D01*
Y39200D01*
X115042Y19515D02*
X115443D01*
X115842Y19915D01*
X116243Y19515D01*
X116642D01*
Y19915D01*
X116243Y20315D01*
X116642Y20715D01*
Y21115D01*
X116243D01*
X115842Y20715D01*
X115443Y21115D01*
X115042D01*
Y20715D01*
X115443Y20315D01*
X115042Y19915D01*
Y19515D01*
X134728D02*
X135128D01*
X135528Y19915D01*
X135928Y19515D01*
X136328D01*
Y19915D01*
X135928Y20315D01*
X136328Y20715D01*
Y21115D01*
X135928D01*
X135528Y20715D01*
X135128Y21115D01*
X134728D01*
Y20715D01*
X135128Y20315D01*
X134728Y19915D01*
Y19515D01*
X96157D02*
X95358Y21115D01*
X96957D01*
X96157Y19515D01*
Y19915D02*
X95758Y20715D01*
X96557D01*
X96157Y19915D01*
Y9672D02*
X95358Y11272D01*
X96957D01*
X96157Y9672D01*
Y10072D02*
X95758Y10872D01*
X96557D01*
X96157Y10072D01*
X135528Y9672D02*
X134728Y11272D01*
X136328D01*
X135528Y9672D01*
Y10072D02*
X135128Y10872D01*
X135928D01*
X135528Y10072D01*
X115842Y39200D02*
X115042Y40800D01*
X116642D01*
X115842Y39200D01*
Y39600D02*
X115443Y40400D01*
X116243D01*
X115842Y39600D01*
X167500Y126700D02*
X167900Y127100D01*
X168300D01*
X167900Y127500D01*
X168300Y127900D01*
X167900D01*
X167500Y128300D01*
X167100Y127900D01*
X166700D01*
X167100Y127500D01*
X166700Y127100D01*
X167100D01*
X167500Y126700D01*
Y127100D02*
X167700Y127300D01*
X167900D01*
X167700Y127500D01*
X167900Y127700D01*
X167700D01*
X167500Y127900D01*
X167300Y127700D01*
X167100D01*
X167300Y127500D01*
X167100Y127300D01*
X167300D01*
X167500Y127100D01*
D60*
X206879Y238910D02*
X206326Y239670D01*
X205432Y239380D01*
Y238439D01*
X206326Y238149D01*
X206879Y238910D01*
X21682D02*
X21129Y239670D01*
X20235Y239380D01*
Y238439D01*
X21129Y238149D01*
X21682Y238910D01*
X54150Y40224D02*
X53598Y40985D01*
X52703Y40695D01*
Y39754D01*
X53598Y39464D01*
X54150Y40224D01*
X57300Y35500D02*
X56747Y36261D01*
X55853Y35970D01*
Y35030D01*
X56747Y34739D01*
X57300Y35500D01*
X60450Y40224D02*
X59897Y40985D01*
X59002Y40695D01*
Y39754D01*
X59897Y39464D01*
X60450Y40224D01*
X63599Y35500D02*
X63046Y36261D01*
X62152Y35970D01*
Y35030D01*
X63046Y34739D01*
X63599Y35500D01*
X66749Y40224D02*
X66196Y40985D01*
X65302Y40695D01*
Y39754D01*
X66196Y39464D01*
X66749Y40224D01*
D61*
X53750D02*
X53150Y40571D01*
Y39878D01*
X53750Y40224D01*
X56900Y35500D02*
X56300Y35846D01*
Y35154D01*
X56900Y35500D01*
X60050Y40224D02*
X59450Y40571D01*
Y39878D01*
X60050Y40224D01*
X63199Y35500D02*
X62599Y35846D01*
Y35154D01*
X63199Y35500D01*
X66349Y40224D02*
X65749Y40571D01*
Y39878D01*
X66349Y40224D01*
M02*
